<!DOCTYPE svg PUBLIC "-//W3C//DTD SVG 20010904//EN" "http://www.w3.org/TR/2001/REC-SVG-20010904/DTD/svg10.dtd">
<svg version="1.0" xmlns="http://www.w3.org/2000/svg" width="800px" height="600px" viewBox="0 0 8000 6000" preserveAspectRatio="xMidYMid meet">
<g id="layer1" fill="#b43295" stroke="none">
 <path d="M6408 2351 c-32 -49 -58 -95 -58 -101 0 -17 114 -190 125 -190 11 0 125 173 125 190 0 17 -114 190 -125 190 -5 0 -36 -40 -67 -89z"/>
 <path d="M3665 1805 l-50 -45 50 -45 c27 -25 54 -45 60 -45 6 0 33 20 60 45 l50 45 -50 45 c-27 25 -54 45 -60 45 -6 0 -33 -20 -60 -45z"/>
 <path d="M7200 1785 l-44 -45 44 -45 c24 -25 49 -45 55 -45 6 0 31 20 55 45 l44 45 -44 45 c-24 25 -49 45 -55 45 -6 0 -31 -20 -55 -45z"/>
 <path d="M7081 478 c-17 -23 -31 -47 -31 -53 0 -15 59 -95 70 -95 11 0 70 80 70 95 0 15 -59 95 -70 95 -5 0 -22 -19 -39 -42z"/>
 <path d="M1614 445 l-39 -35 39 -35 c22 -19 45 -35 51 -35 6 0 29 16 51 35 l39 35 -39 35 c-22 19 -45 35 -51 35 -6 0 -29 -16 -51 -35z"/>
 <path d="M1230 255 l-23 -25 23 -25 c13 -14 29 -25 35 -25 6 0 22 11 35 25 l23 25 -23 25 c-13 14 -29 25 -35 25 -6 0 -22 -11 -35 -25z"/>
 </g>
<g id="layer2" fill="#ffffff" stroke="none">
 <path d="M6347 3272 c-22 -25 -21 -45 3 -67 19 -17 21 -17 40 0 25 23 26 47 2 68 -23 21 -25 21 -45 -1z"/>
 <path d="M6783 3235 c-13 -19 -23 -39 -23 -45 0 -16 44 -80 55 -80 11 0 55 64 55 80 0 16 -44 80 -55 80 -5 0 -20 -16 -32 -35z"/>
 <path d="M7025 3083 c-16 -24 -16 -28 -2 -52 9 -14 23 -26 32 -26 9 0 23 12 32 26 14 24 14 28 -2 52 -9 15 -23 27 -30 27 -7 0 -21 -12 -30 -27z"/>
 <path d="M391 2661 c-27 -37 -26 -49 4 -86 l25 -30 25 30 c14 17 25 36 25 43 0 17 -38 72 -50 72 -5 0 -18 -13 -29 -29z"/>
 <path d="M577 2512 c-35 -36 -34 -52 3 -87 l30 -29 30 29 c17 16 30 36 30 45 0 15 -48 70 -61 70 -3 0 -17 -13 -32 -28z"/>
 <path d="M4778 2433 c-16 -20 -28 -42 -28 -48 0 -16 53 -84 65 -84 12 0 65 68 65 84 0 16 -53 84 -65 84 -5 0 -22 -16 -37 -36z"/>
 <path d="M7874 2305 c-18 -34 -18 -36 0 -70 11 -19 24 -35 31 -35 7 0 20 16 31 35 18 34 18 36 0 70 -11 19 -24 35 -31 35 -7 0 -20 -16 -31 -35z"/>
 <path d="M2438 1756 c-16 -19 -28 -40 -28 -46 0 -15 53 -80 65 -80 12 0 65 65 65 80 0 15 -53 80 -65 80 -5 0 -22 -16 -37 -34z"/>
 <path d="M1610 1510 c-10 -24 -10 -36 0 -60 7 -16 18 -30 25 -30 7 0 18 14 25 30 10 24 10 36 0 60 -7 17 -18 30 -25 30 -7 0 -18 -13 -25 -30z"/>
 <path d="M1805 1457 c-17 -33 -17 -35 1 -65 10 -18 23 -32 29 -32 6 0 19 14 29 32 18 30 18 32 1 65 -10 18 -23 33 -30 33 -7 0 -20 -15 -30 -33z"/>
 <path d="M4905 1401 c-7 -23 3 -51 20 -51 7 0 16 7 19 16 9 23 -2 54 -19 54 -8 0 -16 -8 -20 -19z"/>
 <path d="M7620 1275 l-24 -26 27 -27 27 -27 27 27 27 27 -24 26 c-13 14 -26 25 -30 25 -4 0 -17 -11 -30 -25z"/>
 <path d="M7200 1245 c-10 -12 -10 -18 0 -30 7 -8 18 -15 25 -15 7 0 18 7 25 15 10 12 10 18 0 30 -7 8 -18 15 -25 15 -7 0 -18 -7 -25 -15z"/>
 <path d="M1062 977 c-28 -30 -28 -38 3 -67 l25 -23 25 23 c31 29 31 41 2 68 -29 27 -29 27 -55 -1z"/>
 <path d="M7097 972 c-22 -25 -21 -45 3 -67 19 -17 21 -17 40 0 25 23 26 47 2 68 -23 21 -25 21 -45 -1z"/>
 <path d="M4541 881 c-27 -37 -26 -49 4 -86 l25 -30 25 30 c14 17 25 36 25 43 0 17 -38 72 -50 72 -5 0 -18 -13 -29 -29z"/>
 </g>
<g id="layer3" fill="#5d6ea7" stroke="none">
 <path d="M1405 4641 c-60 -81 -110 -156 -110 -166 0 -21 215 -314 230 -314 15 0 230 293 230 314 0 21 -215 314 -230 314 -5 0 -59 -66 -120 -148z"/>
 <path d="M2896 4483 c-69 -82 -126 -152 -126 -158 0 -13 249 -305 260 -305 11 0 260 292 260 305 0 13 -249 305 -260 305 -5 0 -65 -66 -134 -147z"/>
 <path d="M6186 4483 c-64 -76 -116 -142 -116 -148 0 -13 229 -285 240 -285 11 0 240 272 240 285 0 14 -229 285 -240 285 -5 0 -61 -62 -124 -137z"/>
 <path d="M6693 3807 c-24 -34 -43 -67 -43 -72 0 -16 84 -135 95 -135 11 0 95 119 95 135 0 16 -84 135 -95 135 -5 0 -29 -29 -52 -63z"/>
 </g>
<g id="layer4" fill="#768acd" stroke="none">
 <path d="M7663 4651 c-68 -71 -123 -134 -123 -140 0 -14 242 -271 255 -271 6 0 54 47 108 104 l97 105 0 61 0 61 -97 105 c-54 57 -102 104 -108 104 -5 0 -65 -58 -132 -129z"/>
 <path d="M580 4568 c-62 -86 -109 -160 -107 -169 6 -21 217 -309 227 -309 10 0 221 288 227 309 4 16 -212 321 -227 321 -5 0 -58 -69 -120 -152z"/>
 <path d="M7162 4367 c-18 -29 -32 -57 -32 -62 0 -17 64 -115 75 -115 11 0 75 98 75 115 0 17 -64 115 -75 115 -6 0 -25 -24 -43 -53z"/>
 <path d="M5851 4301 c-44 -55 -81 -105 -81 -111 0 -14 159 -210 170 -210 11 0 170 196 170 210 0 14 -159 210 -170 210 -4 0 -44 -45 -89 -99z"/>
 <path d="M1822 4267 c-29 -29 -52 -59 -52 -68 0 -8 25 -39 55 -69 l55 -54 55 54 c30 30 55 61 55 70 0 14 -98 120 -111 120 -2 0 -28 -24 -57 -53z"/>
 <path d="M5375 4121 c-44 -60 -80 -116 -80 -126 0 -21 155 -234 170 -234 15 0 170 213 170 234 0 21 -155 234 -170 234 -5 0 -46 -48 -90 -108z"/>
 <path d="M2171 3738 c-39 -46 -71 -87 -71 -93 0 -13 139 -175 150 -175 11 0 150 162 150 175 0 13 -139 175 -150 175 -5 0 -40 -37 -79 -82z"/>
 </g>

</svg>