<!DOCTYPE svg PUBLIC "-//W3C//DTD SVG 20010904//EN" "http://www.w3.org/TR/2001/REC-SVG-20010904/DTD/svg10.dtd">
<svg version="1.0" xmlns="http://www.w3.org/2000/svg" width="226px" height="753px" viewBox="0 0 2260 7530" preserveAspectRatio="xMidYMid meet">
<g id="layer1" fill="#020107" stroke="none">
 <path d="M1114 7211 c-85 -39 -107 -109 -124 -386 -17 -259 -39 -340 -130 -475 -20 -30 -46 -73 -57 -95 -12 -22 -46 -85 -77 -140 -30 -54 -65 -126 -76 -160 -29 -85 -37 -232 -17 -312 18 -70 74 -186 121 -253 53 -75 133 -222 150 -275 13 -42 17 -156 25 -695 l9 -644 -24 -29 c-23 -28 -25 -36 -23 -134 2 -80 6 -109 19 -126 9 -12 19 -30 23 -39 3 -10 7 -158 7 -329 2 -302 1 -312 -19 -333 -30 -32 -31 -188 -1 -246 19 -37 20 -59 20 -371 l0 -332 -167 8 c-250 13 -260 12 -331 -20 -111 -50 -129 -99 -60 -166 77 -75 100 -80 358 -84 185 -4 286 -17 311 -42 5 -5 11 -177 15 -383 6 -394 -1 -551 -30 -592 -10 -14 -16 -44 -16 -81 0 -48 4 -62 24 -82 32 -32 75 -38 229 -33 127 5 131 6 154 32 32 37 31 107 -1 167 -22 42 -23 58 -30 311 -4 147 -5 357 -1 467 l8 201 36 5 c20 3 72 12 116 20 50 10 140 15 241 15 157 0 162 1 200 26 63 42 124 106 124 131 0 25 -39 57 -120 99 -61 31 -46 30 -347 19 l-173 -7 -1 204 c-1 111 -1 262 1 333 2 122 3 131 25 150 29 25 34 54 25 155 -6 68 -11 85 -34 108 l-26 28 0 314 0 314 26 21 c26 20 26 24 27 144 2 121 1 123 -25 146 l-26 23 -7 578 c-5 403 -4 602 4 656 13 95 50 189 112 289 85 137 149 276 159 348 18 126 8 231 -34 352 -24 69 -37 92 -175 299 -124 186 -137 218 -145 338 -3 56 -13 153 -22 215 -9 61 -17 119 -18 127 -25 184 -119 274 -232 221z m130 -96 c9 -13 16 -30 16 -37 -1 -23 -196 -223 -202 -207 -9 24 18 131 35 141 10 5 17 13 17 18 0 14 93 110 106 110 7 0 19 -11 28 -25z m45 -177 l14 -55 -39 -41 c-72 -76 -93 -97 -152 -154 -32 -32 -62 -58 -65 -58 -14 0 -6 103 9 136 9 19 52 71 95 115 44 44 79 83 79 87 0 13 24 32 35 29 5 -2 16 -28 24 -59z m21 -198 c0 -44 -4 -53 -36 -82 -20 -18 -41 -36 -48 -40 -18 -10 -86 2 -86 16 0 18 149 168 160 161 6 -3 10 -28 10 -55z m8 -191 c12 -5 22 -16 22 -25 0 -32 59 -142 129 -241 87 -124 142 -227 172 -323 43 -135 27 -368 -31 -450 -9 -14 -27 -46 -38 -72 -11 -26 -34 -67 -49 -90 -16 -24 -45 -79 -63 -123 -19 -44 -37 -84 -41 -90 -19 -27 -30 -161 -34 -427 l-5 -293 -183 -6 c-100 -3 -186 -1 -192 3 -6 6 -10 132 -11 336 l-2 327 -35 76 c-19 42 -69 135 -110 205 -128 220 -157 299 -157 428 0 45 9 94 29 155 27 85 53 135 165 324 101 170 127 218 132 247 8 39 21 48 74 52 65 4 201 -3 228 -13z m61 -2215 c2 -1 6 -129 9 -283 l5 -281 -185 0 -186 0 -6 78 c-3 42 -8 168 -12 278 l-6 202 123 10 c107 8 246 6 258 -4z m49 -631 l32 -5 0 -79 c0 -43 -4 -80 -8 -83 -5 -3 -44 -8 -88 -12 -76 -6 -93 -7 -159 -5 -16 1 -71 -1 -121 -5 -132 -9 -136 -6 -132 107 l3 90 220 -1 c121 -1 235 -4 253 -7z m-38 -563 l0 -320 -179 0 -179 0 -6 58 c-6 60 -11 378 -8 499 l2 72 123 4 c67 1 150 4 185 5 l62 2 0 -320z m72 -461 c5 -103 12 -97 -110 -93 -59 3 -149 -1 -201 -7 -51 -6 -115 -8 -142 -4 l-49 7 0 77 c0 43 2 80 4 82 2 2 115 4 249 4 l246 0 3 -66z m-63 -166 c3 -4 4 -123 1 -263 l-5 -255 -190 0 -190 0 -3 262 -2 262 67 4 c98 6 315 -1 322 -10z m-20 -579 c25 -5 31 -11 31 -33 0 -45 -13 -55 -67 -48 -26 3 -70 13 -96 22 -32 11 -53 13 -60 7 -17 -14 -118 -35 -147 -31 -21 3 -26 10 -28 41 l-3 37 148 4 c81 1 158 4 169 5 12 1 36 -1 53 -4z m-211 -177 l3 -39 -53 6 c-70 8 -300 24 -467 32 -94 5 -129 10 -116 16 11 7 52 6 118 -2 118 -15 341 -7 427 14 77 20 84 17 88 -27z m277 22 c73 -6 177 -8 265 -3 166 9 210 9 248 -1 21 -5 23 -8 12 -15 -18 -10 -696 -44 -710 -35 -9 6 -5 47 8 68 2 5 16 6 31 3 14 -4 80 -11 146 -17z m-735 -109 l95 -7 -130 0 c-71 -1 -141 3 -155 7 -32 10 58 11 190 0z m1225 -7 c-24 -13 -60 -16 -190 -15 -88 1 -189 -3 -225 -9 -36 -5 -96 -13 -135 -19 -38 -5 -85 -12 -104 -16 -29 -6 -33 -5 -29 12 4 22 19 24 403 43 132 7 245 14 250 16 6 2 21 4 35 4 25 0 25 0 -5 -16z m-832 -13 c65 0 67 -1 67 -25 0 -29 4 -29 -85 -9 -38 9 -104 22 -145 30 l-75 13 85 -4 c47 -3 115 -5 153 -5z m209 -601 c3 -443 4 -468 22 -488 11 -12 16 -24 12 -28 -9 -9 -175 -8 -204 1 -17 6 -20 11 -13 24 5 10 8 215 6 481 -2 256 -2 467 0 470 2 3 42 6 88 7 l85 0 4 -467z m26 -601 c-31 -8 -189 -8 -210 0 -10 4 39 7 108 7 69 0 115 -3 102 -7z"/>
 <path d="M1131 4161 c-34 -32 -38 -59 -21 -123 27 -95 143 -92 179 5 18 47 13 68 -28 108 -49 49 -85 52 -130 10z m95 -63 c3 -11 3 -31 0 -44 -9 -36 -47 -29 -58 11 -13 52 41 85 58 33z"/>
 <path d="M1180 2289 c-49 -19 -60 -38 -60 -100 0 -54 2 -59 33 -77 60 -38 120 -33 147 11 30 49 26 91 -12 131 -37 38 -71 49 -108 35z m62 -66 c25 -30 28 -51 9 -75 -17 -20 -21 -21 -44 -9 -15 8 -31 28 -37 45 -9 26 -8 33 7 43 24 18 47 16 65 -4z"/>
 </g>
<g id="layer2" fill="#120f4c" stroke="none">
 <path d="M1037 6773 c-4 -3 -7 -15 -7 -26 0 -16 3 -17 15 -7 8 7 15 19 15 26 0 15 -12 19 -23 7z"/>
 <path d="M1130 6575 c0 -8 7 -15 15 -15 8 0 15 7 15 15 0 8 -7 15 -15 15 -8 0 -15 -7 -15 -15z"/>
 <path d="M1020 6558 c-24 -26 -26 -38 -5 -38 8 0 15 7 15 15 0 8 7 15 15 15 8 0 15 7 15 15 0 21 -16 19 -40 -7z"/>
 <path d="M1270 6565 c0 -8 7 -15 15 -15 8 0 15 7 15 15 0 8 -7 15 -15 15 -8 0 -15 -7 -15 -15z"/>
 <path d="M1330 6530 c0 -5 7 -10 15 -10 8 0 15 5 15 10 0 6 -7 10 -15 10 -8 0 -15 -4 -15 -10z"/>
 <path d="M1340 6490 c0 -5 7 -10 15 -10 8 0 15 5 15 10 0 6 -7 10 -15 10 -8 0 -15 -4 -15 -10z"/>
 <path d="M954 6408 c-9 -18 -30 -52 -46 -76 -29 -42 -32 -74 -3 -36 25 34 77 135 72 141 -3 3 -13 -10 -23 -29z"/>
 <path d="M1412 6359 c2 -7 10 -15 17 -17 8 -3 12 1 9 9 -2 7 -10 15 -17 17 -8 3 -12 -1 -9 -9z"/>
 <path d="M1490 6255 c0 -11 92 -146 97 -141 7 6 -79 146 -89 146 -5 0 -8 -2 -8 -5z"/>
 <path d="M825 6193 c-14 -31 -36 -71 -48 -88 -30 -41 -53 -89 -77 -159 -24 -70 -23 -66 -7 -66 8 0 23 32 37 78 13 42 29 84 35 92 6 8 26 44 45 80 18 36 39 72 46 81 16 18 18 39 5 39 -5 0 -21 -26 -36 -57z"/>
 <path d="M1614 6024 c3 -9 6 -20 6 -25 0 -5 7 -9 16 -9 11 0 14 5 10 16 -3 9 -6 20 -6 25 0 5 -7 9 -16 9 -11 0 -14 -5 -10 -16z"/>
 <path d="M1640 5940 c0 -5 7 -10 15 -10 8 0 15 5 15 10 0 6 -7 10 -15 10 -8 0 -15 -4 -15 -10z"/>
 <path d="M1650 5900 c0 -5 7 -10 15 -10 8 0 15 5 15 10 0 6 -7 10 -15 10 -8 0 -15 -4 -15 -10z"/>
 <path d="M1660 5860 c0 -5 7 -10 15 -10 8 0 15 5 15 10 0 6 -7 10 -15 10 -8 0 -15 -4 -15 -10z"/>
 <path d="M670 5845 c0 -8 7 -15 15 -15 8 0 15 7 15 15 0 8 -7 15 -15 15 -8 0 -15 -7 -15 -15z"/>
 <path d="M1660 5725 c0 -8 7 -15 15 -15 8 0 15 7 15 15 0 8 -7 15 -15 15 -8 0 -15 -7 -15 -15z"/>
 <path d="M670 5715 c0 -8 7 -15 15 -15 8 0 15 7 15 15 0 8 -7 15 -15 15 -8 0 -15 -7 -15 -15z"/>
 <path d="M1650 5645 c0 -8 7 -15 15 -15 8 0 15 7 15 15 0 8 -7 15 -15 15 -8 0 -15 -7 -15 -15z"/>
 <path d="M690 5620 c0 -5 7 -10 15 -10 8 0 15 5 15 10 0 6 -7 10 -15 10 -8 0 -15 -4 -15 -10z"/>
 <path d="M1640 5600 c0 -5 7 -10 15 -10 8 0 15 5 15 10 0 6 -7 10 -15 10 -8 0 -15 -4 -15 -10z"/>
 <path d="M1632 5558 c-15 -15 -16 -38 -2 -38 12 0 23 25 18 40 -2 7 -7 7 -16 -2z"/>
 <path d="M750 5508 c0 -14 23 -58 32 -58 4 0 8 3 8 8 -1 9 -39 59 -40 50z"/>
 <path d="M1561 5415 c-23 -40 -25 -45 -13 -45 10 0 45 70 39 77 -3 2 -14 -12 -26 -32z"/>
 <path d="M800 5416 c0 -3 32 -60 70 -127 39 -68 70 -130 70 -138 0 -9 7 -25 15 -35 8 -11 15 -28 15 -38 0 -10 7 -18 16 -18 9 0 14 3 12 8 -2 4 -10 21 -17 37 -65 144 -181 343 -181 311z"/>
 <path d="M1466 5244 c-14 -25 -26 -52 -26 -60 0 -7 -4 -16 -10 -19 -15 -9 -12 -25 5 -25 8 0 15 7 15 15 0 8 4 23 9 33 22 43 41 95 38 99 -3 2 -16 -17 -31 -43z"/>
 <path d="M1390 5050 c0 -11 7 -20 15 -20 8 0 15 9 15 20 0 11 -7 20 -15 20 -8 0 -15 -9 -15 -20z"/>
 <path d="M970 4920 c0 -29 4 -40 15 -40 11 0 15 11 15 40 0 29 -4 40 -15 40 -11 0 -15 -11 -15 -40z"/>
 <path d="M1380 4840 c0 -47 3 -60 15 -60 12 0 15 13 15 60 0 47 -3 60 -15 60 -12 0 -15 -13 -15 -60z"/>
 <path d="M970 4580 c0 -56 3 -70 15 -70 12 0 15 14 15 70 0 56 -3 70 -15 70 -12 0 -15 -14 -15 -70z"/>
 <path d="M1380 4440 c0 -18 -7 -20 -80 -20 -64 0 -80 -3 -80 -15 0 -12 16 -15 80 -15 64 0 80 3 80 15 0 8 7 15 15 15 8 0 15 9 15 20 0 11 -7 20 -15 20 -8 0 -15 -9 -15 -20z"/>
 <path d="M1010 4395 c0 -9 9 -15 25 -15 16 0 25 6 25 15 0 9 -9 15 -25 15 -16 0 -25 -6 -25 -15z"/>
 <path d="M1123 4356 c-67 -6 -127 -16 -134 -23 -16 -16 4 -547 21 -568 19 -23 372 -22 390 0 10 12 12 77 7 296 -3 155 -9 285 -14 289 -15 14 -148 18 -270 6z m129 -216 c26 -26 30 -36 25 -67 -10 -58 -32 -83 -75 -83 -48 0 -60 9 -72 51 -16 53 -12 86 12 109 32 30 74 26 110 -10z"/>
 <path d="M950 3515 c0 -8 5 -15 10 -15 6 0 10 7 10 15 0 8 -4 15 -10 15 -5 0 -10 -7 -10 -15z"/>
 <path d="M1145 3471 l-140 -6 -6 -90 c-9 -147 5 -541 21 -560 11 -13 39 -15 199 -13 l186 3 0 335 0 335 -60 1 c-33 0 -123 -2 -200 -5z"/>
 <path d="M1140 2535 c0 -8 7 -15 15 -15 8 0 15 7 15 15 0 8 -7 15 -15 15 -8 0 -15 -7 -15 -15z"/>
 <path d="M1290 2535 c0 -8 7 -15 15 -15 8 0 15 7 15 15 0 8 -7 15 -15 15 -8 0 -15 -7 -15 -15z"/>
 <path d="M1390 2531 c0 -21 13 -41 26 -41 17 0 17 10 0 33 -14 19 -26 22 -26 8z"/>
 <path d="M990 2253 c1 -201 3 -252 15 -267 8 -11 16 -18 17 -15 2 2 2 122 0 267 -2 221 -5 262 -17 262 -13 0 -15 -38 -15 -247z"/>
 <path d="M1173 2293 c-20 -8 -15 -23 7 -23 11 0 20 7 20 15 0 15 -6 17 -27 8z"/>
 <path d="M1220 2285 c0 -8 5 -15 10 -15 6 0 10 7 10 15 0 8 -4 15 -10 15 -5 0 -10 -7 -10 -15z"/>
 <path d="M1112 2195 c1 -27 6 -45 13 -45 7 0 12 18 13 45 2 34 -1 45 -13 45 -12 0 -15 -11 -13 -45z"/>
 <path d="M1190 2095 c0 -8 7 -15 15 -15 8 0 15 7 15 15 0 8 -7 15 -15 15 -8 0 -15 -7 -15 -15z"/>
 <path d="M1080 1804 c-85 -21 -311 -29 -423 -15 -103 13 -167 4 -167 -24 0 -19 31 -23 260 -35 107 -6 246 -15 308 -20 63 -6 118 -8 123 -5 5 4 9 26 9 50 0 34 -5 47 -19 55 -23 12 -20 12 -91 -6z"/>
 <path d="M1259 1803 c-27 -30 -31 -68 -10 -87 18 -16 38 -16 348 -1 349 17 404 23 410 42 6 18 -51 43 -104 45 -26 1 -113 -2 -193 -6 -132 -7 -339 3 -410 20 -18 4 -30 0 -41 -13z"/>
 <path d="M460 1688 c0 -31 52 -41 260 -49 113 -5 225 -13 250 -18 25 -5 78 -16 119 -25 41 -10 80 -15 88 -12 17 7 17 60 1 73 -7 5 -119 15 -248 22 -490 26 -470 25 -470 9z"/>
 <path d="M1895 1694 c-11 -2 -117 -8 -235 -14 -394 -20 -397 -20 -417 -42 -13 -15 -15 -23 -6 -36 14 -22 21 -22 283 17 36 6 138 10 226 9 144 -1 166 1 195 19 47 27 51 53 7 52 -18 -1 -42 -3 -53 -5z"/>
 <path d="M1205 1533 c-38 -2 -74 -9 -80 -14 -6 -6 -10 -181 -10 -482 0 -260 -4 -480 -9 -489 -12 -26 33 -39 141 -41 75 -1 96 2 110 15 16 16 15 19 -3 39 -18 20 -19 44 -24 498 l-5 476 -25 1 c-14 0 -56 -1 -95 -3z"/>
 <path d="M1092 461 c6 -28 50 -41 138 -40 104 1 135 9 135 33 0 18 -11 19 -138 21 -120 1 -137 0 -135 -14z"/>
 </g>
<g id="layer3" fill="#51412b" stroke="none">
 <path d="M1110 7144 c-13 -34 -13 -44 3 -44 19 0 47 33 47 53 0 28 -39 21 -50 -9z"/>
 <path d="M1200 7147 c0 -7 10 -17 23 -22 13 -6 23 -20 25 -35 2 -20 -19 -48 -98 -130 -96 -101 -111 -120 -91 -120 13 0 221 225 221 239 0 7 -12 28 -26 47 -26 34 -54 45 -54 21z"/>
 <path d="M1102 7058 c-16 -16 -15 -28 3 -28 8 0 15 2 15 4 0 2 3 11 6 20 7 19 -7 21 -24 4z"/>
 <path d="M1060 7001 c-13 -26 -13 -31 4 -31 13 0 26 20 26 41 0 16 -19 10 -30 -10z"/>
 <path d="M1232 6997 c-12 -13 -22 -26 -22 -30 0 -14 28 -7 34 8 3 8 10 15 15 15 16 0 33 -79 26 -117 -7 -38 8 -45 26 -11 15 28 -6 128 -27 128 -8 0 -14 7 -14 15 0 21 -13 19 -38 -8z"/>
 <path d="M1111 6863 c-50 -58 -59 -73 -42 -73 10 0 111 111 111 123 0 19 -23 2 -69 -50z"/>
 <path d="M1266 6799 c-14 -11 -26 -25 -26 -30 0 -15 27 -10 34 6 12 33 26 13 26 -38 0 -50 -2 -54 -42 -85 -23 -18 -48 -32 -55 -32 -7 0 -13 -7 -13 -15 0 -8 6 -15 14 -15 15 0 91 60 113 88 16 22 16 102 -1 125 -17 21 -18 21 -50 -4z"/>
 <path d="M1193 6774 c-23 -25 -30 -44 -15 -44 10 0 62 53 62 63 0 15 -26 4 -47 -19z"/>
 <path d="M1192 6726 c-36 -38 -39 -46 -17 -46 8 0 15 6 15 13 0 7 10 17 22 22 22 10 38 45 21 45 -5 0 -23 -15 -41 -34z"/>
 <path d="M1140 6615 c0 -8 5 -15 10 -15 6 0 10 7 10 15 0 8 -4 15 -10 15 -5 0 -10 -7 -10 -15z"/>
 <path d="M1310 6620 c0 -5 7 -10 15 -10 8 0 15 5 15 10 0 6 -7 10 -15 10 -8 0 -15 -4 -15 -10z"/>
 <path d="M990 6490 c0 -5 7 -10 15 -10 8 0 15 5 15 10 0 6 -7 10 -15 10 -8 0 -15 -4 -15 -10z"/>
 <path d="M970 4855 c0 -16 6 -25 15 -25 9 0 15 9 15 25 0 16 -6 25 -15 25 -9 0 -15 -9 -15 -25z"/>
 <path d="M1190 4134 c0 -4 7 -12 16 -19 9 -6 17 -24 17 -39 0 -34 -23 -52 -39 -31 -6 8 -17 15 -23 15 -21 0 -6 -24 24 -39 26 -12 29 -12 46 10 19 26 20 53 1 87 -11 20 -42 31 -42 16z"/>
 <path d="M1140 4090 c0 -5 7 -10 15 -10 8 0 15 5 15 10 0 6 -7 10 -15 10 -8 0 -15 -4 -15 -10z"/>
 <path d="M1360 3715 c0 -10 10 -15 30 -15 20 0 30 5 30 15 0 10 -10 15 -30 15 -20 0 -30 -5 -30 -15z"/>
 <path d="M930 3710 c0 -5 7 -10 15 -10 8 0 15 5 15 10 0 6 -7 10 -15 10 -8 0 -15 -4 -15 -10z"/>
 <path d="M1448 3613 c-2 -54 -2 -100 0 -103 2 -3 10 4 18 15 18 24 16 176 -3 182 -8 3 -12 -26 -15 -94z"/>
 <path d="M1330 3515 c0 -8 9 -15 20 -15 11 0 20 7 20 15 0 8 -9 15 -20 15 -11 0 -20 -7 -20 -15z"/>
 <path d="M972 3508 c6 -18 28 -21 28 -4 0 9 -7 16 -16 16 -9 0 -14 -5 -12 -12z"/>
 <path d="M1020 3505 c0 -8 15 -13 40 -13 28 -1 40 4 40 13 0 9 -12 14 -40 13 -25 0 -40 -5 -40 -13z"/>
 <path d="M1120 3505 c0 -8 7 -15 15 -15 8 0 15 7 15 15 0 8 -7 15 -15 15 -8 0 -15 -7 -15 -15z"/>
 <path d="M1240 3504 c0 -10 7 -14 22 -12 32 5 35 28 4 28 -17 0 -26 -5 -26 -16z"/>
 <path d="M1444 2748 c3 -13 6 -26 6 -30 0 -5 7 -8 15 -8 18 0 20 31 3 48 -19 19 -31 14 -24 -10z"/>
 <path d="M942 2653 c4 -107 25 -110 27 -3 1 67 -1 80 -14 80 -14 0 -16 -12 -13 -77z"/>
 <path d="M1440 2575 c0 -8 7 -15 15 -15 8 0 15 7 15 15 0 8 -7 15 -15 15 -8 0 -15 -7 -15 -15z"/>
 <path d="M1010 2565 c0 -11 12 -15 50 -15 38 0 50 4 50 15 0 11 -12 15 -50 15 -38 0 -50 -4 -50 -15z"/>
 <path d="M1170 2535 c0 -9 9 -15 25 -15 16 0 25 6 25 15 0 9 -9 15 -25 15 -16 0 -25 -6 -25 -15z"/>
 <path d="M1250 2535 c0 -8 9 -15 20 -15 11 0 20 7 20 15 0 8 -9 15 -20 15 -11 0 -20 -7 -20 -15z"/>
 <path d="M997 2523 c-12 -11 -8 -23 8 -23 8 0 15 7 15 15 0 16 -12 20 -23 8z"/>
 <path d="M1260 2275 c0 -3 10 -19 21 -35 18 -23 21 -38 16 -76 l-5 -48 19 25 c26 34 24 72 -7 108 -23 28 -44 40 -44 26z"/>
 <path d="M1190 2245 c0 -8 9 -15 20 -15 11 0 20 7 20 15 0 8 -9 15 -20 15 -11 0 -20 -7 -20 -15z"/>
 <path d="M1140 2214 c0 -15 33 -74 42 -74 6 0 7 7 4 16 -3 9 -9 27 -12 40 -5 20 -34 36 -34 18z"/>
 <path d="M1256 2161 c-11 -12 -25 -21 -33 -21 -7 0 -13 -7 -13 -15 0 -8 6 -15 13 -15 22 1 59 36 56 54 -4 17 -6 16 -23 -3z"/>
 <path d="M1250 2095 c0 -8 5 -15 10 -15 6 0 10 7 10 15 0 8 -4 15 -10 15 -5 0 -10 -7 -10 -15z"/>
 <path d="M1300 1985 c0 -11 11 -15 40 -15 29 0 40 4 40 15 0 11 -11 15 -40 15 -29 0 -40 -4 -40 -15z"/>
 <path d="M1300 1945 c0 -10 11 -15 35 -15 24 0 35 5 35 15 0 10 -11 15 -35 15 -24 0 -35 -5 -35 -15z"/>
 <path d="M1400 1936 c0 -9 7 -16 16 -16 17 0 14 22 -4 28 -7 2 -12 -3 -12 -12z"/>
 <path d="M990 1930 c0 -5 7 -10 15 -10 8 0 15 5 15 10 0 6 -7 10 -15 10 -8 0 -15 -4 -15 -10z"/>
 <path d="M1400 1879 c0 -21 -3 -21 -60 -16 -47 5 -60 4 -60 -7 0 -14 42 -26 90 -26 18 0 33 8 44 25 20 30 20 45 1 45 -9 0 -15 -9 -15 -21z"/>
 <path d="M1120 1870 c-14 -4 -42 -8 -62 -9 -47 -1 -55 -31 -9 -31 51 0 131 23 131 37 0 14 -21 15 -60 3z"/>
 <path d="M1240 1865 c0 -8 5 -15 10 -15 6 0 10 7 10 15 0 8 -4 15 -10 15 -5 0 -10 -7 -10 -15z"/>
 </g>
<g id="layer4" fill="#7a5379" stroke="none">
 <path d="M1165 7120 c-10 -11 -15 -23 -12 -27 8 -7 47 25 47 39 0 14 -16 9 -35 -12z"/>
 <path d="M1067 7093 c-12 -11 -8 -23 8 -23 8 0 15 7 15 15 0 16 -12 20 -23 8z"/>
 <path d="M1040 6930 c0 -5 7 -10 15 -10 8 0 15 5 15 10 0 6 -7 10 -15 10 -8 0 -15 -4 -15 -10z"/>
 <path d="M1020 6710 c0 -5 7 -10 15 -10 8 0 15 5 15 10 0 6 -7 10 -15 10 -8 0 -15 -4 -15 -10z"/>
 <path d="M1040 6567 c-14 -7 -29 -27 -35 -47 -13 -45 -69 -152 -108 -210 -17 -24 -46 -74 -65 -110 -19 -36 -49 -90 -67 -120 -18 -30 -45 -93 -61 -140 -55 -163 -34 -307 74 -490 104 -178 154 -270 178 -329 33 -80 54 -92 54 -31 0 22 4 40 9 40 20 0 23 41 5 61 -10 11 -12 19 -6 19 18 0 14 37 -4 44 -9 3 -19 4 -24 1 -4 -3 -13 2 -20 10 -7 8 -19 15 -26 15 -8 0 -20 15 -28 34 -8 18 -19 37 -25 40 -6 4 -11 21 -11 39 0 38 -77 197 -95 197 -7 0 -17 15 -21 32 -3 18 -14 43 -22 56 -14 22 -14 25 0 33 23 13 24 105 1 118 -16 8 -16 14 -5 57 16 60 49 114 68 114 20 0 47 67 40 96 -6 24 3 47 37 93 9 13 17 31 17 39 0 9 7 23 15 32 17 19 62 97 71 123 4 9 10 17 16 17 5 0 17 20 28 45 13 31 28 48 47 55 15 6 40 17 55 25 31 18 78 19 148 4 41 -9 50 -14 50 -33 0 -12 11 -37 24 -56 13 -19 27 -50 30 -68 4 -18 16 -37 27 -42 10 -6 19 -15 19 -20 0 -5 20 -36 44 -67 37 -49 86 -133 86 -146 0 -2 -12 -2 -26 1 -20 4 -25 1 -22 -9 3 -8 17 -14 31 -15 35 -1 54 -19 62 -57 12 -58 50 -147 63 -147 15 0 10 23 -29 137 -20 59 -53 121 -116 215 -102 152 -157 252 -170 305 -8 35 -12 38 -53 45 -77 11 -233 9 -260 -5z"/>
 <path d="M1660 5790 c0 -29 4 -40 15 -40 11 0 15 11 15 40 0 29 -4 40 -15 40 -11 0 -15 -11 -15 -40z"/>
 <path d="M1650 5703 c-1 -65 -87 -280 -150 -373 -36 -53 -93 -167 -108 -215 -11 -38 -17 -126 -21 -365 l-6 -315 -115 -6 c-63 -4 -130 -7 -147 -8 -23 -1 -33 -6 -33 -17 0 -14 17 -15 158 -9 86 4 160 9 164 11 3 2 7 91 7 197 1 330 10 452 39 532 24 70 58 139 108 225 107 183 167 370 119 370 -10 0 -15 -10 -15 -27z"/>
 <path d="M976 4865 c-8 -187 -1 -285 20 -285 11 0 14 41 14 225 0 182 -3 225 -13 225 -11 0 -16 -37 -21 -165z"/>
 <path d="M982 4468 c3 -68 5 -73 26 -76 40 -6 55 16 50 75 -3 29 -7 55 -9 57 -2 2 -19 7 -37 11 l-33 7 3 -74z"/>
 <path d="M930 3580 c0 -38 4 -50 15 -50 11 0 15 12 15 50 0 38 -4 50 -15 50 -11 0 -15 -12 -15 -50z"/>
 <path d="M1000 3505 c0 -8 5 -15 10 -15 6 0 10 7 10 15 0 8 -4 15 -10 15 -5 0 -10 -7 -10 -15z"/>
 <path d="M1100 3505 c0 -8 5 -15 10 -15 6 0 10 7 10 15 0 8 -4 15 -10 15 -5 0 -10 -7 -10 -15z"/>
 <path d="M1340 2575 c0 -10 10 -15 30 -15 20 0 30 5 30 15 0 10 -10 15 -30 15 -20 0 -30 -5 -30 -15z"/>
 <path d="M1126 2542 c-55 -1 -106 -8 -113 -14 -19 -15 -18 -188 1 -188 19 0 35 22 42 59 4 20 16 36 33 44 19 9 26 20 26 41 l-1 28 101 -6 c55 -3 117 -6 138 -6 20 0 37 -4 37 -10 0 -5 7 -10 15 -10 21 0 19 37 -2 48 -22 12 -147 18 -277 14z"/>
 <path d="M1388 2397 c-3 -23 -13 -59 -22 -78 -12 -26 -14 -42 -7 -60 9 -26 25 -145 25 -189 0 -23 -4 -25 -55 -28 -55 -3 -55 -3 -56 -36 l-1 -34 62 5 c33 3 67 10 74 16 19 15 17 447 -2 447 -8 0 -15 -16 -18 -43z"/>
 <path d="M1170 2302 c-54 -25 -71 -45 -69 -81 2 -20 0 -42 -5 -49 -4 -7 -5 -16 -2 -21 4 -5 0 -12 -6 -14 -10 -4 -10 -6 0 -6 22 -2 13 -19 -13 -23 -23 -5 -25 -2 -25 28 0 24 -5 34 -15 34 -8 0 -15 -9 -15 -19 0 -11 -4 -23 -10 -26 -5 -3 -10 -35 -10 -70 0 -80 7 -85 124 -85 66 0 86 3 86 14 0 26 -27 38 -69 31 -36 -6 -39 -5 -34 13 2 11 0 29 -6 41 -10 19 -9 21 13 21 14 0 27 -4 30 -9 3 -4 33 -11 67 -15 54 -6 64 -5 84 14 12 12 30 46 40 76 14 46 15 58 3 84 -21 49 -118 84 -168 62z m117 -57 c28 -32 29 -70 3 -112 -17 -28 -25 -33 -60 -33 -90 0 -138 103 -74 159 36 31 98 24 131 -14z"/>
 <path d="M1260 1865 c0 -8 5 -15 10 -15 6 0 10 7 10 15 0 8 -4 15 -10 15 -5 0 -10 -7 -10 -15z"/>
 </g>
<g id="layer5" fill="#82557e" stroke="none">
 <path d="M1156 6552 c-3 -6 -29 -16 -56 -23 -54 -14 -81 -43 -96 -102 -6 -26 -4 -28 17 -25 19 2 25 10 27 35 3 27 9 34 30 38 15 3 41 10 58 15 64 21 121 9 177 -37 36 -29 51 -30 42 0 -4 12 -6 32 -6 45 1 30 -32 45 -135 58 -31 4 -54 2 -58 -4z"/>
 <path d="M927 6304 c-39 -57 -40 -74 -6 -74 14 0 19 7 19 30 0 19 7 33 20 40 19 10 29 60 12 60 -4 0 -25 -25 -45 -56z"/>
 <path d="M1390 6317 c0 -12 4 -29 10 -37 5 -9 5 -19 -2 -27 -7 -9 -7 -17 1 -26 8 -10 3 -25 -19 -61 -37 -58 -38 -85 -2 -119 23 -22 34 -26 59 -21 20 4 44 -1 73 -15 24 -12 50 -21 57 -21 7 0 15 -11 19 -25 9 -36 32 -31 40 10 6 36 3 44 -66 170 -42 75 -114 165 -146 181 -22 12 -24 11 -24 -9z"/>
 <path d="M852 6176 c-37 -51 -40 -71 -13 -87 20 -13 16 -20 -41 -77 -31 -30 -35 -42 -13 -42 9 0 12 -6 9 -15 -10 -25 19 -16 41 13 39 51 59 110 47 136 -11 26 -6 39 21 49 13 5 17 15 15 34 -5 43 -31 39 -66 -11z"/>
 <path d="M740 5940 c0 -5 7 -10 15 -10 8 0 15 5 15 10 0 6 -7 10 -15 10 -8 0 -15 -4 -15 -10z"/>
 <path d="M740 5778 c0 -24 -7 -49 -16 -59 -14 -16 -13 -22 10 -74 21 -44 34 -59 61 -71 47 -19 54 -18 65 11 5 14 14 25 20 25 20 0 9 28 -25 63 -19 20 -35 41 -35 47 0 6 -7 13 -15 16 -10 4 -13 14 -9 30 7 28 -11 54 -37 54 -16 0 -19 -8 -19 -42z"/>
 <path d="M1359 5554 c-12 -23 -12 -27 6 -40 43 -32 95 7 61 45 -26 28 -50 26 -67 -5z"/>
 <path d="M1503 5455 c-18 -19 -33 -43 -33 -53 0 -10 -5 -23 -11 -29 -13 -13 -4 -33 15 -33 20 0 86 95 86 124 0 35 -18 33 -57 -9z"/>
 <path d="M860 5400 c0 -5 9 -10 20 -10 11 0 20 5 20 10 0 6 -9 10 -20 10 -11 0 -20 -4 -20 -10z"/>
 <path d="M1043 5269 c12 -99 61 -106 55 -8 -3 51 -4 54 -32 57 l-29 4 6 -53z"/>
 <path d="M1410 5260 c-12 -16 -19 -34 -15 -40 3 -5 -6 -12 -20 -16 -19 -5 -25 -13 -25 -33 0 -15 -5 -32 -11 -38 -16 -16 -1 -36 22 -30 12 3 19 0 19 -9 0 -8 6 -14 14 -14 9 0 17 16 21 40 4 23 18 61 32 85 40 72 8 119 -37 55z"/>
 <path d="M1027 5083 c-12 -11 -8 -23 8 -23 8 0 15 7 15 15 0 16 -12 20 -23 8z"/>
 <path d="M991 4843 c-1 -65 3 -124 8 -132 13 -20 19 9 22 104 3 124 1 145 -15 145 -11 0 -14 -24 -15 -117z"/>
 <path d="M990 4645 c0 -8 7 -15 15 -15 8 0 15 7 15 15 0 8 -7 15 -15 15 -8 0 -15 -7 -15 -15z"/>
 <path d="M987 4583 c-4 -3 -7 -15 -7 -25 0 -22 26 -24 34 -2 10 25 -10 45 -27 27z"/>
 <path d="M1105 2520 c-17 -28 16 -37 138 -38 67 -1 128 -1 135 -2 16 0 15 -20 -3 -57 -12 -23 -21 -30 -35 -26 -16 4 -23 -3 -36 -33 -9 -21 -23 -44 -33 -51 -15 -12 -14 -14 5 -30 11 -10 28 -31 38 -46 16 -27 16 -32 1 -81 -9 -29 -20 -58 -24 -65 -10 -15 -71 -24 -71 -10 0 7 -12 8 -30 4 -20 -4 -30 -3 -30 5 0 6 -4 8 -10 5 -19 -12 -10 -35 18 -41 35 -7 92 -36 92 -46 0 -5 8 -8 18 -8 14 0 15 2 2 10 -8 5 -13 10 -10 10 3 1 30 4 60 6 30 3 57 7 59 9 2 3 4 56 5 120 1 88 -2 116 -13 120 -9 4 -10 9 -4 18 11 13 28 79 38 138 3 20 1 49 -5 64 -10 26 -13 27 -59 21 -30 -4 -52 -2 -56 4 -9 14 -53 12 -100 -4 -34 -12 -42 -12 -56 0 -19 17 -26 17 -34 4z"/>
 <path d="M1002 2230 c0 -92 3 -110 15 -110 13 0 15 9 10 43 -4 29 -1 53 8 71 15 28 11 76 -6 76 -5 0 -6 7 -3 15 4 9 0 15 -9 15 -12 0 -15 -19 -15 -110z"/>
 </g>
<g id="layer6" fill="#7f5482" stroke="none">
 <path d="M1130 6534 c0 -9 5 -14 12 -12 18 6 21 28 4 28 -9 0 -16 -7 -16 -16z"/>
 <path d="M1270 6530 c0 -5 11 -10 25 -10 14 0 25 5 25 10 0 6 -11 10 -25 10 -14 0 -25 -4 -25 -10z"/>
 <path d="M1039 6488 c-8 -18 -5 -58 4 -58 16 0 39 38 32 50 -5 9 -33 14 -36 8z"/>
 <path d="M1350 6430 c0 -5 7 -10 15 -10 8 0 15 5 15 10 0 6 -7 10 -15 10 -8 0 -15 -4 -15 -10z"/>
 <path d="M970 6386 c-5 -13 -14 -27 -19 -31 -6 -3 -11 -16 -11 -28 1 -22 1 -22 21 3 12 14 28 25 38 25 10 0 17 10 19 28 3 22 -1 27 -18 27 -12 0 -24 -9 -30 -24z"/>
 <path d="M1365 6390 c-13 -41 51 -108 78 -81 7 7 3 18 -16 35 -15 14 -27 34 -27 46 0 26 -27 26 -35 0z"/>
 <path d="M880 6240 c0 -5 7 -10 15 -10 8 0 15 5 15 10 0 6 -7 10 -15 10 -8 0 -15 -4 -15 -10z"/>
 <path d="M830 6074 c-22 -57 3 -76 33 -25 22 38 21 51 -3 51 -13 0 -24 -10 -30 -26z"/>
 <path d="M770 5992 c-26 -32 -40 -61 -40 -81 0 -11 -4 -23 -10 -26 -14 -9 -13 -48 2 -63 7 -7 22 -12 35 -12 20 0 23 5 23 39 0 22 5 43 10 46 6 3 10 15 10 25 0 13 5 17 14 14 19 -7 28 10 20 41 -4 17 -11 24 -20 21 -8 -3 -14 -1 -14 4 0 16 -14 12 -30 -8z"/>
 <path d="M1610 5966 c0 -9 -6 -16 -14 -16 -8 0 -16 -16 -19 -42 -5 -36 -3 -46 15 -59 15 -12 20 -27 20 -56 -1 -28 5 -47 18 -58 32 -29 48 -13 52 52 3 45 -2 72 -22 122 -25 62 -50 90 -50 57z"/>
 <path d="M1634 5663 c-4 -16 -15 -43 -26 -60 -11 -18 -17 -37 -13 -43 6 -10 3 -18 -54 -124 -34 -64 -38 -86 -16 -86 8 0 15 9 15 19 0 11 5 23 11 26 23 15 118 244 119 288 0 20 -31 3 -36 -20z"/>
 <path d="M760 5591 c0 -6 6 -14 14 -17 21 -8 98 -168 90 -188 -4 -10 1 -29 12 -44 11 -15 26 -39 33 -54 8 -16 20 -28 28 -28 28 0 93 -88 74 -99 -6 -4 -13 -28 -15 -53 -2 -25 -6 -50 -9 -54 -2 -5 -1 -31 4 -59 6 -27 10 -60 10 -72 -1 -14 5 -23 15 -23 10 0 14 7 11 18 -4 21 19 72 34 72 19 0 37 66 41 149 1 45 6 85 11 88 13 8 7 94 -9 119 -14 21 -22 23 -51 18 -40 -8 -123 13 -140 35 -7 9 -13 32 -13 52 0 20 -6 42 -14 49 -8 6 -16 21 -18 32 -2 12 -14 29 -28 39 -32 23 -80 35 -80 20z m322 -338 c2 -24 1 -43 -3 -43 -7 0 -19 51 -19 83 0 37 18 4 22 -40z"/>
 <path d="M1457 5283 c-4 -3 -7 -15 -7 -26 0 -19 1 -20 20 -2 11 10 20 22 20 27 0 10 -24 11 -33 1z"/>
 <path d="M1370 5040 c0 -11 7 -20 15 -20 8 0 15 9 15 20 0 11 -7 20 -15 20 -8 0 -15 -9 -15 -20z"/>
 <path d="M1340 4903 c-8 -21 -14 -45 -12 -53 8 -51 6 -397 -3 -392 -5 4 -57 7 -115 7 l-105 0 -8 45 c-4 25 -12 72 -17 105 -12 85 -19 102 -45 119 -21 14 -24 14 -30 -2 -3 -9 -9 -68 -11 -129 -4 -97 -2 -113 11 -113 8 0 15 5 15 10 0 6 5 10 10 10 6 0 10 -27 10 -60 l0 -59 53 5 c58 6 116 22 134 36 7 5 14 5 17 -1 9 -13 80 -24 113 -17 l28 7 0 257 c0 223 -2 257 -15 260 -10 2 -21 -11 -30 -35z"/>
 <path d="M1094 2495 c5 -20 1 -27 -24 -40 -18 -9 -30 -23 -30 -35 0 -11 -7 -20 -15 -20 -17 0 -20 -43 -6 -103 5 -21 5 -39 0 -43 -14 -8 -11 -91 5 -129 8 -18 24 -39 36 -45 16 -9 19 -14 10 -25 -9 -10 -7 -20 6 -40 16 -24 21 -26 64 -20 36 5 49 3 59 -9 26 -31 101 -11 101 26 0 9 -13 18 -30 22 -22 4 -30 11 -30 26 0 18 -4 20 -35 14 -31 -5 -39 -2 -62 22 -23 25 -26 37 -25 88 1 45 7 65 23 82 28 29 73 37 109 19 40 -21 50 -19 50 10 0 22 -4 25 -35 25 -19 0 -35 5 -35 10 0 6 -20 10 -44 10 -40 0 -44 3 -49 28 -6 27 3 40 49 68 15 9 16 15 7 24 -6 7 -9 19 -6 26 3 8 -1 14 -11 14 -9 0 -16 5 -16 10 0 6 -7 10 -15 10 -8 0 -15 -5 -15 -12 0 -9 -3 -9 -12 0 -20 20 -31 14 -24 -13z"/>
 <path d="M1372 2115 c0 -31 4 -45 13 -45 18 0 28 17 18 33 -4 6 -6 22 -4 35 1 14 -3 22 -12 22 -11 0 -15 -12 -15 -45z"/>
 <path d="M1304 2105 c-3 -8 -14 -17 -25 -20 -30 -10 -22 -28 10 -23 23 3 27 1 23 -14 -3 -11 1 -18 11 -18 19 0 25 17 20 58 -5 33 -29 44 -39 17z"/>
 </g>
<g id="layer7" fill="#835581" stroke="none">
 <path d="M1210 6531 c0 -5 -15 -11 -32 -14 -105 -18 -110 -21 -131 -62 -12 -22 -27 -44 -34 -48 -7 -4 -13 -15 -13 -22 0 -8 -6 -15 -14 -15 -8 0 -18 -10 -22 -22 -3 -12 -22 -44 -40 -70 -26 -37 -33 -54 -28 -74 5 -19 1 -29 -15 -40 -21 -15 -29 -58 -12 -69 14 -8 -34 -106 -64 -130 -14 -12 -25 -28 -25 -37 0 -9 -4 -20 -10 -23 -14 -8 -13 -92 1 -101 6 -3 9 -19 5 -34 -3 -18 0 -33 9 -40 8 -7 15 -18 15 -25 0 -7 16 -27 36 -45 36 -31 36 -40 2 -52 -10 -4 12 -90 28 -109 8 -8 14 -30 14 -48 0 -53 31 -86 92 -99 29 -5 64 -8 78 -5 36 7 53 -28 47 -100 -2 -32 -7 -60 -10 -64 -4 -3 -7 -15 -7 -27 0 -11 -8 -29 -18 -40 -42 -47 -74 -362 -42 -402 8 -9 15 -24 15 -33 4 -54 5 -56 15 -41 7 11 10 3 10 -28 0 -24 5 -53 11 -65 7 -12 12 -35 11 -51 -1 -44 22 -66 63 -59 24 4 39 1 50 -11 22 -21 95 -22 95 -1 0 9 -10 16 -22 16 -18 1 -17 3 7 8 17 4 35 4 41 -1 6 -4 25 -5 43 -2 l31 7 -3 103 c-1 57 -6 106 -10 110 -9 9 -9 7 -12 -89 -5 -148 -15 -90 -13 79 0 93 -2 178 -6 190 -4 14 2 32 17 56 18 26 25 53 30 114 8 115 35 194 97 279 33 45 60 103 60 126 0 17 -22 9 -41 -13 -16 -20 -18 -21 -19 -5 0 10 7 20 16 24 9 3 20 15 24 27 7 17 9 18 9 4 1 -26 20 -22 45 9 21 28 23 34 29 90 2 18 9 38 15 45 6 8 18 35 27 61 15 46 15 49 -5 76 -12 18 -20 45 -20 69 0 28 -6 44 -19 53 -17 12 -19 20 -11 59 9 48 -7 90 -34 90 -8 0 -27 7 -42 15 -16 8 -46 15 -67 15 -48 0 -87 25 -87 56 0 13 13 44 29 69 28 45 33 79 16 120 -4 11 -14 34 -21 52 -7 17 -10 41 -7 52 3 13 -4 32 -21 52 -14 17 -26 36 -26 44 0 8 -13 13 -36 13 -40 0 -55 9 -35 21 10 6 9 10 -4 15 -24 9 -55 7 -55 -3z m200 -986 c10 -12 9 -16 -5 -21 -19 -8 -40 9 -31 25 10 15 21 14 36 -4z"/>
 <path d="M1138 2523 c-22 -5 -22 -3 -2 -41 8 -18 21 -32 27 -32 7 -1 0 -7 -14 -15 -33 -18 -39 -33 -30 -76 6 -29 11 -34 35 -35 16 -1 34 -8 40 -17 24 -32 126 2 126 43 0 25 17 35 35 20 22 -18 48 -5 40 20 -4 12 -1 27 5 35 6 8 10 26 8 42 l-3 28 -89 3 c-61 2 -93 7 -103 17 -14 15 -40 17 -75 8z"/>
 <path d="M1021 2310 c-1 -8 -4 -25 -7 -37 -5 -17 -2 -23 10 -23 17 0 19 11 6 50 -4 14 -9 18 -9 10z"/>
 <path d="M1320 2120 c0 -5 7 -10 15 -10 8 0 15 5 15 10 0 6 -7 10 -15 10 -8 0 -15 -4 -15 -10z"/>
 </g>
<g id="layer8" fill="#fefa0c" stroke="none">
 <path d="M1168 4129 c-22 -12 -23 -57 -2 -87 17 -24 43 -29 62 -10 18 18 14 73 -6 91 -21 19 -30 20 -54 6z"/>
 <path d="M1160 2235 c-25 -30 20 -115 62 -115 26 0 58 36 58 65 0 14 -9 34 -20 45 -24 24 -82 27 -100 5z"/>
 </g>
<g id="layer9" fill="#fffee5" stroke="none">
 <path d="M1141 7085 c-72 -78 -88 -105 -97 -172 -11 -86 8 -79 123 43 56 60 102 116 103 125 0 21 -38 69 -55 69 -7 0 -40 -29 -74 -65z"/>
 <path d="M1224 6978 c-94 -101 -185 -213 -191 -236 -12 -47 -9 -125 5 -130 7 -2 71 55 144 129 l130 132 -5 42 c-8 57 -24 95 -40 95 -7 0 -26 -15 -43 -32z"/>
 <path d="M1203 6726 c-46 -46 -83 -89 -83 -95 0 -14 42 -31 74 -31 13 0 47 19 75 41 l52 41 -3 62 c-2 45 -7 61 -18 63 -8 2 -52 -35 -97 -81z"/>
 <path d="M948 3725 c-5 -5 -8 -53 -8 -107 0 -98 0 -99 28 -109 18 -7 102 -9 246 -5 265 7 256 3 256 117 0 69 -2 80 -21 89 -24 13 -490 27 -501 15z"/>
 <path d="M959 2756 c-16 -17 -11 -172 6 -186 11 -9 71 -10 262 -4 l248 9 0 77 c0 56 -4 81 -15 92 -12 12 -60 15 -253 18 -141 2 -242 -1 -248 -6z"/>
 <path d="M1000 1931 c-14 -26 -13 -64 2 -79 16 -16 63 -15 140 3 55 12 72 12 133 0 119 -25 145 -18 145 40 0 53 -7 55 -217 55 -180 0 -193 -1 -203 -19z"/>
 </g>

</svg>