<!DOCTYPE svg PUBLIC "-//W3C//DTD SVG 20010904//EN" "http://www.w3.org/TR/2001/REC-SVG-20010904/DTD/svg10.dtd">
<svg version="1.0" xmlns="http://www.w3.org/2000/svg" width="317px" height="697px" viewBox="0 0 3170 6970" preserveAspectRatio="xMidYMid meet">
<g id="layer1" fill="#faf4ee" stroke="none">
 <path d="M70 6877 c0 -43 15 -69 84 -146 36 -40 66 -79 66 -86 0 -7 6 -15 14 -18 8 -3 75 -72 150 -154 135 -145 213 -213 249 -213 36 0 15 43 -38 77 -125 80 -137 95 -149 175 -3 24 -22 60 -50 97 -25 33 -46 64 -46 69 0 16 32 37 52 34 37 -7 16 17 -64 70 -112 75 -180 109 -228 115 -38 5 -40 4 -40 -20z"/>
 <path d="M720 6419 c0 -36 19 -58 56 -65 56 -10 65 9 24 51 -39 40 -80 47 -80 14z"/>
 <path d="M2396 2900 c-30 -70 -34 -139 -11 -194 15 -35 15 -36 -20 -75 -20 -22 -35 -49 -35 -63 0 -13 19 -62 42 -109 36 -72 42 -93 42 -149 0 -83 -17 -117 -92 -175 -89 -71 -94 -71 -175 15 -105 112 -125 167 -92 247 8 19 15 46 15 59 0 23 -3 24 -60 24 l-60 0 0 -31 c0 -41 -16 -68 -48 -80 l-26 -10 26 -22 c30 -24 48 -98 48 -193 0 -44 -4 -56 -26 -73 -29 -23 -44 -20 -96 20 -42 33 -48 35 -48 15 0 -26 43 -68 96 -91 62 -27 67 -38 68 -154 l1 -76 135 -6 c74 -4 195 -4 268 -1 l132 5 0 42 c0 23 3 45 6 48 8 8 8 367 0 374 -12 12 -6 179 6 191 10 10 10 17 0 32 -7 12 -15 75 -18 158 -11 263 -17 327 -35 330 -11 2 -24 -15 -43 -58z"/>
 <path d="M1760 2309 c-6 -11 -10 -28 -8 -37 3 -13 8 -9 21 15 20 37 21 43 7 43 -5 0 -14 -9 -20 -21z"/>
 <path d="M1750 2195 c0 -31 11 -65 21 -65 10 0 2 45 -12 70 -7 12 -8 11 -9 -5z"/>
 <path d="M2007 1703 c-3 -5 -5 -25 -5 -45 0 -34 3 -38 24 -38 17 0 27 8 34 26 18 47 13 64 -19 64 -17 0 -32 -3 -34 -7z"/>
 </g>
<g id="layer2" fill="#d6cfa5" stroke="none">
 <path d="M63 6895 c-16 -43 30 -126 116 -210 51 -49 57 -24 7 29 -97 102 -127 154 -103 175 24 20 97 -14 251 -118 52 -34 65 -47 50 -50 -26 -4 -44 -20 -44 -39 0 -12 5 -11 23 6 22 21 24 21 47 5 14 -9 40 -29 58 -45 34 -29 72 -37 72 -15 0 7 -15 27 -32 43 -43 40 -258 180 -323 210 -58 28 -113 31 -122 9z"/>
 <path d="M350 6655 c0 -3 23 -36 50 -72 31 -40 50 -59 50 -48 0 20 -77 125 -91 125 -5 0 -9 -2 -9 -5z"/>
 <path d="M240 6625 c0 -3 62 -73 138 -156 140 -153 234 -234 258 -225 18 7 18 26 0 26 -32 0 -102 61 -235 206 -125 136 -161 169 -161 149z"/>
 <path d="M451 6473 c-1 -20 8 -42 23 -60 30 -36 176 -126 176 -109 0 7 -19 23 -42 36 -57 32 -146 116 -151 143 -3 15 -5 12 -6 -10z"/>
 <path d="M710 6426 c0 -56 34 -89 89 -84 52 4 50 28 -6 82 -63 60 -83 60 -83 2z m74 -25 c39 -40 34 -57 -11 -40 -26 10 -57 54 -48 69 10 16 19 12 59 -29z"/>
 <path d="M2392 2915 c-36 -83 -42 -153 -17 -211 14 -35 14 -36 -20 -70 -25 -24 -35 -44 -35 -65 0 -33 82 -209 88 -189 3 7 -15 52 -38 101 l-42 89 36 40 c40 44 43 63 21 117 -22 52 -19 85 14 158 44 97 61 86 61 -41 0 -43 4 -74 10 -74 6 0 8 32 4 88 -7 116 -11 132 -32 132 -13 0 -27 -22 -50 -75z"/>
 <path d="M2337 2924 c-4 -4 -7 -14 -7 -23 0 -11 3 -12 11 -4 6 6 10 16 7 23 -2 6 -7 8 -11 4z"/>
 <path d="M2317 2867 c-11 -29 -9 -43 4 -30 6 6 9 19 7 29 -3 18 -4 18 -11 1z"/>
 <path d="M2475 2620 c3 -69 8 -255 11 -415 3 -159 8 -292 10 -294 4 -4 9 136 7 184 -1 11 -4 135 -8 275 -3 140 -10 282 -15 315 -7 47 -8 33 -5 -65z"/>
 <path d="M1946 2494 c-3 -9 -6 -29 -6 -45 0 -52 -14 -66 -76 -74 -107 -13 -124 -33 -124 -148 0 -60 5 -81 29 -127 23 -44 38 -60 79 -80 74 -38 82 -47 82 -96 0 -26 5 -44 11 -44 8 0 9 16 5 52 -9 65 -10 66 -60 88 -22 10 -54 32 -71 51 l-30 32 32 -22 c43 -29 92 -37 118 -18 11 9 17 19 12 23 -4 4 -13 2 -19 -4 -42 -42 -129 26 -148 115 -9 43 -9 57 4 82 32 60 83 77 123 39 21 -19 23 -20 23 -3 0 10 -8 24 -17 31 -17 12 -17 13 2 20 27 10 35 23 35 60 0 40 16 54 65 55 33 2 35 3 10 6 -16 3 -34 9 -39 14 -15 14 -33 11 -40 -7z"/>
 <path d="M2064 2464 c3 -8 1 -24 -5 -35 -6 -11 -8 -25 -6 -32 4 -14 37 45 37 68 0 8 -7 15 -16 15 -11 0 -14 -5 -10 -16z"/>
 <path d="M2330 2402 c0 -5 7 -17 15 -28 15 -19 20 -8 9 20 -6 17 -24 22 -24 8z"/>
 <path d="M2408 2308 c-2 -29 -12 -69 -21 -89 -19 -38 -129 -129 -158 -129 -22 0 -133 120 -161 175 -12 22 -23 35 -25 28 -7 -20 33 -86 92 -150 50 -56 61 -63 94 -63 46 0 143 65 168 113 15 29 32 167 21 167 -3 0 -8 -24 -10 -52z"/>
 <path d="M1937 2205 c3 -49 9 -94 13 -99 10 -10 2 102 -11 154 -5 22 -6 1 -2 -55z"/>
 <path d="M2480 1846 c0 -24 -6 -48 -13 -54 -7 -6 -51 -13 -97 -15 l-85 -3 103 -2 c100 -2 102 -1 102 21 0 12 3 39 6 60 5 24 3 37 -5 37 -6 0 -11 -18 -11 -44z"/>
 <path d="M1933 1815 l2 -40 130 -1 130 -1 -117 6 c-64 3 -121 11 -127 16 -5 6 -11 21 -14 35 -3 14 -4 7 -4 -15z"/>
 <path d="M2010 1715 c-16 -20 -5 -32 15 -15 8 7 22 10 31 6 21 -8 10 -44 -22 -73 -23 -21 -23 -23 -6 -23 29 0 45 26 46 73 1 38 -1 42 -25 45 -14 2 -31 -4 -39 -13z"/>
 <path d="M2400 1701 c0 -51 35 -71 46 -27 7 31 -1 46 -27 46 -12 0 -19 -7 -19 -19z"/>
 </g>
<g id="layer3" fill="#e5d250" stroke="none">
 <path d="M357 6703 c-17 -16 -3 -48 42 -105 38 -47 51 -72 56 -108 8 -55 43 -94 138 -154 58 -37 66 -52 45 -86 -16 -24 -6 -34 27 -26 22 6 25 12 25 47 0 41 0 41 31 35 17 -3 42 -6 56 -6 15 0 42 -17 72 -45 38 -35 58 -46 95 -51 41 -6 46 -5 46 12 0 11 -31 50 -69 88 -68 67 -70 68 -92 52 -33 -22 -43 -20 -85 16 -33 29 -35 35 -30 72 6 37 3 45 -34 88 -55 63 -128 112 -145 98 -10 -8 -22 -4 -47 18 -67 58 -110 76 -131 55z m190 -144 c63 -23 123 -108 123 -174 0 -19 -2 -35 -5 -35 -3 0 -24 9 -46 21 -64 32 -128 96 -135 135 -11 61 5 75 63 53z"/>
 <path d="M2426 3120 c-3 -17 -19 -58 -36 -93 -72 -150 -97 -266 -69 -319 9 -16 7 -24 -9 -41 -11 -12 -25 -32 -31 -44 -14 -27 -15 -100 -1 -108 6 -3 10 -12 10 -20 0 -8 16 -42 36 -76 33 -56 36 -67 32 -120 -5 -65 -21 -89 -94 -140 l-41 -28 -66 68 c-36 37 -69 80 -73 95 -9 38 2 84 32 129 47 72 21 97 -103 97 -69 0 -68 -22 2 -32 65 -9 73 -19 52 -64 -46 -95 -30 -157 70 -271 49 -57 58 -63 93 -63 31 0 50 9 92 43 66 53 81 84 86 169 4 63 1 73 -42 163 -27 56 -44 104 -41 114 3 10 19 30 35 45 34 30 37 48 15 99 -8 20 -15 50 -15 67 0 43 61 182 83 188 14 4 17 16 17 72 0 70 -6 100 -20 100 -4 0 -10 -14 -14 -30z"/>
 <path d="M1452 1428 c3 -47 6 -53 27 -56 23 -4 24 -2 18 35 -4 21 -7 46 -7 56 0 10 -8 17 -21 17 -18 0 -20 -5 -17 -52z"/>
 <path d="M2890 1411 c0 -10 -3 -33 -6 -51 -6 -29 -5 -31 17 -28 21 3 24 9 27 51 3 42 1 47 -17 47 -14 0 -21 -7 -21 -19z"/>
 </g>
<g id="layer4" fill="#5d564c" stroke="none">
 <path d="M65 6910 c-7 -12 12 -12 40 0 18 8 17 9 -7 9 -15 1 -30 -3 -33 -9z"/>
 <path d="M170 6885 c49 -26 60 -29 60 -17 0 11 -66 42 -88 42 -9 -1 3 -12 28 -25z"/>
 <path d="M240 6854 c0 -13 179 -128 187 -120 8 7 14 2 -80 65 -83 56 -107 68 -107 55z"/>
 <path d="M92 6779 c2 -7 10 -15 17 -17 8 -3 12 1 9 9 -2 7 -10 15 -17 17 -8 3 -12 -1 -9 -9z"/>
 <path d="M130 6732 c0 -14 69 -76 77 -69 3 4 -9 23 -27 42 -33 34 -50 43 -50 27z"/>
 <path d="M440 6725 c0 -9 80 -78 123 -108 23 -15 49 -35 58 -43 20 -18 29 -18 29 1 0 8 -17 23 -37 34 -21 10 -64 42 -96 70 -52 46 -77 61 -77 46z"/>
 <path d="M250 6602 c0 -14 79 -86 87 -79 4 4 -11 25 -32 47 -38 39 -55 49 -55 32z"/>
 <path d="M482 6513 c5 -52 9 -60 45 -93 45 -39 130 -86 139 -77 13 13 -9 128 -30 159 -26 39 -78 68 -125 68 l-33 0 4 -57z m119 -11 c33 -35 59 -105 45 -119 -7 -7 -48 20 -96 63 -37 34 -57 75 -44 95 11 19 58 -1 95 -39z"/>
 <path d="M660 6541 c0 -12 120 -131 132 -131 19 0 4 23 -53 77 -64 61 -79 71 -79 54z"/>
 <path d="M350 6492 c0 -14 49 -56 57 -49 3 4 -4 18 -17 32 -24 25 -40 32 -40 17z"/>
 <path d="M852 6353 c26 -26 51 -44 54 -40 10 10 -66 87 -85 87 -10 0 3 -19 31 -47z"/>
 <path d="M462 6369 c2 -7 10 -15 17 -17 8 -3 12 1 9 9 -2 7 -10 15 -17 17 -8 3 -12 -1 -9 -9z"/>
 <path d="M690 6287 c0 -26 -6 -40 -22 -52 -22 -14 -24 -14 -41 9 -22 30 -85 71 -95 61 -4 -3 2 -11 13 -17 11 -6 37 -28 57 -50 21 -21 43 -38 50 -38 25 0 58 31 58 55 0 13 4 26 9 30 18 11 96 -14 115 -37 33 -41 68 -58 124 -58 45 0 52 3 52 20 0 23 -56 90 -76 90 -21 0 -17 -11 17 -46 65 -67 -8 -68 -78 -1 -30 29 -54 42 -85 47 -24 4 -55 11 -70 15 -27 7 -28 6 -28 -28z"/>
 <path d="M2414 3143 c-4 -27 -31 -97 -61 -157 -31 -64 -53 -122 -52 -140 l0 -31 11 25 c6 14 33 71 60 128 27 57 52 118 55 137 5 32 23 50 23 23 0 -6 3 -9 6 -5 3 3 3 19 -1 36 -10 48 -33 38 -41 -16z"/>
 <path d="M2463 3035 c0 -44 2 -61 4 -37 2 23 2 59 0 80 -2 20 -4 1 -4 -43z"/>
 <path d="M2473 2865 c0 -27 2 -38 4 -22 2 15 2 37 0 50 -2 12 -4 0 -4 -28z"/>
 <path d="M2304 2727 c2 -26 0 -50 -5 -53 -17 -10 -49 -83 -49 -112 0 -16 11 -51 25 -78 14 -27 37 -76 50 -108 22 -52 23 -64 13 -98 -12 -39 -86 -118 -111 -118 -20 0 -104 91 -121 130 -12 30 -12 41 -1 73 7 21 20 46 29 56 19 21 21 84 4 99 -7 5 -45 13 -84 17 -81 8 -114 -3 -114 -38 0 -21 0 -21 16 2 16 22 22 23 82 18 39 -3 70 -11 80 -21 14 -14 13 -20 -11 -68 -29 -57 -36 -132 -16 -171 19 -37 112 -127 131 -127 33 0 97 51 118 94 33 70 27 126 -25 230 -25 49 -45 98 -45 110 0 19 15 47 52 98 10 13 9 26 -5 65 l-17 48 4 -48z"/>
 <path d="M2483 2680 c0 -25 2 -35 4 -22 2 12 2 32 0 45 -2 12 -4 2 -4 -23z"/>
 <path d="M2493 2520 c0 -30 2 -43 4 -27 2 15 2 39 0 55 -2 15 -4 2 -4 -28z"/>
 <path d="M1931 2441 c0 -14 -8 -33 -18 -43 -15 -17 -15 -18 1 -18 21 0 29 20 23 57 -3 25 -4 25 -6 4z"/>
 <path d="M2493 2360 c0 -36 2 -50 4 -32 2 17 2 47 0 65 -2 17 -4 3 -4 -33z"/>
 <path d="M1858 2333 c24 -3 38 -13 53 -36 13 -23 19 -27 19 -14 0 41 -19 57 -63 55 -38 -1 -39 -2 -9 -5z"/>
 <path d="M1795 2319 c-4 -6 -5 -13 -2 -16 7 -7 27 6 27 18 0 12 -17 12 -25 -2z"/>
 <path d="M1777 2283 c-4 -3 -7 -22 -6 -42 l1 -36 9 39 c9 39 8 52 -4 39z"/>
 <path d="M1733 2230 c0 -30 2 -43 4 -27 2 15 2 39 0 55 -2 15 -4 2 -4 -28z"/>
 <path d="M1930 2172 c0 -23 4 -42 9 -42 6 0 7 17 4 38 -8 51 -13 53 -13 4z"/>
 <path d="M2503 2140 c0 -30 2 -43 4 -27 2 15 2 39 0 55 -2 15 -4 2 -4 -28z"/>
 <path d="M1790 2139 c0 -19 55 -72 70 -67 6 2 -7 21 -30 43 -25 24 -40 33 -40 24z"/>
 <path d="M1750 2125 c0 -12 24 -55 32 -55 11 0 10 4 -4 35 -9 21 -28 35 -28 20z"/>
 <path d="M1925 2089 c-4 -6 -5 -13 -2 -16 7 -7 27 6 27 18 0 12 -17 12 -25 -2z"/>
 <path d="M2503 1980 c0 -30 2 -43 4 -27 2 15 2 39 0 55 -2 15 -4 2 -4 -28z"/>
 <path d="M1900 1992 c0 -5 7 -16 16 -23 14 -12 16 -11 13 5 -4 20 -29 35 -29 18z"/>
 <path d="M2492 1820 c0 -19 2 -27 5 -17 2 9 2 25 0 35 -3 9 -5 1 -5 -18z"/>
 <path d="M2048 1763 c28 -2 76 -2 105 0 28 2 5 3 -53 3 -58 0 -81 -1 -52 -3z"/>
 <path d="M2343 1763 c26 -2 67 -2 90 0 23 2 2 3 -48 3 -49 0 -68 -1 -42 -3z"/>
 <path d="M2000 1714 c0 -14 3 -14 15 -4 8 7 15 14 15 16 0 2 -7 4 -15 4 -8 0 -15 -7 -15 -16z"/>
 <path d="M2071 1713 c7 -10 15 -20 16 -22 2 -2 3 5 3 17 0 14 -6 22 -16 22 -14 0 -15 -3 -3 -17z"/>
 <path d="M2395 1719 c-10 -15 4 -24 17 -11 8 8 15 9 25 1 10 -9 13 -8 13 5 0 18 -45 23 -55 5z"/>
 <path d="M2067 1656 c-4 -10 -5 -21 -2 -24 9 -9 17 6 13 25 -3 17 -4 17 -11 -1z"/>
 <path d="M2000 1615 c0 -8 7 -15 16 -15 14 0 14 3 4 15 -7 8 -14 15 -16 15 -2 0 -4 -7 -4 -15z"/>
 <path d="M1447 1483 c-4 -3 -6 -25 -5 -47 1 -39 1 -39 5 -7 3 22 11 35 24 38 10 3 19 9 19 14 0 10 -34 12 -43 2z"/>
 <path d="M2890 1432 c0 -5 9 -12 20 -15 12 -3 20 -14 20 -27 0 -32 -18 -60 -35 -54 -8 4 -15 1 -15 -5 0 -6 11 -11 25 -11 28 0 39 26 33 81 -2 26 -8 35 -25 37 -13 2 -23 -1 -23 -6z"/>
 <path d="M1496 1384 c-5 -13 -9 -14 -21 -4 -9 7 -19 10 -23 6 -8 -9 26 -36 45 -36 7 0 13 11 13 25 0 29 -5 32 -14 9z"/>
 </g>
<g id="layer5" fill="#262855" stroke="none">
 <path d="M90 6771 c0 -13 29 -35 37 -28 7 8 -15 37 -28 37 -5 0 -9 -4 -9 -9z"/>
 <path d="M480 6702 c0 -14 49 -56 57 -49 3 4 -4 18 -17 32 -24 25 -40 32 -40 17z"/>
 <path d="M290 6552 c0 -14 49 -56 57 -49 3 4 -4 18 -17 32 -24 25 -40 32 -40 17z"/>
 <path d="M500 6527 c0 -46 18 -75 73 -116 63 -48 77 -51 77 -13 0 83 -42 140 -109 149 -39 5 -41 4 -41 -20z"/>
 <path d="M350 6482 c0 -10 93 -102 103 -102 21 0 1 32 -42 68 -50 42 -61 48 -61 34z"/>
 <path d="M470 6353 c0 -10 52 -63 62 -63 15 0 8 21 -17 45 -23 24 -45 33 -45 18z"/>
 <path d="M902 6319 c2 -7 10 -15 17 -17 8 -3 12 1 9 9 -2 7 -10 15 -17 17 -8 3 -12 -1 -9 -9z"/>
 <path d="M710 6271 c0 -11 -16 -33 -37 -50 l-36 -30 73 -78 c40 -43 87 -97 104 -119 17 -23 76 -99 131 -170 95 -123 166 -223 293 -414 111 -167 359 -683 421 -875 106 -328 134 -436 166 -625 78 -466 108 -761 122 -1174 l6 -202 75 -1 c62 -1 78 -5 98 -24 30 -28 30 -39 0 -84 -54 -79 -38 -165 42 -237 47 -42 52 -44 90 -24 43 22 70 57 83 108 15 55 10 74 -53 205 -43 88 -43 98 -3 157 21 32 23 44 21 133 l-2 97 52 106 c30 63 55 128 59 158 5 37 11 52 22 52 10 0 13 6 8 18 -4 9 -11 62 -16 117 -12 121 -84 500 -140 735 -28 115 -100 335 -166 505 -67 174 -224 495 -292 597 -28 42 -51 78 -51 81 0 17 -217 342 -264 395 -18 20 -48 59 -66 87 -62 91 -211 269 -317 378 l-104 108 -49 -7 c-40 -5 -55 -3 -84 16 -20 12 -42 31 -50 42 -14 19 -68 37 -113 38 -16 0 -23 -6 -23 -19z"/>
 <path d="M580 6261 c0 -13 29 -35 37 -28 7 8 -15 37 -28 37 -5 0 -9 -4 -9 -9z"/>
 <path d="M2470 2773 c0 -16 5 -35 10 -43 7 -11 10 -4 10 28 0 23 -4 42 -10 42 -5 0 -10 -12 -10 -27z"/>
 <path d="M1760 2355 c-7 -9 -10 -18 -7 -22 8 -7 37 15 37 28 0 14 -16 11 -30 -6z"/>
 <path d="M1800 2315 c-7 -9 -10 -18 -7 -22 8 -7 37 15 37 28 0 14 -16 11 -30 -6z"/>
 <path d="M1921 2238 c-1 -21 4 -38 9 -38 12 0 12 27 0 55 -7 16 -9 13 -9 -17z"/>
 <path d="M2502 2220 c0 -19 2 -27 5 -17 2 9 2 25 0 35 -3 9 -5 1 -5 -18z"/>
 <path d="M1800 2132 c0 -14 49 -56 57 -49 3 4 -4 18 -17 32 -24 25 -40 32 -40 17z"/>
 <path d="M1930 2116 c0 -14 5 -26 10 -26 6 0 10 9 10 19 0 11 -4 23 -10 26 -6 4 -10 -5 -10 -19z"/>
 <path d="M1770 2072 c0 -14 49 -56 57 -49 3 4 -4 18 -17 32 -24 25 -40 32 -40 17z"/>
 <path d="M2500 2055 c0 -14 5 -25 10 -25 6 0 10 11 10 25 0 14 -4 25 -10 25 -5 0 -10 -11 -10 -25z"/>
 <path d="M1840 2010 c0 -5 7 -10 15 -10 8 0 15 5 15 10 0 6 -7 10 -15 10 -8 0 -15 -4 -15 -10z"/>
 <path d="M1892 1989 c2 -7 10 -15 17 -17 8 -3 12 1 9 9 -2 7 -10 15 -17 17 -8 3 -12 -1 -9 -9z"/>
 <path d="M1920 1823 c0 -55 5 -54 14 5 4 26 2 42 -4 42 -5 0 -10 -21 -10 -47z"/>
 <path d="M1953 1763 c9 -2 25 -2 35 0 9 3 1 5 -18 5 -19 0 -27 -2 -17 -5z"/>
 <path d="M2180 1760 c-10 -7 13 -10 75 -9 59 0 83 3 70 9 -28 12 -127 12 -145 0z"/>
 <path d="M2391 1703 c0 -25 1 -26 9 -8 12 27 12 35 0 35 -5 0 -10 -12 -9 -27z"/>
 <path d="M2147 1703 c-4 -3 -7 -13 -7 -21 0 -30 -33 -81 -68 -105 -42 -28 -164 -59 -327 -82 -186 -26 -190 -27 -190 -55 0 -25 0 -25 127 -32 156 -8 266 -24 296 -44 12 -8 34 -32 48 -54 32 -48 44 -51 221 -53 l140 -2 46 41 c55 49 100 64 198 65 41 1 103 4 139 8 56 5 65 9 65 26 0 16 -19 24 -135 51 -184 44 -256 78 -303 141 -19 27 -39 62 -43 78 -4 17 -12 33 -18 37 -14 10 -180 10 -189 1z"/>
 <path d="M1990 1655 c0 -8 5 -15 10 -15 6 0 10 7 10 15 0 8 -4 15 -10 15 -5 0 -10 -7 -10 -15z"/>
 <path d="M2046 1625 c-23 -17 -13 -34 11 -19 19 12 29 34 16 34 -4 0 -17 -7 -27 -15z"/>
 <path d="M1277 1463 c-4 -3 -7 -16 -7 -29 0 -16 9 -25 31 -33 70 -24 103 -6 81 45 -10 20 -19 24 -55 24 -24 0 -47 -3 -50 -7z"/>
 <path d="M2992 1373 c3 -27 6 -28 61 -31 l58 -3 -3 28 c-3 27 -6 28 -61 31 l-58 3 3 -28z"/>
 <path d="M2082 749 c4 -421 6 -447 26 -501 28 -78 66 -125 123 -154 157 -79 359 46 385 239 7 49 -9 73 -54 83 -142 31 -233 81 -263 148 -29 64 -25 107 14 154 31 37 34 47 40 133 7 90 -8 307 -22 321 -3 3 -62 10 -129 13 l-124 8 4 -444z"/>
 </g>
<g id="layer6" fill="#05050d" stroke="none">
 <path d="M42 6963 c-18 -7 -42 -58 -42 -89 0 -50 43 -118 136 -214 50 -52 105 -115 123 -140 38 -54 209 -238 347 -375 56 -55 119 -125 141 -155 22 -30 53 -66 68 -80 15 -14 43 -47 63 -75 20 -27 63 -84 96 -125 32 -41 68 -95 79 -119 19 -43 91 -153 127 -196 23 -27 120 -201 121 -217 0 -7 15 -40 33 -73 54 -97 136 -266 136 -280 0 -7 7 -18 15 -25 8 -7 15 -20 15 -29 0 -9 11 -34 23 -56 13 -22 29 -63 36 -90 7 -28 22 -68 32 -91 11 -22 19 -48 19 -57 0 -10 4 -25 9 -35 13 -23 51 -147 61 -197 5 -22 14 -58 20 -80 6 -22 15 -62 20 -90 5 -27 23 -117 40 -200 52 -245 48 -216 105 -797 8 -87 16 -259 17 -383 1 -205 0 -226 -17 -245 -10 -11 -31 -20 -47 -20 -42 0 -83 -25 -108 -66 -33 -52 -39 -199 -13 -264 31 -75 55 -107 89 -119 18 -6 44 -21 58 -32 24 -19 26 -26 26 -107 0 -98 7 -132 25 -132 17 0 42 -31 50 -62 9 -37 -21 -54 -110 -63 -38 -4 -110 -15 -160 -25 -52 -11 -161 -21 -258 -25 l-168 -7 -29 -30 c-40 -40 -40 -85 -1 -127 16 -17 38 -31 49 -31 12 0 24 -5 27 -11 4 -5 32 -9 63 -8 32 2 71 -1 89 -5 18 -4 50 -2 75 5 52 14 306 13 363 -2 45 -12 76 -38 107 -87 20 -33 21 -44 19 -480 l-2 -447 31 -90 c34 -101 67 -142 145 -182 43 -22 64 -26 145 -27 89 -1 98 1 144 29 26 17 73 45 103 64 45 27 60 43 80 87 23 51 24 61 18 158 -4 57 -10 108 -14 113 -3 5 -33 15 -66 22 -106 23 -161 49 -204 96 -23 25 -41 49 -41 54 0 5 15 28 34 50 19 23 37 55 41 72 4 17 1 97 -5 178 -7 80 -10 168 -6 194 10 64 56 115 138 152 53 24 73 27 147 26 47 0 113 -5 146 -11 81 -13 258 -13 289 1 27 12 36 35 36 90 0 41 -24 69 -59 69 -12 0 -72 11 -133 25 -61 14 -137 25 -168 25 -77 0 -245 50 -278 83 -35 35 -38 93 -6 114 21 13 24 23 24 73 0 31 4 79 9 106 20 106 13 464 -18 999 -21 351 -35 481 -63 605 -19 82 -38 195 -38 227 0 17 -4 35 -10 38 -5 3 -10 30 -10 60 0 30 -4 56 -9 60 -5 3 -13 31 -17 63 -3 31 -11 62 -16 68 -4 7 -15 40 -23 75 -38 171 -144 476 -242 697 -12 29 -23 56 -23 60 0 4 -9 18 -20 32 -11 14 -20 32 -20 41 0 9 -31 66 -70 128 -38 61 -94 157 -122 212 -29 55 -62 118 -73 138 -11 21 -45 69 -76 107 -31 38 -69 87 -85 109 -16 22 -45 60 -65 85 -20 25 -55 72 -78 105 -110 159 -237 316 -262 322 -9 3 -39 31 -66 62 -118 139 -582 559 -705 638 -24 15 -65 38 -93 52 -27 13 -63 35 -80 47 -63 47 -184 77 -233 57z m152 -78 c98 -52 274 -171 333 -227 28 -26 57 -48 63 -48 6 0 46 -35 88 -78 42 -43 133 -132 202 -198 225 -216 467 -488 570 -639 18 -28 48 -67 66 -87 47 -53 264 -378 264 -395 0 -3 23 -39 51 -81 68 -102 225 -423 292 -597 66 -170 138 -390 166 -505 56 -235 128 -614 140 -735 5 -55 15 -113 21 -130 26 -67 68 -992 56 -1240 -9 -183 15 -170 -297 -168 -222 1 -253 4 -270 19 -20 18 -25 64 -9 80 7 7 7 28 0 64 -11 59 -24 80 -49 80 -28 0 -100 69 -126 121 -19 37 -25 64 -25 113 0 62 2 67 38 106 34 35 45 40 83 40 24 0 50 4 57 9 7 4 20 41 29 82 33 155 -10 829 -79 1254 -66 408 -74 441 -199 830 -62 192 -310 708 -421 875 -127 191 -198 291 -293 413 -55 71 -110 142 -122 159 -41 58 -234 265 -258 278 -26 14 -169 165 -288 305 -42 50 -97 110 -123 135 -51 48 -104 124 -104 149 0 23 31 51 56 51 12 0 52 -16 88 -35z m1881 -5158 c37 -28 -17 -140 -59 -124 -24 9 -22 112 2 126 23 14 35 13 57 -2z m373 -14 c11 -18 -4 -73 -19 -73 -5 0 -16 14 -24 31 -13 24 -14 34 -4 45 15 19 36 18 47 -3z m-122 -18 c12 -8 24 -28 28 -45 3 -17 20 -51 37 -75 39 -54 122 -91 294 -130 132 -30 154 -40 133 -61 -8 -8 -58 -15 -143 -19 -165 -8 -204 -18 -261 -68 l-46 -40 -128 1 c-70 1 -139 6 -153 11 -14 6 -39 30 -56 55 -23 34 -41 48 -69 55 -55 15 -220 31 -312 31 -63 0 -82 3 -86 15 -4 8 -1 21 5 29 12 15 14 15 191 41 271 39 360 74 375 148 14 64 19 67 98 67 48 0 80 -5 93 -15z m-827 -270 c12 -62 0 -77 -34 -45 -29 27 -32 65 -8 92 21 24 31 14 42 -47z m-133 24 c39 -43 -19 -69 -74 -33 -23 15 -23 16 -6 35 22 25 56 24 80 -2z m1574 -64 c0 -29 -33 -70 -48 -61 -15 9 -15 56 -2 92 10 26 11 26 30 9 11 -10 20 -28 20 -40z m153 -3 c22 -24 5 -42 -38 -42 -39 0 -71 30 -53 48 18 18 73 14 91 -6z m-772 -213 c21 -10 40 -214 31 -320 -6 -66 -11 -81 -40 -113 -28 -32 -32 -44 -32 -91 0 -130 65 -186 263 -230 45 -9 79 -49 71 -82 -25 -105 -109 -206 -202 -242 -69 -27 -102 -26 -161 4 -62 31 -115 95 -143 171 -20 56 -21 80 -26 477 -3 329 -1 421 9 433 10 13 29 14 113 8 56 -3 108 -10 117 -15z"/>
 <path d="M1808 2313 c-40 -46 -33 -145 14 -199 25 -28 37 -34 71 -34 l40 0 -7 106 c-4 59 -11 115 -17 125 -13 25 -80 26 -101 2z m56 -104 c3 -17 6 -39 6 -48 -1 -30 -30 20 -30 51 0 38 16 36 24 -3z"/>
 </g>

</svg>