<!DOCTYPE svg PUBLIC "-//W3C//DTD SVG 20010904//EN" "http://www.w3.org/TR/2001/REC-SVG-20010904/DTD/svg10.dtd">
<svg version="1.0" xmlns="http://www.w3.org/2000/svg" width="147px" height="709px" viewBox="0 0 1470 7090" preserveAspectRatio="xMidYMid meet">
<g id="layer1" fill="#374967" stroke="none">
 <path d="M493 4249 c-6 -8 -11 -42 -12 -76 -1 -51 2 -63 15 -63 12 0 15 10 14 43 -3 81 -13 75 115 69 102 -4 115 -3 115 12 0 13 -12 16 -74 16 -40 0 -93 3 -117 6 -32 4 -48 2 -56 -7z"/>
 <path d="M860 4226 c0 -10 21 -15 83 -18 45 -2 84 -3 86 -2 2 2 1 10 -2 19 -9 21 -167 22 -167 1z"/>
 <path d="M990 4115 c0 -8 7 -15 15 -15 8 0 15 7 15 15 0 8 -7 15 -15 15 -8 0 -15 -7 -15 -15z"/>
 <path d="M620 4105 c0 -13 24 -15 155 -15 131 0 155 2 155 15 0 13 -24 15 -155 15 -131 0 -155 -2 -155 -15z"/>
 <path d="M497 3833 c-4 -3 -7 -15 -7 -25 0 -14 5 -18 19 -13 13 4 53 -16 124 -60 57 -36 113 -65 124 -65 17 0 141 69 207 116 11 8 31 14 43 14 23 0 32 23 13 35 -6 3 -67 -28 -136 -70 l-126 -76 -72 42 c-39 24 -92 58 -119 76 -48 34 -59 38 -70 26z"/>
 <path d="M492 3693 c2 -20 17 -37 55 -63 29 -19 52 -37 53 -40 0 -3 -15 -14 -32 -24 -66 -38 -101 -86 -63 -86 8 0 15 7 15 15 0 8 25 30 55 50 30 19 55 39 55 44 0 6 -25 27 -55 48 -39 27 -55 45 -55 61 0 13 -6 22 -16 22 -11 0 -14 -8 -12 -27z"/>
 <path d="M1000 3680 c0 -5 -17 -18 -37 -29 -21 -10 -47 -28 -57 -40 -18 -20 -18 -22 -2 -40 10 -11 35 -32 57 -47 22 -15 39 -35 39 -45 0 -11 7 -19 16 -19 31 0 9 44 -41 82 -27 21 -50 42 -50 47 0 5 22 24 49 43 52 35 69 58 42 58 -9 0 -16 -4 -16 -10z"/>
 <path d="M655 3445 c-60 -41 -116 -74 -122 -74 -7 -1 -13 10 -13 24 0 16 -6 25 -16 25 -23 0 -15 -74 9 -78 16 -3 198 100 240 136 15 13 19 13 35 0 43 -38 215 -139 228 -134 24 9 15 20 -34 43 -26 12 -85 47 -131 78 -47 30 -85 55 -85 54 -1 0 -50 -34 -111 -74z"/>
 <path d="M988 3007 c-15 -12 -68 -47 -117 -77 -50 -30 -91 -60 -91 -67 0 -7 2 -13 4 -13 2 0 56 32 120 70 63 39 120 70 126 70 14 0 9 32 -5 36 -5 2 -22 -7 -37 -19z"/>
 <path d="M507 3013 c-17 -16 -5 -33 22 -33 18 0 54 -19 103 -54 109 -78 128 -87 128 -61 0 8 -4 15 -8 15 -5 0 -56 32 -113 70 -101 68 -119 77 -132 63z"/>
 <path d="M510 2847 c0 -8 20 -28 45 -46 25 -18 45 -36 45 -41 0 -5 -13 -16 -30 -25 -30 -16 -40 -35 -18 -35 17 0 78 49 78 63 0 11 -101 97 -114 97 -3 0 -6 -6 -6 -13z"/>
 <path d="M958 2819 c-32 -22 -58 -45 -58 -52 0 -15 41 -55 83 -80 15 -10 27 -24 27 -32 0 -8 7 -15 16 -15 29 0 9 34 -44 74 -28 21 -52 44 -52 50 1 6 24 25 52 41 50 29 73 56 46 54 -7 0 -39 -19 -70 -40z"/>
 <path d="M500 2680 c0 -5 7 -10 15 -10 8 0 15 5 15 10 0 6 -7 10 -15 10 -8 0 -15 -4 -15 -10z"/>
 <path d="M690 2636 c-115 -72 -158 -96 -174 -96 -9 0 -16 -5 -16 -10 0 -29 39 -15 146 49 l117 71 48 -28 c26 -15 82 -49 124 -76 73 -47 105 -53 105 -21 0 9 -9 15 -23 15 -13 0 -47 15 -77 34 -123 78 -156 96 -175 96 -11 0 -45 -16 -75 -34z"/>
 <path d="M512 2188 c-7 -7 -12 -18 -12 -25 0 -15 27 -18 32 -3 2 6 21 -4 43 -23 22 -18 66 -48 97 -66 32 -18 60 -36 63 -42 15 -23 68 0 215 92 30 20 63 33 73 31 21 -4 24 26 3 34 -7 3 -68 -29 -135 -71 l-121 -75 -82 51 c-46 29 -99 65 -119 80 -42 33 -41 33 -57 17z"/>
 <path d="M500 2025 c0 -8 25 -32 56 -52 62 -41 64 -35 -16 -86 -37 -24 -54 -67 -26 -67 9 0 16 8 16 18 0 11 16 27 38 40 47 26 76 57 67 72 -3 5 -24 19 -46 30 -21 11 -45 29 -51 40 -15 23 -38 26 -38 5z"/>
 <path d="M961 1982 c-33 -29 -42 -42 -37 -57 10 -32 106 -91 106 -66 0 6 -20 24 -45 39 -25 15 -45 30 -45 35 0 4 23 22 50 39 28 17 50 35 50 39 0 20 -38 6 -79 -29z"/>
 <path d="M710 1827 c-19 -13 -65 -40 -102 -61 -63 -34 -68 -35 -68 -16 0 11 -7 20 -15 20 -20 0 -20 -59 -1 -66 14 -5 113 44 185 93 19 13 44 23 57 23 13 0 71 -29 130 -65 59 -36 114 -65 122 -63 22 4 27 28 6 28 -10 0 -68 29 -129 65 -62 36 -121 65 -131 65 -11 0 -35 -10 -54 -23z"/>
 <path d="M1125 1620 c-12 -19 5 -29 63 -36 73 -8 117 -27 132 -54 17 -32 -3 -48 -75 -61 -84 -16 -85 -17 -85 -34 0 -12 12 -15 54 -15 88 0 206 58 206 101 0 25 -64 77 -107 88 -61 15 -181 22 -188 11z m252 -117 c-16 -16 -17 -15 -17 17 0 32 1 33 17 17 16 -16 16 -18 0 -34z"/>
 <path d="M267 1586 c-119 -32 -122 -123 -7 -161 66 -22 145 -25 145 -6 0 18 -20 28 -67 36 -21 3 -50 16 -64 29 -35 29 -26 60 22 78 18 6 34 18 34 25 0 15 -1 15 -63 -1z"/>
 <path d="M468 1490 c-17 -4 -24 -14 -26 -39 -5 -46 12 -61 67 -61 60 0 91 9 91 26 0 10 -16 14 -60 14 -47 0 -60 3 -60 15 0 13 37 15 278 15 152 0 287 -3 300 -6 12 -4 22 -13 22 -22 0 -12 -11 -14 -69 -9 -105 9 -291 -3 -291 -19 0 -9 40 -13 163 -16 206 -4 221 -2 225 38 6 61 -1 63 -325 66 -161 2 -302 1 -315 -2z"/>
 <path d="M315 1364 c-90 -18 -123 -31 -158 -62 -48 -45 -32 -91 46 -126 78 -35 140 -53 262 -77 99 -19 134 -20 350 -16 132 3 263 10 290 15 28 6 84 16 125 22 136 22 220 67 220 117 0 33 -32 49 -147 72 -121 25 -152 26 -159 6 -10 -24 16 -47 46 -42 46 10 163 -10 177 -29 20 -27 -1 -41 -101 -69 -238 -66 -636 -72 -876 -13 -99 24 -133 39 -154 70 -40 57 -15 73 138 89 98 11 135 26 122 48 -9 14 -94 12 -181 -5z"/>
 </g>
<g id="layer2" fill="#4b543b" stroke="none">
 <path d="M621 7029 c-92 -23 -161 -56 -161 -75 0 -8 4 -14 9 -14 5 0 16 -7 25 -15 17 -18 11 -45 -10 -45 -8 0 -14 -7 -14 -15 0 -8 -7 -15 -16 -15 -8 0 -29 -14 -46 -30 -17 -17 -32 -29 -35 -26 -4 3 29 58 62 102 5 7 6 17 1 21 -10 10 -60 -48 -86 -97 -27 -53 -41 -132 -30 -171 16 -55 56 -106 95 -120 19 -7 37 -21 41 -31 17 -54 120 21 143 104 7 25 11 58 9 73 -3 26 1 30 47 43 66 19 110 19 168 -3 40 -15 47 -21 47 -44 1 -43 35 -105 78 -139 43 -34 66 -40 79 -19 4 7 27 18 50 25 76 22 101 70 94 182 -9 140 -160 282 -336 315 -98 19 -123 18 -214 -6z m159 -108 c0 -27 -26 -44 -55 -37 -45 11 -24 56 27 56 21 0 28 -5 28 -19z m61 -141 c23 -13 25 -40 3 -40 -8 0 -24 5 -35 11 -16 8 -18 13 -8 25 14 17 15 17 40 4z"/>
 </g>
<g id="layer3" fill="#535c63" stroke="none">
 <path d="M467 6963 c-9 -2 -26 -21 -38 -41 -11 -20 -33 -55 -49 -77 -29 -40 -40 -85 -20 -85 6 0 26 16 46 35 19 19 43 35 53 35 9 0 28 11 40 24 19 21 22 30 16 70 -7 45 -11 49 -48 39z"/>
 <path d="M790 6886 c0 -9 7 -16 16 -16 9 0 14 5 12 12 -6 18 -28 21 -28 4z"/>
 <path d="M786 6794 c-24 -23 -19 -42 14 -59 31 -16 70 -20 70 -7 0 4 3 17 6 29 5 17 -1 25 -25 37 -38 20 -46 20 -65 0z"/>
 <path d="M610 6780 c0 -24 25 -27 34 -4 9 23 8 24 -14 24 -13 0 -20 -7 -20 -20z"/>
 <path d="M890 6633 c0 -10 14 -34 30 -53 21 -26 32 -32 40 -24 9 9 5 22 -14 53 -27 42 -56 55 -56 24z"/>
 <path d="M510 6550 c0 -5 7 -10 15 -10 8 0 15 5 15 10 0 6 -7 10 -15 10 -8 0 -15 -4 -15 -10z"/>
 <path d="M497 4244 c-4 -4 -7 -35 -7 -69 0 -62 16 -95 39 -80 6 3 109 6 230 5 121 0 231 4 245 10 22 8 26 16 26 48 0 69 -4 71 -205 77 -99 3 -212 8 -251 10 -38 3 -73 2 -77 -1z"/>
 <path d="M498 3803 c-13 -15 -14 -27 -5 -76 10 -55 14 -61 63 -95 29 -21 53 -39 53 -42 1 -3 -21 -18 -47 -35 -62 -40 -76 -71 -65 -143 6 -40 13 -58 25 -60 9 -2 68 31 131 72 l116 75 78 -52 c154 -101 183 -108 183 -44 0 74 -11 97 -66 139 -30 22 -54 45 -54 50 0 5 14 17 32 26 18 9 45 29 60 44 23 22 28 35 28 76 0 61 -7 82 -27 82 -9 0 -55 -24 -102 -54 -155 -97 -131 -96 -260 -15 -62 38 -116 69 -120 69 -5 0 -15 -8 -23 -17z"/>
 <path d="M506 2984 c-3 -9 -6 -40 -6 -69 0 -52 1 -54 55 -100 30 -26 55 -51 55 -56 0 -4 -20 -20 -45 -35 -25 -14 -50 -34 -55 -44 -16 -30 -12 -136 5 -150 15 -12 10 -15 184 90 l64 39 39 -20 c22 -11 68 -40 103 -64 106 -72 135 -69 135 14 0 60 -15 88 -70 126 -25 17 -46 38 -48 46 -1 8 21 28 53 47 61 37 68 51 63 132 -2 40 -7 56 -19 58 -8 1 -64 -27 -123 -63 -59 -36 -117 -65 -128 -65 -25 0 -45 11 -136 76 -76 55 -115 67 -126 38z"/>
 <path d="M510 2164 c-6 -14 -10 -47 -10 -74 0 -40 5 -55 30 -83 16 -19 43 -40 60 -47 16 -7 30 -16 30 -21 0 -5 -25 -25 -56 -44 l-57 -37 6 -66 c4 -36 11 -70 16 -75 9 -9 102 38 181 90 19 13 43 23 54 23 10 0 70 -30 133 -66 135 -79 143 -77 143 22 0 57 -3 65 -26 81 -14 10 -40 30 -57 44 l-30 26 56 43 57 42 0 62 c0 36 -6 70 -13 80 -13 18 -18 16 -93 -31 -43 -27 -100 -62 -125 -76 -46 -26 -47 -26 -70 -8 -13 10 -46 31 -74 46 -27 16 -68 44 -89 62 -48 40 -54 40 -66 7z"/>
 <path d="M1340 1515 c0 -46 7 -53 39 -35 42 22 31 80 -14 80 -23 0 -25 -4 -25 -45z"/>
 <path d="M200 1510 c0 -11 7 -23 15 -27 21 -8 28 1 20 26 -8 27 -35 27 -35 1z"/>
 <path d="M472 1471 c-8 -4 -12 -19 -10 -32 3 -23 8 -24 93 -31 50 -4 189 -6 309 -5 195 2 220 4 230 19 8 14 7 22 -7 35 -16 16 -46 18 -310 21 -161 1 -298 -2 -305 -7z"/>
 <path d="M170 1216 c0 -9 7 -16 16 -16 17 0 14 22 -4 28 -7 2 -12 -3 -12 -12z"/>
 </g>
<g id="layer4" fill="#132547" stroke="none">
 <path d="M400 6899 c-12 -16 -20 -33 -17 -36 6 -6 56 47 57 60 0 17 -20 5 -40 -24z"/>
 <path d="M350 6820 c-6 -12 -9 -24 -7 -27 3 -2 11 5 17 17 6 12 9 24 7 27 -3 2 -11 -5 -17 -17z"/>
 <path d="M650 6725 c0 -8 5 -15 10 -15 6 0 10 7 10 15 0 8 -4 15 -10 15 -5 0 -10 -7 -10 -15z"/>
 <path d="M780 6732 c0 -13 32 -32 54 -32 9 0 16 7 16 15 0 8 -6 15 -12 15 -7 0 -23 3 -35 6 -14 4 -23 2 -23 -4z"/>
 <path d="M600 6715 c-7 -9 -11 -18 -8 -20 9 -10 38 7 38 21 0 18 -14 18 -30 -1z"/>
 <path d="M874 6613 c7 -28 67 -93 86 -93 18 0 11 17 -14 34 -14 8 -30 31 -37 51 -16 43 -44 49 -35 8z"/>
 <path d="M580 6610 c0 -5 7 -10 15 -10 8 0 15 5 15 10 0 6 -7 10 -15 10 -8 0 -15 -4 -15 -10z"/>
 <path d="M993 6498 c2 -7 10 -13 17 -13 7 0 15 6 18 13 2 7 -5 12 -18 12 -13 0 -20 -5 -17 -12z"/>
 <path d="M480 6485 c0 -8 5 -15 10 -15 6 0 10 7 10 15 0 8 -4 15 -10 15 -5 0 -10 -7 -10 -15z"/>
 <path d="M484 4259 c-3 -6 -4 -12 -2 -14 7 -7 316 -25 431 -25 85 0 107 3 107 14 0 11 -32 15 -157 20 -87 3 -206 8 -265 11 -69 3 -109 1 -114 -6z"/>
 <path d="M490 4105 c0 -8 5 -15 10 -15 6 0 10 7 10 15 0 8 -4 15 -10 15 -5 0 -10 -7 -10 -15z"/>
 <path d="M532 4100 c3 -13 38 -15 243 -15 205 0 240 2 243 15 2 13 -30 15 -243 15 -213 0 -245 -2 -243 -15z"/>
 <path d="M991 3846 c-15 -18 -150 -97 -205 -120 -37 -15 -40 -15 -70 4 -17 10 -49 29 -71 41 -22 12 -59 35 -82 50 -23 16 -45 29 -49 29 -8 0 -33 -32 -34 -42 0 -13 28 -9 32 3 2 7 24 -2 53 -23 28 -19 82 -53 121 -77 l71 -42 134 81 c74 44 134 85 134 92 0 18 -21 20 -34 4z"/>
 <path d="M480 3750 c0 -11 7 -20 15 -20 8 0 15 9 15 20 0 11 -7 20 -15 20 -8 0 -15 -9 -15 -20z"/>
 <path d="M500 3661 c0 -5 18 -23 40 -39 l41 -30 -43 -35 c-23 -20 -40 -39 -36 -42 8 -8 118 61 118 75 0 10 -98 80 -112 80 -5 0 -8 -4 -8 -9z"/>
 <path d="M955 3637 c-28 -18 -50 -39 -50 -47 0 -13 91 -90 108 -90 4 0 7 6 7 14 0 15 -55 66 -71 66 -16 0 -10 20 9 27 27 10 72 43 72 54 0 17 -25 9 -75 -24z"/>
 <path d="M756 3501 c-9 -13 -239 -151 -254 -151 -6 0 -12 -5 -12 -10 0 -26 33 -17 111 31 164 102 144 94 194 74 25 -9 79 -39 120 -66 42 -27 82 -49 90 -49 25 0 17 24 -12 37 -16 7 -73 42 -127 78 -110 72 -103 68 -110 56z"/>
 <path d="M994 3029 c-10 -12 -53 -38 -94 -59 -41 -21 -84 -47 -94 -59 -27 -30 -50 -26 -114 17 -131 89 -183 116 -182 95 1 -8 193 -139 238 -162 20 -11 33 -5 120 48 127 79 173 113 169 125 -6 18 -23 16 -43 -5z"/>
 <path d="M1020 2922 l0 -78 -52 -30 c-35 -20 -53 -36 -53 -49 0 -20 89 -95 113 -95 25 0 11 22 -33 48 -53 32 -54 50 -2 75 46 21 57 48 57 138 0 55 -3 69 -15 69 -12 0 -15 -15 -15 -78z"/>
 <path d="M500 2841 c0 -6 16 -22 35 -37 19 -14 35 -32 35 -39 0 -8 -14 -25 -32 -39 -18 -14 -29 -28 -25 -32 9 -9 72 24 95 50 16 17 15 20 -33 62 -48 42 -75 54 -75 35z"/>
 <path d="M640 2595 c-58 -35 -111 -65 -117 -65 -7 0 -13 -7 -13 -16 0 -11 6 -14 23 -8 26 8 137 68 186 101 19 13 40 23 47 23 7 0 48 -23 91 -52 172 -115 168 -113 183 -72 15 38 12 74 -5 74 -10 0 -15 -11 -15 -35 l0 -35 -80 53 c-126 81 -154 97 -175 97 -12 0 -68 -29 -125 -65z"/>
 <path d="M1020 2620 c0 -11 7 -20 15 -20 8 0 15 9 15 20 0 11 -7 20 -15 20 -8 0 -15 -9 -15 -20z"/>
 <path d="M507 2203 c-12 -11 -7 -23 9 -23 9 0 33 -13 53 -29 20 -15 73 -51 119 -80 l82 -51 120 75 c66 41 122 75 125 75 3 0 5 -35 5 -78 l0 -77 -47 -35 c-26 -19 -48 -41 -51 -47 -2 -7 19 -27 47 -44 l51 -32 0 -79 c0 -44 -3 -77 -7 -75 -5 3 -57 35 -116 71 -59 36 -118 66 -130 66 -13 0 -46 -15 -73 -33 -28 -18 -79 -46 -112 -62 -54 -27 -81 -55 -52 -55 17 0 152 72 184 98 22 18 37 22 59 18 24 -5 129 -69 215 -132 22 -16 24 -16 40 0 12 12 18 38 20 94 l4 77 -41 47 c-45 50 -48 58 -27 58 8 0 26 15 40 33 23 29 26 44 26 110 0 41 -3 82 -6 91 -9 23 -40 20 -77 -7 -18 -13 -69 -45 -115 -71 l-83 -47 -72 45 c-40 25 -94 59 -121 75 -51 33 -58 35 -69 24z"/>
 <path d="M510 1995 c0 -9 16 -23 35 -32 19 -9 35 -22 35 -29 0 -7 -16 -22 -35 -34 -30 -19 -46 -40 -30 -40 24 0 115 64 115 80 0 8 -98 70 -111 70 -5 0 -9 -7 -9 -15z"/>
 <path d="M500 1810 c0 -5 7 -10 15 -10 8 0 15 5 15 10 0 6 -7 10 -15 10 -8 0 -15 -4 -15 -10z"/>
 <path d="M1097 1653 c-12 -11 -8 -50 6 -61 6 -5 37 -13 68 -16 65 -8 119 -37 119 -65 0 -25 -6 -28 -66 -36 -41 -6 -54 -4 -69 11 -17 17 -43 18 -367 19 -320 0 -351 -1 -365 -17 -30 -34 -123 -17 -123 21 0 38 68 59 114 35 39 -20 43 -18 42 19 -2 50 -11 57 -74 57 -113 0 -232 -68 -218 -124 3 -14 22 -40 41 -59 32 -31 46 -67 27 -67 -5 0 -32 -22 -60 -49 -58 -56 -65 -85 -29 -119 13 -12 26 -22 30 -22 12 0 8 21 -8 36 -20 21 -19 58 3 76 23 20 81 42 89 34 3 -3 0 -6 -9 -6 -19 0 -48 -32 -48 -52 0 -22 38 -67 74 -89 l31 -19 -32 6 c-57 11 -37 -13 29 -35 74 -25 78 -25 78 -6 0 8 9 15 19 15 14 0 18 -5 14 -19 -4 -15 2 -20 31 -25 19 -4 47 -13 62 -21 15 -8 40 -11 56 -8 26 5 28 4 28 -28 -1 -36 -9 -102 -35 -266 -17 -107 -71 -285 -110 -363 -22 -44 -62 -84 -154 -158 -45 -36 -53 -68 -23 -95 32 -29 77 -39 172 -39 86 1 101 -2 157 -29 58 -29 68 -31 190 -32 120 -1 132 1 193 28 52 22 86 29 167 34 81 5 108 10 130 27 47 36 42 55 -37 125 -39 35 -86 84 -105 109 -59 81 -126 306 -150 502 -9 68 -18 137 -21 155 l-6 32 49 -6 c36 -4 57 -1 74 10 13 8 53 18 89 22 36 3 74 10 85 14 11 5 43 14 70 20 62 15 119 59 123 95 4 32 -15 35 -20 4 -3 -26 -71 -64 -128 -73 -34 -5 -34 -4 6 9 66 22 84 35 84 59 0 23 -17 47 -32 47 -4 0 -5 -13 -2 -29 6 -28 4 -30 -51 -47 -45 -15 -55 -22 -52 -36 3 -11 0 -18 -9 -18 -8 0 -14 7 -14 15 0 8 -4 15 -10 15 -5 0 -10 -9 -10 -20 0 -11 -4 -20 -10 -20 -5 0 -10 7 -10 15 0 8 -9 15 -20 15 -11 0 -20 -7 -20 -15 0 -8 -4 -15 -10 -15 -5 0 -10 5 -10 11 0 9 -25 10 -87 6 l-88 -5 -2 114 -2 114 42 0 c44 0 77 14 64 26 -11 11 -399 24 -504 17 l-93 -6 0 30 c0 21 6 32 18 34 9 2 150 2 312 -1 l295 -5 3 -30 c4 -36 16 -50 33 -39 7 4 37 6 66 5 65 -3 188 32 229 64 l29 23 -16 43 c-16 44 -50 70 -111 84 -21 6 -28 3 -28 -8 0 -8 12 -17 28 -20 15 -3 40 -15 55 -27 37 -30 32 -60 -13 -82 -49 -24 -57 -22 -31 6 18 20 21 28 12 44 -16 29 -57 60 -91 67 -17 4 -30 12 -30 20 0 7 -18 15 -45 19 -24 4 -47 11 -50 17 -7 11 -19 12 -28 2z m-859 -118 c-10 -22 -8 -29 13 -51 13 -15 38 -33 54 -40 42 -19 8 -17 -48 2 -26 9 -52 24 -57 34 -17 31 7 75 42 79 4 1 2 -10 -4 -24z m902 -65 c0 -19 -18 -19 -23 -1 -3 14 -1 18 9 14 8 -3 14 -9 14 -13z m150 -20 c-8 -5 -24 -9 -35 -9 -16 1 -16 2 5 9 35 11 48 11 30 0z m-690 -190 l5 -115 -70 3 c-76 4 -183 30 -243 59 -27 13 -38 25 -40 45 -3 28 3 30 176 63 19 4 32 13 32 22 0 12 -12 14 -67 9 -45 -3 -58 -2 -38 3 17 5 58 9 92 10 34 0 65 6 68 12 4 5 23 9 43 7 l37 -3 5 -115z m-245 -110 c13 -5 14 -9 5 -9 -8 0 -24 4 -35 9 -13 5 -14 9 -5 9 8 0 24 -4 35 -9z m314 -46 c8 -7 -124 -2 -154 6 -16 4 11 5 60 2 50 -3 92 -6 94 -8z"/>
 <path d="M1155 1340 c-11 -17 5 -30 38 -31 18 0 26 -3 20 -6 -21 -8 -15 -33 7 -33 11 0 20 7 20 15 0 16 12 18 48 9 12 -4 22 -13 22 -20 0 -8 5 -14 10 -14 6 0 10 5 10 11 0 7 16 8 45 3 27 -4 45 -2 45 3 0 9 -25 21 -105 53 -32 13 -154 20 -160 10z"/>
 </g>
<g id="layer5" fill="#080f1d" stroke="none">
 <path d="M615 7078 c-33 -5 -84 -19 -113 -30 -55 -22 -152 -100 -152 -124 0 -7 -9 -18 -20 -24 -11 -6 -20 -17 -20 -26 0 -8 -10 -28 -22 -45 -18 -24 -24 -47 -27 -110 -3 -70 0 -86 24 -134 14 -30 31 -55 36 -55 6 0 23 -14 39 -31 22 -25 29 -44 35 -98 4 -36 11 -71 16 -77 5 -6 10 -714 11 -1625 2 -888 5 -1830 8 -2094 3 -264 4 -589 2 -723 l-2 -242 -68 0 c-37 0 -72 -4 -78 -8 -5 -5 -28 -15 -52 -22 -45 -14 -102 -68 -102 -97 0 -27 48 -101 70 -108 18 -6 15 -11 -27 -45 -26 -22 -53 -50 -60 -62 -18 -34 -16 -92 5 -110 30 -27 107 -57 240 -94 70 -20 135 -38 144 -41 9 -3 19 -10 21 -16 14 -37 -60 -438 -89 -484 -8 -12 -14 -31 -14 -41 0 -51 -64 -133 -157 -203 -54 -40 -83 -82 -83 -118 0 -32 65 -96 121 -120 42 -18 66 -22 143 -19 79 2 97 -1 122 -17 27 -18 47 -20 247 -20 215 0 219 0 237 23 16 20 27 22 102 22 94 0 179 21 209 51 13 13 19 33 19 67 0 75 -8 88 -74 131 -68 45 -105 80 -129 126 -31 57 -67 154 -67 179 0 14 -7 43 -15 63 -36 94 -70 297 -58 344 3 10 14 19 24 19 11 0 27 4 37 9 23 13 104 31 137 31 14 0 33 4 43 9 9 5 40 14 67 20 67 16 119 58 123 101 2 18 1 42 -2 54 -6 26 -93 89 -112 82 -7 -3 -16 -1 -19 4 -4 6 -28 10 -56 10 -65 0 -63 15 5 28 54 11 125 41 160 67 15 12 17 22 12 59 -13 84 -66 117 -205 130 -34 3 -75 12 -90 19 -23 11 -26 18 -23 59 2 25 -2 49 -7 52 -6 4 -10 539 -10 1514 -1 1510 -3 1803 -17 2677 -4 259 -4 483 0 498 4 17 13 27 24 27 29 0 59 27 81 73 16 34 21 62 21 128 0 46 -4 101 -9 122 -10 43 -85 135 -148 182 -23 17 -43 38 -46 47 -3 11 -14 17 -29 17 -12 -1 -43 3 -68 10 -64 16 -245 21 -315 9z m220 -63 c190 -36 316 -166 317 -326 1 -87 -15 -114 -80 -132 -29 -8 -51 -22 -56 -34 -9 -20 -11 -19 -59 15 -53 38 -67 63 -67 121 0 44 -14 61 -51 61 -14 0 -38 9 -53 21 -29 23 -51 22 -126 -6 -63 -23 -70 -32 -70 -81 0 -50 -28 -108 -68 -141 -34 -29 -40 -29 -52 2 -5 14 -16 25 -24 25 -44 0 -95 52 -110 114 -17 69 30 191 104 267 42 44 81 62 184 89 88 23 114 24 211 5z m28 -2781 l147 -6 0 -63 0 -63 -220 -1 c-121 -1 -236 1 -255 5 l-35 6 0 68 0 69 108 -5 c59 -2 173 -7 255 -10z m147 -487 c0 -92 0 -94 -27 -107 -71 -36 -80 -63 -29 -84 48 -20 57 -44 54 -136 l-3 -79 -83 54 c-45 29 -102 61 -127 70 -50 20 -30 27 -193 -74 -46 -28 -85 -51 -88 -51 -2 0 -4 39 -4 87 l0 86 40 34 c22 19 40 40 40 47 0 7 -18 26 -39 40 -38 27 -40 30 -46 103 -9 95 -1 105 57 65 23 -16 61 -39 83 -51 22 -12 54 -31 71 -41 30 -19 33 -19 70 -4 55 23 190 102 204 119 7 8 14 15 16 15 2 0 4 -42 4 -93z m19 -817 c1 -83 -6 -108 -33 -116 -27 -8 -66 -44 -66 -61 0 -7 19 -25 43 -39 23 -15 43 -28 45 -29 8 -7 11 -162 3 -174 -10 -16 -3 -20 -164 87 -43 29 -84 52 -91 52 -7 0 -30 -11 -50 -25 -21 -14 -72 -44 -114 -66 l-77 -41 -3 84 -3 83 35 31 c20 17 36 38 36 47 0 9 -16 29 -35 44 l-35 28 0 93 0 92 58 -37 c31 -20 82 -54 114 -75 66 -45 86 -47 122 -13 15 14 58 41 94 59 37 19 76 44 87 56 18 20 20 20 26 3 4 -10 8 -47 8 -83z m-445 -775 c26 -17 79 -49 117 -73 l68 -43 98 56 c54 31 107 65 118 75 35 31 45 15 45 -74 0 -87 -8 -108 -50 -129 -28 -14 -41 -57 -17 -57 9 0 27 -14 42 -32 25 -30 27 -37 23 -109 -1 -43 -6 -81 -10 -85 -4 -4 -18 1 -30 10 -79 58 -188 126 -211 131 -21 6 -38 1 -70 -21 -51 -34 -168 -97 -172 -92 -1 2 -5 37 -9 78 l-6 75 40 27 c22 15 40 35 40 43 0 8 -18 26 -40 40 l-40 25 0 96 c0 53 3 94 8 92 4 -2 29 -17 56 -33z m581 -539 c16 -4 61 -11 100 -16 97 -11 121 -23 144 -69 l20 -39 -22 -15 c-39 -26 -156 -57 -212 -57 -46 0 -52 2 -49 18 4 14 17 17 65 18 47 1 65 6 81 22 48 47 -14 105 -126 118 -47 6 -56 10 -56 27 0 14 3 17 13 10 6 -6 25 -13 42 -17z m-725 -20 c0 -24 -14 -34 -35 -26 -50 19 -125 -17 -125 -61 0 -26 48 -59 86 -59 35 0 50 -14 46 -42 -2 -11 3 -18 14 -18 11 0 15 6 11 20 -3 11 -1 23 4 26 5 3 7 15 4 27 l-6 22 327 0 326 -1 14 -32 c10 -25 11 -34 1 -36 -7 -2 -31 -9 -55 -17 -24 -7 -60 -13 -80 -13 l-37 -1 0 -128 c0 -71 3 -131 6 -133 4 -2 62 1 130 6 175 13 309 56 309 99 0 37 -35 54 -123 58 -102 5 -113 9 -98 27 12 15 114 13 156 -3 70 -26 120 -58 123 -78 4 -29 -49 -68 -113 -84 -28 -6 -59 -15 -70 -20 -11 -4 -49 -11 -85 -14 -36 -4 -76 -14 -88 -22 -18 -11 -38 -13 -83 -8 -39 5 -59 3 -59 -4 0 -54 46 -345 66 -420 62 -226 92 -281 218 -396 103 -94 90 -115 -79 -126 -78 -5 -114 -12 -165 -34 -61 -27 -73 -29 -193 -28 -123 1 -132 3 -191 32 -56 27 -70 30 -151 29 -100 -2 -160 13 -176 44 -9 16 -5 24 26 51 162 141 171 154 229 333 36 108 55 208 78 395 14 119 9 133 -36 126 -20 -3 -45 0 -60 9 -15 7 -60 20 -99 28 -73 15 -131 33 -190 60 -17 7 -40 16 -50 20 -49 16 -32 72 38 126 33 25 55 50 55 62 0 10 -18 36 -40 57 -62 59 -50 94 46 131 42 16 174 28 174 16z m800 -61 c40 -21 38 -32 -7 -37 -38 -5 -93 21 -93 43 0 15 68 10 100 -6z m-833 -19 c-7 -22 -36 -30 -63 -17 -22 10 -25 14 -13 21 18 12 80 8 76 -4z m716 -181 c-16 -34 -16 -36 5 -58 18 -18 41 -24 120 -33 92 -10 96 -11 67 -23 -51 -22 -146 -42 -222 -46 l-73 -4 0 87 c0 87 0 88 28 99 15 6 42 11 59 12 l33 1 -17 -35z"/>
 <path d="M700 6936 c-26 -29 -22 -51 15 -68 33 -15 72 2 81 37 14 54 -53 76 -96 31z"/>
 <path d="M489 1369 c-16 -16 -45 -31 -66 -34 -84 -15 -167 -36 -180 -46 -20 -18 -15 -53 11 -78 27 -25 151 -70 211 -76 22 -2 67 -7 100 -9 l60 -5 -4 122 c-2 67 -7 130 -12 139 -15 29 -85 21 -120 -13z m36 -156 c-6 -38 -9 -43 -33 -43 -37 1 -215 62 -219 76 -3 7 18 16 49 22 156 31 196 46 200 75 1 6 3 -10 6 -38 2 -27 1 -69 -3 -92z"/>
 </g>

</svg>