<!DOCTYPE svg PUBLIC "-//W3C//DTD SVG 20010904//EN" "http://www.w3.org/TR/2001/REC-SVG-20010904/DTD/svg10.dtd">
<svg version="1.0" xmlns="http://www.w3.org/2000/svg" width="1310px" height="1600px" viewBox="0 0 13100 16000" preserveAspectRatio="xMidYMid meet">
<g id="layer1" fill="#759993" stroke="none">
 <path d="M6440 15491 c0 -16 7 -35 16 -42 33 -27 102 -126 136 -194 19 -38 51 -122 71 -185 85 -275 107 -349 121 -410 22 -94 73 -325 86 -392 12 -62 15 -65 44 -43 20 15 18 27 -84 465 -84 362 -197 639 -311 763 -33 37 -65 67 -70 67 -5 0 -9 -13 -9 -29z"/>
 <path d="M10394 15213 c-9 -23 -6 -37 12 -73 12 -25 28 -66 34 -90 23 -79 10 -728 -16 -847 -3 -16 0 -23 10 -23 40 0 47 32 62 285 3 55 9 134 14 175 4 41 7 100 5 130 -2 30 -6 99 -10 152 -6 105 -33 209 -71 276 -14 23 -26 42 -27 42 -2 0 -8 -12 -13 -27z"/>
 <path d="M6974 14268 c-4 -7 -3 -8 4 -4 7 4 12 9 12 12 0 8 -9 4 -16 -8z"/>
 <path d="M4591 7374 c0 -11 3 -14 6 -6 3 7 2 16 -1 19 -3 4 -6 -2 -5 -13z"/>
 <path d="M8013 5923 c4 -3 10 -3 14 0 3 4 0 7 -7 7 -7 0 -10 -3 -7 -7z"/>
 <path d="M8463 5923 c4 -3 10 -3 14 0 3 4 0 7 -7 7 -7 0 -10 -3 -7 -7z"/>
 <path d="M7973 5913 c4 -3 10 -3 14 0 3 4 0 7 -7 7 -7 0 -10 -3 -7 -7z"/>
 <path d="M7943 5903 c4 -3 10 -3 14 0 3 4 0 7 -7 7 -7 0 -10 -3 -7 -7z"/>
 <path d="M8553 5893 c4 -3 10 -3 14 0 3 4 0 7 -7 7 -7 0 -10 -3 -7 -7z"/>
 <path d="M8596 5833 c-6 -14 -5 -15 5 -6 7 7 10 15 7 18 -3 3 -9 -2 -12 -12z"/>
 <path d="M8592 5600 c0 -14 2 -19 5 -12 2 6 2 18 0 25 -3 6 -5 1 -5 -13z"/>
 <path d="M8601 5514 c0 -11 3 -14 6 -6 3 7 2 16 -1 19 -3 4 -6 -2 -5 -13z"/>
 <path d="M7482 4995 c0 -16 2 -22 5 -12 2 9 2 23 0 30 -3 6 -5 -1 -5 -18z"/>
 <path d="M7473 4835 c0 -33 2 -45 4 -27 2 18 2 45 0 60 -2 15 -4 0 -4 -33z"/>
 <path d="M8760 4830 c0 -7 3 -10 7 -7 3 4 3 10 0 14 -4 3 -7 0 -7 -7z"/>
 <path d="M7481 4694 c0 -11 3 -14 6 -6 3 7 2 16 -1 19 -3 4 -6 -2 -5 -13z"/>
 <path d="M8730 4630 c0 -7 3 -10 7 -7 3 4 3 10 0 14 -4 3 -7 0 -7 -7z"/>
 <path d="M8770 4510 c0 -7 3 -10 7 -7 3 4 3 10 0 14 -4 3 -7 0 -7 -7z"/>
 <path d="M9045 4390 c3 -5 8 -10 11 -10 3 0 2 5 -1 10 -3 6 -8 10 -11 10 -3 0 -2 -4 1 -10z"/>
 <path d="M8740 4380 c0 -7 3 -10 7 -7 3 4 3 10 0 14 -4 3 -7 0 -7 -7z"/>
 <path d="M8660 4330 c0 -7 3 -10 7 -7 3 4 3 10 0 14 -4 3 -7 0 -7 -7z"/>
 <path d="M8650 4300 c0 -7 3 -10 7 -7 3 4 3 10 0 14 -4 3 -7 0 -7 -7z"/>
 <path d="M8094 4118 c-4 -7 -3 -8 4 -4 7 4 12 9 12 12 0 8 -9 4 -16 -8z"/>
 <path d="M7999 4103 c-13 -16 -12 -17 4 -4 16 13 21 21 13 21 -2 0 -10 -8 -17 -17z"/>
 <path d="M8175 4110 c3 -5 8 -10 11 -10 3 0 2 5 -1 10 -3 6 -8 10 -11 10 -3 0 -2 -4 1 -10z"/>
 <path d="M7645 4040 c3 -5 8 -10 11 -10 3 0 2 5 -1 10 -3 6 -8 10 -11 10 -3 0 -2 -4 1 -10z"/>
 <path d="M8305 4000 c3 -5 8 -10 11 -10 3 0 2 5 -1 10 -3 6 -8 10 -11 10 -3 0 -2 -4 1 -10z"/>
 </g>
<g id="layer2" fill="#79c4c2" stroke="none">
 <path d="M8153 5903 c4 -3 10 -3 14 0 3 4 0 7 -7 7 -7 0 -10 -3 -7 -7z"/>
 <path d="M8333 5903 c4 -3 10 -3 14 0 3 4 0 7 -7 7 -7 0 -10 -3 -7 -7z"/>
 <path d="M8582 5740 c0 -19 2 -27 5 -17 2 9 2 25 0 35 -3 9 -5 1 -5 -18z"/>
 <path d="M7510 5180 c0 -7 3 -10 7 -7 3 4 3 10 0 14 -4 3 -7 0 -7 -7z"/>
 <path d="M7500 5130 c0 -7 3 -10 7 -7 3 4 3 10 0 14 -4 3 -7 0 -7 -7z"/>
 <path d="M8750 4800 c0 -7 3 -10 7 -7 3 4 3 10 0 14 -4 3 -7 0 -7 -7z"/>
 <path d="M8740 4690 c0 -7 3 -10 7 -7 3 4 3 10 0 14 -4 3 -7 0 -7 -7z"/>
 <path d="M8104 4672 c-6 -4 -23 -28 -38 -54 -15 -27 -30 -48 -32 -48 -2 0 -24 10 -49 22 -41 20 -47 21 -61 6 -15 -14 -14 -20 5 -63 l21 -47 -35 -41 c-20 -23 -34 -46 -32 -51 2 -6 32 -11 67 -11 61 0 63 -1 101 -45 34 -39 40 -43 53 -30 8 8 21 33 28 55 11 35 18 41 55 50 69 17 70 26 7 80 l-56 49 6 54 c8 65 -8 96 -40 74z m38 -184 l41 -32 -32 -9 c-24 -6 -36 -17 -47 -44 l-15 -36 -33 32 c-30 29 -37 32 -72 25 l-38 -7 17 24 c29 40 30 50 14 85 -19 40 -19 40 26 14 40 -24 59 -19 78 18 l13 27 4 -32 c2 -24 14 -41 44 -65z"/>
 <path d="M7510 4530 c0 -7 3 -10 7 -7 3 4 3 10 0 14 -4 3 -7 0 -7 -7z"/>
 <path d="M8640 4270 c0 -7 3 -10 7 -7 3 4 3 10 0 14 -4 3 -7 0 -7 -7z"/>
 <path d="M8630 4240 c0 -7 3 -10 7 -7 3 4 3 10 0 14 -4 3 -7 0 -7 -7z"/>
 <path d="M8230 4146 c0 -2 8 -10 18 -17 15 -13 16 -12 3 4 -13 16 -21 21 -21 13z"/>
 </g>
<g id="layer3" fill="#938f90" stroke="none">
 <path d="M6440 15370 c0 -7 3 -10 7 -7 3 4 3 10 0 14 -4 3 -7 0 -7 -7z"/>
 <path d="M6441 15334 c0 -11 3 -14 6 -6 3 7 2 16 -1 19 -3 4 -6 -2 -5 -13z"/>
 <path d="M6930 14770 c0 -7 3 -10 7 -7 3 4 3 10 0 14 -4 3 -7 0 -7 -7z"/>
 <path d="M6471 14334 c0 -11 3 -14 6 -6 3 7 2 16 -1 19 -3 4 -6 -2 -5 -13z"/>
 <path d="M10660 14340 c0 -7 3 -10 7 -7 3 4 3 10 0 14 -4 3 -7 0 -7 -7z"/>
 <path d="M6807 14161 c-4 -17 -3 -21 5 -13 5 5 8 16 6 23 -3 8 -7 3 -11 -10z"/>
 <path d="M6482 14150 c0 -14 2 -19 5 -12 2 6 2 18 0 25 -3 6 -5 1 -5 -13z"/>
 <path d="M10060 14120 c0 -7 3 -10 7 -7 3 4 3 10 0 14 -4 3 -7 0 -7 -7z"/>
 <path d="M6500 14080 c0 -7 3 -10 7 -7 3 4 3 10 0 14 -4 3 -7 0 -7 -7z"/>
 <path d="M6650 13680 c0 -7 3 -10 7 -7 3 4 3 10 0 14 -4 3 -7 0 -7 -7z"/>
 <path d="M9971 13494 c0 -11 3 -14 6 -6 3 7 2 16 -1 19 -3 4 -6 -2 -5 -13z"/>
 <path d="M9961 13424 c0 -11 3 -14 6 -6 3 7 2 16 -1 19 -3 4 -6 -2 -5 -13z"/>
 <path d="M9951 13364 c0 -11 3 -14 6 -6 3 7 2 16 -1 19 -3 4 -6 -2 -5 -13z"/>
 <path d="M6780 13310 c0 -7 3 -10 7 -7 3 4 3 10 0 14 -4 3 -7 0 -7 -7z"/>
 <path d="M6810 13220 c0 -7 3 -10 7 -7 3 4 3 10 0 14 -4 3 -7 0 -7 -7z"/>
 <path d="M10360 13220 c0 -7 3 -10 7 -7 3 4 3 10 0 14 -4 3 -7 0 -7 -7z"/>
 <path d="M10361 13184 c0 -11 3 -14 6 -6 3 7 2 16 -1 19 -3 4 -6 -2 -5 -13z"/>
 <path d="M10350 12870 c0 -7 3 -10 7 -7 3 4 3 10 0 14 -4 3 -7 0 -7 -7z"/>
 <path d="M10240 12843 c14 -3 42 -8 63 -13 32 -7 36 -6 26 6 -7 9 -29 14 -63 13 -28 -1 -40 -4 -26 -6z"/>
 <path d="M6980 12700 c0 -7 3 -10 7 -7 3 4 3 10 0 14 -4 3 -7 0 -7 -7z"/>
 <path d="M9820 12550 c0 -7 3 -10 7 -7 3 4 3 10 0 14 -4 3 -7 0 -7 -7z"/>
 <path d="M10340 12550 c0 -7 3 -10 7 -7 3 4 3 10 0 14 -4 3 -7 0 -7 -7z"/>
 <path d="M9810 12490 c0 -7 3 -10 7 -7 3 4 3 10 0 14 -4 3 -7 0 -7 -7z"/>
 <path d="M9791 12354 c0 -11 3 -14 6 -6 3 7 2 16 -1 19 -3 4 -6 -2 -5 -13z"/>
 <path d="M9780 12290 c0 -7 3 -10 7 -7 3 4 3 10 0 14 -4 3 -7 0 -7 -7z"/>
 <path d="M7130 12180 c0 -7 3 -10 7 -7 3 4 3 10 0 14 -4 3 -7 0 -7 -7z"/>
 <path d="M7140 12150 c0 -7 3 -10 7 -7 3 4 3 10 0 14 -4 3 -7 0 -7 -7z"/>
 <path d="M7150 12100 c0 -7 3 -10 7 -7 3 4 3 10 0 14 -4 3 -7 0 -7 -7z"/>
 <path d="M7770 11990 c0 -7 3 -10 7 -7 3 4 3 10 0 14 -4 3 -7 0 -7 -7z"/>
 <path d="M7780 11960 c0 -7 3 -10 7 -7 3 4 3 10 0 14 -4 3 -7 0 -7 -7z"/>
 <path d="M9690 11710 c0 -7 3 -10 7 -7 3 4 3 10 0 14 -4 3 -7 0 -7 -7z"/>
 <path d="M10300 11700 c0 -7 3 -10 7 -7 3 4 3 10 0 14 -4 3 -7 0 -7 -7z"/>
 <path d="M10290 11530 c0 -7 3 -10 7 -7 3 4 3 10 0 14 -4 3 -7 0 -7 -7z"/>
 <path d="M7940 11480 c0 -7 3 -10 7 -7 3 4 3 10 0 14 -4 3 -7 0 -7 -7z"/>
 <path d="M7290 11460 c0 -7 3 -10 7 -7 3 4 3 10 0 14 -4 3 -7 0 -7 -7z"/>
 <path d="M7950 11430 c0 -7 3 -10 7 -7 3 4 3 10 0 14 -4 3 -7 0 -7 -7z"/>
 <path d="M7301 11414 c0 -11 3 -14 6 -6 3 7 2 16 -1 19 -3 4 -6 -2 -5 -13z"/>
 <path d="M9650 11420 c0 -7 3 -10 7 -7 3 4 3 10 0 14 -4 3 -7 0 -7 -7z"/>
 <path d="M10270 11400 c0 -7 3 -10 7 -7 3 4 3 10 0 14 -4 3 -7 0 -7 -7z"/>
 <path d="M7310 11360 c0 -7 3 -10 7 -7 3 4 3 10 0 14 -4 3 -7 0 -7 -7z"/>
 <path d="M7330 11270 c0 -7 3 -10 7 -7 3 4 3 10 0 14 -4 3 -7 0 -7 -7z"/>
 <path d="M9630 11270 c0 -7 3 -10 7 -7 3 4 3 10 0 14 -4 3 -7 0 -7 -7z"/>
 <path d="M9621 11194 c0 -11 3 -14 6 -6 3 7 2 16 -1 19 -3 4 -6 -2 -5 -13z"/>
 <path d="M9610 11110 c0 -7 3 -10 7 -7 3 4 3 10 0 14 -4 3 -7 0 -7 -7z"/>
 <path d="M9600 11030 c0 -7 3 -10 7 -7 3 4 3 10 0 14 -4 3 -7 0 -7 -7z"/>
 <path d="M7991 10974 c0 -11 3 -14 6 -6 3 7 2 16 -1 19 -3 4 -6 -2 -5 -13z"/>
 <path d="M9592 10950 c0 -14 2 -19 5 -12 2 6 2 18 0 25 -3 6 -5 1 -5 -13z"/>
 <path d="M10100 10910 c0 -7 3 -10 7 -7 3 4 3 10 0 14 -4 3 -7 0 -7 -7z"/>
 <path d="M7440 10810 c0 -7 3 -10 7 -7 3 4 3 10 0 14 -4 3 -7 0 -7 -7z"/>
 <path d="M7980 10790 c0 -7 3 -10 7 -7 3 4 3 10 0 14 -4 3 -7 0 -7 -7z"/>
 <path d="M7460 10730 c0 -7 3 -10 7 -7 3 4 3 10 0 14 -4 3 -7 0 -7 -7z"/>
 <path d="M9930 10510 c0 -7 3 -10 7 -7 3 4 3 10 0 14 -4 3 -7 0 -7 -7z"/>
 <path d="M8105 10420 c3 -5 8 -10 11 -10 3 0 2 5 -1 10 -3 6 -8 10 -11 10 -3 0 -2 -4 1 -10z"/>
 <path d="M7640 10080 c0 -7 3 -10 7 -7 3 4 3 10 0 14 -4 3 -7 0 -7 -7z"/>
 <path d="M873 9753 c4 -3 10 -3 14 0 3 4 0 7 -7 7 -7 0 -10 -3 -7 -7z"/>
 <path d="M973 9723 c4 -3 10 -3 14 0 3 4 0 7 -7 7 -7 0 -10 -3 -7 -7z"/>
 <path d="M1003 9713 c4 -3 10 -3 14 0 3 4 0 7 -7 7 -7 0 -10 -3 -7 -7z"/>
 <path d="M9630 9640 c0 -7 3 -10 7 -7 3 4 3 10 0 14 -4 3 -7 0 -7 -7z"/>
 <path d="M9610 9560 c0 -7 3 -10 7 -7 3 4 3 10 0 14 -4 3 -7 0 -7 -7z"/>
 <path d="M8944 9518 c-4 -7 -3 -8 4 -4 7 4 12 9 12 12 0 8 -9 4 -16 -8z"/>
 <path d="M7811 9454 c0 -11 3 -14 6 -6 3 7 2 16 -1 19 -3 4 -6 -2 -5 -13z"/>
 <path d="M8820 9270 c0 -7 3 -10 7 -7 3 4 3 10 0 14 -4 3 -7 0 -7 -7z"/>
 <path d="M8790 9200 c0 -7 3 -10 7 -7 3 4 3 10 0 14 -4 3 -7 0 -7 -7z"/>
 <path d="M8781 9164 c0 -11 3 -14 6 -6 3 7 2 16 -1 19 -3 4 -6 -2 -5 -13z"/>
 <path d="M8790 9130 c0 -7 3 -10 7 -7 3 4 3 10 0 14 -4 3 -7 0 -7 -7z"/>
 <path d="M1725 9090 c3 -5 8 -10 11 -10 3 0 2 5 -1 10 -3 6 -8 10 -11 10 -3 0 -2 -4 1 -10z"/>
 <path d="M2305 9060 c3 -5 8 -10 11 -10 3 0 2 5 -1 10 -3 6 -8 10 -11 10 -3 0 -2 -4 1 -10z"/>
 <path d="M8820 9064 c0 -3 5 -14 10 -25 9 -16 22 -19 84 -19 40 0 95 -7 122 -15 90 -26 203 -96 287 -176 78 -75 79 -75 88 -51 8 22 5 31 -28 65 -41 42 -184 157 -219 175 -61 32 -344 70 -344 46z"/>
 <path d="M9480 9060 c0 -7 3 -10 7 -7 3 4 3 10 0 14 -4 3 -7 0 -7 -7z"/>
 <path d="M8770 9000 c0 -7 3 -10 7 -7 3 4 3 10 0 14 -4 3 -7 0 -7 -7z"/>
 <path d="M8765 8924 c-10 -15 -54 -65 -98 -111 -90 -93 -215 -176 -300 -199 -59 -16 -212 -18 -272 -4 -46 10 -49 9 -40 -19 8 -26 46 -34 170 -34 120 0 250 30 310 71 22 15 94 81 161 147 114 113 120 122 112 148 -12 34 -21 34 -43 1z"/>
 <path d="M9440 8910 c0 -7 3 -10 7 -7 3 4 3 10 0 14 -4 3 -7 0 -7 -7z"/>
 <path d="M12653 8913 c4 -3 10 -3 14 0 3 4 0 7 -7 7 -7 0 -10 -3 -7 -7z"/>
 <path d="M11954 8898 c-4 -7 -3 -8 4 -4 7 4 12 9 12 12 0 8 -9 4 -16 -8z"/>
 <path d="M12014 8848 c-4 -7 -3 -8 4 -4 7 4 12 9 12 12 0 8 -9 4 -16 -8z"/>
 <path d="M2625 8840 c3 -5 8 -10 11 -10 3 0 2 5 -1 10 -3 6 -8 10 -11 10 -3 0 -2 -4 1 -10z"/>
 <path d="M2185 8790 c3 -5 8 -10 11 -10 3 0 2 5 -1 10 -3 6 -8 10 -11 10 -3 0 -2 -4 1 -10z"/>
 <path d="M2695 8790 c3 -5 8 -10 11 -10 3 0 2 5 -1 10 -3 6 -8 10 -11 10 -3 0 -2 -4 1 -10z"/>
 <path d="M11593 8773 c4 -3 10 -3 14 0 3 4 0 7 -7 7 -7 0 -10 -3 -7 -7z"/>
 <path d="M12057 8769 c7 -7 15 -10 18 -7 3 3 -2 9 -12 12 -14 6 -15 5 -6 -5z"/>
 <path d="M11503 8763 c4 -3 10 -3 14 0 3 4 0 7 -7 7 -7 0 -10 -3 -7 -7z"/>
 <path d="M12714 8758 c-4 -7 -3 -8 4 -4 7 4 12 9 12 12 0 8 -9 4 -16 -8z"/>
 <path d="M2245 8750 c3 -5 8 -10 11 -10 3 0 2 5 -1 10 -3 6 -8 10 -11 10 -3 0 -2 -4 1 -10z"/>
 <path d="M8940 8740 c0 -7 3 -10 7 -7 3 4 3 10 0 14 -4 3 -7 0 -7 -7z"/>
 <path d="M11313 8743 c4 -3 10 -3 14 0 3 4 0 7 -7 7 -7 0 -10 -3 -7 -7z"/>
 <path d="M11253 8733 c4 -3 10 -3 14 0 3 4 0 7 -7 7 -7 0 -10 -3 -7 -7z"/>
 <path d="M2285 8720 c3 -5 8 -10 11 -10 3 0 2 5 -1 10 -3 6 -8 10 -11 10 -3 0 -2 -4 1 -10z"/>
 <path d="M11213 8723 c4 -3 10 -3 14 0 3 4 0 7 -7 7 -7 0 -10 -3 -7 -7z"/>
 <path d="M12493 8713 c4 -3 10 -3 14 0 3 4 0 7 -7 7 -7 0 -10 -3 -7 -7z"/>
 <path d="M8980 8630 c0 -7 3 -10 7 -7 3 4 3 10 0 14 -4 3 -7 0 -7 -7z"/>
 <path d="M11080 8620 c0 -7 3 -10 7 -7 3 4 3 10 0 14 -4 3 -7 0 -7 -7z"/>
 <path d="M8930 8570 c0 -7 3 -10 7 -7 3 4 3 10 0 14 -4 3 -7 0 -7 -7z"/>
 <path d="M11670 8570 c8 -5 20 -10 25 -10 6 0 3 5 -5 10 -8 5 -19 10 -25 10 -5 0 -3 -5 5 -10z"/>
 <path d="M8940 8540 c0 -7 3 -10 7 -7 3 4 3 10 0 14 -4 3 -7 0 -7 -7z"/>
 <path d="M8970 8450 c0 -7 3 -10 7 -7 3 4 3 10 0 14 -4 3 -7 0 -7 -7z"/>
 <path d="M3185 8430 c3 -5 8 -10 11 -10 3 0 2 5 -1 10 -3 6 -8 10 -11 10 -3 0 -2 -4 1 -10z"/>
 <path d="M11051 8424 c0 -11 3 -14 6 -6 3 7 2 16 -1 19 -3 4 -6 -2 -5 -13z"/>
 <path d="M8980 8420 c0 -7 3 -10 7 -7 3 4 3 10 0 14 -4 3 -7 0 -7 -7z"/>
 <path d="M12293 8423 c4 -3 10 -3 14 0 3 4 0 7 -7 7 -7 0 -10 -3 -7 -7z"/>
 <path d="M3225 8400 c3 -5 8 -10 11 -10 3 0 2 5 -1 10 -3 6 -8 10 -11 10 -3 0 -2 -4 1 -10z"/>
 <path d="M3265 8370 c3 -5 8 -10 11 -10 3 0 2 5 -1 10 -3 6 -8 10 -11 10 -3 0 -2 -4 1 -10z"/>
 <path d="M8110 8370 c0 -7 3 -10 7 -7 3 4 3 10 0 14 -4 3 -7 0 -7 -7z"/>
 <path d="M9270 8290 c0 -7 3 -10 7 -7 3 4 3 10 0 14 -4 3 -7 0 -7 -7z"/>
 <path d="M2875 8270 c3 -5 8 -10 11 -10 3 0 2 5 -1 10 -3 6 -8 10 -11 10 -3 0 -2 -4 1 -10z"/>
 <path d="M9260 8260 c0 -7 3 -10 7 -7 3 4 3 10 0 14 -4 3 -7 0 -7 -7z"/>
 <path d="M8150 8230 c0 -7 3 -10 7 -7 3 4 3 10 0 14 -4 3 -7 0 -7 -7z"/>
 <path d="M9120 8200 c0 -7 3 -10 7 -7 3 4 3 10 0 14 -4 3 -7 0 -7 -7z"/>
 <path d="M2985 8180 c3 -5 8 -10 11 -10 3 0 2 5 -1 10 -3 6 -8 10 -11 10 -3 0 -2 -4 1 -10z"/>
 <path d="M9130 8160 c0 -7 3 -10 7 -7 3 4 3 10 0 14 -4 3 -7 0 -7 -7z"/>
 <path d="M9140 8130 c0 -7 3 -10 7 -7 3 4 3 10 0 14 -4 3 -7 0 -7 -7z"/>
 <path d="M8110 8120 c0 -7 3 -10 7 -7 3 4 3 10 0 14 -4 3 -7 0 -7 -7z"/>
 <path d="M3090 8096 c0 -2 8 -10 18 -17 15 -13 16 -12 3 4 -13 16 -21 21 -21 13z"/>
 <path d="M9090 8060 c0 -7 3 -10 7 -7 3 4 3 10 0 14 -4 3 -7 0 -7 -7z"/>
 <path d="M8140 8020 c0 -7 3 -10 7 -7 3 4 3 10 0 14 -4 3 -7 0 -7 -7z"/>
 <path d="M9100 8020 c0 -7 3 -10 7 -7 3 4 3 10 0 14 -4 3 -7 0 -7 -7z"/>
 <path d="M9223 8013 c4 -3 10 -3 14 0 3 4 0 7 -7 7 -7 0 -10 -3 -7 -7z"/>
 <path d="M3785 7960 c3 -5 8 -10 11 -10 3 0 2 5 -1 10 -3 6 -8 10 -11 10 -3 0 -2 -4 1 -10z"/>
 <path d="M11100 7950 c0 -7 3 -10 7 -7 3 4 3 10 0 14 -4 3 -7 0 -7 -7z"/>
 <path d="M8140 7880 c0 -7 3 -10 7 -7 3 4 3 10 0 14 -4 3 -7 0 -7 -7z"/>
 <path d="M3995 7790 c3 -5 8 -10 11 -10 3 0 2 5 -1 10 -3 6 -8 10 -11 10 -3 0 -2 -4 1 -10z"/>
 <path d="M4040 7756 c0 -2 8 -10 18 -17 15 -13 16 -12 3 4 -13 16 -21 21 -21 13z"/>
 <path d="M4105 7700 c3 -5 8 -10 11 -10 3 0 2 5 -1 10 -3 6 -8 10 -11 10 -3 0 -2 -4 1 -10z"/>
 <path d="M4083 7563 c4 -3 10 -3 14 0 3 4 0 7 -7 7 -7 0 -10 -3 -7 -7z"/>
 <path d="M4590 7350 c0 -7 3 -10 7 -7 3 4 3 10 0 14 -4 3 -7 0 -7 -7z"/>
 <path d="M4780 7300 c0 -7 3 -10 7 -7 3 4 3 10 0 14 -4 3 -7 0 -7 -7z"/>
 <path d="M4815 7290 c3 -5 8 -10 11 -10 3 0 2 5 -1 10 -3 6 -8 10 -11 10 -3 0 -2 -4 1 -10z"/>
 <path d="M4515 7260 c3 -5 8 -10 11 -10 3 0 2 5 -1 10 -3 6 -8 10 -11 10 -3 0 -2 -4 1 -10z"/>
 <path d="M4480 7200 c0 -7 3 -10 7 -7 3 4 3 10 0 14 -4 3 -7 0 -7 -7z"/>
 <path d="M4490 7150 c0 -7 3 -10 7 -7 3 4 3 10 0 14 -4 3 -7 0 -7 -7z"/>
 <path d="M4749 7103 c-13 -16 -12 -17 4 -4 9 7 17 15 17 17 0 8 -8 3 -21 -13z"/>
 <path d="M4630 7080 c0 -7 3 -10 7 -7 3 4 3 10 0 14 -4 3 -7 0 -7 -7z"/>
 <path d="M4992 7055 c0 -16 2 -22 5 -12 2 9 2 23 0 30 -3 6 -5 -1 -5 -18z"/>
 <path d="M4640 7050 c0 -7 3 -10 7 -7 3 4 3 10 0 14 -4 3 -7 0 -7 -7z"/>
 <path d="M4810 6970 c0 -7 3 -10 7 -7 3 4 3 10 0 14 -4 3 -7 0 -7 -7z"/>
 <path d="M4580 6736 c0 -2 8 -10 18 -17 15 -13 16 -12 3 4 -13 16 -21 21 -21 13z"/>
 <path d="M10610 6700 c0 -7 3 -10 7 -7 3 4 3 10 0 14 -4 3 -7 0 -7 -7z"/>
 <path d="M4645 6670 c3 -5 8 -10 11 -10 3 0 2 5 -1 10 -3 6 -8 10 -11 10 -3 0 -2 -4 1 -10z"/>
 <path d="M4785 6550 c3 -5 8 -10 11 -10 3 0 2 5 -1 10 -3 6 -8 10 -11 10 -3 0 -2 -4 1 -10z"/>
 <path d="M10444 6368 c-4 -7 -3 -8 4 -4 7 4 12 9 12 12 0 8 -9 4 -16 -8z"/>
 <path d="M10424 6338 c-4 -7 -3 -8 4 -4 12 7 16 16 8 16 -3 0 -8 -5 -12 -12z"/>
 <path d="M5673 6293 c4 -3 10 -3 14 0 3 4 0 7 -7 7 -7 0 -10 -3 -7 -7z"/>
 <path d="M5405 6110 c3 -5 8 -10 11 -10 3 0 2 5 -1 10 -3 6 -8 10 -11 10 -3 0 -2 -4 1 -10z"/>
 <path d="M10240 6000 c0 -7 3 -10 7 -7 3 4 3 10 0 14 -4 3 -7 0 -7 -7z"/>
 <path d="M9765 5819 c-4 -6 -5 -12 -2 -15 2 -3 7 2 10 11 7 17 1 20 -8 4z"/>
 <path d="M5875 5780 c3 -5 8 -10 11 -10 3 0 2 5 -1 10 -3 6 -8 10 -11 10 -3 0 -2 -4 1 -10z"/>
 <path d="M5905 5760 c3 -5 8 -10 11 -10 3 0 2 5 -1 10 -3 6 -8 10 -11 10 -3 0 -2 -4 1 -10z"/>
 <path d="M9630 5520 c0 -7 3 -10 7 -7 3 4 3 10 0 14 -4 3 -7 0 -7 -7z"/>
 <path d="M10070 5480 c0 -7 3 -10 7 -7 3 4 3 10 0 14 -4 3 -7 0 -7 -7z"/>
 <path d="M7115 5440 c3 -5 8 -10 11 -10 3 0 2 5 -1 10 -3 6 -8 10 -11 10 -3 0 -2 -4 1 -10z"/>
 <path d="M7290 5170 c6 -11 13 -20 16 -20 2 0 0 9 -6 20 -6 11 -13 20 -16 20 -2 0 0 -9 6 -20z"/>
 <path d="M9940 5000 c0 -7 3 -10 7 -7 3 4 3 10 0 14 -4 3 -7 0 -7 -7z"/>
 <path d="M9930 4960 c0 -7 3 -10 7 -7 3 4 3 10 0 14 -4 3 -7 0 -7 -7z"/>
 <path d="M7115 4560 c3 -5 8 -10 11 -10 3 0 2 5 -1 10 -3 6 -8 10 -11 10 -3 0 -2 -4 1 -10z"/>
 <path d="M7440 4530 c0 -7 3 -10 7 -7 3 4 3 10 0 14 -4 3 -7 0 -7 -7z"/>
 <path d="M7145 4510 c3 -5 8 -10 11 -10 3 0 2 5 -1 10 -3 6 -8 10 -11 10 -3 0 -2 -4 1 -10z"/>
 <path d="M7450 4490 c0 -7 3 -10 7 -7 3 4 3 10 0 14 -4 3 -7 0 -7 -7z"/>
 <path d="M9760 4290 c0 -7 3 -10 7 -7 3 4 3 10 0 14 -4 3 -7 0 -7 -7z"/>
 <path d="M7610 4080 c0 -7 3 -10 7 -7 3 4 3 10 0 14 -4 3 -7 0 -7 -7z"/>
 <path d="M9600 3730 c0 -7 3 -10 7 -7 3 4 3 10 0 14 -4 3 -7 0 -7 -7z"/>
 <path d="M8440 3380 c0 -7 3 -10 7 -7 3 4 3 10 0 14 -4 3 -7 0 -7 -7z"/>
 <path d="M9439 3373 c-13 -16 -12 -17 4 -4 9 7 17 15 17 17 0 8 -8 3 -21 -13z"/>
 <path d="M9043 3333 c4 -3 10 -3 14 0 3 4 0 7 -7 7 -7 0 -10 -3 -7 -7z"/>
 <path d="M9323 3313 c4 -3 10 -3 14 0 3 4 0 7 -7 7 -7 0 -10 -3 -7 -7z"/>
 <path d="M9193 3303 c20 -2 54 -2 75 0 20 2 3 4 -38 4 -41 0 -58 -2 -37 -4z"/>
 <path d="M8782 3240 c0 -19 2 -27 5 -17 2 9 2 25 0 35 -3 9 -5 1 -5 -18z"/>
 <path d="M8462 3240 c0 -14 2 -19 5 -12 2 6 2 18 0 25 -3 6 -5 1 -5 -13z"/>
 <path d="M8472 3150 c0 -19 2 -27 5 -17 2 9 2 25 0 35 -3 9 -5 1 -5 -18z"/>
 <path d="M8782 2980 c0 -14 2 -19 5 -12 2 6 2 18 0 25 -3 6 -5 1 -5 -13z"/>
 <path d="M8472 2925 c0 -16 2 -22 5 -12 2 9 2 23 0 30 -3 6 -5 -1 -5 -18z"/>
 <path d="M8462 2820 c0 -14 2 -19 5 -12 2 6 2 18 0 25 -3 6 -5 1 -5 -13z"/>
 <path d="M9153 2643 c4 -3 10 -3 14 0 3 4 0 7 -7 7 -7 0 -10 -3 -7 -7z"/>
 <path d="M7834 2598 c-4 -7 -3 -8 4 -4 7 4 12 9 12 12 0 8 -9 4 -16 -8z"/>
 <path d="M8616 2593 c-6 -14 -5 -15 5 -6 7 7 10 15 7 18 -3 3 -9 -2 -12 -12z"/>
 <path d="M8688 2463 c7 -3 16 -2 19 1 4 3 -2 6 -13 5 -11 0 -14 -3 -6 -6z"/>
 <path d="M7674 2448 c-4 -7 -3 -8 4 -4 7 4 12 9 12 12 0 8 -9 4 -16 -8z"/>
 <path d="M7654 2418 c-4 -7 -3 -8 4 -4 12 7 16 16 8 16 -3 0 -8 -5 -12 -12z"/>
 <path d="M8840 2346 c0 -2 8 -10 18 -17 15 -13 16 -12 3 4 -13 16 -21 21 -21 13z"/>
 <path d="M7843 2333 c4 -3 10 -3 14 0 3 4 0 7 -7 7 -7 0 -10 -3 -7 -7z"/>
 <path d="M7973 2333 c4 -3 10 -3 14 0 3 4 0 7 -7 7 -7 0 -10 -3 -7 -7z"/>
 <path d="M9955 2290 c3 -5 8 -10 11 -10 3 0 2 5 -1 10 -3 6 -8 10 -11 10 -3 0 -2 -4 1 -10z"/>
 <path d="M8930 2200 c0 -7 3 -10 7 -7 3 4 3 10 0 14 -4 3 -7 0 -7 -7z"/>
 <path d="M10135 2160 c3 -5 8 -10 11 -10 3 0 2 5 -1 10 -3 6 -8 10 -11 10 -3 0 -2 -4 1 -10z"/>
 <path d="M10185 2120 c3 -5 8 -10 11 -10 3 0 2 5 -1 10 -3 6 -8 10 -11 10 -3 0 -2 -4 1 -10z"/>
 <path d="M8960 2070 c0 -7 3 -10 7 -7 3 4 3 10 0 14 -4 3 -7 0 -7 -7z"/>
 <path d="M10290 2015 c13 -14 26 -25 28 -25 3 0 -5 11 -18 25 -13 14 -26 25 -28 25 -3 0 5 -11 18 -25z"/>
 <path d="M8973 1980 c0 -25 2 -35 4 -22 2 12 2 32 0 45 -2 12 -4 2 -4 -23z"/>
 <path d="M10335 1970 c3 -5 8 -10 11 -10 3 0 2 5 -1 10 -3 6 -8 10 -11 10 -3 0 -2 -4 1 -10z"/>
 <path d="M8950 1850 c0 -7 3 -10 7 -7 3 4 3 10 0 14 -4 3 -7 0 -7 -7z"/>
 <path d="M10445 1840 c3 -5 8 -10 11 -10 3 0 2 5 -1 10 -3 6 -8 10 -11 10 -3 0 -2 -4 1 -10z"/>
 <path d="M7073 1643 c4 -3 10 -3 14 0 3 4 0 7 -7 7 -7 0 -10 -3 -7 -7z"/>
 <path d="M8138 1623 c7 -3 16 -2 19 1 4 3 -2 6 -13 5 -11 0 -14 -3 -6 -6z"/>
 <path d="M7393 1613 c4 -3 10 -3 14 0 3 4 0 7 -7 7 -7 0 -10 -3 -7 -7z"/>
 <path d="M8794 1588 c-4 -7 -3 -8 4 -4 12 7 16 16 8 16 -3 0 -8 -5 -12 -12z"/>
 <path d="M7480 1490 c0 -7 3 -10 7 -7 3 4 3 10 0 14 -4 3 -7 0 -7 -7z"/>
 <path d="M8650 1360 c0 -7 3 -10 7 -7 3 4 3 10 0 14 -4 3 -7 0 -7 -7z"/>
 <path d="M10945 1250 c3 -5 8 -10 11 -10 3 0 2 5 -1 10 -3 6 -8 10 -11 10 -3 0 -2 -4 1 -10z"/>
 <path d="M8640 1140 c0 -7 3 -10 7 -7 3 4 3 10 0 14 -4 3 -7 0 -7 -7z"/>
 <path d="M8770 970 c6 -11 13 -20 16 -20 2 0 0 9 -6 20 -6 11 -13 20 -16 20 -2 0 0 -9 6 -20z"/>
 <path d="M10823 973 c4 -3 10 -3 14 0 3 4 0 7 -7 7 -7 0 -10 -3 -7 -7z"/>
 <path d="M8800 926 c0 -2 8 -10 18 -17 15 -13 16 -12 3 4 -13 16 -21 21 -21 13z"/>
 <path d="M8534 828 c-4 -7 -3 -8 4 -4 12 7 16 16 8 16 -3 0 -8 -5 -12 -12z"/>
 <path d="M8673 803 c9 -2 23 -2 30 0 6 3 -1 5 -18 5 -16 0 -22 -2 -12 -5z"/>
 <path d="M8743 803 c9 -2 25 -2 35 0 9 3 1 5 -18 5 -19 0 -27 -2 -17 -5z"/>
 <path d="M8534 638 c-4 -7 -3 -8 4 -4 12 7 16 16 8 16 -3 0 -8 -5 -12 -12z"/>
 <path d="M8743 643 c4 -3 10 -3 14 0 3 4 0 7 -7 7 -7 0 -10 -3 -7 -7z"/>
 <path d="M8635 580 c10 -11 20 -20 23 -20 3 0 -3 9 -13 20 -10 11 -20 20 -23 20 -3 0 3 -9 13 -20z"/>
 <path d="M8290 576 c0 -2 8 -10 18 -17 15 -13 16 -12 3 4 -13 16 -21 21 -21 13z"/>
 <path d="M8330 536 c0 -2 8 -10 18 -17 15 -13 16 -12 3 4 -13 16 -21 21 -21 13z"/>
 <path d="M8606 507 c3 -10 9 -15 12 -12 3 3 0 11 -7 18 -10 9 -11 8 -5 -6z"/>
 <path d="M10333 513 c4 -3 10 -3 14 0 3 4 0 7 -7 7 -7 0 -10 -3 -7 -7z"/>
 <path d="M8544 328 c-4 -7 -3 -8 4 -4 12 7 16 16 8 16 -3 0 -8 -5 -12 -12z"/>
 <path d="M7975 310 c3 -5 8 -10 11 -10 3 0 2 5 -1 10 -3 6 -8 10 -11 10 -3 0 -2 -4 1 -10z"/>
 <path d="M9423 203 c4 -3 10 -3 14 0 3 4 0 7 -7 7 -7 0 -10 -3 -7 -7z"/>
 <path d="M8183 193 c4 -3 10 -3 14 0 3 4 0 7 -7 7 -7 0 -10 -3 -7 -7z"/>
 <path d="M8243 183 c9 -2 23 -2 30 0 6 3 -1 5 -18 5 -16 0 -22 -2 -12 -5z"/>
 <path d="M9353 183 c4 -3 10 -3 14 0 3 4 0 7 -7 7 -7 0 -10 -3 -7 -7z"/>
 <path d="M9323 173 c4 -3 10 -3 14 0 3 4 0 7 -7 7 -7 0 -10 -3 -7 -7z"/>
 <path d="M8443 133 c4 -3 10 -3 14 0 3 4 0 7 -7 7 -7 0 -10 -3 -7 -7z"/>
 </g>
<g id="layer4" fill="#b4c4d0" stroke="none">
 <path d="M6625 15810 c3 -5 8 -10 11 -10 3 0 2 5 -1 10 -3 6 -8 10 -11 10 -3 0 -2 -4 1 -10z"/>
 <path d="M6741 15424 c0 -11 3 -14 6 -6 3 7 2 16 -1 19 -3 4 -6 -2 -5 -13z"/>
 <path d="M6750 15380 c0 -7 3 -10 7 -7 3 4 3 10 0 14 -4 3 -7 0 -7 -7z"/>
 <path d="M6595 15350 c3 -5 8 -10 11 -10 3 0 2 5 -1 10 -3 6 -8 10 -11 10 -3 0 -2 -4 1 -10z"/>
 <path d="M10440 15010 c0 -7 3 -10 7 -7 3 4 3 10 0 14 -4 3 -7 0 -7 -7z"/>
 <path d="M10670 14860 c0 -7 3 -10 7 -7 3 4 3 10 0 14 -4 3 -7 0 -7 -7z"/>
 <path d="M6790 14840 c0 -7 3 -10 7 -7 3 4 3 10 0 14 -4 3 -7 0 -7 -7z"/>
 <path d="M6810 14750 c0 -7 3 -10 7 -7 3 4 3 10 0 14 -4 3 -7 0 -7 -7z"/>
 <path d="M10510 14740 c0 -7 3 -10 7 -7 3 4 3 10 0 14 -4 3 -7 0 -7 -7z"/>
 <path d="M10671 14714 c0 -11 3 -14 6 -6 3 7 2 16 -1 19 -3 4 -6 -2 -5 -13z"/>
 <path d="M6960 14680 c0 -7 3 -10 7 -7 3 4 3 10 0 14 -4 3 -7 0 -7 -7z"/>
 <path d="M10500 14590 c0 -7 3 -10 7 -7 3 4 3 10 0 14 -4 3 -7 0 -7 -7z"/>
 <path d="M7270 12970 c0 -5 -7 -10 -15 -10 -8 0 -15 -4 -15 -10 0 -15 12 -12 40 10 20 16 22 20 8 20 -10 0 -18 -4 -18 -10z"/>
 <path d="M7140 12900 c0 -5 6 -10 14 -10 8 0 18 5 21 10 3 6 -3 10 -14 10 -12 0 -21 -4 -21 -10z"/>
 <path d="M7070 12890 c0 -5 11 -10 24 -10 14 0 28 5 31 10 4 6 -7 10 -24 10 -17 0 -31 -4 -31 -10z"/>
 <path d="M6990 12880 c0 -5 7 -10 15 -10 8 0 15 5 15 10 0 6 -7 10 -15 10 -8 0 -15 -4 -15 -10z"/>
 <path d="M2955 8600 c3 -5 8 -10 11 -10 3 0 2 5 -1 10 -3 6 -8 10 -11 10 -3 0 -2 -4 1 -10z"/>
 <path d="M2495 8570 c3 -5 8 -10 11 -10 3 0 2 5 -1 10 -3 6 -8 10 -11 10 -3 0 -2 -4 1 -10z"/>
 <path d="M6945 8250 c-3 -6 1 -7 9 -4 18 7 21 14 7 14 -6 0 -13 -4 -16 -10z"/>
 <path d="M6864 8188 c-4 -7 -3 -8 4 -4 12 7 16 16 8 16 -3 0 -8 -5 -12 -12z"/>
 <path d="M7605 8180 c3 -5 8 -10 11 -10 3 0 2 5 -1 10 -3 6 -8 10 -11 10 -3 0 -2 -4 1 -10z"/>
 <path d="M3645 8070 c3 -5 8 -10 11 -10 3 0 2 5 -1 10 -3 6 -8 10 -11 10 -3 0 -2 -4 1 -10z"/>
 <path d="M7685 8040 c3 -5 8 -10 11 -10 3 0 2 5 -1 10 -3 6 -8 10 -11 10 -3 0 -2 -4 1 -10z"/>
 <path d="M3235 7970 c3 -5 8 -10 11 -10 3 0 2 5 -1 10 -3 6 -8 10 -11 10 -3 0 -2 -4 1 -10z"/>
 <path d="M7760 7945 c13 -14 26 -25 28 -25 3 0 -5 11 -18 25 -13 14 -26 25 -28 25 -3 0 5 -11 18 -25z"/>
 <path d="M6986 7927 c3 -10 9 -15 12 -12 3 3 0 11 -7 18 -10 9 -11 8 -5 -6z"/>
 <path d="M7893 7863 c4 -3 10 -3 14 0 3 4 0 7 -7 7 -7 0 -10 -3 -7 -7z"/>
 <path d="M3455 7780 c10 -11 20 -20 23 -20 3 0 -3 9 -13 20 -10 11 -20 20 -23 20 -3 0 3 -9 13 -20z"/>
 <path d="M10270 7746 c0 -3 9 -10 20 -16 11 -6 20 -8 20 -6 0 3 -9 10 -20 16 -11 6 -20 8 -20 6z"/>
 <path d="M10094 7358 c-4 -7 -3 -8 4 -4 7 4 12 9 12 12 0 8 -9 4 -16 -8z"/>
 <path d="M10064 7308 c-4 -7 -3 -8 4 -4 7 4 12 9 12 12 0 8 -9 4 -16 -8z"/>
 <path d="M9944 7128 c-4 -7 -3 -8 4 -4 12 7 16 16 8 16 -3 0 -8 -5 -12 -12z"/>
 <path d="M9814 6948 c-4 -7 -3 -8 4 -4 12 7 16 16 8 16 -3 0 -8 -5 -12 -12z"/>
 <path d="M9774 6898 c-4 -7 -3 -8 4 -4 7 4 12 9 12 12 0 8 -9 4 -16 -8z"/>
 <path d="M9734 6848 l-19 -23 23 19 c12 11 22 21 22 23 0 8 -8 2 -26 -19z"/>
 <path d="M9684 6788 c-4 -7 -3 -8 4 -4 7 4 12 9 12 12 0 8 -9 4 -16 -8z"/>
 <path d="M9555 6658 l-40 -43 43 40 c23 21 42 40 42 42 0 8 -9 0 -45 -39z"/>
 <path d="M7620 6550 c0 -7 3 -10 7 -7 3 4 3 10 0 14 -4 3 -7 0 -7 -7z"/>
 <path d="M7650 6470 c0 -7 3 -10 7 -7 3 4 3 10 0 14 -4 3 -7 0 -7 -7z"/>
 <path d="M9304 6418 l-19 -23 23 19 c21 18 27 26 19 26 -2 0 -12 -10 -23 -22z"/>
 <path d="M7670 6410 c0 -7 3 -10 7 -7 3 4 3 10 0 14 -4 3 -7 0 -7 -7z"/>
 <path d="M9149 6253 c-13 -16 -12 -17 4 -4 9 7 17 15 17 17 0 8 -8 3 -21 -13z"/>
 <path d="M9089 6193 c-13 -16 -12 -17 4 -4 9 7 17 15 17 17 0 8 -8 3 -21 -13z"/>
 <path d="M9044 6148 l-19 -23 23 19 c21 18 27 26 19 26 -2 0 -12 -10 -23 -22z"/>
 <path d="M8904 6028 c-4 -7 -3 -8 4 -4 7 4 12 9 12 12 0 8 -9 4 -16 -8z"/>
 <path d="M8854 5988 c-4 -7 -3 -8 4 -4 12 7 16 16 8 16 -3 0 -8 -5 -12 -12z"/>
 <path d="M7785 5980 c3 -5 8 -10 11 -10 3 0 2 5 -1 10 -3 6 -8 10 -11 10 -3 0 -2 -4 1 -10z"/>
 <path d="M8814 5958 c-4 -7 -3 -8 4 -4 7 4 12 9 12 12 0 8 -9 4 -16 -8z"/>
 <path d="M8163 5953 c4 -3 10 -3 14 0 3 4 0 7 -7 7 -7 0 -10 -3 -7 -7z"/>
 <path d="M8433 5933 c4 -3 10 -3 14 0 3 4 0 7 -7 7 -7 0 -10 -3 -7 -7z"/>
 <path d="M8773 5933 c4 -3 10 -3 14 0 3 4 0 7 -7 7 -7 0 -10 -3 -7 -7z"/>
 <path d="M8675 5810 c3 -5 8 -10 11 -10 3 0 2 5 -1 10 -3 6 -8 10 -11 10 -3 0 -2 -4 1 -10z"/>
 <path d="M8800 4650 c0 -7 3 -10 7 -7 3 4 3 10 0 14 -4 3 -7 0 -7 -7z"/>
 <path d="M8900 4610 c0 -7 3 -10 7 -7 3 4 3 10 0 14 -4 3 -7 0 -7 -7z"/>
 <path d="M7963 4553 c4 -3 10 -3 14 0 3 4 0 7 -7 7 -7 0 -10 -3 -7 -7z"/>
 <path d="M8145 4480 c3 -5 8 -10 11 -10 3 0 2 5 -1 10 -3 6 -8 10 -11 10 -3 0 -2 -4 1 -10z"/>
 <path d="M9002 4428 c42 -65 42 -58 14 -168 -41 -165 -76 -393 -83 -536 -7 -146 7 -227 56 -326 22 -42 33 -53 66 -64 21 -7 40 -12 42 -11 1 2 -16 39 -37 83 -60 125 -73 189 -65 318 8 134 36 307 76 477 l31 129 -53 60 c-54 62 -72 77 -47 38z"/>
 <path d="M7973 4423 c4 -3 10 -3 14 0 3 4 0 7 -7 7 -7 0 -10 -3 -7 -7z"/>
 <path d="M7657 4013 c21 -55 223 -370 267 -415 15 -16 38 -28 51 -28 13 0 32 -3 42 -7 12 -5 7 7 -18 38 -39 48 -214 307 -241 357 -17 32 -47 55 -85 67 -19 5 -22 3 -16 -12z"/>
 <path d="M7954 3978 c-4 -7 -3 -8 4 -4 7 4 12 9 12 12 0 8 -9 4 -16 -8z"/>
 <path d="M8347 3969 c7 -7 15 -10 18 -7 3 3 -2 9 -12 12 -14 6 -15 5 -6 -5z"/>
 <path d="M7903 3953 c4 -3 10 -3 14 0 3 4 0 7 -7 7 -7 0 -10 -3 -7 -7z"/>
 <path d="M8372 3546 c-18 -20 -32 -48 -32 -61 0 -14 1 -25 3 -25 1 0 16 -4 34 -9 25 -7 31 -6 27 4 -3 7 0 23 6 35 10 20 17 21 63 15 29 -4 61 -14 72 -21 11 -8 29 -14 40 -14 11 0 66 -22 123 -50 l102 -49 14 28 15 27 -152 72 c-122 58 -165 73 -217 78 l-66 6 -32 -36z"/>
 </g>
<g id="layer5" fill="#386f7a" stroke="none">
 <path d="M7735 6012 c-27 -27 30 -95 119 -141 l48 -25 86 24 c142 37 182 42 297 37 88 -4 129 -12 205 -38 52 -17 101 -36 108 -42 9 -7 11 -6 6 7 -4 11 -1 16 10 16 9 0 16 5 16 10 0 6 -1 10 -3 10 -1 0 -27 9 -57 21 -129 48 -201 62 -325 61 -118 0 -139 -3 -262 -38 -50 -14 -66 -16 -85 -6 -48 25 -99 58 -127 83 -17 15 -33 24 -36 21z"/>
 <path d="M7620 5540 c0 -7 3 -10 7 -7 3 4 3 10 0 14 -4 3 -7 0 -7 -7z"/>
 <path d="M8620 5400 c0 -7 3 -10 7 -7 3 4 3 10 0 14 -4 3 -7 0 -7 -7z"/>
 <path d="M8769 4870 c-1 -3 -3 -25 -5 -49 -16 -179 -96 -513 -156 -650 -100 -228 -162 -228 -405 1 -40 38 -76 68 -82 68 -6 0 -23 -19 -39 -43 -39 -55 -105 -123 -145 -147 -48 -29 -97 -25 -177 15 -80 40 -82 41 -116 18 l-25 -16 28 -23 c15 -13 35 -23 44 -24 9 0 22 -7 29 -15 7 -8 16 -12 21 -9 5 3 15 2 22 -3 54 -35 148 -42 188 -15 41 27 101 83 137 130 19 23 37 42 40 42 4 0 30 -21 57 -46 124 -113 263 -197 317 -192 27 2 39 12 70 58 104 153 162 322 222 639 9 47 20 89 26 95 15 15 12 50 -6 98 -15 39 -42 80 -45 68z"/>
 </g>
<g id="layer6" fill="#c9d7f5" stroke="none">
 <path d="M6595 15840 c3 -5 8 -10 11 -10 3 0 2 5 -1 10 -3 6 -8 10 -11 10 -3 0 -2 -4 1 -10z"/>
 <path d="M10570 15676 c0 -2 8 -10 18 -17 15 -13 16 -12 3 4 -13 16 -21 21 -21 13z"/>
 <path d="M6480 15496 c0 -2 8 -10 18 -17 15 -13 16 -12 3 4 -13 16 -21 21 -21 13z"/>
 <path d="M6731 15464 c0 -11 3 -14 6 -6 3 7 2 16 -1 19 -3 4 -6 -2 -5 -13z"/>
 <path d="M10470 15460 c0 -7 3 -10 7 -7 3 4 3 10 0 14 -4 3 -7 0 -7 -7z"/>
 <path d="M6800 15180 c0 -7 3 -10 7 -7 3 4 3 10 0 14 -4 3 -7 0 -7 -7z"/>
 <path d="M10470 15110 c0 -7 3 -10 7 -7 3 4 3 10 0 14 -4 3 -7 0 -7 -7z"/>
 <path d="M10480 15080 c0 -7 3 -10 7 -7 3 4 3 10 0 14 -4 3 -7 0 -7 -7z"/>
 <path d="M10490 15040 c0 -7 3 -10 7 -7 3 4 3 10 0 14 -4 3 -7 0 -7 -7z"/>
 <path d="M10502 14970 c0 -14 2 -19 5 -12 2 6 2 18 0 25 -3 6 -5 1 -5 -13z"/>
 <path d="M6900 14850 c0 -7 3 -10 7 -7 3 4 3 10 0 14 -4 3 -7 0 -7 -7z"/>
 <path d="M6910 14820 c0 -7 3 -10 7 -7 3 4 3 10 0 14 -4 3 -7 0 -7 -7z"/>
 <path d="M10670 14640 c0 -7 3 -10 7 -7 3 4 3 10 0 14 -4 3 -7 0 -7 -7z"/>
 <path d="M6840 14630 c0 -7 3 -10 7 -7 3 4 3 10 0 14 -4 3 -7 0 -7 -7z"/>
 <path d="M6850 14590 c0 -7 3 -10 7 -7 3 4 3 10 0 14 -4 3 -7 0 -7 -7z"/>
 <path d="M10500 14550 c0 -7 3 -10 7 -7 3 4 3 10 0 14 -4 3 -7 0 -7 -7z"/>
 <path d="M10492 14405 c0 -16 2 -22 5 -12 2 9 2 23 0 30 -3 6 -5 -1 -5 -18z"/>
 <path d="M10482 14285 c0 -16 2 -22 5 -12 2 9 2 23 0 30 -3 6 -5 -1 -5 -18z"/>
 <path d="M6944 14248 c-4 -7 -3 -8 4 -4 12 7 16 16 8 16 -3 0 -8 -5 -12 -12z"/>
 <path d="M9151 7953 c-28 -6 -29 4 32 -238 52 -203 92 -406 102 -510 27 -274 -134 -674 -425 -1056 -97 -128 -229 -290 -244 -302 -7 -5 -4 -13 8 -22 22 -17 36 -18 51 -7 28 19 328 410 390 508 201 315 313 668 285 899 -13 101 -80 436 -116 575 -21 83 -25 110 -16 132 10 26 9 28 -16 27 -15 -1 -38 -4 -51 -6z"/>
 <path d="M8090 7668 c-19 -79 -36 -147 -37 -153 -86 -332 -215 -929 -243 -1120 -6 -44 -18 -120 -27 -170 -24 -145 -31 -220 -20 -224 5 -2 17 -11 26 -20 9 -9 26 -23 36 -31 19 -14 19 -14 3 5 -17 21 -18 17 33 345 27 180 155 785 237 1125 64 264 87 372 78 377 -6 4 -20 8 -31 8 -18 0 -25 -17 -55 -142z"/>
 <path d="M8233 7802 c-21 -7 -21 -7 17 -127 26 -81 43 -121 54 -123 9 -2 16 -9 16 -15 1 -7 7 0 15 15 13 23 13 32 0 69 -9 23 -22 70 -31 103 -15 59 -29 87 -43 85 -3 -1 -16 -4 -28 -7z"/>
 <path d="M8393 5943 c4 -3 10 -3 14 0 3 4 0 7 -7 7 -7 0 -10 -3 -7 -7z"/>
 <path d="M8980 4130 c0 -7 3 -10 7 -7 3 4 3 10 0 14 -4 3 -7 0 -7 -7z"/>
 <path d="M8074 4088 l-19 -23 23 19 c12 11 22 21 22 23 0 8 -8 2 -26 -19z"/>
 <path d="M8636 4083 c-6 -14 -5 -15 5 -6 7 7 10 15 7 18 -3 3 -9 -2 -12 -12z"/>
 <path d="M8970 4080 c0 -7 3 -10 7 -7 3 4 3 10 0 14 -4 3 -7 0 -7 -7z"/>
 <path d="M8215 4070 c3 -5 8 -10 11 -10 3 0 2 5 -1 10 -3 6 -8 10 -11 10 -3 0 -2 -4 1 -10z"/>
 <path d="M7640 4031 c0 -6 4 -13 10 -16 6 -3 7 1 4 9 -7 18 -14 21 -14 7z"/>
 <path d="M8961 4024 c0 -11 3 -14 6 -6 3 7 2 16 -1 19 -3 4 -6 -2 -5 -13z"/>
 <path d="M7994 4008 c-4 -7 -3 -8 4 -4 7 4 12 9 12 12 0 8 -9 4 -16 -8z"/>
 <path d="M8951 3964 c0 -11 3 -14 6 -6 3 7 2 16 -1 19 -3 4 -6 -2 -5 -13z"/>
 <path d="M8534 3918 c-4 -7 -3 -8 4 -4 7 4 12 9 12 12 0 8 -9 4 -16 -8z"/>
 <path d="M8941 3894 c0 -11 3 -14 6 -6 3 7 2 16 -1 19 -3 4 -6 -2 -5 -13z"/>
 <path d="M8930 3790 c0 -7 3 -10 7 -7 3 4 3 10 0 14 -4 3 -7 0 -7 -7z"/>
 <path d="M7965 3640 c3 -5 8 -10 11 -10 3 0 2 5 -1 10 -3 6 -8 10 -11 10 -3 0 -2 -4 1 -10z"/>
 <path d="M7913 3595 c0 -8 4 -12 9 -9 5 3 6 10 3 15 -9 13 -12 11 -12 -6z"/>
 <path d="M8513 3493 c4 -3 10 -3 14 0 3 4 0 7 -7 7 -7 0 -10 -3 -7 -7z"/>
 <path d="M8593 3463 c4 -3 10 -3 14 0 3 4 0 7 -7 7 -7 0 -10 -3 -7 -7z"/>
 </g>
<g id="layer7" fill="#293154" stroke="none">
 <path d="M4685 8130 c-17 -10 -40 -32 -52 -49 l-22 -29 24 -16 c68 -45 72 -147 11 -271 -31 -63 -48 -84 -95 -118 -105 -77 -301 -157 -386 -157 l-30 0 0 -108 c-1 -103 -2 -110 -38 -187 -21 -44 -55 -107 -76 -140 -159 -251 -190 -308 -210 -382 -15 -56 0 -121 34 -150 54 -47 165 -21 200 46 14 29 37 151 29 160 -2 2 -40 -32 -85 -77 -69 -70 -83 -80 -100 -72 -10 6 -19 18 -19 26 0 8 40 57 89 107 50 51 100 106 113 122 12 17 25 32 28 35 12 9 107 154 125 190 10 19 21 37 25 40 3 3 21 28 40 55 18 28 55 77 80 111 26 33 50 70 54 81 4 11 15 24 25 29 41 20 310 366 381 490 57 99 61 157 17 221 -45 64 -104 80 -162 43z"/>
 <path d="M4597 7947 c1 -17 2 -49 2 -70 1 -51 18 -38 27 19 5 38 3 49 -12 65 -19 18 -19 18 -17 -14z"/>
 <path d="M4580 7360 c0 -7 3 -10 7 -7 3 4 3 10 0 14 -4 3 -7 0 -7 -7z"/>
 <path d="M4383 7178 c-48 -66 -76 -109 -71 -112 28 -17 91 -67 120 -94 21 -20 40 -33 43 -30 5 5 -42 279 -50 286 -2 2 -21 -20 -42 -50z"/>
 <path d="M5120 6901 c0 -34 -8 -70 -20 -95 -27 -56 -98 -136 -120 -136 -21 0 -30 -36 -30 -115 0 -41 6 -60 29 -91 36 -51 72 -74 113 -74 64 0 89 32 133 165 46 143 28 259 -57 349 l-47 51 -1 -54z"/>
 </g>
<g id="layer8" fill="#e0fefe" stroke="none">
 <path d="M6440 15716 l0 -185 29 -23 c50 -39 131 -148 170 -228 43 -88 154 -409 171 -495 6 -33 18 -82 26 -110 11 -43 94 -421 94 -432 0 -7 63 39 98 71 45 42 54 60 43 88 -47 114 -131 339 -137 363 -4 17 -10 35 -14 40 -11 14 -40 115 -33 115 3 0 1 6 -4 13 -8 10 -41 117 -93 302 -5 17 -12 50 -15 75 -4 25 -11 50 -15 55 -5 6 -16 46 -25 90 -47 233 -93 355 -149 393 -26 18 -117 51 -143 52 -2 0 -3 -83 -3 -184z"/>
 <path d="M10526 15643 c-4 -21 -11 -49 -15 -63 -5 -14 -14 -45 -21 -70 -7 -25 -28 -94 -47 -153 l-35 -108 41 -82 c49 -99 59 -158 63 -347 3 -183 -20 -568 -38 -613 -5 -15 -2 -15 27 -5 50 17 125 65 142 91 8 12 18 37 21 54 9 41 10 753 1 898 -9 157 -33 342 -48 368 -42 75 -81 88 -91 30z"/>
 <path d="M513 9823 c4 -3 10 -3 14 0 3 4 0 7 -7 7 -7 0 -10 -3 -7 -7z"/>
 <path d="M473 9743 c4 -3 10 -3 14 0 3 4 0 7 -7 7 -7 0 -10 -3 -7 -7z"/>
 <path d="M1113 9673 c4 -3 10 -3 14 0 3 4 0 7 -7 7 -7 0 -10 -3 -7 -7z"/>
 <path d="M1163 9653 c4 -3 10 -3 14 0 3 4 0 7 -7 7 -7 0 -10 -3 -7 -7z"/>
 <path d="M1425 9550 c3 -5 8 -10 11 -10 3 0 2 5 -1 10 -3 6 -8 10 -11 10 -3 0 -2 -4 1 -10z"/>
 <path d="M1805 9360 c3 -5 8 -10 11 -10 3 0 2 5 -1 10 -3 6 -8 10 -11 10 -3 0 -2 -4 1 -10z"/>
 <path d="M1360 9306 c0 -3 14 -12 30 -21 17 -9 30 -13 30 -11 0 3 -13 12 -30 21 -16 9 -30 13 -30 11z"/>
 <path d="M2065 9210 c3 -5 8 -10 11 -10 3 0 2 5 -1 10 -3 6 -8 10 -11 10 -3 0 -2 -4 1 -10z"/>
 <path d="M2095 9190 c3 -5 8 -10 11 -10 3 0 2 5 -1 10 -3 6 -8 10 -11 10 -3 0 -2 -4 1 -10z"/>
 <path d="M2125 9170 c3 -5 8 -10 11 -10 3 0 2 5 -1 10 -3 6 -8 10 -11 10 -3 0 -2 -4 1 -10z"/>
 <path d="M1665 9130 c3 -5 8 -10 11 -10 3 0 2 5 -1 10 -3 6 -8 10 -11 10 -3 0 -2 -4 1 -10z"/>
 <path d="M2405 8990 c3 -5 8 -10 11 -10 3 0 2 5 -1 10 -3 6 -8 10 -11 10 -3 0 -2 -4 1 -10z"/>
 <path d="M1955 8950 c3 -5 8 -10 11 -10 3 0 2 5 -1 10 -3 6 -8 10 -11 10 -3 0 -2 -4 1 -10z"/>
 <path d="M2565 8880 c3 -5 8 -10 11 -10 3 0 2 5 -1 10 -3 6 -8 10 -11 10 -3 0 -2 -4 1 -10z"/>
 <path d="M2605 8850 c3 -5 8 -10 11 -10 3 0 2 5 -1 10 -3 6 -8 10 -11 10 -3 0 -2 -4 1 -10z"/>
 <path d="M2190 8796 c0 -2 8 -10 18 -17 15 -13 16 -12 3 4 -13 16 -21 21 -21 13z"/>
 <path d="M2735 8760 c3 -5 8 -10 11 -10 3 0 2 5 -1 10 -3 6 -8 10 -11 10 -3 0 -2 -4 1 -10z"/>
 <path d="M3075 8510 c3 -5 8 -10 11 -10 3 0 2 5 -1 10 -3 6 -8 10 -11 10 -3 0 -2 -4 1 -10z"/>
 <path d="M3245 8380 c3 -5 8 -10 11 -10 3 0 2 5 -1 10 -3 6 -8 10 -11 10 -3 0 -2 -4 1 -10z"/>
 <path d="M3292 8344 c10 -10 20 -15 24 -12 3 4 -5 12 -18 18 -22 12 -22 12 -6 -6z"/>
 <path d="M2833 8303 c4 -3 10 -3 14 0 3 4 0 7 -7 7 -7 0 -10 -3 -7 -7z"/>
 <path d="M3505 8180 c3 -5 8 -10 11 -10 3 0 2 5 -1 10 -3 6 -8 10 -11 10 -3 0 -2 -4 1 -10z"/>
 <path d="M3025 8150 c3 -5 8 -10 11 -10 3 0 2 5 -1 10 -3 6 -8 10 -11 10 -3 0 -2 -4 1 -10z"/>
 <path d="M3215 7990 c3 -5 8 -10 11 -10 3 0 2 5 -1 10 -3 6 -8 10 -11 10 -3 0 -2 -4 1 -10z"/>
 <path d="M3900 7866 c0 -2 8 -10 18 -17 15 -13 16 -12 3 4 -13 16 -21 21 -21 13z"/>
 <path d="M4070 7726 c0 -2 8 -10 18 -17 15 -13 16 -12 3 4 -13 16 -21 21 -21 13z"/>
 <path d="M4235 7590 c3 -5 8 -10 11 -10 3 0 2 5 -1 10 -3 6 -8 10 -11 10 -3 0 -2 -4 1 -10z"/>
 <path d="M4061 7464 c0 -11 3 -14 6 -6 3 7 2 16 -1 19 -3 4 -6 -2 -5 -13z"/>
 <path d="M9261 7334 c0 -11 3 -14 6 -6 3 7 2 16 -1 19 -3 4 -6 -2 -5 -13z"/>
 <path d="M4061 7314 c0 -11 3 -14 6 -6 3 7 2 16 -1 19 -3 4 -6 -2 -5 -13z"/>
 <path d="M9270 7280 c0 -7 3 -10 7 -7 3 4 3 10 0 14 -4 3 -7 0 -7 -7z"/>
 <path d="M9280 7200 c0 -7 3 -10 7 -7 3 4 3 10 0 14 -4 3 -7 0 -7 -7z"/>
 <path d="M9280 7090 c0 -7 3 -10 7 -7 3 4 3 10 0 14 -4 3 -7 0 -7 -7z"/>
 <path d="M8814 6098 c-4 -7 -3 -8 4 -4 7 4 12 9 12 12 0 8 -9 4 -16 -8z"/>
 <path d="M7810 5980 c0 -7 3 -10 7 -7 3 4 3 10 0 14 -4 3 -7 0 -7 -7z"/>
 <path d="M8750 4410 c0 -7 3 -10 7 -7 3 4 3 10 0 14 -4 3 -7 0 -7 -7z"/>
 <path d="M8680 4180 c0 -7 3 -10 7 -7 3 4 3 10 0 14 -4 3 -7 0 -7 -7z"/>
 <path d="M8660 4130 c0 -7 3 -10 7 -7 3 4 3 10 0 14 -4 3 -7 0 -7 -7z"/>
 <path d="M8624 4058 c-4 -7 -3 -8 4 -4 7 4 12 9 12 12 0 8 -9 4 -16 -8z"/>
 <path d="M8034 4048 c-4 -7 -3 -8 4 -4 7 4 12 9 12 12 0 8 -9 4 -16 -8z"/>
 <path d="M8235 4050 c3 -5 8 -10 11 -10 3 0 2 5 -1 10 -3 6 -8 10 -11 10 -3 0 -2 -4 1 -10z"/>
 <path d="M8377 3949 c7 -7 15 -10 18 -7 3 3 -2 9 -12 12 -14 6 -15 5 -6 -5z"/>
 <path d="M8423 3923 c4 -3 10 -3 14 0 3 4 0 7 -7 7 -7 0 -10 -3 -7 -7z"/>
 <path d="M8931 3834 c0 -11 3 -14 6 -6 3 7 2 16 -1 19 -3 4 -6 -2 -5 -13z"/>
 <path d="M8923 3695 c0 -22 2 -30 4 -17 2 12 2 30 0 40 -3 9 -5 -1 -4 -23z"/>
 <path d="M7940 3676 c0 -2 8 -10 18 -17 15 -13 16 -12 3 4 -13 16 -21 21 -21 13z"/>
 <path d="M8922 3610 c0 -14 2 -19 5 -12 2 6 2 18 0 25 -3 6 -5 1 -5 -13z"/>
 <path d="M8384 3568 c-4 -7 -3 -8 4 -4 7 4 12 9 12 12 0 8 -9 4 -16 -8z"/>
 <path d="M8123 3533 c4 -3 10 -3 14 0 3 4 0 7 -7 7 -7 0 -10 -3 -7 -7z"/>
 <path d="M8193 3513 c4 -3 10 -3 14 0 3 4 0 7 -7 7 -7 0 -10 -3 -7 -7z"/>
 <path d="M8980 3360 c8 -5 20 -10 25 -10 6 0 3 5 -5 10 -8 5 -19 10 -25 10 -5 0 -3 -5 5 -10z"/>
 </g>
<g id="layer9" fill="#fdfbdb" stroke="none">
 <path d="M7161 8410 c-174 -37 -381 -157 -381 -221 0 -13 67 -158 149 -324 246 -497 376 -770 466 -980 24 -55 68 -157 99 -227 78 -180 196 -556 208 -668 4 -31 22 -33 26 -3 2 12 10 27 18 33 25 22 15 96 -37 275 -31 104 -88 263 -115 322 -13 28 -24 55 -24 58 0 8 -75 183 -126 293 -19 41 -34 76 -34 78 0 13 -232 496 -425 884 l-126 255 23 18 c13 10 31 24 40 32 59 48 210 100 323 110 87 9 217 -10 266 -37 26 -14 50 -44 84 -102 144 -243 168 -272 270 -321 90 -44 239 -76 347 -76 88 0 332 25 367 37 8 2 30 7 50 10 20 3 106 21 191 39 173 37 165 36 380 66 345 48 619 -4 1038 -197 39 -19 72 -35 72 -37 0 -10 -133 -249 -175 -317 -25 -39 -92 -145 -151 -235 -54 -85 -168 -238 -233 -315 -97 -114 -745 -754 -852 -841 -57 -46 -114 -92 -128 -101 -41 -28 -90 -96 -84 -118 3 -11 7 -20 9 -20 5 0 131 84 164 109 203 154 881 825 1022 1012 117 155 240 340 346 516 190 319 195 338 97 388 -33 17 -80 39 -105 49 -25 11 -70 30 -100 44 -60 26 -248 90 -289 97 -14 3 -71 14 -126 25 -61 13 -161 23 -257 27 -149 6 -158 5 -184 -16 -21 -16 -41 -21 -93 -21 -36 -1 -84 -5 -106 -10 -369 -87 -647 -130 -829 -130 -147 0 -360 55 -420 108 -45 40 -175 246 -163 258 2 3 24 0 48 -7 81 -21 123 -21 224 2 55 12 112 22 128 23 15 0 25 6 22 11 -3 6 -8 17 -11 25 -12 36 -38 39 -120 18 -127 -32 -289 -7 -365 56 -16 14 -46 30 -67 36 -49 15 -295 22 -351 10z"/>
 <path d="M8080 4554 c-24 -32 -37 -36 -71 -19 -38 20 -46 14 -25 -17 21 -29 21 -31 -9 -67 l-26 -30 36 6 c31 5 41 1 69 -26 l33 -32 8 28 c10 40 23 53 58 53 l31 0 -42 35 c-25 22 -42 46 -44 63 -3 27 -3 27 -18 6z"/>
 </g>
<g id="layer10" fill="#dff4d9" stroke="none">
 <path d="M6445 15278 c8 -378 17 -714 20 -748 2 -19 4 -82 5 -140 2 -130 16 -251 36 -310 29 -88 126 -345 140 -373 8 -16 14 -34 14 -40 0 -7 19 -61 42 -122 22 -60 80 -227 128 -370 l87 -260 69 -3 c115 -6 253 46 322 121 l23 24 -46 102 c-45 101 -361 728 -405 806 -68 119 -81 150 -75 180 4 21 15 34 38 45 40 19 40 25 -8 245 -63 287 -57 266 -172 635 -42 135 -89 234 -148 310 -77 101 -74 105 -70 -102z"/>
 <path d="M10361 15125 c-65 -165 -97 -237 -221 -500 -23 -49 -30 -84 -40 -190 -24 -262 -92 -755 -170 -1230 -44 -266 -61 -387 -55 -393 3 -3 20 0 38 7 18 7 68 24 111 38 76 24 84 25 175 14 53 -6 108 -14 123 -17 24 -6 27 -3 32 27 6 39 13 328 21 859 4 201 8 375 11 387 2 12 12 29 21 38 24 25 42 239 44 545 2 293 -2 333 -39 415 l-28 59 -23 -59z"/>
 <path d="M10120 12840 c0 -5 23 -10 50 -10 28 0 50 5 50 10 0 6 -22 10 -50 10 -27 0 -50 -4 -50 -10z"/>
 <path d="M10020 12830 c0 -5 9 -10 19 -10 11 0 23 5 26 10 4 6 -5 10 -19 10 -14 0 -26 -4 -26 -10z"/>
 <path d="M10255 12830 c3 -5 10 -10 16 -10 5 0 9 5 9 10 0 6 -7 10 -16 10 -8 0 -12 -4 -9 -10z"/>
 <path d="M7440 12820 c0 -7 3 -10 7 -7 3 4 3 10 0 14 -4 3 -7 0 -7 -7z"/>
 <path d="M6970 12740 c0 -7 3 -10 7 -7 3 4 3 10 0 14 -4 3 -7 0 -7 -7z"/>
 <path d="M9820 12530 c0 -7 3 -10 7 -7 3 4 3 10 0 14 -4 3 -7 0 -7 -7z"/>
 <path d="M7180 11990 c0 -7 3 -10 7 -7 3 4 3 10 0 14 -4 3 -7 0 -7 -7z"/>
 <path d="M7190 11940 c0 -7 3 -10 7 -7 3 4 3 10 0 14 -4 3 -7 0 -7 -7z"/>
 <path d="M10310 11890 c0 -7 3 -10 7 -7 3 4 3 10 0 14 -4 3 -7 0 -7 -7z"/>
 <path d="M9681 11614 c0 -11 3 -14 6 -6 3 7 2 16 -1 19 -3 4 -6 -2 -5 -13z"/>
 <path d="M7930 11510 c0 -7 3 -10 7 -7 3 4 3 10 0 14 -4 3 -7 0 -7 -7z"/>
 <path d="M7960 11380 c0 -7 3 -10 7 -7 3 4 3 10 0 14 -4 3 -7 0 -7 -7z"/>
 <path d="M9630 11250 c0 -7 3 -10 7 -7 3 4 3 10 0 14 -4 3 -7 0 -7 -7z"/>
 <path d="M7360 11140 c0 -7 3 -10 7 -7 3 4 3 10 0 14 -4 3 -7 0 -7 -7z"/>
 <path d="M9570 10770 c0 -7 3 -10 7 -7 3 4 3 10 0 14 -4 3 -7 0 -7 -7z"/>
 <path d="M7510 10560 c0 -7 3 -10 7 -7 3 4 3 10 0 14 -4 3 -7 0 -7 -7z"/>
 <path d="M7520 10530 c0 -7 3 -10 7 -7 3 4 3 10 0 14 -4 3 -7 0 -7 -7z"/>
 <path d="M9890 10420 c0 -7 3 -10 7 -7 3 4 3 10 0 14 -4 3 -7 0 -7 -7z"/>
 <path d="M9710 9950 c0 -7 3 -10 7 -7 3 4 3 10 0 14 -4 3 -7 0 -7 -7z"/>
 <path d="M9174 9928 c-4 -7 -3 -8 4 -4 7 4 12 9 12 12 0 8 -9 4 -16 -8z"/>
 <path d="M433 9833 c4 -3 10 -3 14 0 3 4 0 7 -7 7 -7 0 -10 -3 -7 -7z"/>
 <path d="M533 9823 c4 -3 10 -3 14 0 3 4 0 7 -7 7 -7 0 -10 -3 -7 -7z"/>
 <path d="M1143 9663 c4 -3 10 -3 14 0 3 4 0 7 -7 7 -7 0 -10 -3 -7 -7z"/>
 <path d="M7820 9430 c0 -7 3 -10 7 -7 3 4 3 10 0 14 -4 3 -7 0 -7 -7z"/>
 <path d="M9570 9410 c0 -7 3 -10 7 -7 3 4 3 10 0 14 -4 3 -7 0 -7 -7z"/>
 <path d="M7840 9360 c0 -7 3 -10 7 -7 3 4 3 10 0 14 -4 3 -7 0 -7 -7z"/>
 <path d="M9550 9340 c0 -7 3 -10 7 -7 3 4 3 10 0 14 -4 3 -7 0 -7 -7z"/>
 <path d="M1853 9333 c4 -3 10 -3 14 0 3 4 0 7 -7 7 -7 0 -10 -3 -7 -7z"/>
 <path d="M7850 9320 c0 -7 3 -10 7 -7 3 4 3 10 0 14 -4 3 -7 0 -7 -7z"/>
 <path d="M8836 9303 c-6 -14 -5 -15 5 -6 7 7 10 15 7 18 -3 3 -9 -2 -12 -12z"/>
 <path d="M1683 9113 c4 -3 10 -3 14 0 3 4 0 7 -7 7 -7 0 -10 -3 -7 -7z"/>
 <path d="M8750 9050 c0 -7 3 -10 7 -7 3 4 3 10 0 14 -4 3 -7 0 -7 -7z"/>
 <path d="M9033 9053 c4 -3 10 -3 14 0 3 4 0 7 -7 7 -7 0 -10 -3 -7 -7z"/>
 <path d="M2375 9010 c3 -5 8 -10 11 -10 3 0 2 5 -1 10 -3 6 -8 10 -11 10 -3 0 -2 -4 1 -10z"/>
 <path d="M12923 9003 c4 -3 10 -3 14 0 3 4 0 7 -7 7 -7 0 -10 -3 -7 -7z"/>
 <path d="M9295 8920 c3 -5 8 -10 11 -10 3 0 2 5 -1 10 -3 6 -8 10 -11 10 -3 0 -2 -4 1 -10z"/>
 <path d="M12064 8918 c-4 -7 -3 -8 4 -4 7 4 12 9 12 12 0 8 -9 4 -16 -8z"/>
 <path d="M2015 8910 c3 -5 8 -10 11 -10 3 0 2 5 -1 10 -3 6 -8 10 -11 10 -3 0 -2 -4 1 -10z"/>
 <path d="M11974 8908 c-4 -7 -3 -8 4 -4 7 4 12 9 12 12 0 8 -9 4 -16 -8z"/>
 <path d="M2045 8890 c3 -5 8 -10 11 -10 3 0 2 5 -1 10 -3 6 -8 10 -11 10 -3 0 -2 -4 1 -10z"/>
 <path d="M12044 8888 c-4 -7 -3 -8 4 -4 7 4 12 9 12 12 0 8 -9 4 -16 -8z"/>
 <path d="M12493 8853 c4 -3 10 -3 14 0 3 4 0 7 -7 7 -7 0 -10 -3 -7 -7z"/>
 <path d="M12463 8843 c4 -3 10 -3 14 0 3 4 0 7 -7 7 -7 0 -10 -3 -7 -7z"/>
 <path d="M11944 8788 c-4 -7 -3 -8 4 -4 12 7 16 16 8 16 -3 0 -8 -5 -12 -12z"/>
 <path d="M12889 8763 c-13 -16 -12 -17 4 -4 9 7 17 15 17 17 0 8 -8 3 -21 -13z"/>
 <path d="M8010 8740 c0 -7 3 -10 7 -7 3 4 3 10 0 14 -4 3 -7 0 -7 -7z"/>
 <path d="M2775 8730 c3 -5 8 -10 11 -10 3 0 2 5 -1 10 -3 6 -8 10 -11 10 -3 0 -2 -4 1 -10z"/>
 <path d="M11974 8718 c-4 -7 -3 -8 4 -4 7 4 12 9 12 12 0 8 -9 4 -16 -8z"/>
 <path d="M8020 8700 c0 -7 3 -10 7 -7 3 4 3 10 0 14 -4 3 -7 0 -7 -7z"/>
 <path d="M12583 8693 c4 -3 10 -3 14 0 3 4 0 7 -7 7 -7 0 -10 -3 -7 -7z"/>
 <path d="M2845 8680 c3 -5 8 -10 11 -10 3 0 2 5 -1 10 -3 6 -8 10 -11 10 -3 0 -2 -4 1 -10z"/>
 <path d="M12553 8683 c4 -3 10 -3 14 0 3 4 0 7 -7 7 -7 0 -10 -3 -7 -7z"/>
 <path d="M8393 8623 c4 -3 10 -3 14 0 3 4 0 7 -7 7 -7 0 -10 -3 -7 -7z"/>
 <path d="M12613 8623 c4 -3 10 -3 14 0 3 4 0 7 -7 7 -7 0 -10 -3 -7 -7z"/>
 <path d="M8073 8613 c4 -3 10 -3 14 0 3 4 0 7 -7 7 -7 0 -10 -3 -7 -7z"/>
 <path d="M12413 8463 c4 -3 10 -3 14 0 3 4 0 7 -7 7 -7 0 -10 -3 -7 -7z"/>
 <path d="M12213 8403 c4 -3 10 -3 14 0 3 4 0 7 -7 7 -7 0 -10 -3 -7 -7z"/>
 <path d="M8060 8290 c0 -7 3 -10 7 -7 3 4 3 10 0 14 -4 3 -7 0 -7 -7z"/>
 <path d="M10985 8259 c-4 -6 -5 -12 -2 -15 2 -3 7 2 10 11 7 17 1 20 -8 4z"/>
 <path d="M3415 8250 c3 -5 8 -10 11 -10 3 0 2 5 -1 10 -3 6 -8 10 -11 10 -3 0 -2 -4 1 -10z"/>
 <path d="M3465 8210 c3 -5 8 -10 11 -10 3 0 2 5 -1 10 -3 6 -8 10 -11 10 -3 0 -2 -4 1 -10z"/>
 <path d="M10954 8198 c-4 -7 -3 -8 4 -4 7 4 12 9 12 12 0 8 -9 4 -16 -8z"/>
 <path d="M3605 8100 c3 -5 8 -10 11 -10 3 0 2 5 -1 10 -3 6 -8 10 -11 10 -3 0 -2 -4 1 -10z"/>
 <path d="M9508 7973 c7 -3 16 -2 19 1 4 3 -2 6 -13 5 -11 0 -14 -3 -6 -6z"/>
 <path d="M9233 7963 c4 -3 10 -3 14 0 3 4 0 7 -7 7 -7 0 -10 -3 -7 -7z"/>
 <path d="M9608 7963 c7 -3 16 -2 19 1 4 3 -2 6 -13 5 -11 0 -14 -3 -6 -6z"/>
 <path d="M10835 7959 c-4 -6 -5 -12 -2 -15 2 -3 7 2 10 11 7 17 1 20 -8 4z"/>
 <path d="M9658 7953 c7 -3 16 -2 19 1 4 3 -2 6 -13 5 -11 0 -14 -3 -6 -6z"/>
 <path d="M9708 7943 c7 -3 16 -2 19 1 4 3 -2 6 -13 5 -11 0 -14 -3 -6 -6z"/>
 <path d="M9753 7933 c4 -3 10 -3 14 0 3 4 0 7 -7 7 -7 0 -10 -3 -7 -7z"/>
 <path d="M7795 7920 c3 -5 8 -10 11 -10 3 0 2 5 -1 10 -3 6 -8 10 -11 10 -3 0 -2 -4 1 -10z"/>
 <path d="M9793 7923 c4 -3 10 -3 14 0 3 4 0 7 -7 7 -7 0 -10 -3 -7 -7z"/>
 <path d="M9833 7913 c4 -3 10 -3 14 0 3 4 0 7 -7 7 -7 0 -10 -3 -7 -7z"/>
 <path d="M10804 7898 c-4 -7 -3 -8 4 -4 12 7 16 16 8 16 -3 0 -8 -5 -12 -12z"/>
 <path d="M8173 7803 c4 -3 10 -3 14 0 3 4 0 7 -7 7 -7 0 -10 -3 -7 -7z"/>
 <path d="M8218 7803 c6 -2 18 -2 25 0 6 3 1 5 -13 5 -14 0 -19 -2 -12 -5z"/>
 <path d="M7110 7671 c0 -6 4 -13 10 -16 6 -3 7 1 4 9 -7 18 -14 21 -14 7z"/>
 <path d="M7140 7610 c0 -7 3 -10 7 -7 3 4 3 10 0 14 -4 3 -7 0 -7 -7z"/>
 <path d="M3780 7486 c0 -2 8 -10 18 -17 15 -13 16 -12 3 4 -13 16 -21 21 -21 13z"/>
 <path d="M10900 7430 c0 -7 3 -10 7 -7 3 4 3 10 0 14 -4 3 -7 0 -7 -7z"/>
 <path d="M10880 7380 c0 -7 3 -10 7 -7 3 4 3 10 0 14 -4 3 -7 0 -7 -7z"/>
 <path d="M4545 7220 c3 -5 8 -10 11 -10 3 0 2 5 -1 10 -3 6 -8 10 -11 10 -3 0 -2 -4 1 -10z"/>
 <path d="M9974 7168 c-4 -7 -3 -8 4 -4 7 4 12 9 12 12 0 8 -9 4 -16 -8z"/>
 <path d="M4500 7110 c0 -7 3 -10 7 -7 3 4 3 10 0 14 -4 3 -7 0 -7 -7z"/>
 <path d="M9934 7108 c-4 -7 -3 -8 4 -4 7 4 12 9 12 12 0 8 -9 4 -16 -8z"/>
 <path d="M4510 7060 c0 -7 3 -10 7 -7 3 4 3 10 0 14 -4 3 -7 0 -7 -7z"/>
 <path d="M4720 6980 c0 -7 3 -10 7 -7 3 4 3 10 0 14 -4 3 -7 0 -7 -7z"/>
 <path d="M7440 6970 c0 -7 3 -10 7 -7 3 4 3 10 0 14 -4 3 -7 0 -7 -7z"/>
 <path d="M4860 6950 c0 -7 3 -10 7 -7 3 4 3 10 0 14 -4 3 -7 0 -7 -7z"/>
 <path d="M9794 6918 c-4 -7 -3 -8 4 -4 12 7 16 16 8 16 -3 0 -8 -5 -12 -12z"/>
 <path d="M4824 6888 c-4 -7 -3 -8 4 -4 12 7 16 16 8 16 -3 0 -8 -5 -12 -12z"/>
 <path d="M7570 6670 c0 -7 3 -10 7 -7 3 4 3 10 0 14 -4 3 -7 0 -7 -7z"/>
 <path d="M10584 6638 c-4 -7 -3 -8 4 -4 7 4 12 9 12 12 0 8 -9 4 -16 -8z"/>
 <path d="M5483 6373 c4 -3 10 -3 14 0 3 4 0 7 -7 7 -7 0 -10 -3 -7 -7z"/>
 <path d="M5155 6290 c3 -5 8 -10 11 -10 3 0 2 5 -1 10 -3 6 -8 10 -11 10 -3 0 -2 -4 1 -10z"/>
 <path d="M7740 6160 c0 -7 3 -10 7 -7 3 4 3 10 0 14 -4 3 -7 0 -7 -7z"/>
 <path d="M7750 6130 c0 -7 3 -10 7 -7 3 4 3 10 0 14 -4 3 -7 0 -7 -7z"/>
 <path d="M8954 6068 c-4 -7 -3 -8 4 -4 12 7 16 16 8 16 -3 0 -8 -5 -12 -12z"/>
 <path d="M8794 5938 c-4 -7 -3 -8 4 -4 12 7 16 16 8 16 -3 0 -8 -5 -12 -12z"/>
 <path d="M9816 5925 c-9 -26 -7 -32 5 -12 6 10 9 21 6 23 -2 3 -7 -2 -11 -11z"/>
 <path d="M8764 5918 c-4 -7 -3 -8 4 -4 7 4 12 9 12 12 0 8 -9 4 -16 -8z"/>
 <path d="M6445 5910 c3 -5 8 -10 11 -10 3 0 2 5 -1 10 -3 6 -8 10 -11 10 -3 0 -2 -4 1 -10z"/>
 <path d="M5805 5830 c3 -5 8 -10 11 -10 3 0 2 5 -1 10 -3 6 -8 10 -11 10 -3 0 -2 -4 1 -10z"/>
 <path d="M5835 5810 c3 -5 8 -10 11 -10 3 0 2 5 -1 10 -3 6 -8 10 -11 10 -3 0 -2 -4 1 -10z"/>
 <path d="M6035 5670 c3 -5 8 -10 11 -10 3 0 2 5 -1 10 -3 6 -8 10 -11 10 -3 0 -2 -4 1 -10z"/>
 <path d="M6065 5650 c3 -5 8 -10 11 -10 3 0 2 5 -1 10 -3 6 -8 10 -11 10 -3 0 -2 -4 1 -10z"/>
 <path d="M6325 5470 c3 -5 8 -10 11 -10 3 0 2 5 -1 10 -3 6 -8 10 -11 10 -3 0 -2 -4 1 -10z"/>
 <path d="M6355 5450 c3 -5 8 -10 11 -10 3 0 2 5 -1 10 -3 6 -8 10 -11 10 -3 0 -2 -4 1 -10z"/>
 <path d="M6608 5323 c7 -3 16 -2 19 1 4 3 -2 6 -13 5 -11 0 -14 -3 -6 -6z"/>
 <path d="M7400 4830 c0 -7 3 -10 7 -7 3 4 3 10 0 14 -4 3 -7 0 -7 -7z"/>
 <path d="M9880 4770 c0 -7 3 -10 7 -7 3 4 3 10 0 14 -4 3 -7 0 -7 -7z"/>
 <path d="M8790 4590 c0 -7 3 -10 7 -7 3 4 3 10 0 14 -4 3 -7 0 -7 -7z"/>
 <path d="M8084 4568 c-4 -7 -3 -8 4 -4 7 4 12 9 12 12 0 8 -9 4 -16 -8z"/>
 <path d="M7990 4490 c0 -7 3 -10 7 -7 3 4 3 10 0 14 -4 3 -7 0 -7 -7z"/>
 <path d="M7969 4453 c-13 -16 -12 -17 4 -4 9 7 17 15 17 17 0 8 -8 3 -21 -13z"/>
 <path d="M8110 4435 c-7 -9 -11 -17 -9 -20 3 -2 10 5 17 15 14 24 10 26 -8 5z"/>
 <path d="M8090 4390 c0 -7 3 -10 7 -7 3 4 3 10 0 14 -4 3 -7 0 -7 -7z"/>
 <path d="M9720 4140 c0 -7 3 -10 7 -7 3 4 3 10 0 14 -4 3 -7 0 -7 -7z"/>
 <path d="M9710 4100 c0 -7 3 -10 7 -7 3 4 3 10 0 14 -4 3 -7 0 -7 -7z"/>
 <path d="M8014 4028 c-4 -7 -3 -8 4 -4 7 4 12 9 12 12 0 8 -9 4 -16 -8z"/>
 <path d="M7495 3970 c3 -5 8 -10 11 -10 3 0 2 5 -1 10 -3 6 -8 10 -11 10 -3 0 -2 -4 1 -10z"/>
 <path d="M7515 3940 c3 -5 8 -10 11 -10 3 0 2 5 -1 10 -3 6 -8 10 -11 10 -3 0 -2 -4 1 -10z"/>
 <path d="M8930 3810 c0 -7 3 -10 7 -7 3 4 3 10 0 14 -4 3 -7 0 -7 -7z"/>
 <path d="M7685 3720 c3 -5 8 -10 11 -10 3 0 2 5 -1 10 -3 6 -8 10 -11 10 -3 0 -2 -4 1 -10z"/>
 <path d="M8043 3553 c4 -3 10 -3 14 0 3 4 0 7 -7 7 -7 0 -10 -3 -7 -7z"/>
 <path d="M8323 3473 c4 -3 10 -3 14 0 3 4 0 7 -7 7 -7 0 -10 -3 -7 -7z"/>
 <path d="M9095 3330 c3 -5 8 -10 11 -10 3 0 2 5 -1 10 -3 6 -8 10 -11 10 -3 0 -2 -4 1 -10z"/>
 <path d="M8525 2750 c3 -5 8 -10 11 -10 3 0 2 5 -1 10 -3 6 -8 10 -11 10 -3 0 -2 -4 1 -10z"/>
 <path d="M8508 2703 c7 -3 16 -2 19 1 4 3 -2 6 -13 5 -11 0 -14 -3 -6 -6z"/>
 <path d="M8599 2683 c-13 -16 -12 -17 4 -4 16 13 21 21 13 21 -2 0 -10 -8 -17 -17z"/>
 <path d="M8574 2648 c-4 -7 -3 -8 4 -4 12 7 16 16 8 16 -3 0 -8 -5 -12 -12z"/>
 <path d="M7734 2288 c-4 -7 -3 -8 4 -4 12 7 16 16 8 16 -3 0 -8 -5 -12 -12z"/>
 <path d="M7853 2273 c4 -3 10 -3 14 0 3 4 0 7 -7 7 -7 0 -10 -3 -7 -7z"/>
 <path d="M8106 2267 c3 -10 9 -15 12 -12 3 3 0 11 -7 18 -10 9 -11 8 -5 -6z"/>
 <path d="M7737 2249 c7 -7 15 -10 18 -7 3 3 -2 9 -12 12 -14 6 -15 5 -6 -5z"/>
 <path d="M8504 2248 c-4 -7 -3 -8 4 -4 12 7 16 16 8 16 -3 0 -8 -5 -12 -12z"/>
 <path d="M8153 1703 c4 -3 10 -3 14 0 3 4 0 7 -7 7 -7 0 -10 -3 -7 -7z"/>
 <path d="M8203 1703 c4 -3 10 -3 14 0 3 4 0 7 -7 7 -7 0 -10 -3 -7 -7z"/>
 <path d="M8273 1683 c4 -3 10 -3 14 0 3 4 0 7 -7 7 -7 0 -10 -3 -7 -7z"/>
 <path d="M8325 1660 c3 -5 8 -10 11 -10 3 0 2 5 -1 10 -3 6 -8 10 -11 10 -3 0 -2 -4 1 -10z"/>
 <path d="M8734 1618 c-4 -7 -3 -8 4 -4 7 4 12 9 12 12 0 8 -9 4 -16 -8z"/>
 <path d="M8093 1613 c4 -3 10 -3 14 0 3 4 0 7 -7 7 -7 0 -10 -3 -7 -7z"/>
 <path d="M8253 1613 c4 -3 10 -3 14 0 3 4 0 7 -7 7 -7 0 -10 -3 -7 -7z"/>
 <path d="M8053 1603 c4 -3 10 -3 14 0 3 4 0 7 -7 7 -7 0 -10 -3 -7 -7z"/>
 <path d="M7670 1540 c0 -7 3 -10 7 -7 3 4 3 10 0 14 -4 3 -7 0 -7 -7z"/>
 <path d="M7520 1290 c0 -7 3 -10 7 -7 3 4 3 10 0 14 -4 3 -7 0 -7 -7z"/>
 <path d="M8745 890 c3 -5 8 -10 11 -10 3 0 2 5 -1 10 -3 6 -8 10 -11 10 -3 0 -2 -4 1 -10z"/>
 <path d="M8585 860 c-3 -6 1 -7 9 -4 18 7 21 14 7 14 -6 0 -13 -4 -16 -10z"/>
 <path d="M8135 610 c3 -5 8 -10 11 -10 3 0 2 5 -1 10 -3 6 -8 10 -11 10 -3 0 -2 -4 1 -10z"/>
 <path d="M8609 383 c-13 -16 -12 -17 4 -4 9 7 17 15 17 17 0 8 -8 3 -21 -13z"/>
 <path d="M8015 280 c3 -5 8 -10 11 -10 3 0 2 5 -1 10 -3 6 -8 10 -11 10 -3 0 -2 -4 1 -10z"/>
 </g>
<g id="layer11" fill="#aaf2fa" stroke="none">
 <path d="M8125 5900 c-27 -3 -89 -17 -137 -30 l-86 -24 -46 24 c-25 14 -47 22 -49 20 -23 -29 -132 -240 -177 -345 -38 -87 -100 -282 -116 -362 -34 -178 -43 -516 -15 -585 5 -13 17 -56 26 -95 17 -78 89 -266 132 -348 23 -44 34 -54 102 -88 101 -49 134 -49 199 2 50 40 142 145 142 162 0 23 42 5 83 -35 25 -24 78 -72 118 -106 111 -96 163 -111 220 -63 73 62 185 394 218 648 7 50 16 119 22 155 10 64 9 69 -40 215 -49 150 -84 282 -102 385 -6 30 -14 82 -20 115 -6 33 -11 112 -12 175 l-2 115 -65 23 c-130 46 -262 61 -395 42z m14 -1234 c7 -9 9 -33 5 -68 l-6 -54 56 -49 c63 -54 62 -63 -7 -80 -37 -9 -44 -15 -55 -50 -7 -22 -20 -47 -28 -55 -13 -13 -19 -9 -53 30 -38 44 -40 45 -101 45 -35 0 -65 5 -67 11 -2 5 12 28 32 51 l35 41 -21 47 c-19 43 -20 49 -5 63 14 15 20 14 61 -6 25 -12 47 -22 49 -22 2 0 17 21 32 48 37 63 52 74 73 48z"/>
 </g>
<g id="layer12" fill="#9fbfdc" stroke="none">
 <path d="M7196 8339 c-105 -17 -233 -74 -305 -135 l-30 -25 46 -87 c78 -149 232 -462 328 -667 26 -55 67 -141 91 -190 24 -50 44 -94 44 -97 0 -6 61 -141 110 -243 20 -42 48 -108 120 -285 24 -58 49 -118 56 -135 7 -16 17 -50 24 -75 6 -25 20 -72 30 -105 10 -33 26 -86 35 -119 9 -32 18 -57 20 -55 3 4 24 127 45 274 24 161 116 600 196 930 25 99 46 190 49 201 3 12 18 75 35 140 16 66 30 124 30 130 0 5 -33 18 -72 28 -187 47 -256 81 -317 159 -42 53 -62 86 -145 240 -38 69 -90 102 -181 116 -85 12 -137 13 -209 0z"/>
 <path d="M9272 7969 c-68 -16 -72 -35 -34 -187 41 -163 99 -451 112 -556 24 -199 -44 -458 -196 -744 -75 -140 -103 -183 -249 -376 -69 -91 -122 -166 -119 -166 21 0 238 187 357 308 78 79 182 183 231 231 324 314 410 412 581 661 101 147 119 173 131 200 4 8 18 29 31 46 13 17 23 34 23 37 0 4 15 30 34 59 46 73 126 222 126 236 0 14 -178 101 -265 131 -33 11 -77 27 -98 36 -21 9 -57 20 -80 25 -23 5 -96 20 -162 35 -135 29 -352 41 -423 24z"/>
 <path d="M8383 5893 c4 -3 10 -3 14 0 3 4 0 7 -7 7 -7 0 -10 -3 -7 -7z"/>
 <path d="M7481 4954 c0 -11 3 -14 6 -6 3 7 2 16 -1 19 -3 4 -6 -2 -5 -13z"/>
 <path d="M8752 4770 c0 -14 2 -19 5 -12 2 6 2 18 0 25 -3 6 -5 1 -5 -13z"/>
 <path d="M8155 4220 c3 -5 8 -10 11 -10 3 0 2 5 -1 10 -3 6 -8 10 -11 10 -3 0 -2 -4 1 -10z"/>
 <path d="M8054 4168 c-4 -7 -3 -8 4 -4 7 4 12 9 12 12 0 8 -9 4 -16 -8z"/>
 <path d="M8215 4160 c3 -5 8 -10 11 -10 3 0 2 5 -1 10 -3 6 -8 10 -11 10 -3 0 -2 -4 1 -10z"/>
 <path d="M7944 4058 c-4 -7 -3 -8 4 -4 7 4 12 9 12 12 0 8 -9 4 -16 -8z"/>
 </g>
<g id="layer13" fill="#ffd6e6" stroke="none">
 <path d="M8840 9016 c0 -2 9 -26 21 -53 11 -26 36 -91 55 -143 20 -52 44 -117 54 -145 37 -100 169 -512 186 -583 10 -40 21 -69 24 -65 20 22 84 222 170 531 38 138 48 187 40 201 -20 39 -154 150 -228 190 -99 54 -159 71 -249 71 -40 0 -73 -2 -73 -4z"/>
 <path d="M8690 8771 c-64 -64 -133 -128 -155 -143 -76 -52 -249 -82 -386 -68 -46 4 -85 7 -85 7 -1 -1 16 -65 38 -142 21 -77 51 -187 67 -245 37 -134 88 -300 95 -307 17 -17 394 36 626 88 74 16 151 33 170 37 33 7 35 10 33 47 -2 22 -9 60 -17 85 -8 25 -38 119 -66 210 -29 91 -56 174 -61 185 -5 11 -20 54 -34 96 -36 113 -97 269 -104 268 -3 -1 -58 -54 -121 -118z"/>
 <path d="M8738 2691 c-63 -21 -125 -92 -144 -165 l-7 -28 28 18 c19 12 52 19 109 21 92 4 112 -3 103 -39 -6 -23 -12 -26 -81 -31 -77 -6 -118 -21 -149 -55 -18 -20 -18 -20 27 -10 78 16 173 -13 245 -76 40 -35 82 -150 96 -261 1 -11 6 -33 10 -48 11 -42 -11 -160 -41 -220 -15 -29 -45 -79 -68 -112 -118 -168 -137 -220 -152 -426 -11 -154 22 -248 128 -371 38 -44 48 -63 43 -79 -6 -18 -12 -20 -42 -14 -57 10 -196 8 -228 -5 -33 -12 -75 -48 -75 -63 0 -5 6 -5 13 2 18 14 172 -3 203 -24 27 -18 29 -24 11 -48 -10 -15 -17 -16 -46 -6 -36 13 -158 6 -174 -10 -5 -5 3 -11 19 -15 69 -18 120 -86 131 -175 10 -85 -32 -134 -199 -235 l-107 -64 67 -16 c161 -38 330 -46 520 -25 123 13 368 63 437 89 11 4 92 29 180 55 300 90 638 208 717 251 14 8 31 14 37 14 21 0 293 136 401 200 58 34 154 94 215 133 l110 72 -65 6 c-108 10 -231 55 -340 124 -43 27 -47 39 -26 68 13 16 16 16 63 -8 68 -34 144 -48 222 -42 68 5 163 33 202 61 21 15 22 16 3 21 -10 3 -55 24 -100 46 -123 62 -218 162 -482 509 -102 133 -145 185 -242 289 -84 90 -254 235 -323 275 -19 12 -68 41 -109 66 -165 100 -400 205 -588 262 -52 16 -140 43 -195 60 -80 24 -123 31 -215 34 -63 2 -127 0 -142 -5z"/>
 </g>
<g id="layer14" fill="#000000" stroke="none">
 <path d="M6367 15977 c-29 -44 -23 -787 13 -1647 l9 -225 36 -90 c75 -189 249 -671 328 -910 26 -77 58 -174 72 -215 15 -41 37 -111 50 -155 13 -44 53 -179 90 -300 37 -121 75 -258 85 -305 11 -47 39 -170 63 -275 25 -104 57 -251 72 -325 60 -301 89 -434 137 -620 28 -107 54 -213 60 -235 5 -22 33 -123 63 -225 29 -102 70 -248 90 -325 19 -77 67 -255 106 -395 38 -140 86 -313 105 -385 129 -475 275 -989 286 -1012 6 -13 16 -23 22 -23 6 0 26 -55 44 -123 19 -67 39 -135 45 -152 7 -16 11 -60 10 -97 l-1 -68 54 0 c48 0 55 2 50 18 -49 156 -129 430 -148 507 -5 22 -35 132 -68 245 -32 113 -84 300 -115 415 -32 116 -69 248 -82 295 -13 47 -41 153 -63 235 -21 83 -55 206 -74 275 -42 147 -50 175 -117 425 -28 105 -66 240 -84 300 -30 101 -87 325 -149 585 -23 99 -34 150 -86 415 -52 265 -147 659 -207 855 -19 63 -57 187 -83 275 -27 88 -48 160 -47 161 1 1 56 9 122 18 118 16 120 17 202 71 82 54 103 64 103 46 0 -5 20 -52 44 -103 124 -260 301 -704 416 -1043 133 -392 143 -427 155 -560 4 -38 8 -77 11 -86 7 -27 7 -318 -1 -445 l-7 -120 72 -125 c98 -168 349 -661 455 -894 166 -364 360 -847 451 -1120 18 -54 117 -376 151 -489 5 -16 13 -18 73 -14 98 7 111 20 154 153 19 61 42 135 50 165 8 30 38 136 66 235 28 99 63 227 76 285 14 58 31 125 38 150 22 72 96 346 123 455 39 160 154 596 170 643 8 24 39 96 70 160 30 65 73 160 95 212 68 159 130 303 144 335 7 17 25 62 39 100 14 39 40 106 57 150 55 146 96 279 112 370 28 160 67 1020 86 1896 6 277 13 563 16 636 l6 131 31 6 c51 10 129 51 164 86 18 17 45 57 60 87 l27 56 4 326 c7 513 -19 889 -69 1016 -30 75 -95 125 -164 125 -67 0 -72 -8 -140 -260 -40 -145 -103 -327 -167 -480 -55 -133 -49 -119 -129 -285 l-72 -150 -23 -205 c-28 -259 -35 -307 -90 -680 -44 -299 -63 -422 -163 -1045 -144 -899 -225 -1477 -277 -1975 -7 -64 -22 -102 -95 -230 -120 -213 -175 -310 -235 -415 -37 -66 -82 -147 -100 -180 -17 -33 -70 -130 -118 -215 -47 -85 -107 -197 -133 -248 l-48 -93 -16 38 c-10 21 -32 72 -50 113 -17 41 -53 120 -79 175 -25 55 -62 134 -81 175 -73 160 -324 644 -398 768 l-50 83 11 159 c13 186 1 407 -31 591 -21 119 -145 499 -269 824 -11 28 -34 88 -52 135 -18 47 -40 105 -50 130 -9 25 -24 61 -33 80 -8 19 -36 80 -61 134 -25 54 -46 103 -46 107 0 5 -36 83 -80 175 -44 91 -80 168 -80 170 0 10 -345 699 -397 795 -29 53 -53 101 -53 107 0 5 15 16 32 23 43 18 182 151 202 193 25 54 19 93 -34 221 -67 159 -225 629 -245 730 -42 211 -129 515 -172 602 -31 64 -156 126 -279 140 -46 5 -52 3 -67 -20z m138 -93 c42 -10 97 -38 116 -60 27 -33 67 -161 139 -454 39 -157 82 -320 96 -362 14 -43 26 -81 26 -85 0 -5 11 -35 23 -68 13 -33 39 -108 59 -166 20 -58 54 -150 76 -204 22 -54 40 -104 40 -111 0 -21 -125 -128 -192 -163 -44 -24 -69 -44 -78 -64 -14 -31 -12 -35 68 -177 48 -85 399 -785 426 -849 l27 -64 -23 -25 c-69 -74 -207 -126 -322 -120 l-69 3 -102 300 c-56 165 -121 350 -143 411 -23 61 -42 114 -42 117 0 4 -33 93 -74 199 -84 220 -81 199 -92 618 -4 129 -8 237 -9 240 -2 3 -7 252 -11 554 -7 535 -6 548 12 543 10 -4 33 -9 49 -13z m4087 -221 c26 -33 38 -73 52 -186 23 -181 30 -348 29 -755 -1 -354 -3 -385 -20 -415 -26 -44 -95 -89 -180 -115 -58 -19 -73 -28 -81 -50 -7 -16 -13 -205 -17 -472 -4 -245 -8 -463 -10 -485 -1 -22 -3 -105 -4 -183 -1 -136 -2 -144 -21 -149 -20 -5 -20 -7 -4 -24 15 -17 16 -41 10 -241 -6 -209 -29 -710 -41 -913 -15 -251 -24 -291 -112 -530 -30 -82 -65 -177 -77 -210 -33 -87 -154 -369 -261 -607 -99 -218 -93 -200 -229 -728 -36 -140 -84 -325 -107 -410 -23 -85 -52 -198 -65 -250 -90 -350 -216 -781 -260 -885 l-16 -40 -30 100 c-83 286 -215 670 -309 901 l-61 150 19 45 c34 84 160 325 305 584 80 143 162 292 183 330 21 39 46 81 55 95 9 14 36 61 60 105 24 44 69 125 100 180 49 84 59 110 64 165 16 168 52 467 87 725 41 297 37 275 59 410 10 66 31 199 45 295 50 335 98 635 106 657 5 15 32 30 89 52 71 28 96 32 223 38 148 7 148 15 -2 28 -69 6 -85 3 -166 -25 -116 -40 -135 -44 -135 -33 0 6 9 66 19 134 38 243 132 856 146 954 24 158 52 388 66 535 l13 135 74 153 c141 294 274 656 332 900 10 44 16 52 34 52 13 0 29 -8 38 -17z"/>
 <path d="M45 9962 c-31 -7 -42 -30 -44 -88 -1 -39 12 -48 134 -97 386 -154 500 -205 840 -377 266 -135 433 -225 595 -323 63 -39 131 -79 150 -90 131 -74 456 -296 685 -467 266 -200 305 -230 377 -290 36 -30 112 -93 169 -140 340 -282 741 -642 949 -851 l75 -76 -57 -94 c-146 -237 -170 -281 -189 -340 -43 -145 -4 -260 106 -310 48 -22 133 -24 180 -5 95 40 155 165 155 322 0 56 4 72 29 107 16 23 41 61 55 85 15 23 30 42 34 42 5 0 33 -24 64 -52 44 -42 61 -67 79 -118 18 -51 38 -80 93 -138 38 -40 99 -97 135 -125 36 -29 74 -59 84 -68 10 -9 53 -41 95 -71 42 -30 126 -89 185 -131 60 -43 111 -77 114 -77 3 0 40 -26 82 -58 42 -32 96 -72 121 -88 25 -16 86 -58 135 -94 50 -36 122 -87 160 -113 39 -27 123 -85 187 -130 65 -45 180 -124 255 -176 76 -52 140 -98 143 -102 9 -13 224 -140 320 -190 123 -63 123 -62 308 -409 46 -86 146 -252 168 -280 7 -8 24 -36 37 -63 63 -119 344 -547 457 -696 117 -154 181 -218 255 -252 51 -24 351 -112 523 -155 30 -7 56 -15 59 -18 21 -21 42 -372 29 -477 l-7 -57 -147 -5 c-165 -5 -247 -26 -371 -94 -92 -51 -244 -205 -293 -298 -44 -84 -83 -211 -98 -320 l-12 -80 -106 -64 c-59 -35 -152 -92 -207 -126 -55 -34 -133 -81 -173 -104 -45 -26 -77 -52 -82 -67 -21 -55 -22 -72 -3 -91 16 -16 57 -22 258 -41 132 -13 241 -25 243 -27 3 -2 13 -49 23 -103 35 -192 95 -432 128 -507 10 -22 26 -60 37 -85 10 -25 32 -67 48 -94 21 -33 29 -58 27 -81 -7 -84 52 -187 181 -317 85 -86 219 -182 297 -212 24 -9 83 -23 130 -30 47 -8 124 -25 171 -39 303 -89 670 -55 1265 118 127 37 260 76 296 86 309 86 634 243 967 467 170 114 306 222 310 246 7 33 -8 65 -36 80 l-27 14 26 10 c14 6 38 25 52 42 47 55 15 112 -69 125 -103 15 -276 137 -353 248 -16 23 -38 51 -48 62 -10 11 -57 70 -103 130 -228 298 -364 449 -510 564 -311 246 -649 404 -1131 529 l-137 36 -21 78 c-27 96 -36 215 -27 329 l8 86 90 -34 c50 -19 116 -39 147 -44 71 -11 204 -11 255 1 131 30 230 185 336 530 100 325 102 332 286 1065 68 272 87 342 156 585 66 234 107 367 141 455 59 152 72 185 95 230 13 28 58 100 98 160 40 61 93 148 118 195 40 76 212 488 256 615 10 28 46 118 80 200 34 83 72 179 84 215 13 36 58 155 100 265 115 299 131 342 167 443 l34 93 100 -8 c167 -12 488 -7 625 11 260 35 409 81 569 176 46 27 86 50 89 50 5 0 135 91 142 100 3 3 33 27 67 53 61 47 107 96 157 171 23 34 26 49 26 120 0 93 -11 121 -60 154 -47 32 -94 26 -263 -33 -356 -124 -428 -147 -509 -165 -48 -11 -92 -20 -96 -20 -5 0 -1 24 9 53 28 79 25 123 -10 158 -47 47 -73 41 -181 -47 -143 -114 -251 -153 -499 -179 -320 -33 -377 -48 -438 -119 -42 -47 -70 -128 -84 -238 -11 -91 -15 -100 -151 -373 -76 -154 -162 -320 -190 -370 -28 -49 -70 -124 -93 -165 -23 -41 -65 -115 -94 -165 -29 -49 -64 -110 -78 -133 -14 -24 -38 -65 -53 -90 -34 -56 -139 -243 -203 -362 -74 -138 -182 -386 -225 -516 -46 -139 -97 -265 -147 -365 -19 -38 -35 -73 -35 -77 0 -5 -36 -84 -80 -176 -44 -91 -80 -170 -80 -174 0 -4 -33 -79 -74 -168 -41 -88 -92 -200 -114 -250 -189 -429 -274 -614 -283 -614 -7 0 -145 276 -177 355 -114 281 -172 491 -197 723 -10 84 -15 166 -11 183 6 32 5 33 -58 44 l-39 6 6 -133 c10 -217 49 -406 136 -660 23 -65 41 -126 41 -137 0 -10 7 -24 15 -31 8 -7 15 -18 15 -24 0 -6 41 -92 90 -191 72 -142 103 -193 149 -244 54 -58 81 -71 81 -37 0 7 30 77 66 157 36 79 83 185 104 234 21 50 63 143 94 209 31 65 56 120 56 123 0 6 161 363 251 556 38 82 69 152 69 156 0 3 23 54 51 111 65 134 106 234 159 390 24 69 60 166 82 215 52 121 232 460 391 735 72 124 148 257 170 295 87 152 223 410 327 620 87 178 109 232 115 280 21 185 41 232 115 263 63 27 69 28 320 56 228 26 302 42 375 79 43 21 152 95 198 134 40 32 50 29 32 -12 -43 -104 -124 -176 -309 -275 -92 -50 -122 -70 -124 -87 -3 -17 3 -24 22 -29 34 -8 189 69 289 145 65 49 76 54 119 52 25 -1 102 9 170 23 121 25 160 37 483 151 88 31 180 60 204 66 163 37 -79 -126 -434 -291 -20 -10 -238 -74 -285 -84 -41 -9 -57 -23 -43 -37 10 -10 27 -10 80 0 83 15 355 105 403 133 19 12 60 35 90 51 30 17 98 59 150 93 82 54 95 59 98 43 5 -29 -32 -82 -99 -142 -48 -44 -89 -67 -207 -119 -81 -36 -205 -85 -277 -108 -134 -44 -163 -59 -150 -80 10 -16 45 -8 182 41 63 23 117 39 120 36 9 -10 -147 -83 -236 -111 -203 -64 -541 -94 -850 -76 -108 6 -199 14 -203 16 -4 3 -14 -6 -23 -19 -15 -23 -122 -297 -150 -383 -18 -58 -207 -543 -370 -954 -180 -453 -217 -534 -336 -717 -153 -234 -208 -380 -389 -1018 -25 -90 -138 -531 -205 -805 -98 -400 -180 -676 -261 -886 -71 -185 -97 -224 -168 -259 -115 -56 -246 -44 -444 43 -57 24 -104 43 -106 41 -1 -2 -13 -21 -26 -43 -22 -36 -23 -47 -24 -240 0 -194 6 -252 40 -339 4 -11 -8 -16 -47 -21 -29 -4 -69 -16 -90 -26 -84 -43 -168 -184 -184 -307 -4 -30 -15 -73 -26 -96 -23 -52 -24 -76 -2 -92 15 -11 23 -9 52 17 47 41 91 58 153 58 65 0 130 -30 157 -73 24 -39 59 -169 67 -252 9 -91 -14 -159 -102 -293 -124 -188 -136 -221 -154 -407 -17 -171 10 -293 86 -392 l25 -33 -53 0 c-54 -1 -129 -23 -164 -50 -40 -30 -91 -110 -115 -180 -23 -68 -23 -72 -6 -85 12 -9 38 -11 82 -8 59 5 65 4 88 -21 25 -26 37 -65 37 -116 0 -20 -11 -37 -44 -64 -24 -20 -47 -36 -51 -36 -3 0 -23 -11 -43 -25 -20 -14 -40 -25 -44 -25 -5 0 -8 23 -8 51 0 75 -36 142 -125 229 -85 85 -214 168 -311 200 -78 26 -188 25 -243 -3 -19 -9 -38 -14 -42 -10 -19 21 -89 167 -113 238 -32 92 -78 278 -110 445 l-22 115 71 -7 c115 -11 122 -11 129 14 12 47 -3 50 -444 88 -69 6 -141 13 -160 16 l-34 6 24 19 c111 87 429 273 540 314 90 34 100 41 97 66 -6 39 -23 43 -82 19 -31 -12 -58 -20 -62 -17 -10 10 17 153 42 228 38 112 74 166 163 249 97 91 226 162 337 185 105 22 354 16 437 -11 10 -3 18 -1 18 5 0 19 -52 71 -72 71 -19 0 -20 4 -14 48 16 128 17 245 2 382 -18 174 -30 218 -59 229 -85 33 -113 43 -202 70 -55 16 -131 37 -170 47 -38 9 -113 29 -166 45 -92 28 -99 32 -155 92 -175 187 -609 856 -845 1301 -102 194 -184 305 -234 319 -117 32 -363 189 -935 592 -58 41 -134 95 -170 119 -118 82 -392 277 -400 284 -3 3 1 7 8 10 28 9 80 63 102 106 l24 44 63 -23 c74 -28 317 -133 421 -181 40 -19 75 -34 77 -34 3 0 109 -51 237 -114 267 -132 611 -324 778 -435 198 -132 257 -197 435 -476 17 -27 55 -87 84 -132 l53 -83 -1 -109 c-2 -119 12 -251 36 -346 8 -33 17 -69 19 -80 8 -43 67 -195 112 -288 l47 -97 27 17 26 18 -19 40 c-25 50 -70 159 -104 250 -145 388 -91 838 158 1327 l91 178 -40 34 c-42 37 -54 37 -54 2 0 -12 -14 -44 -30 -70 -91 -143 -226 -487 -256 -649 -3 -20 -10 -39 -14 -42 -4 -2 -17 15 -30 38 -13 23 -60 99 -106 168 -136 208 -220 280 -639 541 -97 61 -799 418 -821 418 -3 0 -85 35 -182 78 -97 44 -206 89 -241 102 l-63 23 6 36 c28 152 10 256 -59 350 -25 33 -63 72 -85 86 -25 16 -49 43 -64 73 -14 27 -69 91 -130 151 -58 57 -108 112 -111 122 -5 16 -89 79 -105 79 -9 0 -80 67 -80 75 0 3 28 42 63 87 81 105 119 161 167 253 34 65 40 85 40 138 0 74 -22 127 -73 179 -66 68 -159 96 -230 69 -38 -15 -92 -66 -131 -126 -35 -52 -36 -56 -36 -153 0 -59 6 -119 15 -148 8 -27 15 -50 15 -51 0 -6 -130 -91 -161 -105 -43 -19 -49 -16 -151 73 -86 77 -283 235 -814 654 -42 33 -95 74 -118 90 -23 17 -132 97 -242 180 -215 161 -223 167 -502 358 -414 282 -546 362 -867 522 -237 118 -431 202 -570 248 -401 132 -613 176 -870 182 -88 2 -173 1 -190 -3z m510 -138 c158 -25 381 -80 517 -129 83 -30 362 -142 387 -155 9 -5 88 -45 176 -89 161 -79 185 -92 311 -166 38 -22 74 -42 79 -44 23 -9 282 -179 448 -293 98 -68 189 -130 201 -138 12 -8 54 -38 92 -66 38 -28 175 -129 304 -224 129 -95 244 -181 255 -191 11 -11 119 -96 240 -191 468 -367 688 -550 672 -560 -6 -4 -45 -10 -87 -14 -41 -3 -78 -11 -82 -17 -4 -6 -4 -57 -1 -112 6 -101 1 -157 -16 -184 -7 -11 -46 20 -168 136 -316 301 -736 670 -998 878 -28 21 -52 42 -55 45 -20 25 -418 324 -570 430 -28 19 -78 56 -113 81 -61 44 -259 172 -407 262 -68 42 -201 118 -426 247 -124 70 -648 330 -849 420 -99 44 -184 85 -190 91 -13 14 134 5 280 -17z m4239 -1685 c44 -21 81 -85 81 -143 0 -42 -8 -65 -45 -130 -71 -124 -340 -470 -381 -490 -10 -5 -21 -18 -25 -29 -4 -11 -28 -48 -54 -81 -25 -34 -62 -83 -80 -111 -19 -27 -37 -52 -40 -55 -4 -3 -15 -21 -25 -40 -18 -36 -113 -181 -125 -190 -3 -3 -16 -18 -28 -35 -13 -16 -63 -71 -113 -122 -49 -50 -89 -99 -89 -107 0 -8 9 -20 19 -26 17 -8 31 2 100 72 45 45 83 79 85 77 8 -9 -15 -131 -29 -160 -35 -67 -146 -93 -200 -46 -34 29 -49 94 -34 150 20 74 51 131 210 382 21 33 55 96 76 140 36 77 37 84 38 187 l0 108 30 0 c85 0 281 80 386 157 47 34 64 55 95 118 61 124 57 226 -11 271 l-24 16 22 29 c44 61 106 83 161 58z m-168 -243 c-9 -57 -26 -70 -27 -19 0 21 -1 53 -2 70 -2 32 -2 32 17 14 15 -16 17 -27 12 -65z m44 -537 c22 -35 42 -79 46 -105 7 -47 -2 -114 -15 -114 -42 0 -111 128 -113 208 -2 92 27 96 82 11z m159 -163 c-1 -163 -12 -243 -36 -268 -22 -21 -23 -21 -42 -4 -11 10 -23 30 -26 45 -8 36 12 121 33 144 13 14 17 40 18 102 2 98 8 114 35 89 16 -15 19 -31 18 -108z m-302 57 c67 -81 110 -164 132 -251 38 -153 81 -225 150 -247 13 -4 41 -23 62 -42 33 -30 37 -38 27 -51 -8 -9 -13 -46 -13 -98 l0 -83 -25 16 c-96 61 -317 269 -324 305 -3 13 -7 64 -10 113 -3 50 -16 150 -30 224 -15 73 -26 140 -26 147 0 25 18 15 57 -33z m-72 -167 c14 -77 23 -141 20 -144 -3 -3 -22 10 -43 30 -29 27 -92 77 -120 94 -5 3 23 46 71 112 21 30 40 52 42 50 2 -2 16 -66 30 -142z m489 27 c-1 -43 -12 -102 -46 -231 -8 -31 -19 -47 -40 -58 -16 -8 -33 -12 -38 -9 -17 11 -11 58 10 80 37 40 60 126 60 227 l0 93 27 -27 c22 -22 27 -36 27 -75z m97 -66 c19 -36 21 -53 16 -127 -3 -47 -11 -98 -17 -115 -14 -38 -59 -85 -81 -85 -19 0 -44 52 -36 77 3 10 19 58 36 106 17 49 31 106 31 127 0 46 9 72 21 64 5 -3 19 -24 30 -47z m192 -247 c24 -74 22 -154 -8 -245 -44 -133 -69 -165 -133 -165 -41 0 -77 23 -113 74 -23 31 -29 50 -29 91 0 79 9 115 30 115 22 0 93 80 120 136 12 25 20 61 20 95 l1 54 47 -51 c31 -33 54 -70 65 -104z m3852 -4134 c214 -59 477 -157 625 -231 106 -53 298 -171 379 -233 149 -113 314 -289 477 -508 175 -236 286 -363 378 -437 53 -41 156 -97 180 -97 35 0 24 -22 -21 -42 -142 -63 -274 -64 -396 -2 -47 23 -50 24 -63 7 -22 -30 -12 -46 55 -84 87 -51 232 -102 310 -108 l65 -6 -124 -81 c-69 -45 -156 -100 -195 -123 -86 -52 -394 -203 -455 -224 -25 -8 -90 -33 -145 -54 -148 -59 -252 -94 -540 -184 -409 -127 -645 -167 -909 -155 -133 6 -240 21 -296 43 -24 10 -23 11 30 38 173 87 260 169 260 242 0 83 -71 187 -136 199 -26 5 -33 9 -24 18 7 7 52 11 118 11 98 -1 121 5 122 27 0 29 -200 72 -224 48 -6 -6 -14 -10 -20 -10 -25 0 53 61 97 76 49 16 142 15 219 -2 21 -5 27 -2 33 15 5 17 -5 35 -50 83 -96 103 -132 212 -121 365 16 210 32 259 137 408 65 93 85 129 105 194 28 91 7 283 -47 414 -6 15 -38 47 -70 71 -71 53 -144 73 -215 58 l-46 -10 22 23 c36 38 83 55 153 55 57 0 66 3 72 20 4 12 1 28 -6 37 -18 21 -166 14 -203 -10 -30 -20 -31 -15 -11 44 18 50 82 114 128 129 56 17 252 4 352 -24z m-1073 -1990 c127 -45 292 -176 336 -268 28 -57 28 -105 0 -158 -31 -58 -71 -75 -139 -61 -90 20 -185 78 -290 179 -118 113 -169 184 -176 245 -5 42 -4 44 28 59 74 35 151 36 241 4z"/>
 <path d="M7835 2331 c-38 -10 -92 -38 -100 -52 -17 -26 14 -31 78 -14 82 22 168 17 225 -13 40 -21 82 -29 82 -16 0 20 -28 48 -73 70 -56 29 -155 40 -212 25z"/>
 <path d="M8077 1690 c-48 -15 -127 -71 -127 -90 0 -27 18 -34 44 -16 28 18 143 46 190 46 48 0 130 -27 151 -50 22 -24 53 -26 62 -4 8 23 -34 63 -102 95 -48 23 -73 29 -125 28 -36 0 -78 -5 -93 -9z"/>
 </g>
<g id="layer15" fill="#fbf6f8" stroke="none">
 <path d="M7315 13004 c-11 -8 -20 -20 -20 -27 0 -7 -8 -11 -17 -11 -10 1 -16 -3 -15 -10 1 -6 -5 -12 -13 -12 -8 -1 -20 -2 -26 -3 -6 0 -23 -13 -37 -27 -15 -15 -33 -24 -41 -21 -9 4 -18 1 -22 -4 -4 -7 -23 -8 -49 -4 -26 3 -46 2 -50 -4 -3 -6 -24 -8 -52 -4 -39 5 -45 4 -40 -9 3 -9 11 -36 18 -59 7 -24 16 -48 20 -54 3 -5 10 -26 14 -45 3 -19 19 -75 35 -125 43 -134 118 -396 141 -494 23 -103 23 -102 48 -216 10 -49 35 -166 55 -260 34 -154 53 -247 76 -375 5 -25 11 -52 15 -61 3 -9 14 -54 24 -100 28 -131 120 -482 130 -500 5 -9 17 -47 26 -85 23 -91 93 -352 104 -384 5 -14 14 -50 21 -80 6 -30 18 -75 26 -100 19 -58 82 -289 99 -360 7 -30 20 -75 29 -99 9 -24 16 -53 16 -65 0 -12 4 -26 10 -32 5 -5 11 -25 14 -44 4 -36 107 -414 151 -555 13 -44 27 -96 30 -115 6 -34 10 -37 59 -48 79 -18 213 -15 283 7 122 39 269 152 374 287 36 47 39 54 28 80 -6 16 -15 38 -19 49 -168 426 -426 981 -610 1310 -21 39 -44 81 -50 94 -6 13 -36 67 -67 119 l-56 96 7 120 c7 134 8 394 1 441 -2 17 -6 54 -10 84 -6 62 -5 56 -40 204 -14 59 -29 115 -34 125 -5 9 -30 80 -56 157 -25 77 -50 149 -56 160 -5 11 -18 52 -30 90 -12 39 -25 75 -29 80 -4 6 -11 21 -14 35 -22 79 -184 476 -267 657 -77 166 -89 194 -89 203 0 15 -22 12 -45 -6z"/>
 <path d="M10063 12827 c-3 -5 -19 -6 -35 -3 -40 8 -157 -39 -168 -68 -4 -12 -13 -64 -20 -116 -6 -52 -16 -115 -22 -140 -6 -25 -14 -74 -19 -110 -4 -36 -10 -78 -13 -95 -22 -137 -98 -637 -101 -665 -2 -19 -11 -82 -19 -140 -9 -58 -20 -143 -25 -190 -6 -47 -21 -175 -35 -285 -14 -110 -30 -247 -36 -305 -11 -100 -15 -110 -66 -198 -30 -51 -54 -95 -54 -96 0 -3 -60 -110 -136 -241 -13 -22 -30 -53 -38 -70 -8 -16 -35 -66 -60 -110 -25 -44 -54 -96 -64 -115 -11 -19 -51 -91 -89 -160 -122 -216 -153 -273 -183 -335 -92 -192 -97 -211 -76 -270 l14 -40 107 -7 c59 -3 119 -11 134 -16 14 -5 44 -15 66 -21 50 -13 150 -84 232 -164 l62 -60 6 29 c4 16 26 101 50 189 23 88 50 194 60 235 10 41 21 84 26 95 4 11 10 31 13 45 9 44 126 498 170 655 13 50 37 117 54 150 16 33 44 94 61 135 18 41 41 93 51 115 33 69 127 289 200 470 115 280 177 488 185 618 24 376 43 760 51 1049 l7 227 -27 7 c-14 3 -33 3 -42 0 -9 -3 -21 -3 -26 0 -17 11 -188 11 -195 1z"/>
 <path d="M273 9843 c4 -6 21 -16 39 -23 18 -6 60 -25 93 -40 33 -16 89 -42 125 -58 179 -82 437 -209 637 -313 240 -124 252 -131 313 -170 26 -16 82 -48 180 -102 30 -16 67 -39 81 -51 15 -11 42 -30 60 -41 19 -11 54 -32 79 -47 25 -15 54 -32 65 -37 12 -5 27 -16 34 -25 7 -9 18 -16 24 -16 6 0 34 -18 63 -40 29 -22 68 -48 87 -59 19 -10 101 -69 183 -130 82 -61 175 -130 207 -154 32 -23 75 -56 95 -73 20 -16 49 -39 63 -50 111 -83 180 -137 214 -169 22 -21 59 -51 83 -68 23 -17 42 -34 42 -39 0 -4 4 -8 10 -8 5 0 33 -22 62 -49 29 -27 72 -64 95 -82 82 -66 294 -253 407 -360 45 -42 101 -93 126 -114 25 -21 61 -54 80 -74 19 -20 77 -76 129 -125 l93 -90 13 30 c8 19 11 68 9 149 -2 66 -1 127 1 135 4 11 23 15 79 17 41 0 80 4 86 8 15 9 -10 36 -80 88 -30 22 -89 71 -131 109 -42 37 -80 68 -86 68 -5 0 -18 10 -29 21 -21 23 -184 156 -249 203 -22 15 -44 34 -50 40 -9 10 -86 71 -242 189 -23 18 -92 70 -152 117 -131 101 -279 211 -373 278 -107 76 -215 153 -229 164 -9 7 -23 18 -31 23 -9 6 -46 31 -83 58 -36 26 -69 47 -72 47 -3 0 -22 12 -42 28 -47 35 -101 72 -106 72 -3 0 -27 16 -53 34 -26 19 -59 39 -72 44 -14 6 -45 25 -70 43 -25 18 -58 41 -75 50 -16 8 -61 33 -100 54 -38 20 -81 45 -95 53 -14 9 -45 27 -70 40 -25 13 -61 32 -80 42 -19 11 -71 36 -115 56 -44 20 -107 49 -140 64 -77 36 -151 66 -245 97 -41 14 -79 29 -85 33 -11 9 -109 38 -270 81 -95 26 -245 53 -350 64 -150 16 -188 17 -182 8z"/>
 <path d="M12908 8999 c-36 -10 -126 -40 -200 -67 -73 -27 -144 -53 -158 -57 -14 -4 -29 -11 -35 -15 -30 -23 -343 -90 -430 -92 -44 -1 -59 -6 -77 -26 -26 -27 -180 -120 -262 -158 -59 -27 -86 -24 -86 11 0 28 14 40 92 77 141 66 240 141 299 227 79 114 74 128 -17 54 -155 -127 -248 -160 -524 -188 -180 -18 -299 -39 -352 -62 -54 -23 -85 -92 -96 -214 -7 -67 -17 -111 -37 -154 -52 -112 -209 -430 -226 -455 -9 -14 -38 -65 -64 -115 -95 -179 -113 -212 -172 -310 -163 -273 -381 -669 -471 -856 -57 -119 -85 -190 -137 -344 -44 -131 -117 -306 -162 -390 -6 -11 -44 -92 -83 -180 -89 -197 -98 -218 -150 -330 -23 -49 -58 -126 -77 -170 -28 -66 -94 -216 -159 -360 -7 -16 -38 -83 -69 -149 -30 -65 -55 -120 -55 -123 0 -2 -12 -30 -26 -61 -66 -146 -77 -178 -109 -314 -35 -150 -62 -324 -70 -448 -8 -126 7 -203 61 -312 53 -109 52 -108 158 -108 115 1 159 11 205 48 49 39 73 76 111 174 17 46 36 92 41 103 15 32 87 262 115 365 14 52 34 122 44 155 10 33 24 87 30 119 7 33 16 67 20 75 7 15 59 219 82 321 45 200 153 613 209 799 16 52 29 100 29 108 0 7 4 21 9 31 5 9 30 85 57 167 26 83 54 166 62 185 40 97 129 267 192 365 59 93 139 242 171 320 4 11 21 52 37 90 90 216 242 599 242 610 0 4 7 23 16 43 9 21 23 53 31 72 8 19 18 44 23 55 5 11 29 76 55 145 25 69 55 144 65 166 11 23 22 55 26 70 6 26 63 179 85 229 4 11 24 62 43 113 53 143 49 140 142 130 144 -16 537 -13 669 5 158 22 311 56 375 83 93 40 182 86 177 91 -3 3 -58 -14 -122 -37 -140 -50 -185 -59 -185 -38 0 23 18 34 90 56 74 23 220 76 247 90 10 6 68 31 128 57 80 35 127 63 172 103 69 60 106 112 101 141 -3 18 -10 15 -68 -25 -182 -126 -320 -194 -501 -249 -154 -46 -248 -60 -256 -39 -4 12 65 44 96 44 29 0 260 78 321 109 30 16 81 41 114 57 32 16 108 62 169 102 61 39 114 72 119 72 4 0 5 7 2 15 -7 18 -11 18 -96 -6z"/>
 <path d="M7965 8238 c-82 -23 -202 -27 -264 -10 -24 7 -46 11 -48 8 -12 -12 118 -218 163 -258 50 -45 274 -112 318 -95 32 12 24 129 -15 222 -4 11 -11 36 -15 55 -3 19 -10 41 -15 50 -4 8 -10 23 -13 33 -6 21 -20 20 -111 -5z"/>
 <path d="M9045 7940 c-33 -5 -132 -24 -220 -44 -88 -19 -176 -37 -195 -41 -93 -16 -222 -34 -283 -41 -44 -4 -67 -10 -64 -18 2 -6 19 -59 36 -118 26 -86 30 -111 21 -128 -10 -19 -13 -19 -33 -5 -16 11 -33 50 -58 132 -20 64 -41 119 -47 121 -6 2 -15 -14 -21 -35 -30 -115 -184 -766 -206 -873 -49 -239 -103 -515 -114 -590 -6 -41 -18 -118 -26 -170 -24 -154 -23 -164 30 -200 l45 -31 108 27 c92 24 126 28 242 27 129 -1 140 -2 240 -37 58 -20 112 -39 121 -42 12 -4 35 17 80 74 231 289 320 419 408 592 158 309 200 504 162 755 -30 200 -139 656 -156 654 -5 -1 -37 -5 -70 -9z"/>
 <path d="M4600 7418 c-11 -81 -7 -128 16 -177 24 -50 67 -101 85 -101 13 0 22 67 15 113 -7 42 -62 142 -88 159 -13 7 -28 11 -28 6z"/>
 <path d="M4784 7289 c-4 -19 -8 -63 -9 -99 0 -52 -5 -71 -24 -97 -32 -43 -34 -134 -3 -165 46 -46 71 19 78 205 5 130 4 144 -14 166 l-20 24 -8 -34z"/>
 <path d="M4470 7286 c0 -8 7 -45 16 -83 25 -109 30 -145 39 -278 3 -55 8 -109 10 -121 7 -33 232 -246 326 -307 l26 -17 -5 55 c-2 30 1 76 7 101 11 43 10 48 -11 72 -13 13 -41 33 -63 43 -83 38 -102 68 -160 254 -20 66 -48 134 -61 152 -13 17 -24 36 -24 42 0 6 -4 11 -8 11 -5 0 -23 20 -41 45 -33 46 -51 57 -51 31z"/>
 <path d="M4890 7128 c0 -113 -14 -177 -51 -227 -46 -65 -36 -105 20 -77 26 14 31 26 56 128 37 149 37 200 2 236 l-27 27 0 -87z"/>
 <path d="M4996 7042 c-4 -32 -20 -96 -37 -142 -43 -118 -43 -117 -29 -150 15 -37 39 -38 71 -2 38 41 50 78 56 172 5 74 3 91 -16 127 -11 23 -25 44 -30 47 -4 3 -11 -20 -15 -52z"/>
 <path d="M5260 6456 c0 -21 -78 -115 -106 -128 -24 -11 -33 -28 -14 -28 5 0 47 -28 93 -62 46 -35 90 -67 99 -73 18 -12 90 -63 198 -140 41 -29 130 -91 198 -136 67 -46 122 -86 122 -91 0 -4 5 -8 12 -8 6 0 44 -25 84 -55 40 -30 77 -55 81 -55 5 0 24 -13 43 -29 133 -109 484 -321 533 -321 55 0 144 -106 242 -290 37 -69 85 -159 107 -200 22 -41 55 -97 73 -125 33 -52 145 -232 212 -343 94 -156 333 -509 397 -587 124 -149 127 -152 283 -200 7 -2 -16 37 -52 88 -35 51 -96 144 -134 207 -99 164 -110 183 -116 200 -3 8 -17 38 -30 65 -48 101 -129 315 -119 315 4 0 1 6 -5 14 -13 15 -52 263 -54 341 0 28 1 75 3 106 4 61 -7 86 -90 209 -20 30 -64 98 -96 150 -32 52 -62 97 -66 98 -4 2 -8 9 -8 16 0 28 -162 185 -260 252 -55 38 -108 74 -118 79 -9 6 -39 24 -67 41 -57 35 -123 72 -210 119 -33 18 -87 49 -120 69 -72 44 -603 306 -619 306 -3 0 -40 16 -83 36 -43 20 -107 48 -143 61 -36 14 -70 28 -75 33 -6 5 -28 15 -50 23 -22 8 -64 24 -92 36 -42 17 -53 18 -53 7z"/>
 <path d="M8830 4733 c0 -18 -4 -33 -9 -33 -5 0 -11 -17 -14 -37 -20 -145 -96 -433 -142 -538 -27 -60 -121 -207 -141 -218 -16 -9 -84 9 -134 36 -52 29 -159 111 -210 162 -25 25 -47 45 -50 45 -3 0 -13 -13 -23 -29 -21 -36 -127 -135 -165 -154 -34 -17 -124 -7 -174 19 -29 15 -29 15 -17 -7 23 -43 171 -272 184 -286 8 -7 33 -40 55 -72 41 -59 41 -59 127 -80 46 -12 94 -28 106 -35 12 -8 40 -16 63 -20 41 -6 41 -5 73 45 l32 52 74 -7 c59 -5 96 -17 192 -61 65 -29 150 -70 188 -91 67 -35 155 -69 155 -58 0 3 -9 23 -21 45 -11 22 -29 75 -40 117 -17 65 -19 95 -14 192 8 138 43 352 85 518 l30 122 -23 37 c-13 21 -39 70 -57 108 -19 39 -40 77 -47 86 -7 8 -29 51 -48 95 -30 68 -35 74 -35 47z"/>
 <path d="M8416 3494 c-20 -19 -21 -43 -1 -50 17 -7 29 -44 47 -144 14 -81 18 -445 5 -492 -6 -23 -4 -28 10 -28 25 -1 59 -30 68 -59 7 -22 5 -23 -26 -17 -144 29 -317 33 -424 11 -169 -36 -347 -161 -440 -310 -65 -104 -131 -355 -93 -355 8 0 18 4 24 9 20 18 85 34 97 22 28 -28 2 -81 -40 -81 -25 0 -209 -92 -340 -171 -137 -82 -266 -169 -259 -176 2 -2 139 -17 305 -33 180 -17 308 -33 316 -40 19 -16 19 -49 0 -56 -8 -3 -55 -2 -104 3 -49 5 -87 5 -85 1 3 -4 12 -49 20 -100 8 -51 19 -106 24 -123 5 -16 23 -89 39 -161 30 -126 81 -273 106 -304 7 -8 22 -36 33 -63 12 -26 24 -47 27 -47 3 0 17 8 31 17 16 10 54 18 104 21 87 5 183 -19 252 -64 21 -13 40 -24 43 -24 14 0 125 -89 176 -141 72 -73 109 -146 109 -216 0 -29 3 -53 6 -53 12 0 148 93 165 113 24 29 24 64 -1 120 -17 39 -26 47 -56 53 -19 3 -52 4 -73 0 -25 -4 -44 -1 -57 8 -18 14 -18 16 4 83 25 79 90 173 140 203 21 13 60 23 107 27 l74 6 -39 71 c-63 115 -75 181 -61 340 17 194 34 239 162 432 106 160 116 221 69 414 -27 106 -49 143 -104 169 -81 40 -188 23 -246 -39 -26 -27 -31 -29 -49 -18 -26 16 -26 36 -2 96 11 26 25 78 31 116 29 176 129 293 269 312 42 5 51 10 46 23 -4 9 -16 54 -27 101 -18 75 -20 106 -15 260 3 96 7 184 9 194 4 25 -101 80 -236 124 -111 37 -119 38 -140 16z m-363 -1190 c47 -25 67 -41 67 -55 0 -26 -29 -25 -81 3 -56 29 -129 34 -209 14 -94 -24 -95 -24 -95 2 0 36 89 71 180 72 62 0 79 -4 138 -36z m192 -608 c53 -14 89 -34 124 -70 55 -57 20 -92 -41 -41 -16 14 -38 25 -48 25 -11 0 -31 5 -45 12 -20 9 -41 8 -93 -1 -37 -8 -79 -15 -95 -17 -15 -2 -38 -11 -52 -20 -13 -9 -29 -13 -35 -9 -23 14 -8 44 37 74 77 51 165 67 248 47z"/>
 <path d="M7815 689 c-84 -29 -94 -54 -54 -136 43 -89 237 -271 348 -327 59 -29 152 -43 191 -28 32 12 70 83 70 130 0 105 -145 251 -335 338 -65 30 -169 41 -220 23z"/>
 </g>

</svg>