<!DOCTYPE svg PUBLIC "-//W3C//DTD SVG 20010904//EN" "http://www.w3.org/TR/2001/REC-SVG-20010904/DTD/svg10.dtd">
<svg version="1.0" xmlns="http://www.w3.org/2000/svg" width="1600px" height="368px" viewBox="0 0 16000 3680" preserveAspectRatio="xMidYMid meet">
<g id="layer1" fill="#61607d" stroke="none">
 <path d="M12498 3 c12 -2 32 -2 45 0 12 2 2 4 -23 4 -25 0 -35 -2 -22 -4z"/>
 </g>
<g id="layer2" fill="#5f6279" stroke="none">
 <path d="M12608 3 c12 -2 32 -2 45 0 12 2 2 4 -23 4 -25 0 -35 -2 -22 -4z"/>
 </g>
<g id="layer3" fill="#676880" stroke="none">
 <path d="M3378 3 c18 -2 45 -2 60 0 15 2 0 4 -33 4 -33 0 -45 -2 -27 -4z"/>
 <path d="M5768 3 c18 -2 45 -2 60 0 15 2 0 4 -33 4 -33 0 -45 -2 -27 -4z"/>
 </g>
<g id="layer4" fill="#d6c8c6" stroke="none">
 <path d="M12731 796 c-7 -8 -8 -17 -3 -20 6 -3 15 1 21 8 7 8 8 17 3 20 -6 3 -15 -1 -21 -8z"/>
 <path d="M10045 210 c-8 -13 20 -24 41 -16 20 8 9 26 -16 26 -10 0 -22 -5 -25 -10z"/>
 <path d="M9985 196 c-11 -8 -14 -16 -8 -19 6 -4 18 0 28 7 11 8 14 16 8 19 -6 4 -18 0 -28 -7z"/>
 <path d="M10256 202 c-9 -14 18 -33 51 -35 22 -2 28 2 28 18 0 16 -8 21 -37 23 -20 2 -39 -1 -42 -6z"/>
 <path d="M9375 140 c-3 -6 -11 -8 -16 -5 -5 4 -9 2 -9 -4 0 -5 15 -9 33 -8 17 1 31 7 30 12 -3 14 -30 18 -38 5z"/>
 </g>
<g id="layer5" fill="#b0aa9b" stroke="none">
 <path d="M30 850 c0 -11 5 -20 10 -20 21 0 25 -2 42 -17 10 -9 25 -13 34 -9 21 8 8 24 -22 29 -12 1 -29 11 -38 20 -22 22 -26 21 -26 -3z"/>
 <path d="M3 245 c0 -44 2 -61 4 -37 2 23 2 59 0 80 -2 20 -4 1 -4 -43z"/>
 <path d="M3128 3 c12 -2 32 -2 45 0 12 2 2 4 -23 4 -25 0 -35 -2 -22 -4z"/>
 <path d="M3588 3 c12 -2 30 -2 40 0 9 3 -1 5 -23 4 -22 0 -30 -2 -17 -4z"/>
 <path d="M5038 3 c12 -2 30 -2 40 0 9 3 -1 5 -23 4 -22 0 -30 -2 -17 -4z"/>
 </g>
<g id="layer6" fill="#bbb3c3" stroke="none">
 <path d="M12233 375 c-22 -15 -36 -52 -24 -60 12 -7 48 23 54 45 7 27 -5 33 -30 15z"/>
 <path d="M5454 356 c-7 -18 22 -69 35 -62 12 8 1 53 -15 67 -11 9 -15 8 -20 -5z"/>
 <path d="M12151 286 c-7 -8 -8 -17 -3 -20 6 -3 15 1 21 8 7 8 8 17 3 20 -6 3 -15 -1 -21 -8z"/>
 <path d="M5507 253 c-7 -12 24 -76 38 -77 5 -1 11 6 13 15 4 20 -42 76 -51 62z"/>
 <path d="M9385 149 c-9 -13 15 -21 29 -10 7 6 16 8 19 4 4 -3 7 -2 7 4 0 12 -48 14 -55 2z"/>
 <path d="M5577 114 c-9 -9 13 -62 29 -68 17 -6 29 17 21 38 -7 17 -42 38 -50 30z"/>
 </g>
<g id="layer7" fill="#a3999d" stroke="none">
 <path d="M4277 963 c-11 -10 -8 -41 4 -49 16 -9 43 21 36 40 -7 16 -28 21 -40 9z"/>
 <path d="M4324 915 c-9 -23 4 -47 23 -43 26 5 28 35 3 48 -16 9 -21 8 -26 -5z"/>
 <path d="M20 870 c0 -18 34 -48 61 -55 30 -7 46 7 26 24 -24 19 -87 42 -87 31z"/>
 <path d="M3 150 c0 -25 2 -35 4 -22 2 12 2 32 0 45 -2 12 -4 2 -4 -23z"/>
 <path d="M3198 3 c12 -2 32 -2 45 0 12 2 2 4 -23 4 -25 0 -35 -2 -22 -4z"/>
 <path d="M3528 3 c12 -2 32 -2 45 0 12 2 2 4 -23 4 -25 0 -35 -2 -22 -4z"/>
 <path d="M6123 3 c15 -2 39 -2 55 0 15 2 2 4 -28 4 -30 0 -43 -2 -27 -4z"/>
 <path d="M10608 3 c12 -2 30 -2 40 0 9 3 -1 5 -23 4 -22 0 -30 -2 -17 -4z"/>
 <path d="M14678 3 c12 -2 32 -2 45 0 12 2 2 4 -23 4 -25 0 -35 -2 -22 -4z"/>
 </g>
<g id="layer8" fill="#4f5579" stroke="none">
 <path d="M463 1974 c-40 -23 -54 -46 -35 -58 12 -7 113 64 107 75 -10 15 -27 11 -72 -17z"/>
 <path d="M4 1185 c0 -82 2 -115 3 -72 2 43 2 110 0 150 -1 40 -3 5 -3 -78z"/>
 <path d="M11023 3 c15 -2 39 -2 55 0 15 2 2 4 -28 4 -30 0 -43 -2 -27 -4z"/>
 <path d="M12108 3 c23 -2 61 -2 85 0 23 2 4 4 -43 4 -47 0 -66 -2 -42 -4z"/>
 <path d="M12558 3 c12 -2 30 -2 40 0 9 3 -1 5 -23 4 -22 0 -30 -2 -17 -4z"/>
 <path d="M12663 3 c9 -2 25 -2 35 0 9 3 1 5 -18 5 -19 0 -27 -2 -17 -5z"/>
 </g>
<g id="layer9" fill="#fefee5" stroke="none">
 <path d="M6 804 c-8 -20 -8 -58 0 -77 4 -13 12 -12 52 3 68 26 66 43 -10 75 -32 13 -37 13 -42 -1z"/>
 <path d="M3005 281 c-7 -12 12 -24 25 -16 11 7 4 25 -10 25 -5 0 -11 -4 -15 -9z"/>
 <path d="M3975 281 c-7 -12 12 -24 25 -16 11 7 4 25 -10 25 -5 0 -11 -4 -15 -9z"/>
 <path d="M4465 211 c-7 -12 12 -24 25 -16 11 7 4 25 -10 25 -5 0 -11 -4 -15 -9z"/>
 <path d="M1735 151 c-7 -12 12 -24 25 -16 11 7 4 25 -10 25 -5 0 -11 -4 -15 -9z"/>
 <path d="M1095 140 c-8 -12 20 -24 35 -15 6 3 8 11 5 16 -8 12 -32 12 -40 -1z"/>
 <path d="M2005 141 c-7 -12 12 -24 25 -16 11 7 4 25 -10 25 -5 0 -11 -4 -15 -9z"/>
 <path d="M425 61 c-7 -12 12 -24 25 -16 11 7 4 25 -10 25 -5 0 -11 -4 -15 -9z"/>
 </g>
<g id="layer10" fill="#7e829c" stroke="none">
 <path d="M4275 2091 c-7 -12 12 -24 25 -16 11 7 4 25 -10 25 -5 0 -11 -4 -15 -9z"/>
 <path d="M4175 2080 c-8 -12 20 -24 35 -15 6 3 8 11 5 16 -8 12 -32 12 -40 -1z"/>
 <path d="M4015 2060 c-8 -13 20 -24 41 -16 20 8 9 26 -16 26 -10 0 -22 -5 -25 -10z"/>
 <path d="M3925 2051 c-7 -12 12 -24 25 -16 11 7 4 25 -10 25 -5 0 -11 -4 -15 -9z"/>
 <path d="M3835 2040 c-3 -5 0 -13 9 -16 21 -8 61 -1 61 11 0 14 -62 19 -70 5z"/>
 <path d="M3745 2030 c-8 -13 20 -24 41 -16 20 8 9 26 -16 26 -10 0 -22 -5 -25 -10z"/>
 <path d="M3585 2021 c-7 -13 17 -24 40 -19 9 1 16 8 16 13 0 14 -48 19 -56 6z"/>
 <path d="M14455 1371 c-7 -12 12 -24 25 -16 11 7 4 25 -10 25 -5 0 -11 -4 -15 -9z"/>
 <path d="M14643 1357 c-3 -4 9 -13 26 -20 32 -12 41 -27 17 -27 -18 0 -68 -59 -60 -71 9 -15 21 -11 81 28 32 21 65 38 74 40 37 6 70 24 67 36 -5 14 -197 27 -205 14z"/>
 <path d="M15585 1291 c-3 -6 3 -15 14 -21 12 -6 22 -6 26 -1 3 6 -3 15 -14 21 -12 6 -22 6 -26 1z"/>
 <path d="M15655 1260 c-3 -5 20 -23 52 -39 32 -16 71 -36 87 -45 16 -8 34 -13 38 -9 12 7 -21 43 -39 43 -7 0 -40 13 -73 30 -33 17 -62 26 -65 20z"/>
 <path d="M14537 1188 c-27 -46 -26 -64 1 -49 30 16 74 69 68 80 -15 24 -45 10 -69 -31z"/>
 <path d="M15915 1130 c-3 -5 8 -16 25 -25 33 -17 43 -2 13 21 -22 16 -30 17 -38 4z"/>
 <path d="M15980 1095 c0 -8 5 -15 10 -15 6 0 10 7 10 15 0 8 -4 15 -10 15 -5 0 -10 -7 -10 -15z"/>
 <path d="M95 851 c-3 -6 3 -15 14 -21 12 -6 22 -6 26 -1 3 6 -3 15 -14 21 -12 6 -22 6 -26 1z"/>
 <path d="M11873 227 c-12 -5 -24 -16 -27 -23 -9 -24 11 -24 39 0 30 26 23 39 -12 23z"/>
 <path d="M11784 135 c-12 -18 -14 -29 -6 -37 14 -14 29 -3 34 27 7 36 -8 41 -28 10z"/>
 <path d="M11830 82 c0 -4 9 -8 20 -9 11 -1 20 2 20 5 0 4 -9 8 -20 9 -11 1 -20 -2 -20 -5z"/>
 <path d="M11120 68 c0 -3 9 -6 20 -5 11 1 20 5 20 9 0 3 -9 6 -20 5 -11 -1 -20 -5 -20 -9z"/>
 <path d="M11965 60 c-8 -12 20 -24 35 -15 6 3 8 11 5 16 -8 12 -32 12 -40 -1z"/>
 <path d="M12045 51 c-7 -12 12 -24 25 -16 11 7 4 25 -10 25 -5 0 -11 -4 -15 -9z"/>
 <path d="M11016 43 c-11 -3 -26 -11 -34 -19 -11 -12 -11 -14 1 -14 24 0 78 26 70 33 -7 7 -7 7 -37 0z"/>
 <path d="M12106 42 c-6 -10 66 -28 144 -37 40 -4 51 -3 40 4 -8 6 -36 11 -62 11 -26 0 -50 5 -53 11 -4 6 -13 8 -21 5 -7 -3 -16 -1 -19 4 -8 12 -22 13 -29 2z"/>
 </g>
<g id="layer11" fill="#cabbc3" stroke="none">
 <path d="M13195 1231 c-101 -26 -134 -44 -185 -103 -25 -29 -94 -106 -153 -171 -100 -109 -117 -137 -82 -137 7 0 72 65 144 143 184 203 194 211 282 231 93 22 122 33 114 46 -8 14 -38 11 -120 -9z"/>
 <path d="M12683 767 c-40 -38 -54 -59 -50 -71 6 -15 9 -15 34 -2 55 29 107 106 82 122 -5 3 -35 -19 -66 -49z"/>
 <path d="M12520 623 c-143 -123 -250 -225 -244 -235 4 -5 13 -3 22 5 10 8 33 23 52 32 30 16 144 113 243 207 27 27 29 49 4 47 -7 0 -41 -25 -77 -56z"/>
 <path d="M13851 546 c-7 -8 -8 -17 -3 -20 6 -3 15 1 21 8 7 8 8 17 3 20 -6 3 -15 -1 -21 -8z"/>
 <path d="M5376 495 c4 -8 12 -15 20 -15 8 0 11 6 8 15 -4 8 -12 15 -20 15 -8 0 -11 -6 -8 -15z"/>
 <path d="M13766 474 c-21 -21 -11 -37 15 -24 10 6 19 15 19 20 0 17 -19 20 -34 4z"/>
 <path d="M13701 406 c-7 -8 -8 -17 -3 -20 6 -3 15 1 21 8 7 8 8 17 3 20 -6 3 -15 -1 -21 -8z"/>
 <path d="M6739 362 c11 -37 48 -109 61 -117 25 -15 19 29 -11 84 -33 64 -64 84 -50 33z"/>
 <path d="M12151 310 c-60 -50 -86 -82 -74 -93 9 -9 42 11 101 61 50 43 62 64 43 77 -5 3 -37 -17 -70 -45z"/>
 <path d="M9971 201 c-14 -25 -1 -33 28 -18 30 15 32 31 4 35 -14 2 -26 -4 -32 -17z"/>
 <path d="M10235 210 c-10 -17 12 -37 25 -24 8 8 6 15 -4 23 -10 9 -16 9 -21 1z"/>
 <path d="M10314 195 c-4 -9 -2 -21 4 -27 15 -15 44 -1 40 19 -4 23 -36 29 -44 8z"/>
 <path d="M9525 190 c-11 -5 -32 -9 -46 -9 -15 -1 -32 -8 -39 -16 -7 -8 -16 -13 -20 -10 -5 3 -12 1 -15 -5 -7 -11 69 -8 163 6 41 6 60 18 45 27 -19 11 -70 15 -88 7z"/>
 <path d="M9325 127 c-9 -4 -13 -12 -10 -18 4 -5 15 -4 28 3 12 7 25 12 29 13 3 0 10 3 14 8 10 9 -42 5 -61 -6z"/>
 <path d="M6892 55 c6 -14 17 -25 24 -25 11 0 11 5 2 25 -6 14 -17 25 -24 25 -11 0 -11 -5 -2 -25z"/>
 <path d="M15091 66 c-7 -8 -8 -17 -3 -20 6 -3 15 1 21 8 7 8 8 17 3 20 -6 3 -15 -1 -21 -8z"/>
 <path d="M143 3 c9 -2 25 -2 35 0 9 3 1 5 -18 5 -19 0 -27 -2 -17 -5z"/>
 </g>
<g id="layer12" fill="#847f97" stroke="none">
 <path d="M4295 2090 c-8 -13 20 -24 41 -16 20 8 9 26 -16 26 -10 0 -22 -5 -25 -10z"/>
 <path d="M4205 2081 c-7 -12 12 -24 25 -16 11 7 4 25 -10 25 -5 0 -11 -4 -15 -9z"/>
 <path d="M4105 2071 c-7 -12 12 -24 25 -16 11 7 4 25 -10 25 -5 0 -11 -4 -15 -9z"/>
 <path d="M3945 2051 c-7 -12 12 -24 25 -16 11 7 4 25 -10 25 -5 0 -11 -4 -15 -9z"/>
 <path d="M3785 2030 c-8 -12 20 -24 35 -15 6 3 8 11 5 16 -8 12 -32 12 -40 -1z"/>
 <path d="M3620 2015 c-12 -15 3 -38 91 -143 19 -23 48 16 51 68 l3 45 -40 -3 c-46 -4 -38 14 8 20 54 6 32 23 -34 26 -50 2 -69 -1 -79 -13z"/>
 <path d="M15994 1475 c0 -49 1 -71 3 -48 2 23 2 64 0 90 -2 26 -3 8 -3 -42z"/>
 <path d="M14560 1336 c-102 -13 -114 -30 -51 -71 22 -15 42 -32 44 -40 3 -7 18 -16 33 -19 23 -6 32 -1 68 39 33 37 50 47 86 53 36 6 45 12 45 27 0 18 -7 20 -70 21 -38 1 -108 -4 -155 -10z"/>
 <path d="M15615 1281 c-3 -6 3 -15 14 -21 12 -6 22 -6 26 -1 3 6 -3 15 -14 21 -12 6 -22 6 -26 1z"/>
 <path d="M15993 1150 c0 -36 2 -50 4 -32 2 17 2 47 0 65 -2 17 -4 3 -4 -33z"/>
 <path d="M15826 1181 c-12 -18 66 -66 92 -56 13 5 14 8 1 20 -20 20 -87 46 -93 36z"/>
 <path d="M4951 918 c-34 -5 -80 -18 -102 -28 -38 -20 -66 -54 -52 -63 5 -3 60 1 123 9 63 7 132 13 152 14 27 0 40 6 48 20 8 16 21 20 59 20 33 0 51 5 54 14 3 8 3 17 0 20 -9 9 -208 5 -282 -6z"/>
 <path d="M55 871 c-3 -6 3 -15 14 -21 12 -6 22 -6 26 -1 3 6 -3 15 -14 21 -12 6 -22 6 -26 1z"/>
 <path d="M11820 180 c-11 -11 -18 -25 -15 -30 8 -13 34 -1 45 21 15 27 -6 33 -30 9z"/>
 <path d="M11175 96 c-11 -8 -14 -16 -8 -19 6 -4 18 0 28 7 11 8 14 16 8 19 -6 4 -18 0 -28 -7z"/>
 <path d="M11060 48 c0 -3 9 -6 20 -5 11 1 20 5 20 9 0 3 -9 6 -20 5 -11 -1 -20 -5 -20 -9z"/>
 <path d="M10905 10 l-60 -7 73 -1 c42 -1 72 2 72 8 0 6 -6 9 -12 8 -7 -1 -40 -4 -73 -8z"/>
 <path d="M3323 3 c9 -2 25 -2 35 0 9 3 1 5 -18 5 -19 0 -27 -2 -17 -5z"/>
 <path d="M5868 3 c17 -2 47 -2 65 0 17 2 3 4 -33 4 -36 0 -50 -2 -32 -4z"/>
 <path d="M12298 3 c12 -2 32 -2 45 0 12 2 2 4 -23 4 -25 0 -35 -2 -22 -4z"/>
 <path d="M12408 3 c12 -2 32 -2 45 0 12 2 2 4 -23 4 -25 0 -35 -2 -22 -4z"/>
 <path d="M13028 3 c12 -2 30 -2 40 0 9 3 -1 5 -23 4 -22 0 -30 -2 -17 -4z"/>
 </g>
<g id="layer13" fill="#e7d2bc" stroke="none">
 <path d="M40 820 c0 -5 3 -9 8 -8 4 1 17 -3 29 -10 22 -12 44 0 23 13 -19 12 -60 15 -60 5z"/>
 <path d="M3 550 c0 -36 2 -50 4 -32 2 17 2 47 0 65 -2 17 -4 3 -4 -33z"/>
 <path d="M15409 376 c-2 -2 -47 -11 -99 -20 -52 -9 -129 -26 -170 -37 -90 -24 -290 -107 -290 -120 0 -5 0 -12 0 -16 -1 -5 16 -10 37 -13 69 -9 46 -58 -35 -75 l-33 -7 7 41 c10 63 -11 64 -131 3 -105 -53 -132 -73 -120 -92 11 -19 44 -10 79 21 19 16 49 34 66 39 33 9 80 -2 80 -19 0 -6 12 -22 27 -36 l28 -25 -32 0 c-18 0 -33 6 -37 15 -8 21 -38 19 -59 -5 -17 -20 -16 -20 157 -20 96 0 176 4 178 9 2 4 22 20 46 35 23 14 42 33 42 40 0 14 49 56 60 52 3 0 23 18 44 42 22 24 45 41 52 38 7 -3 18 2 24 10 7 8 9 14 5 14 -5 0 0 9 10 20 12 14 22 17 30 10 14 -11 45 7 49 30 2 8 6 23 10 32 11 24 -9 50 -25 34z"/>
 <path d="M15461 366 c-7 -8 -8 -17 -3 -20 6 -3 15 1 21 8 7 8 8 17 3 20 -6 3 -15 -1 -21 -8z"/>
 <path d="M10015 210 c-7 -12 32 -33 45 -25 6 4 8 10 5 14 -7 13 -44 20 -50 11z"/>
 <path d="M9410 145 c-7 -8 -15 -13 -19 -11 -3 2 -19 -6 -35 -19 -15 -12 -24 -25 -18 -29 5 -3 22 4 38 17 16 12 37 20 48 19 10 -2 22 2 27 9 17 28 -19 41 -41 14z"/>
 <path d="M9214 58 c-3 -4 4 -12 14 -17 14 -7 24 -6 38 4 21 16 21 16 -19 19 -16 1 -31 -2 -33 -6z"/>
 <path d="M14505 10 c-25 -11 1 -11 35 0 20 6 21 8 5 8 -11 0 -29 -3 -40 -8z"/>
 <path d="M3798 3 c12 -2 30 -2 40 0 9 3 -1 5 -23 4 -22 0 -30 -2 -17 -4z"/>
 <path d="M4853 3 c15 -2 37 -2 50 0 12 2 0 4 -28 4 -27 0 -38 -2 -22 -4z"/>
 </g>
<g id="layer14" fill="#dac7b9" stroke="none">
 <path d="M20 847 c0 -19 21 -37 42 -37 10 0 23 -9 30 -20 16 -26 33 -26 35 0 1 14 -8 24 -31 34 -19 8 -37 19 -40 25 -10 15 -36 14 -36 -2z"/>
 <path d="M12751 830 c-19 -11 -6 -41 14 -34 16 6 20 29 7 38 -4 2 -14 1 -21 -4z"/>
 <path d="M12616 694 c-21 -21 -11 -37 15 -24 10 6 19 15 19 20 0 17 -19 20 -34 4z"/>
 <path d="M3 440 c0 -41 2 -58 4 -37 2 20 2 54 0 75 -2 20 -4 3 -4 -38z"/>
 <path d="M13730 440 c-11 -11 -18 -25 -15 -30 8 -13 34 -1 45 21 15 27 -6 33 -30 9z"/>
 <path d="M15481 376 c-7 -8 -8 -17 -3 -20 6 -3 15 1 21 8 7 8 8 17 3 20 -6 3 -15 -1 -21 -8z"/>
 <path d="M15436 344 c-9 -8 -14 -20 -11 -24 7 -12 32 -2 39 15 8 22 -10 27 -28 9z"/>
 <path d="M15280 220 c-11 -11 -18 -25 -15 -30 8 -13 34 -1 45 21 15 27 -6 33 -30 9z"/>
 <path d="M10015 201 c-22 -4 -51 -13 -65 -21 -19 -10 -65 -12 -210 -8 -246 8 -302 -1 -395 -62 -47 -32 -105 -56 -122 -52 -7 2 -13 -6 -13 -17 0 -19 -5 -22 -62 -34 -5 -1 257 -2 582 -2 440 0 592 3 601 12 17 17 4 41 -23 45 -38 5 -20 23 20 20 28 -2 43 2 56 17 20 22 14 41 -14 41 -29 0 -50 11 -50 26 0 7 -9 18 -21 25 -25 13 -228 21 -284 10z"/>
 <path d="M6837 173 c-8 -13 54 -154 70 -160 26 -10 26 6 -2 71 -28 65 -58 105 -68 89z"/>
 <path d="M1615 160 c-8 -13 20 -24 41 -16 20 8 9 26 -16 26 -10 0 -22 -5 -25 -10z"/>
 <path d="M15059 40 c-18 -14 -20 -19 -8 -20 22 0 54 25 42 33 -6 4 -22 -2 -34 -13z"/>
 <path d="M3738 3 c12 -2 32 -2 45 0 12 2 2 4 -23 4 -25 0 -35 -2 -22 -4z"/>
 <path d="M4923 3 c15 -2 39 -2 55 0 15 2 2 4 -28 4 -30 0 -43 -2 -27 -4z"/>
 <path d="M14518 3 c12 -2 32 -2 45 0 12 2 2 4 -23 4 -25 0 -35 -2 -22 -4z"/>
 <path d="M14903 3 c32 -2 81 -2 110 0 29 2 3 3 -58 3 -60 0 -84 -1 -52 -3z"/>
 </g>
<g id="layer15" fill="#ebd6c6" stroke="none">
 <path d="M2 830 c0 -19 2 -27 5 -17 2 9 2 25 0 35 -3 9 -5 1 -5 -18z"/>
 <path d="M15380 414 c-74 -18 -145 -34 -156 -34 -12 0 -38 -7 -57 -15 -20 -8 -48 -15 -63 -15 -36 0 -253 -99 -264 -121 -7 -11 -17 -15 -31 -12 -14 4 -20 2 -16 -5 4 -6 -25 -28 -70 -52 -93 -51 -113 -67 -106 -86 3 -8 1 -14 -3 -15 -5 0 -21 -2 -36 -3 -15 -1 -36 -11 -47 -23 l-20 -21 44 -6 c47 -8 160 2 185 14 9 5 38 4 65 -1 57 -11 77 0 57 31 -11 17 -9 20 16 26 50 12 72 32 72 66 0 17 -7 39 -16 49 -15 17 -14 19 22 35 136 58 365 121 409 112 12 -2 -2 -19 -47 -55 -158 -131 -183 -154 -183 -171 0 -37 33 -19 160 88 30 25 90 74 135 110 45 36 93 74 107 86 29 23 26 55 -4 53 -10 -1 -79 -16 -153 -35z m-576 -279 c-7 -17 -7 -17 -29 -9 -13 5 -14 8 -3 15 21 14 38 10 32 -6z"/>
 <path d="M845 391 c-7 -12 12 -24 25 -16 11 7 4 25 -10 25 -5 0 -11 -4 -15 -9z"/>
 <path d="M10011 207 c-6 -8 -8 -17 -4 -20 11 -12 41 -7 46 7 10 27 -22 36 -42 13z"/>
 <path d="M9291 107 c-93 -46 -116 -60 -135 -79 -17 -17 -16 -18 16 -18 19 0 38 4 44 8 5 5 34 19 64 31 66 26 116 63 106 79 -11 18 -25 15 -95 -21z"/>
 <path d="M0 55 l0 -50 78 3 c42 1 95 7 117 12 22 5 85 12 140 16 116 7 148 17 143 42 -3 15 -25 17 -241 22 l-237 5 0 -50z"/>
 <path d="M2515 94 c-71 -8 -136 -17 -144 -20 -24 -8 12 -37 48 -38 17 -1 33 -7 36 -14 3 -9 104 -12 462 -11 252 1 445 5 428 9 -22 6 -9 8 48 9 l78 1 -3 26 c-4 38 -30 51 -70 36 -27 -10 -34 -9 -40 2 -7 12 -48 14 -251 11 -283 -5 -238 -5 -362 0 -55 1 -158 -3 -230 -11z"/>
 <path d="M15061 57 c-6 -8 -8 -17 -5 -20 10 -9 45 13 39 24 -9 13 -21 11 -34 -4z"/>
 <path d="M3953 3 c70 -2 184 -2 255 0 70 1 12 3 -128 3 -140 0 -198 -2 -127 -3z"/>
 <path d="M4783 3 c15 -2 37 -2 50 0 12 2 0 4 -28 4 -27 0 -38 -2 -22 -4z"/>
 </g>
<g id="layer16" fill="#f8ecca" stroke="none">
 <path d="M6 853 c-3 -4 -6 -22 -6 -42 0 -20 4 -31 8 -24 5 8 14 7 31 -6 l23 -17 -25 -17 c-19 -12 -27 -13 -30 -4 -3 6 -6 3 -6 -8 -1 -40 11 -45 67 -26 70 24 76 31 57 67 -14 29 -107 89 -119 77z"/>
 <path d="M146 721 c-7 -11 22 -43 36 -39 17 6 14 20 -9 35 -13 9 -23 10 -27 4z"/>
 <path d="M245 671 c-9 -15 31 -55 48 -48 9 3 14 13 11 20 -7 18 -52 39 -59 28z"/>
 <path d="M375 590 c-6 -10 42 -50 61 -50 19 0 26 16 11 28 -21 18 -66 32 -72 22z"/>
 <path d="M15536 441 c-3 -5 0 -14 8 -20 10 -8 16 -8 25 2 6 8 8 17 4 20 -9 10 -31 9 -37 -2z"/>
 <path d="M816 402 c-2 -4 -1 -14 4 -21 11 -19 41 -6 34 14 -6 16 -29 20 -38 7z"/>
 <path d="M995 331 c-7 -12 12 -24 25 -16 11 7 4 25 -10 25 -5 0 -11 -4 -15 -9z"/>
 <path d="M3330 306 c-10 -13 -9 -17 4 -22 22 -8 49 3 44 19 -7 18 -33 20 -48 3z"/>
 <path d="M3255 300 c-8 -12 20 -24 35 -15 6 3 8 11 5 16 -8 12 -32 12 -40 -1z"/>
 <path d="M3645 300 c-9 -14 45 -34 58 -21 7 7 1 14 -17 21 -33 12 -33 12 -41 0z"/>
 <path d="M3185 290 c-8 -12 20 -24 35 -15 6 3 8 11 5 16 -8 12 -32 12 -40 -1z"/>
 <path d="M3815 291 c-7 -13 17 -24 40 -19 9 1 16 8 16 13 0 14 -48 19 -56 6z"/>
 <path d="M3025 280 c-8 -13 20 -24 41 -16 20 8 9 26 -16 26 -10 0 -22 -5 -25 -10z"/>
 <path d="M3928 285 c-4 -4 -4 -13 -1 -21 4 -10 24 -14 73 -14 61 0 94 11 73 23 -15 8 -138 18 -145 12z"/>
 <path d="M14800 226 c-130 -54 -245 -127 -312 -198 -25 -26 -25 -28 -7 -28 28 0 95 36 102 55 4 8 14 15 22 15 9 0 47 17 83 39 37 21 95 52 128 69 57 29 81 52 67 66 -10 10 -25 6 -83 -18z"/>
 <path d="M4286 231 c-3 -5 3 -20 13 -32 18 -22 22 -23 42 -10 20 12 24 11 36 -5 8 -11 13 -30 11 -44 -3 -23 -7 -25 -53 -24 -27 0 -66 2 -85 4 -19 2 -230 3 -468 2 l-432 -2 -12 -25 c-18 -40 1 -52 51 -33 32 13 42 13 50 4 17 -20 2 -26 -65 -26 -78 0 -93 -17 -22 -24 84 -8 1292 -16 1515 -9 158 5 200 9 196 19 -8 21 -136 69 -313 118 -91 25 -181 50 -200 56 -19 5 -71 14 -115 20 -44 6 -94 13 -112 16 -17 2 -34 0 -37 -5z m219 -72 c75 -18 137 -41 128 -49 -6 -7 -134 -15 -167 -11 -5 1 -3 7 3 15 10 12 7 18 -19 31 -31 16 -32 42 -1 30 9 -4 34 -11 56 -16z m349 -95 c20 -3 39 -11 43 -17 4 -6 -2 -8 -18 -4 -13 4 -31 7 -40 7 -8 0 -24 7 -35 16 -15 12 -16 15 -2 10 9 -2 33 -8 52 -12z"/>
 <path d="M2415 211 c-40 -8 -29 -27 15 -24 46 4 63 11 55 23 -7 11 -23 11 -70 1z"/>
 <path d="M1655 160 c-8 -13 20 -24 41 -16 20 8 9 26 -16 26 -10 0 -22 -5 -25 -10z"/>
 <path d="M1034 129 c-9 -16 25 -22 43 -8 9 8 17 12 19 9 1 -3 5 -2 9 2 3 3 -10 6 -29 6 -20 0 -39 -4 -42 -9z"/>
 <path d="M925 121 c-7 -12 12 -24 25 -16 11 7 4 25 -10 25 -5 0 -11 -4 -15 -9z"/>
 <path d="M747 111 c-63 -10 -42 -26 33 -25 77 2 104 9 95 24 -7 11 -65 11 -128 1z"/>
 <path d="M2985 100 c-8 -13 20 -24 41 -16 20 8 9 26 -16 26 -10 0 -22 -5 -25 -10z"/>
 <path d="M3115 100 c-3 -5 0 -13 8 -16 23 -8 102 0 102 11 0 14 -102 19 -110 5z"/>
 <path d="M454 86 c-10 -26 6 -36 54 -35 61 1 153 21 155 34 1 6 -39 11 -101 13 -83 2 -103 0 -108 -12z"/>
 <path d="M2427 57 c-8 -20 1 -27 35 -27 23 0 29 4 26 18 -4 22 -53 29 -61 9z"/>
 </g>
<g id="layer17" fill="#908c9d" stroke="none">
 <path d="M4300 2093 c-334 -34 -613 -74 -631 -90 -14 -12 -18 -11 -29 2 -14 17 -46 20 -55 5 -3 -5 3 -17 15 -27 11 -10 20 -23 20 -29 0 -6 11 -19 24 -27 28 -19 86 -115 86 -143 0 -36 230 -525 251 -532 5 -2 9 -15 9 -28 0 -14 10 -35 23 -48 12 -13 30 -38 40 -57 31 -58 64 -92 81 -86 9 4 16 14 16 23 0 9 -36 93 -80 186 -44 94 -80 176 -80 182 0 6 9 17 20 24 11 7 20 19 20 28 0 9 6 28 14 42 42 81 42 72 -4 215 -8 25 -5 30 23 48 23 14 49 19 92 19 33 0 91 3 128 6 60 5 70 9 89 35 12 16 27 29 34 29 6 0 18 7 25 16 10 12 24 15 55 10 37 -5 43 -2 63 24 24 34 48 37 92 15 26 -14 30 -14 35 0 4 9 -1 24 -10 34 -28 31 -131 81 -179 87 -33 5 -47 12 -50 25 -5 19 -38 22 -137 12z m-560 -157 c0 -37 -14 -39 -39 -6 l-22 30 31 0 c25 0 30 -4 30 -24z"/>
 <path d="M15994 1300 c0 -63 1 -89 3 -57 2 31 2 83 0 115 -2 31 -3 5 -3 -58z"/>
 <path d="M14348 1374 c-4 -3 -4 -12 -1 -20 4 -11 -16 -14 -98 -16 -90 -3 -104 -5 -107 -21 -3 -12 7 -22 31 -32 22 -9 37 -23 41 -40 4 -16 20 -31 44 -43 33 -15 37 -22 44 -67 6 -44 5 -52 -14 -66 l-21 -16 22 -22 c22 -22 56 -27 81 -11 9 6 19 5 28 -2 10 -9 28 4 83 60 108 113 122 161 59 199 -17 9 -30 20 -30 24 0 7 76 19 120 19 34 0 56 23 38 37 -15 12 -310 27 -320 17z"/>
 <path d="M15709 1364 c-7 -9 -37 -30 -66 -46 -29 -16 -53 -32 -53 -34 0 -9 392 -194 401 -189 5 4 9 14 9 24 0 18 -41 41 -177 103 -29 13 -43 25 -43 38 0 27 -18 35 -39 16 -16 -14 -19 -14 -37 0 -14 11 -16 17 -6 21 32 13 65 50 59 66 -8 21 -31 22 -48 1z"/>
 <path d="M5010 944 c-100 -13 -143 -28 -215 -75 -42 -27 -75 -55 -72 -62 5 -16 75 -21 92 -7 10 8 19 8 34 1 32 -17 89 -14 100 7 8 14 13 15 30 5 28 -17 76 -16 90 1 7 8 23 17 37 20 20 5 30 1 45 -19 11 -14 28 -25 37 -25 9 0 26 -7 36 -15 27 -20 54 -19 192 9 66 13 155 29 199 35 90 13 226 50 237 66 4 5 3 14 -1 18 -14 14 -765 50 -841 41z m91 -52 c-8 -15 -31 -20 -128 -29 -65 -6 -120 -10 -121 -8 -2 2 10 10 26 19 30 15 125 32 195 35 33 1 37 -1 28 -17z"/>
 <path d="M20 886 c0 -25 62 -65 98 -64 17 1 32 5 32 10 0 5 -4 7 -9 3 -5 -3 -12 -1 -16 5 -4 6 -29 22 -56 35 -38 20 -49 22 -49 11z"/>
 <path d="M11827 182 c-50 -51 -58 -75 -28 -91 28 -16 81 -23 81 -11 0 5 -3 9 -7 8 -5 -2 -18 7 -30 19 -20 20 -20 22 -5 36 9 8 30 17 45 21 33 8 44 30 27 51 -20 24 -32 18 -83 -33z"/>
 <path d="M11158 104 c-12 -13 -27 -13 -100 -4 -96 12 -142 3 -131 -26 4 -12 14 -15 39 -11 39 7 46 -10 9 -19 -14 -3 -25 -10 -25 -14 0 -5 -12 -13 -27 -18 -27 -10 -27 -10 -4 -11 13 -1 44 5 70 13 210 64 225 72 198 94 -10 9 -17 8 -29 -4z"/>
 <path d="M12065 51 c-7 -12 12 -24 25 -16 11 7 4 25 -10 25 -5 0 -11 -4 -15 -9z"/>
 <path d="M12165 30 c-4 -6 5 -10 20 -10 15 0 24 4 20 10 -8 13 -32 13 -40 0z"/>
 <path d="M12280 10 c25 -8 107 -13 99 -6 -2 2 -31 6 -64 9 -37 3 -51 2 -35 -3z"/>
 <path d="M3268 3 c12 -2 32 -2 45 0 12 2 2 4 -23 4 -25 0 -35 -2 -22 -4z"/>
 <path d="M5963 3 c15 -2 39 -2 55 0 15 2 2 4 -28 4 -30 0 -43 -2 -27 -4z"/>
 <path d="M10818 3 c12 -2 30 -2 40 0 9 3 -1 5 -23 4 -22 0 -30 -2 -17 -4z"/>
 <path d="M12918 3 c12 -2 32 -2 45 0 12 2 2 4 -23 4 -25 0 -35 -2 -22 -4z"/>
 <path d="M13073 3 c9 -2 25 -2 35 0 9 3 1 5 -18 5 -19 0 -27 -2 -17 -5z"/>
 </g>
<g id="layer18" fill="#baabb1" stroke="none">
 <path d="M13346 1261 c-3 -4 -16 -6 -30 -4 -13 3 -27 0 -30 -6 -4 -5 -13 -8 -21 -4 -9 3 -22 0 -30 -7 -8 -7 -15 -9 -15 -5 0 4 -6 2 -13 -4 -8 -6 -17 -8 -20 -4 -4 3 -7 1 -7 -5 0 -10 27 -11 50 -2 3 2 9 2 14 1 5 -1 16 1 25 5 14 6 110 7 153 1 9 -1 17 3 17 8 1 6 -5 10 -11 10 -7 0 -17 6 -21 13 -9 14 -53 16 -61 3z"/>
 <path d="M13465 1231 c-7 -12 12 -24 25 -16 11 7 4 25 -10 25 -5 0 -11 -4 -15 -9z"/>
 <path d="M13515 1220 c-8 -12 20 -24 35 -15 6 3 8 11 5 16 -8 12 -32 12 -40 -1z"/>
 <path d="M5175 1207 c-8 -20 21 -71 35 -62 15 10 12 31 -9 56 -18 22 -20 22 -26 6z"/>
 <path d="M13575 1210 c-8 -12 20 -24 35 -15 6 3 8 11 5 16 -8 12 -32 12 -40 -1z"/>
 <path d="M13635 1201 c-7 -12 12 -24 25 -16 11 7 4 25 -10 25 -5 0 -11 -4 -15 -9z"/>
 <path d="M13685 1191 c-7 -12 12 -24 25 -16 11 7 4 25 -10 25 -5 0 -11 -4 -15 -9z"/>
 <path d="M13735 1181 c-6 -11 13 -26 22 -17 3 3 12 1 19 -5 7 -6 18 -8 24 -4 14 9 1 28 -16 21 -7 -3 -16 -1 -19 4 -8 13 -22 13 -30 1z"/>
 <path d="M13864 1143 c4 -5 12 -9 17 -9 5 -1 12 -3 17 -4 4 -2 12 -4 17 -5 6 0 29 -11 53 -23 33 -18 42 -28 42 -48 0 -14 9 -37 20 -51 14 -18 20 -41 20 -76 0 -67 41 -142 70 -127 10 5 25 8 32 5 20 -8 98 53 98 76 0 11 8 22 18 26 32 12 72 44 72 59 0 29 -283 154 -380 166 -14 2 -29 6 -35 9 -16 9 -69 10 -61 2z"/>
 <path d="M5234 1087 c-3 -8 0 -26 5 -41 12 -31 8 -34 -54 -38 -62 -5 -43 -22 35 -32 91 -11 99 -5 70 62 -22 51 -47 73 -56 49z"/>
 <path d="M12940 1050 c-11 -11 -18 -25 -15 -30 8 -13 34 -1 45 21 15 27 -6 33 -30 9z"/>
 <path d="M5965 907 c-128 -60 -229 -89 -459 -131 -131 -25 -243 -49 -248 -54 -6 -6 3 -28 25 -58 19 -27 44 -70 55 -96 11 -25 29 -51 40 -57 14 -7 18 -17 15 -31 -3 -13 10 -45 35 -87 23 -38 44 -81 48 -98 11 -44 74 -156 85 -149 5 3 2 18 -6 35 -9 16 -12 29 -8 29 5 0 19 -23 32 -52 18 -39 21 -56 13 -69 -8 -12 -7 -22 4 -37 l14 -21 35 20 c40 24 43 37 15 62 -11 9 -20 24 -20 32 0 9 -10 29 -22 46 -30 40 -16 64 38 64 32 0 39 4 44 25 3 14 18 31 33 38 25 12 27 17 27 78 0 69 20 104 60 104 10 0 23 6 27 14 13 21 49 36 88 36 28 0 37 5 44 24 10 26 30 36 67 36 14 0 51 11 84 25 36 15 79 25 107 25 37 0 53 5 66 20 15 18 27 20 80 18 l62 -3 5 -35 c5 -34 7 -35 53 -38 76 -5 74 18 -9 97 -55 53 -88 74 -159 105 -50 21 -108 46 -130 56 -33 15 -166 50 -185 50 -3 0 -27 -11 -55 -23z"/>
 <path d="M0 855 c0 -8 5 -15 10 -15 6 0 10 7 10 15 0 8 -4 15 -10 15 -5 0 -10 -7 -10 -15z"/>
 <path d="M13866 554 c-9 -8 -14 -20 -11 -24 7 -12 32 -2 39 15 8 22 -10 27 -28 9z"/>
 <path d="M12391 506 c-7 -8 -8 -17 -3 -20 6 -3 15 1 21 8 7 8 8 17 3 20 -6 3 -15 -1 -21 -8z"/>
 <path d="M13745 445 c-29 -28 -25 -51 5 -35 11 6 24 19 30 30 16 30 -7 34 -35 5z"/>
 <path d="M12285 418 c-26 -15 -34 -28 -28 -45 3 -7 0 -13 -7 -13 -7 0 -43 -24 -79 -54 -36 -29 -76 -57 -88 -60 -21 -7 -28 -17 -24 -38 0 -5 -6 -8 -16 -8 -9 0 -31 -11 -49 -25 -18 -14 -35 -21 -38 -16 -9 13 -42 2 -62 -20 -32 -36 -3 -46 219 -78 210 -31 309 -39 291 -22 -5 5 -18 11 -28 13 -34 6 -42 33 -22 71 14 24 17 43 11 68 -9 43 -9 90 0 156 9 62 -7 77 -53 48 -27 -18 -27 -18 -9 2 21 24 10 36 -18 21z"/>
 <path d="M13565 296 c-11 -8 -14 -16 -8 -19 6 -4 18 0 28 7 11 8 14 16 8 19 -6 4 -18 0 -28 -7z"/>
 <path d="M13435 225 c-85 -43 -146 -70 -177 -80 -5 -1 -11 -4 -15 -5 -5 -1 -11 -2 -15 -1 -4 0 -20 -4 -35 -11 -15 -6 -31 -12 -35 -13 -5 -2 -11 -4 -15 -5 -5 -1 -11 -2 -15 -1 -4 0 -20 -4 -35 -11 -15 -6 -33 -10 -40 -9 -6 1 -14 -3 -18 -8 -3 -6 -12 -8 -19 -5 -8 3 -17 1 -20 -5 -4 -6 -13 -8 -20 -5 -8 3 -17 1 -20 -5 -4 -6 -13 -8 -20 -5 -8 3 -17 1 -20 -5 -9 -14 14 -25 26 -13 6 6 16 8 23 6 7 -3 16 -1 19 5 4 6 13 8 20 5 8 -3 17 -1 20 5 4 6 13 8 20 5 8 -3 17 0 21 5 3 6 10 9 15 6 5 -3 21 0 37 7 15 6 31 12 36 13 4 2 10 4 15 5 4 1 10 2 14 1 4 0 20 4 35 11 15 6 31 12 36 13 4 2 8 3 10 4 1 2 13 4 27 7 32 5 238 104 251 120 22 27 -11 17 -106 -31z"/>
 <path d="M9692 221 c-13 -3 -22 -10 -20 -16 4 -13 324 -14 321 -1 -2 6 -40 11 -85 13 -46 1 -108 4 -138 6 -30 3 -65 2 -78 -2z"/>
 <path d="M10125 210 c-3 -5 0 -13 8 -16 23 -8 82 0 82 11 0 14 -82 19 -90 5z"/>
 <path d="M9575 199 c-4 -6 -13 -8 -21 -5 -7 3 -16 1 -19 -5 -4 -5 -11 -7 -16 -4 -5 4 -9 2 -9 -3 0 -11 90 -10 108 2 7 4 10 12 7 17 -8 12 -42 11 -50 -2z"/>
 <path d="M10367 202 c-16 -3 -15 -6 10 -19 32 -18 186 -24 191 -8 1 6 -33 12 -81 16 -46 3 -88 8 -93 11 -5 2 -17 3 -27 0z"/>
 <path d="M12407 204 c-10 -10 -9 -52 1 -58 15 -9 34 11 30 34 -3 24 -19 36 -31 24z"/>
 <path d="M10655 170 c-3 -5 0 -13 8 -16 23 -8 127 0 130 11 3 14 -129 19 -138 5z"/>
 <path d="M10824 159 c-7 -12 35 -32 52 -25 9 3 13 10 10 15 -8 12 -55 20 -62 10z"/>
 <path d="M10947 133 c-15 -8 -25 -18 -22 -24 9 -13 20 -11 46 9 28 24 13 33 -24 15z"/>
 <path d="M10760 94 c-19 -20 -55 -50 -79 -65 -50 -32 -30 -40 21 -9 18 11 38 20 44 20 25 0 146 62 138 70 -5 5 -27 12 -49 15 -37 6 -43 4 -75 -31z"/>
 <path d="M12855 40 c-4 -6 5 -10 20 -10 15 0 24 4 20 10 -3 6 -12 10 -20 10 -8 0 -17 -4 -20 -10z"/>
 <path d="M12426 31 c-10 -15 52 -21 188 -19 l131 2 -107 3 c-61 2 -108 8 -108 13 0 12 -97 13 -104 1z"/>
 <path d="M12785 30 c-3 -5 3 -10 15 -10 12 0 18 5 15 10 -3 6 -10 10 -15 10 -5 0 -12 -4 -15 -10z"/>
 <path d="M2668 3 c28 -2 76 -2 105 0 28 2 5 3 -53 3 -58 0 -81 -1 -52 -3z"/>
 <path d="M3063 3 c15 -2 37 -2 50 0 12 2 0 4 -28 4 -27 0 -38 -2 -22 -4z"/>
 <path d="M3638 3 c12 -2 30 -2 40 0 9 3 -1 5 -23 4 -22 0 -30 -2 -17 -4z"/>
 <path d="M6343 3 c48 -2 126 -2 175 0 48 1 8 3 -88 3 -96 0 -136 -2 -87 -3z"/>
 <path d="M10183 3 c9 -2 25 -2 35 0 9 3 1 5 -18 5 -19 0 -27 -2 -17 -5z"/>
 <path d="M14753 3 c15 -2 39 -2 55 0 15 2 2 4 -28 4 -30 0 -43 -2 -27 -4z"/>
 </g>
<g id="layer19" fill="#a69ba8" stroke="none">
 <path d="M4923 1654 c-3 -9 2 -32 11 -52 17 -37 17 -37 -2 -13 -21 26 -52 24 -52 -4 0 -8 -4 -15 -10 -15 -5 0 -10 15 -10 34 0 42 -23 53 -44 21 -9 -13 -28 -25 -43 -27 -22 -2 -29 -9 -33 -33 -4 -25 -10 -31 -37 -33 -24 -2 -34 2 -43 17 -13 25 -56 27 -84 6 -11 -8 -27 -15 -36 -15 -18 0 -53 -43 -64 -78 -4 -12 -18 -30 -32 -38 -13 -9 -24 -24 -24 -33 0 -9 -8 -21 -19 -28 -11 -7 -21 -29 -25 -54 -5 -30 -17 -52 -40 -74 -19 -18 -36 -42 -38 -55 -2 -13 -16 -31 -32 -40 -19 -10 -37 -33 -50 -64 -17 -42 -18 -52 -6 -80 7 -17 13 -47 14 -66 1 -30 8 -39 49 -67 58 -39 121 -57 252 -72 139 -16 143 -15 189 22 60 49 175 114 221 126 72 18 208 23 313 12 57 -6 108 -8 113 -5 5 3 -7 23 -28 44 -21 21 -60 82 -88 136 -51 102 -251 472 -276 511 -18 29 -38 37 -46 17z m-590 -752 c9 -11 6 -13 -13 -10 -28 3 -41 45 -18 59 9 6 14 2 16 -14 2 -12 9 -28 15 -35z"/>
 <path d="M13625 1321 c-4 -3 -37 -9 -73 -12 -103 -10 -216 -31 -229 -41 -20 -16 -3 -31 27 -25 15 3 31 2 36 -3 5 -5 86 -23 179 -40 303 -55 473 -104 638 -182 100 -48 131 -58 140 -49 16 16 -2 29 -125 91 -87 44 -183 78 -323 116 -27 7 -80 22 -118 33 -37 12 -77 21 -90 21 -37 0 -98 20 -92 31 4 5 19 9 35 9 16 0 41 5 57 11 15 7 43 15 62 18 59 10 34 26 -44 27 -41 1 -77 -1 -80 -5z"/>
 <path d="M5960 925 c-54 -31 -170 -75 -236 -89 -38 -8 -157 -31 -264 -51 -107 -20 -200 -41 -207 -47 -10 -8 -8 -16 8 -39 20 -29 43 -32 33 -5 -7 18 -8 18 255 67 149 27 254 52 312 74 127 49 169 72 163 90 -8 19 -31 19 -64 0z"/>
 <path d="M0 871 c0 -12 5 -21 10 -21 6 0 10 6 10 14 0 8 -4 18 -10 21 -5 3 -10 -3 -10 -14z"/>
 <path d="M116 821 c-9 -15 23 -36 36 -23 5 5 7 15 4 21 -9 13 -33 14 -40 2z"/>
 <path d="M13575 303 c-16 -8 -39 -23 -50 -33 -77 -66 -569 -230 -691 -230 -27 0 -44 -14 -44 -36 0 -10 119 -2 155 11 22 8 47 15 56 15 9 0 60 13 114 30 54 16 112 30 130 30 37 0 106 34 211 103 39 26 77 47 85 47 19 0 81 59 74 71 -7 11 -4 12 -40 -8z"/>
 <path d="M9660 227 c-55 -19 -37 -32 38 -28 71 3 89 8 75 21 -15 16 -78 19 -113 7z"/>
 <path d="M9825 220 c-13 -21 117 -37 134 -17 6 8 8 17 4 20 -10 11 -131 8 -138 -3z"/>
 <path d="M10255 211 c-7 -12 12 -24 25 -16 11 7 4 25 -10 25 -5 0 -11 -4 -15 -9z"/>
 <path d="M10406 201 c-13 -21 28 -30 156 -33 161 -4 185 11 46 29 -115 14 -195 16 -202 4z"/>
 <path d="M9475 180 c-8 -12 20 -24 35 -15 6 3 8 11 5 16 -8 12 -32 12 -40 -1z"/>
 <path d="M11892 157 c-25 -27 -28 -59 -8 -76 8 -7 37 -14 65 -15 27 -1 57 -9 66 -16 14 -11 20 -11 37 -1 17 10 23 10 39 -5 12 -11 24 -14 36 -9 10 5 23 8 28 7 93 -14 340 -34 310 -25 -11 3 -22 9 -25 13 -3 4 -120 24 -260 44 -140 20 -256 39 -259 41 -2 3 4 14 13 24 35 39 -6 56 -42 18z"/>
 <path d="M10835 160 c-8 -12 20 -24 35 -15 6 3 8 11 5 16 -8 12 -32 12 -40 -1z"/>
 <path d="M10962 144 c-5 -10 -30 -20 -60 -25 -63 -10 -173 -57 -215 -93 l-32 -27 30 4 c32 5 71 18 150 49 28 11 73 24 100 30 49 9 115 34 115 44 0 5 -64 34 -74 34 -3 0 -9 -7 -14 -16z"/>
 <path d="M5576 101 c-4 -5 -2 -12 4 -16 6 -4 8 -11 5 -16 -4 -5 -1 -9 4 -9 6 0 10 9 8 20 -4 25 -13 34 -21 21z"/>
 <path d="M13053 13 c15 -2 37 -2 50 0 12 2 0 4 -28 4 -27 0 -38 -2 -22 -4z"/>
 <path d="M6203 3 c15 -2 39 -2 55 0 15 2 2 4 -28 4 -30 0 -43 -2 -27 -4z"/>
 </g>
<g id="layer20" fill="#9993a4" stroke="none">
 <path d="M4414 2075 c-9 -23 3 -32 51 -38 25 -4 69 -19 97 -34 l53 -28 -32 -3 c-20 -2 -40 -13 -52 -28 -15 -19 -28 -24 -64 -24 -27 0 -49 -6 -57 -15 -7 -8 -18 -15 -24 -15 -7 0 -22 -14 -35 -30 -19 -27 -28 -30 -69 -29 -93 2 -207 -12 -237 -30 -35 -20 -36 -40 -12 -137 16 -62 14 -94 -10 -129 -7 -11 -13 -27 -13 -37 0 -10 -11 -25 -25 -34 -14 -9 -25 -24 -25 -32 0 -9 36 -94 81 -190 45 -95 82 -186 83 -201 2 -26 46 -92 80 -120 20 -17 56 -4 56 19 0 10 -9 34 -19 52 -18 32 -18 34 -1 75 11 25 30 46 47 55 17 8 29 23 31 37 2 13 19 38 38 56 23 22 35 44 40 73 3 23 15 49 25 58 11 9 19 23 19 29 0 7 11 20 24 29 14 8 28 26 32 38 11 35 46 78 64 78 8 0 26 7 39 16 22 16 25 16 40 -5 14 -19 25 -22 66 -19 47 3 50 5 55 33 4 23 11 31 30 33 14 2 31 9 38 14 9 8 12 4 12 -15 0 -29 23 -52 45 -43 8 3 15 13 15 23 0 15 3 14 19 -6 38 -50 70 9 37 68 -8 14 -12 31 -9 37 2 7 -12 38 -32 70 -47 73 -251 301 -285 319 -36 18 -141 45 -179 45 -18 0 -34 -6 -37 -15z"/>
 <path d="M4224 2055 c-9 -22 9 -37 37 -33 16 2 24 10 24 23 0 26 -52 35 -61 10z"/>
 <path d="M3603 1984 c-6 -17 15 -37 29 -28 13 9 9 32 -7 38 -9 3 -18 -1 -22 -10z"/>
 <path d="M3635 1940 c-7 -12 84 -167 103 -175 25 -9 24 26 -2 79 -44 91 -82 126 -101 96z"/>
 <path d="M15970 1571 c-25 -10 -384 -252 -392 -264 -12 -19 3 -29 40 -25 27 3 40 -1 58 -19 13 -13 34 -23 48 -23 14 0 27 -4 30 -9 7 -10 143 -76 198 -96 l37 -14 3 207 c3 227 1 252 -22 243z"/>
 <path d="M14035 1369 c-225 -10 -391 -37 -387 -62 4 -21 -14 -23 -22 -2 -3 8 -16 15 -30 15 -27 0 -43 -15 -26 -25 6 -4 5 -13 -3 -26 -16 -27 9 -46 72 -54 25 -3 78 -15 116 -26 39 -11 93 -26 120 -33 148 -40 240 -74 345 -127 64 -32 120 -59 124 -59 4 0 20 10 36 22 52 38 29 88 -24 53 -14 -10 -26 -16 -27 -14 0 2 -2 39 -4 81 -2 43 -7 82 -10 88 -4 6 -22 17 -40 24 -23 10 -37 24 -41 41 -4 15 -18 32 -33 38 -22 10 -13 12 71 15 105 3 133 16 103 46 -18 18 -37 18 -340 5z"/>
 <path d="M13435 1290 c-8 -12 20 -24 35 -15 6 3 8 11 5 16 -8 12 -32 12 -40 -1z"/>
 <path d="M13375 1281 c-7 -12 12 -24 25 -16 11 7 4 25 -10 25 -5 0 -11 -4 -15 -9z"/>
 <path d="M3975 1260 c-10 -16 16 -43 28 -31 11 11 2 41 -12 41 -5 0 -13 -5 -16 -10z"/>
 <path d="M4026 1171 c-3 -5 1 -14 8 -20 16 -13 32 2 21 19 -8 12 -22 13 -29 1z"/>
 <path d="M4303 993 c-7 -3 -13 -16 -13 -30 0 -14 -8 -32 -17 -39 -20 -14 -11 -38 19 -57 32 -20 48 -1 48 56 0 55 -13 79 -37 70z"/>
 <path d="M5306 990 c-5 -12 -35 -15 -174 -16 -192 0 -226 -7 -333 -70 -82 -48 -125 -86 -114 -103 12 -21 43 -10 123 43 96 65 149 78 307 80 120 1 605 -22 645 -31 24 -5 24 -6 -10 -20 -19 -9 -78 -21 -130 -29 -52 -8 -153 -26 -224 -40 l-129 -26 -29 22 c-29 21 -58 21 -58 0 0 -6 12 -27 27 -47 23 -30 31 -34 57 -29 444 81 536 101 623 138 93 38 123 61 105 80 -10 10 -84 14 -329 16 -310 4 -317 4 -334 25 -14 18 -19 19 -23 7z"/>
 <path d="M0 885 c0 -17 76 -59 84 -46 5 8 -62 61 -77 61 -4 0 -7 -7 -7 -15z"/>
 <path d="M5078 853 c-22 -6 -31 -32 -14 -39 8 -3 33 -4 57 -2 36 2 44 7 44 23 0 16 -7 20 -35 22 -19 0 -42 -1 -52 -4z"/>
 <path d="M105 830 c-3 -6 1 -12 9 -15 9 -3 23 -7 31 -10 23 -7 28 13 6 24 -25 14 -38 14 -46 1z"/>
 <path d="M4924 825 c-8 -20 4 -35 27 -35 31 0 59 18 53 35 -8 20 -73 20 -80 0z"/>
 <path d="M4797 816 c-8 -20 1 -26 38 -26 38 0 49 8 34 27 -15 17 -65 17 -72 -1z"/>
 <path d="M13505 246 c-11 -8 -14 -16 -8 -19 6 -4 18 0 28 7 11 8 14 16 8 19 -6 4 -18 0 -28 -7z"/>
 <path d="M9765 220 c-3 -5 0 -13 9 -16 21 -8 61 -1 61 11 0 14 -62 19 -70 5z"/>
 <path d="M13422 198 c-18 -11 -29 -24 -26 -29 5 -9 24 -2 58 24 31 23 3 28 -32 5z"/>
 <path d="M10385 201 c-7 -12 12 -24 25 -16 11 7 4 25 -10 25 -5 0 -11 -4 -15 -9z"/>
 <path d="M10605 190 c-8 -12 20 -24 35 -15 6 3 8 11 5 16 -8 12 -32 12 -40 -1z"/>
 <path d="M11866 190 c-32 -10 -76 -47 -76 -65 0 -6 14 -22 32 -35 33 -25 124 -40 437 -74 131 -15 190 -14 133 1 -12 3 -22 9 -22 14 0 5 -11 9 -25 9 -14 0 -66 7 -116 16 -50 8 -97 13 -105 10 -7 -3 -16 -1 -20 5 -3 6 -20 9 -38 8 -17 -1 -38 1 -46 4 -8 3 -37 8 -63 11 -68 8 -73 14 -42 46 45 47 22 71 -49 50z"/>
 <path d="M10695 181 c-7 -12 12 -24 25 -16 11 7 4 25 -10 25 -5 0 -11 -4 -15 -9z"/>
 <path d="M13315 139 c-33 -16 -74 -29 -91 -29 -40 0 -264 -68 -281 -85 -21 -21 38 -29 98 -14 42 11 52 11 59 0 9 -16 100 -7 100 10 0 5 4 9 9 9 11 0 156 97 170 114 22 26 -5 24 -64 -5z"/>
 <path d="M10995 130 c-11 -13 -31 -20 -52 -20 -19 0 -65 -14 -103 -30 -38 -17 -73 -30 -78 -30 -6 0 -17 -6 -24 -13 -7 -7 -22 -18 -33 -25 -26 -15 214 -6 265 10 19 6 41 12 48 14 8 2 16 13 19 23 4 16 14 19 71 17 60 -1 67 1 67 18 0 16 -14 23 -70 37 -89 23 -89 23 -110 -1z"/>
 <path d="M5556 122 c-3 -6 1 -15 8 -21 8 -7 17 -8 20 -3 3 6 -1 15 -8 21 -8 7 -17 8 -20 3z"/>
 <path d="M6043 3 c15 -2 39 -2 55 0 15 2 2 4 -28 4 -30 0 -43 -2 -27 -4z"/>
 </g>
<g id="layer21" fill="#f6e9b8" stroke="none">
 <path d="M50 729 l-46 -20 3 -312 3 -312 265 -3 c165 -1 265 -6 265 -12 0 -14 28 -12 33 3 3 9 9 9 25 0 11 -6 23 -9 27 -5 4 4 19 8 33 8 15 1 70 7 122 13 254 28 320 33 385 31 39 -2 79 -3 90 -2 11 1 90 6 176 10 86 5 161 12 167 16 21 13 0 35 -38 41 -21 4 -71 22 -111 41 -65 31 -162 56 -399 101 -14 3 -39 11 -57 19 -17 8 -35 14 -41 14 -5 0 -23 7 -38 15 -16 8 -38 15 -50 15 -11 0 -24 4 -30 9 -5 5 -54 26 -109 46 -139 52 -315 133 -348 161 -15 13 -42 27 -61 32 -18 5 -44 21 -59 36 -14 14 -37 26 -51 26 -16 0 -32 9 -42 25 -20 30 -51 31 -114 4z"/>
 <path d="M3355 305 c-5 -3 -71 -7 -145 -9 -177 -6 -254 -17 -440 -64 -47 -12 -104 -16 -202 -15 -77 1 -140 -2 -143 -8 -4 -5 -23 -9 -43 -9 -20 0 -54 -7 -77 -15 -22 -9 -93 -21 -158 -28 -65 -6 -119 -16 -119 -22 0 -5 35 -15 78 -22 44 -7 115 -23 160 -36 l81 -24 206 21 c173 17 214 18 254 8 37 -10 61 -10 99 -2 60 13 1340 19 1422 7 48 -7 54 -6 77 17 22 22 25 23 25 7 0 -34 21 -40 123 -34 107 7 140 20 118 47 -14 16 -128 56 -162 56 -10 0 -23 9 -30 21 -8 15 -14 18 -22 10 -12 -12 -58 -15 -56 -4 3 18 -3 20 -40 13 -27 -5 -44 -3 -53 6 -19 19 -202 48 -281 45 -42 -1 -74 2 -83 10 -8 6 -40 13 -72 14 -147 8 -508 14 -517 10z"/>
 <path d="M4724 95 c-7 -18 3 -35 22 -35 8 0 25 -6 37 -14 12 -7 52 -16 90 -19 61 -6 67 -5 67 13 0 25 -18 34 -107 54 -88 20 -102 20 -109 1z"/>
 <path d="M14570 85 c-15 -18 -6 -45 13 -45 20 0 40 27 33 45 -7 19 -30 19 -46 0z"/>
 </g>
<g id="layer22" fill="#676c8f" stroke="none">
 <path d="M3660 2143 c-25 -9 -50 -17 -57 -19 -7 -2 -15 -16 -18 -31 -4 -15 -10 -35 -14 -43 -4 -8 -6 -21 -4 -27 7 -20 133 -16 373 12 118 14 260 30 315 36 194 20 170 31 -136 63 -279 30 -394 32 -459 9z"/>
 <path d="M12680 1593 c-18 -20 -41 -56 -52 -80 -21 -49 -28 -52 -46 -22 -15 24 -50 22 -66 -3 -8 -13 -6 -25 7 -48 19 -31 10 -38 -22 -18 -17 10 -26 4 -73 -48 -29 -32 -65 -70 -79 -84 -14 -14 -31 -35 -37 -47 -8 -14 -30 -26 -64 -34 -41 -11 -55 -20 -71 -46 -10 -18 -30 -36 -43 -39 -13 -3 -30 -18 -37 -33 -7 -14 -22 -27 -35 -29 -12 -2 -29 -16 -37 -32 -11 -21 -20 -27 -35 -23 -12 3 -31 1 -43 -5 -12 -5 -30 -13 -39 -16 -10 -3 -18 -13 -18 -22 0 -20 -37 -68 -44 -56 -3 5 7 25 21 45 29 40 26 80 -3 56 -9 -8 -25 -32 -35 -54 -11 -22 -33 -62 -51 -90 -17 -27 -119 -190 -225 -361 -106 -170 -208 -328 -226 -349 -29 -33 -41 -40 -88 -46 -59 -7 -215 -64 -237 -86 -11 -11 85 -13 590 -12 332 0 596 3 588 6 -8 3 -17 10 -21 14 -3 5 -68 18 -145 30 -117 17 -189 37 -214 57 -3 2 23 31 58 65 35 34 105 119 155 190 51 70 122 169 159 219 36 50 86 128 111 172 62 111 432 817 440 838 12 33 -11 28 -43 -9z"/>
 <path d="M14830 1350 c-8 -5 -37 -17 -64 -26 -27 -10 -76 -35 -108 -56 -67 -44 -258 -224 -258 -244 0 -20 32 -33 138 -59 54 -13 135 -36 181 -50 52 -17 87 -23 93 -17 11 11 -16 42 -37 42 -23 0 -35 35 -35 104 0 78 6 95 37 107 39 15 25 42 -27 52 -25 5 -49 13 -54 17 -11 10 90 62 163 84 30 9 74 16 97 16 41 0 69 16 42 24 -30 10 -154 14 -168 6z"/>
 <path d="M15566 1292 c-9 -16 10 -30 99 -74 50 -24 135 -70 190 -101 117 -65 139 -71 143 -40 3 20 -20 34 -199 123 -198 98 -223 108 -233 92z"/>
 <path d="M10 1083 c-2 -90 -4 -171 -4 -180 -1 -12 24 -30 76 -58 l77 -40 108 54 c158 78 304 177 287 194 -4 4 -31 -6 -61 -23 -61 -35 -73 -37 -49 -11 21 23 14 41 -16 41 -26 0 -88 -58 -88 -82 0 -10 -4 -18 -10 -18 -5 0 -10 20 -10 44 0 39 -4 47 -27 58 -19 9 -30 23 -33 43 l-5 30 -95 2 c-138 4 -138 4 -143 61 -2 26 -5 -26 -7 -115z m144 -207 c29 -12 37 -19 29 -27 -9 -9 -29 -2 -77 25 -76 43 -95 63 -34 36 24 -10 61 -25 82 -34z"/>
 <path d="M15855 1061 c-3 -6 -3 -16 0 -21 4 -6 -10 -17 -30 -26 -46 -19 -45 -49 2 -49 43 0 50 -10 19 -30 -14 -10 -23 -21 -20 -26 6 -10 87 -12 133 -3 31 6 31 7 29 63 -1 41 -2 46 -5 19 -5 -40 -28 -57 -50 -35 -8 7 -21 35 -31 62 -17 49 -34 65 -47 46z"/>
 </g>
<g id="layer23" fill="#5c6388" stroke="none">
 <path d="M13365 2420 c-3 -5 0 -13 8 -16 24 -9 162 0 162 11 0 14 -161 19 -170 5z"/>
 <path d="M12965 2381 c-7 -12 12 -24 25 -16 11 7 4 25 -10 25 -5 0 -11 -4 -15 -9z"/>
 <path d="M13815 2371 c-7 -12 12 -24 25 -16 11 7 4 25 -10 25 -5 0 -11 -4 -15 -9z"/>
 <path d="M13865 2360 c-7 -12 35 -30 70 -30 27 0 44 18 23 24 -38 12 -87 15 -93 6z"/>
 <path d="M13985 2341 c-9 -15 26 -29 103 -42 70 -12 114 -7 96 10 -5 5 -48 16 -95 25 -101 19 -96 19 -104 7z"/>
 <path d="M12765 2330 c-3 -6 -11 -8 -16 -5 -5 4 -9 2 -9 -4 0 -5 15 -9 33 -8 17 1 31 7 30 12 -3 14 -30 18 -38 5z"/>
 <path d="M12685 2297 c-28 -15 -39 -25 -112 -92 -72 -66 -89 -90 -72 -100 5 -4 45 27 87 69 42 41 90 86 106 99 30 26 24 43 -9 24z"/>
 <path d="M14205 2301 c-7 -12 12 -24 25 -16 11 7 4 25 -10 25 -5 0 -11 -4 -15 -9z"/>
 <path d="M14305 2280 c-3 -5 6 -17 20 -26 21 -14 28 -14 41 -3 14 12 14 14 -2 26 -21 15 -50 17 -59 3z"/>
 <path d="M14415 2260 c-9 -14 40 -34 62 -26 17 7 17 8 -1 22 -23 16 -52 18 -61 4z"/>
 <path d="M15777 2254 c-15 -8 -53 -20 -85 -26 -60 -12 -85 -24 -76 -39 10 -17 54 -9 129 26 43 19 74 39 70 45 -7 12 -4 13 -38 -6z"/>
 <path d="M13496 2241 c-8 -13 21 -34 39 -28 8 4 17 2 20 -3 3 -5 40 -16 83 -25 42 -9 110 -26 150 -37 41 -11 80 -17 88 -14 7 3 16 1 20 -5 3 -5 13 -9 22 -7 10 1 22 0 27 -4 6 -4 69 -16 139 -27 71 -12 131 -23 135 -25 3 -2 53 -6 111 -7 l105 -4 2 35 c1 19 4 46 5 60 3 23 0 25 -32 23 -60 -4 -193 -21 -240 -32 -41 -9 -47 -7 -71 15 -30 29 -63 31 -81 5 -14 -20 -62 -29 -90 -17 -9 4 -21 5 -26 2 -6 -3 -15 1 -22 9 -7 8 -28 17 -49 20 -20 3 -51 8 -69 11 -23 4 -36 12 -42 30 -10 27 -34 30 -123 15 -35 -6 -50 -4 -58 6 -13 15 -35 17 -43 4z"/>
 <path d="M14505 2241 c-7 -13 17 -24 40 -19 9 1 16 8 16 13 0 14 -48 19 -56 6z"/>
 <path d="M14164 2225 c-4 -9 -2 -21 4 -27 15 -15 44 -1 40 19 -4 23 -36 29 -44 8z"/>
 <path d="M3408 2185 c-4 -5 -5 -19 -2 -31 5 -18 2 -24 -10 -24 -26 0 -77 -30 -71 -40 4 -6 48 -10 99 -10 86 0 94 -2 116 -25 34 -36 64 -30 70 15 4 28 10 35 35 41 48 10 107 38 101 47 -3 5 -54 12 -113 16 -59 4 -133 9 -163 12 -30 4 -58 3 -62 -1z"/>
 <path d="M15525 2180 c-8 -12 20 -24 35 -15 6 3 8 11 5 16 -8 12 -32 12 -40 -1z"/>
 <path d="M2662 2119 c-30 -11 -19 -29 17 -29 34 0 44 9 30 27 -13 15 -16 15 -47 2z"/>
 <path d="M12980 2091 c-6 -12 -6 -22 -1 -26 6 -3 15 3 21 14 6 12 6 22 1 26 -6 3 -15 -3 -21 -14z"/>
 <path d="M14710 2081 c-65 -9 -51 -26 23 -26 48 0 62 3 62 15 0 17 -21 20 -85 11z"/>
 <path d="M15105 2080 c-8 -13 20 -24 41 -16 20 8 9 26 -16 26 -10 0 -22 -5 -25 -10z"/>
 <path d="M12795 2051 c-43 -5 -51 -9 -55 -31 -8 -42 -58 -98 -98 -111 -20 -6 -47 -21 -59 -32 l-23 -20 -23 21 c-27 26 -59 28 -77 7 -7 -8 -25 -15 -41 -15 -20 0 -31 -7 -41 -27 -14 -29 -38 -43 -38 -21 0 7 16 36 35 64 38 55 59 110 45 119 -9 5 -40 -40 -78 -115 -34 -68 -66 -124 -73 -130 -4 -3 -16 -25 -28 -49 l-22 -43 22 -24 c27 -28 19 -42 -15 -26 -30 13 -27 17 -101 -118 -32 -58 -71 -130 -88 -160 -93 -168 -167 -311 -167 -322 0 -8 -12 -30 -26 -51 -28 -42 -28 -74 -1 -91 14 -9 22 -6 42 19 13 17 24 38 25 48 0 10 8 17 19 17 10 0 24 6 30 13 6 8 23 12 40 9 25 -3 32 1 45 26 9 18 25 32 38 34 13 2 28 15 35 29 7 15 24 30 37 33 13 3 33 21 43 39 16 26 30 35 71 46 35 8 56 20 63 34 6 12 19 29 29 37 9 8 42 42 72 76 47 52 58 59 76 51 44 -20 67 16 41 65 -16 29 -1 37 20 9 26 -34 51 -23 81 35 14 28 40 69 57 90 17 22 64 100 106 174 41 74 91 162 111 194 36 60 39 94 5 57 -27 -29 -35 -26 -15 4 29 45 8 51 -119 36z"/>
 <path d="M83 1638 c-26 -28 -56 -60 -65 -69 -16 -17 -17 -35 -8 -225 5 -114 13 -211 17 -215 5 -5 53 -10 108 -11 l100 -3 5 -30 c3 -20 14 -34 33 -43 23 -11 27 -19 27 -56 0 -46 19 -72 45 -62 9 3 15 18 15 34 0 21 7 32 25 40 21 10 25 9 25 -4 0 -32 33 -25 108 21 104 65 218 159 248 206 29 47 30 52 4 44 -24 -8 -26 2 -4 26 22 24 11 49 -21 49 -15 0 -49 7 -76 16 -42 14 -51 21 -56 46 -3 16 -11 31 -17 34 -6 2 -52 5 -102 7 -50 3 -97 7 -103 11 -6 4 -10 20 -9 34 3 26 1 27 -57 30 -67 4 -83 12 -87 50 -3 26 -5 27 -68 27 l-66 0 23 42 c35 61 12 61 -44 1z"/>
 <path d="M14849 1355 c-1 -3 -2 -10 -3 -16 0 -7 -17 -17 -36 -24 -60 -21 -141 -65 -147 -81 -7 -20 15 -44 42 -44 26 0 38 -20 24 -41 -11 -17 -12 -189 -1 -206 4 -7 30 -24 57 -39 l50 -27 430 7 c501 8 591 14 616 45 15 18 18 19 30 5 7 -8 24 -14 38 -12 22 3 27 9 30 43 l5 40 6 -50 c6 -45 7 -42 8 30 l2 81 -122 69 c-207 117 -297 157 -338 150 -19 -3 -80 1 -135 9 -218 33 -374 49 -446 47 -47 -1 -80 2 -84 8 -6 11 -24 15 -26 6z"/>
 <path d="M2 975 c-2 -69 2 -74 93 -126 69 -39 110 -37 110 5 0 27 -6 31 -80 62 -44 19 -87 34 -97 34 -13 0 -18 11 -21 43 -3 34 -4 31 -5 -18z"/>
 <path d="M11779 836 c-14 -31 -6 -56 19 -56 45 0 58 72 15 78 -16 2 -26 -4 -34 -22z"/>
 <path d="M11614 575 c-4 -9 -2 -21 4 -27 16 -16 47 -5 47 17 0 26 -42 34 -51 10z"/>
 <path d="M11368 3 c101 -2 263 -2 360 0 97 1 15 2 -183 2 -198 0 -278 -1 -177 -2z"/>
 </g>
<g id="layer24" fill="#565e84" stroke="none">
 <path d="M15704 2660 c-279 -282 -393 -378 -529 -449 -46 -24 -58 -26 -180 -25 -100 0 -160 7 -259 27 -72 15 -149 27 -172 27 -24 0 -46 5 -49 10 -4 6 -18 9 -33 8 -15 -1 -44 4 -65 11 -21 7 -44 10 -52 7 -8 -3 -29 1 -47 8 -18 8 -79 19 -136 25 -57 7 -124 19 -150 27 -26 7 -62 14 -80 14 -18 0 -40 4 -50 9 -25 13 -290 61 -338 61 -22 0 -46 6 -52 12 -10 10 -17 10 -32 0 -12 -7 -59 -12 -122 -12 -125 0 -313 -15 -365 -29 -21 -6 -72 -18 -113 -27 -41 -9 -79 -20 -85 -24 -5 -4 -25 -10 -44 -14 -47 -9 -111 -59 -222 -173 -66 -68 -105 -118 -127 -163 -18 -36 -46 -87 -62 -115 -16 -27 -29 -58 -30 -68 0 -11 -10 -27 -22 -36 -29 -24 -18 -53 19 -49 22 2 28 8 28 28 0 18 8 29 28 37 15 7 32 24 37 38 7 19 17 25 39 25 15 0 34 7 41 15 12 14 15 13 35 -5 27 -25 67 -26 89 -2 9 11 34 24 55 31 42 12 92 67 101 111 5 22 11 26 65 32 33 3 61 5 62 4 2 -1 -5 -21 -14 -45 -12 -31 -13 -45 -5 -53 19 -19 55 23 149 167 99 151 128 185 160 185 13 0 81 -14 151 -30 230 -55 271 -62 305 -51 45 16 56 14 67 -13 7 -20 18 -26 57 -31 26 -3 66 -13 88 -21 22 -8 69 -18 105 -21 58 -5 67 -3 84 16 l19 21 28 -26 c28 -27 29 -27 96 -14 37 7 100 16 138 19 39 4 78 11 87 15 15 7 16 3 11 -27 -3 -19 0 -44 7 -56 l11 -22 317 5 c174 4 344 9 377 12 68 7 381 79 407 94 10 6 33 10 51 10 18 0 38 5 44 11 5 5 39 17 74 25 69 16 142 54 226 115 29 22 57 39 63 39 12 0 14 548 1 568 -5 9 -89 -69 -287 -268z"/>
 <path d="M3175 2214 c-22 -3 -84 -11 -138 -19 -54 -8 -112 -15 -129 -15 -28 0 -134 -28 -195 -51 -14 -5 -20 -14 -17 -22 4 -12 63 -16 317 -21 296 -7 315 -6 367 13 56 20 69 37 51 68 -14 27 -170 55 -256 47z"/>
 <path d="M1070 2193 c-53 -9 -198 -46 -255 -66 -367 -125 -400 -142 -545 -286 -117 -115 -218 -250 -205 -272 5 -7 19 -8 39 -4 17 4 49 7 71 8 36 2 40 0 43 -25 4 -37 19 -46 82 -50 50 -3 55 -5 58 -28 6 -43 18 -48 118 -49 104 -1 114 -3 114 -30 0 -33 71 -71 134 -71 23 0 27 -3 18 -12 -18 -18 -15 -68 5 -75 12 -5 28 6 55 37 54 61 346 473 381 538 37 67 121 159 200 217 105 77 104 75 30 95 -27 7 -52 17 -58 21 -5 4 -28 10 -50 14 -22 4 -76 16 -120 26 -44 10 -82 18 -85 18 -3 -1 -16 -4 -30 -6z"/>
 <path d="M12212 1658 c-17 -17 -15 -53 3 -68 18 -15 64 -5 72 15 7 21 -23 65 -45 65 -10 0 -23 -5 -30 -12z"/>
 <path d="M0 1555 c0 -8 5 -15 10 -15 6 0 10 7 10 15 0 8 -4 15 -10 15 -5 0 -10 -7 -10 -15z"/>
 <path d="M4 1400 c0 -52 1 -74 3 -47 2 26 2 68 0 95 -2 26 -3 4 -3 -48z"/>
 <path d="M14924 1315 c-8 -21 2 -45 19 -45 20 0 40 27 33 45 -7 19 -45 20 -52 0z"/>
 <path d="M15083 1295 c-9 -24 6 -33 50 -32 35 2 42 5 42 22 0 17 -7 20 -43 22 -29 1 -45 -3 -49 -12z"/>
 <path d="M15543 1264 c-10 -27 11 -49 47 -49 41 0 48 17 21 44 -25 25 -59 27 -68 5z"/>
 <path d="M3 1020 c0 -25 2 -35 4 -22 2 12 2 32 0 45 -2 12 -4 2 -4 -23z"/>
 <path d="M15205 941 c-49 -10 -38 -36 15 -36 38 0 45 3 45 20 0 22 -15 26 -60 16z"/>
 <path d="M11107 3 c18 -2 50 -2 70 0 21 2 7 4 -32 4 -38 0 -55 -2 -38 -4z"/>
 <path d="M11933 3 c32 -2 81 -2 110 0 29 2 3 3 -58 3 -60 0 -84 -1 -52 -3z"/>
 </g>
<g id="layer25" fill="#ccb6b6" stroke="none">
 <path d="M13310 1251 c-8 -5 -58 -19 -110 -31 -88 -21 -98 -26 -150 -76 -30 -29 -113 -119 -185 -200 -71 -82 -152 -170 -180 -196 -101 -96 -299 -264 -368 -314 -40 -28 -73 -58 -75 -67 -5 -27 25 -31 64 -8 20 12 39 19 42 16 3 -2 0 -22 -6 -44 -15 -49 -15 -103 -1 -135 10 -20 9 -30 -5 -50 -9 -14 -16 -41 -16 -60 0 -58 11 -60 315 -60 l270 1 135 36 c181 48 310 92 395 134 129 65 238 140 293 202 29 34 59 61 67 61 7 0 28 17 46 37 17 21 40 43 50 48 9 6 74 65 144 132 90 86 126 127 123 140 -3 12 -11 17 -26 16 -33 -4 -62 49 -62 112 0 32 -6 60 -17 75 -10 14 -18 36 -18 50 0 48 -126 87 -495 154 -216 40 -209 39 -230 27z"/>
 <path d="M14233 914 c-3 -8 -1 -20 4 -25 12 -12 48 14 39 29 -10 17 -36 15 -43 -4z"/>
 <path d="M6175 880 c-7 -11 16 -23 135 -74 47 -20 99 -47 115 -61 l30 -24 -76 -1 c-63 0 -79 -3 -94 -20 -13 -15 -31 -20 -67 -20 -29 0 -72 -10 -108 -25 -33 -14 -70 -25 -84 -25 -37 0 -57 -10 -67 -36 -7 -20 -16 -24 -48 -24 -28 0 -48 -8 -69 -25 -17 -14 -37 -25 -46 -25 -36 0 -56 -37 -56 -104 0 -61 -2 -66 -27 -78 -15 -7 -30 -24 -33 -37 -5 -21 -12 -25 -45 -25 -30 -1 -42 -6 -50 -23 -8 -16 -15 -19 -28 -11 -25 14 -31 -12 -17 -71 14 -60 48 -96 82 -86 22 7 22 7 6 -12 -10 -11 -18 -23 -18 -27 0 -31 26 -33 673 -39 355 -3 649 -2 652 3 4 7 -53 131 -140 300 -18 36 -56 112 -83 170 -68 143 -93 174 -210 262 -119 90 -143 104 -233 129 -79 22 -86 22 -94 9z m340 -238 c-28 -6 -45 7 -45 35 l0 27 31 -30 c24 -23 27 -30 14 -32z"/>
 <path d="M104 805 c-7 -18 3 -35 22 -35 20 0 30 30 13 41 -20 12 -29 11 -35 -6z"/>
 <path d="M5376 521 c-9 -13 3 -39 20 -45 17 -6 29 17 20 39 -6 17 -32 20 -40 6z"/>
 <path d="M3 355 c0 -22 2 -30 4 -17 2 12 2 30 0 40 -3 9 -5 -1 -4 -23z"/>
 <path d="M12050 215 c-16 -19 -5 -47 17 -43 11 2 18 12 18 27 0 29 -17 37 -35 16z"/>
 <path d="M9779 213 c-172 -4 -199 -10 -179 -43 7 -12 44 -16 182 -18 164 -3 174 -2 192 17 21 23 15 52 -11 49 -10 -1 -93 -4 -184 -5z"/>
 <path d="M10095 210 c-8 -12 20 -24 35 -15 6 3 8 11 5 16 -8 12 -32 12 -40 -1z"/>
 <path d="M10207 213 c-3 -5 -2 -15 3 -22 10 -17 43 -6 38 12 -6 15 -34 22 -41 10z"/>
 <path d="M10334 196 c-3 -8 -20 -18 -37 -22 -50 -10 -60 -44 -14 -44 l21 0 -22 -16 c-32 -22 -27 -66 8 -74 14 -4 24 -12 23 -18 -4 -16 132 -25 254 -17 119 8 172 26 217 74 20 20 33 28 41 21 13 -11 133 4 148 19 5 5 7 17 3 26 -4 12 -19 16 -63 16 -32 0 -76 2 -98 4 -22 3 -122 9 -223 14 -112 5 -188 13 -195 20 -16 16 -57 14 -63 -3z m20 -87 c-3 -5 -14 -5 -25 1 -26 14 -24 18 6 12 14 -2 22 -8 19 -13z"/>
 <path d="M11934 155 c-9 -22 4 -35 36 -35 30 0 45 21 27 39 -16 16 -57 14 -63 -4z"/>
 <path d="M15052 28 c-16 -16 -15 -28 2 -28 16 0 29 27 17 34 -4 3 -13 0 -19 -6z"/>
 <path d="M2863 3 c37 -2 97 -2 135 0 37 2 6 3 -68 3 -74 0 -105 -1 -67 -3z"/>
 <path d="M3688 3 c12 -2 30 -2 40 0 9 3 -1 5 -23 4 -22 0 -30 -2 -17 -4z"/>
 <path d="M9338 3 c78 -2 206 -2 285 0 78 1 14 3 -143 3 -157 0 -221 -2 -142 -3z"/>
 <path d="M10123 3 c15 -2 37 -2 50 0 12 2 0 4 -28 4 -27 0 -38 -2 -22 -4z"/>
 <path d="M14823 3 c9 -2 25 -2 35 0 9 3 1 5 -18 5 -19 0 -27 -2 -17 -5z"/>
 </g>

</svg>