<!DOCTYPE svg PUBLIC "-//W3C//DTD SVG 20010904//EN" "http://www.w3.org/TR/2001/REC-SVG-20010904/DTD/svg10.dtd">
<svg version="1.0" xmlns="http://www.w3.org/2000/svg" width="202px" height="650px" viewBox="0 0 2020 6500" preserveAspectRatio="xMidYMid meet">
<g id="layer1" fill="#baab91" stroke="none">
 <path d="M326 6449 c-15 -12 -26 -30 -26 -45 0 -13 27 -104 59 -201 33 -98 65 -197 70 -219 13 -49 42 -88 78 -106 40 -20 76 -133 68 -214 -6 -56 -4 -64 20 -92 15 -18 38 -37 53 -44 15 -7 35 -31 45 -53 22 -46 55 -85 72 -85 16 0 50 39 41 47 -4 4 -15 2 -25 -4 -24 -15 -35 -6 -55 42 -19 44 -53 85 -71 85 -7 0 -20 9 -30 20 -14 16 -19 38 -19 103 -2 111 -34 193 -88 222 -43 23 -40 18 -104 225 -26 85 -56 173 -66 195 -22 50 -23 101 -2 109 42 16 120 -62 169 -169 18 -38 57 -119 87 -180 50 -102 53 -112 40 -135 -10 -19 -11 -32 -3 -52 13 -35 46 -39 35 -5 -4 12 -7 27 -6 32 1 6 4 24 6 40 4 23 -10 60 -57 155 -34 69 -70 144 -80 166 -27 65 -74 122 -124 154 -26 17 -50 30 -54 30 -3 0 -18 -9 -33 -21z"/>
 <path d="M670 5805 c0 -18 33 -65 45 -65 8 0 15 -7 15 -15 0 -12 28 -35 44 -35 17 0 3 32 -18 41 -13 6 -31 26 -39 45 -9 19 -23 34 -32 34 -8 0 -15 -2 -15 -5z"/>
 <path d="M792 5658 c6 -18 28 -21 28 -4 0 9 -7 16 -16 16 -9 0 -14 -5 -12 -12z"/>
 <path d="M797 5603 c-12 -11 -8 -23 8 -23 8 0 15 7 15 15 0 16 -12 20 -23 8z"/>
 <path d="M770 5510 c0 -11 7 -23 15 -27 21 -7 25 -2 18 25 -7 28 -33 29 -33 2z"/>
 <path d="M1134 3946 c-33 -30 -56 -57 -52 -61 4 -4 33 14 65 40 l58 48 6 -86 c8 -109 24 -137 79 -137 22 0 40 -2 40 -5 0 -2 -12 -21 -26 -42 -21 -31 -25 -46 -20 -79 3 -28 1 -47 -9 -60 -19 -25 -19 -54 0 -54 8 0 15 7 15 15 0 8 9 23 21 34 19 18 20 22 8 55 -11 31 -11 41 4 70 9 19 30 42 47 51 47 24 32 40 -42 43 -79 3 -79 3 -87 127 -5 82 -8 90 -27 93 -15 2 -40 -14 -80 -52z"/>
 <path d="M779 3967 c-29 -15 -42 -87 -15 -87 11 0 16 10 16 33 0 38 8 51 24 38 6 -4 22 -11 36 -13 14 -3 33 -9 43 -13 12 -5 17 -3 17 9 0 30 -81 52 -121 33z"/>
 <path d="M910 3917 c0 -18 92 -107 111 -107 17 0 39 19 39 33 0 5 -10 7 -23 3 -18 -4 -33 4 -67 39 -46 47 -60 54 -60 32z"/>
 <path d="M763 3785 c4 -43 7 -100 7 -127 0 -36 4 -48 15 -48 28 0 14 239 -14 248 -12 4 -13 -9 -8 -73z"/>
 <path d="M1443 3604 c-29 -31 -53 -60 -53 -65 0 -17 57 -9 84 12 49 38 71 110 34 109 -7 -1 -37 -26 -65 -56z"/>
 <path d="M770 3515 c0 -62 23 -78 34 -24 8 40 -2 79 -20 79 -10 0 -14 -15 -14 -55z"/>
 <path d="M993 3511 c-3 -11 -13 -21 -24 -24 -10 -3 -19 -10 -19 -16 0 -17 30 -13 36 4 6 15 44 22 44 7 0 -23 98 -114 156 -147 72 -39 94 -39 94 0 0 27 -9 32 -27 14 -19 -19 -110 39 -176 113 -33 38 -64 68 -69 68 -6 0 -12 -9 -15 -19z"/>
 <path d="M850 3384 c-34 -24 -35 -24 -42 -4 -4 11 -15 20 -23 20 -13 0 -15 -6 -10 -32 9 -40 13 -48 26 -48 19 0 99 61 99 75 0 20 -9 18 -50 -11z"/>
 <path d="M1017 2860 c-15 -17 -31 -54 -37 -87 -9 -44 -22 -68 -51 -100 -22 -24 -39 -47 -39 -52 0 -6 14 -27 32 -47 l32 -36 -12 -70 c-14 -79 -26 -108 -47 -108 -8 0 -15 -7 -15 -15 0 -21 34 -19 55 5 19 21 45 116 45 166 0 20 -9 39 -25 54 -36 33 -33 69 9 102 27 21 35 38 45 85 15 77 35 107 62 92 11 -5 24 -21 29 -35 8 -20 40 -35 40 -19 0 16 -33 66 -52 79 -32 22 -43 20 -71 -14z"/>
 <path d="M1109 2738 c-17 -32 16 -98 48 -98 20 0 16 14 -12 40 -17 16 -22 27 -15 34 14 14 12 26 -5 26 -8 0 -16 -1 -16 -2z"/>
 <path d="M1116 2569 c-22 -26 -26 -40 -26 -95 0 -50 3 -64 15 -64 12 0 15 13 15 59 0 49 4 65 25 89 29 34 31 42 11 42 -8 0 -26 -14 -40 -31z"/>
 <path d="M1090 2360 c0 -51 89 -85 98 -37 3 15 -1 18 -16 13 -29 -10 -52 3 -52 30 0 15 -6 24 -15 24 -10 0 -15 -10 -15 -30z"/>
 <path d="M761 2328 c-4 -13 -15 -113 -25 -223 -9 -110 -24 -246 -33 -302 -13 -80 -14 -106 -5 -115 16 -16 491 -25 519 -10 14 8 22 30 31 98 7 48 20 103 28 123 17 41 11 81 -12 81 -10 0 -13 -6 -10 -18 4 -11 0 -35 -8 -54 -8 -19 -20 -73 -27 -119 l-12 -84 -244 3 c-183 2 -243 6 -243 15 0 7 5 30 10 52 13 55 53 494 47 523 -2 12 0 25 4 28 12 7 11 24 -1 24 -6 0 -14 -10 -19 -22z"/>
 <path d="M1226 2293 c13 -117 16 -133 34 -155 12 -17 16 -29 9 -39 -13 -20 -11 -29 6 -29 8 0 15 5 15 10 0 6 11 16 25 22 34 15 28 40 -11 50 -36 9 -44 27 -44 109 0 50 -12 79 -32 79 -4 0 -5 -21 -2 -47z"/>
 <path d="M1250 2040 c0 -5 7 -10 15 -10 8 0 15 5 15 10 0 6 -7 10 -15 10 -8 0 -15 -4 -15 -10z"/>
 </g>
<g id="layer2" fill="#5e4b4b" stroke="none">
 <path d="M311 6441 c-25 -34 -27 -51 -6 -51 8 0 15 9 15 20 0 11 7 23 15 26 16 7 21 34 6 34 -5 0 -19 -13 -30 -29z"/>
 <path d="M370 6458 c0 -7 18 -23 41 -36 43 -25 93 -95 123 -172 10 -25 40 -88 68 -140 47 -88 51 -100 52 -170 2 -96 46 -199 95 -224 32 -17 61 -61 61 -93 0 -10 -7 -28 -15 -40 -11 -16 -14 -42 -13 -95 3 -67 1 -73 -17 -73 -14 0 -27 14 -42 44 -26 51 -61 91 -79 91 -7 0 -22 12 -34 27 -19 24 -21 35 -15 85 5 45 2 72 -15 125 -24 74 -43 101 -78 114 -28 11 -36 30 -112 267 -44 138 -66 192 -77 192 -10 0 -13 -5 -8 -17 10 -26 82 -245 111 -339 20 -68 32 -88 69 -123 57 -54 88 -142 79 -230 -6 -54 -5 -59 25 -94 18 -20 41 -39 52 -42 11 -4 29 -25 40 -48 45 -89 90 -110 129 -60 19 24 21 36 15 81 -4 31 -2 66 5 88 18 54 5 97 -49 159 -55 63 -91 149 -91 217 0 36 -12 68 -52 144 -28 54 -61 124 -74 156 -32 83 -87 159 -137 191 -50 30 -57 32 -57 15z"/>
 <path d="M1164 3991 c-21 -16 -59 -49 -84 -75 -24 -25 -48 -46 -53 -46 -5 0 -35 22 -67 50 -64 56 -95 70 -149 70 -45 0 -60 -14 -68 -64 -4 -29 -2 -36 10 -36 10 0 17 11 19 33 3 31 4 32 48 29 51 -3 104 -36 154 -94 18 -21 37 -38 41 -38 5 0 43 33 84 73 42 41 86 79 99 86 22 12 22 11 22 -66 0 -54 5 -89 18 -113 16 -33 20 -35 75 -38 l57 -3 -29 -24 c-41 -35 -57 -80 -43 -118 10 -25 8 -33 -8 -55 -21 -26 -27 -62 -10 -62 6 0 15 11 20 25 11 30 13 30 66 5 34 -17 47 -19 70 -10 64 25 116 100 94 139 -17 33 -37 25 -77 -30 -34 -48 -38 -51 -72 -45 -65 10 -80 64 -33 117 21 24 40 34 72 38 24 3 45 12 47 18 7 20 -42 33 -123 33 -71 0 -75 1 -84 26 -6 14 -10 60 -10 103 0 108 -18 123 -86 72z m332 -390 c-16 -30 -43 -51 -66 -51 -6 0 8 22 32 50 45 52 60 53 34 1z"/>
 <path d="M750 3815 c0 -24 5 -35 15 -35 10 0 15 11 15 35 0 24 -5 35 -15 35 -10 0 -15 -11 -15 -35z"/>
 <path d="M760 3700 c0 -47 3 -60 15 -60 12 0 15 13 15 60 0 47 -3 60 -15 60 -12 0 -15 -13 -15 -60z"/>
 <path d="M947 3455 c-42 -48 -125 -115 -141 -115 -3 0 -6 7 -6 15 0 8 -7 15 -15 15 -20 0 -19 -34 0 -50 24 -20 88 14 166 87 l65 62 51 -58 c62 -70 184 -141 209 -121 19 16 18 60 -1 60 -8 0 -15 -7 -15 -15 0 -20 0 -20 -76 22 -47 26 -79 53 -112 95 -25 32 -52 58 -61 58 -9 0 -38 -25 -64 -55z"/>
 <path d="M1015 2877 c-24 -24 -36 -48 -45 -92 -9 -43 -22 -70 -46 -95 -49 -53 -52 -80 -14 -124 35 -39 36 -56 10 -147 -11 -39 -33 -49 -110 -49 -36 0 -71 -23 -57 -37 4 -3 3 -11 -2 -17 -5 -6 -12 -57 -16 -113 -6 -88 -4 -103 8 -103 12 0 16 22 22 108 3 59 7 111 8 115 2 5 31 9 65 11 78 3 99 21 118 102 20 84 18 102 -16 141 -16 18 -30 38 -30 44 0 5 17 28 39 52 29 32 42 56 50 99 15 71 39 103 69 94 35 -11 55 -61 49 -120 -4 -40 -1 -55 13 -71 34 -37 34 -67 1 -109 -30 -37 -31 -43 -31 -132 0 -86 2 -95 23 -108 14 -9 40 -14 70 -12 l47 4 0 -59 c0 -74 13 -108 48 -121 l28 -11 -27 -28 c-33 -35 -46 -98 -28 -128 11 -17 10 -28 -4 -68 -18 -54 -49 -224 -42 -232 13 -12 32 37 43 110 20 122 23 128 71 122 34 -5 41 -3 41 11 0 11 -9 16 -28 16 -48 0 -66 30 -57 95 8 66 26 80 91 71 33 -4 44 -2 44 8 0 21 -21 34 -75 47 -73 19 -75 22 -75 103 0 43 -5 77 -12 84 -7 7 -36 12 -65 12 l-53 0 0 89 c0 83 2 90 30 126 35 44 37 59 10 103 -12 20 -20 50 -20 78 0 24 -6 59 -14 77 -13 33 -68 87 -88 87 -5 0 -25 -15 -43 -33z"/>
 <path d="M720 2030 c0 -38 4 -50 15 -50 11 0 15 12 15 50 0 38 -4 50 -15 50 -11 0 -15 -12 -15 -50z"/>
 <path d="M1411 1971 c-24 -34 -26 -41 -8 -41 19 0 60 47 52 59 -10 18 -22 13 -44 -18z"/>
 <path d="M710 1910 c0 -29 4 -40 15 -40 11 0 15 11 15 40 0 29 -4 40 -15 40 -11 0 -15 -11 -15 -40z"/>
 <path d="M700 1836 c0 -7 -3 -28 -6 -45 -5 -24 -3 -31 10 -31 9 0 16 6 16 14 0 7 3 28 6 45 5 24 3 31 -10 31 -9 0 -16 -6 -16 -14z"/>
 <path d="M680 1717 c0 -13 5 -28 12 -35 17 -17 48 -15 48 3 0 8 -7 15 -15 15 -8 0 -15 9 -15 20 0 11 -7 20 -15 20 -9 0 -15 -9 -15 -23z"/>
 <path d="M780 1685 c0 -10 11 -15 35 -15 24 0 35 5 35 15 0 10 -11 15 -35 15 -24 0 -35 -5 -35 -15z"/>
 </g>
<g id="layer3" fill="#f8e7ab" stroke="none">
 <path d="M338 6449 c-25 -14 -23 -32 2 -24 13 4 34 -1 57 -15 38 -23 54 -20 33 5 -12 14 -63 46 -72 45 -2 0 -11 -5 -20 -11z"/>
 <path d="M452 6373 c2 -5 35 -73 74 -153 110 -224 113 -248 36 -270 -52 -14 -73 -13 -95 8 -19 16 -19 16 -12 -8 10 -34 21 -46 55 -60 43 -18 74 -101 75 -205 2 -94 12 -116 61 -140 28 -13 41 -29 60 -71 25 -57 46 -74 72 -57 29 18 37 40 23 66 -10 19 -10 33 -1 68 7 24 17 50 22 57 8 9 8 19 0 35 -5 12 -13 30 -16 40 -3 9 -17 22 -30 27 -45 17 -86 69 -86 109 0 11 -10 39 -21 61 -19 35 -20 44 -9 71 12 28 9 37 -35 127 -27 53 -64 130 -82 171 -38 82 -69 131 -85 131 -5 0 -8 -3 -6 -7z"/>
 <path d="M360 6230 c0 -5 7 -10 15 -10 8 0 15 5 15 10 0 6 -7 10 -15 10 -8 0 -15 -4 -15 -10z"/>
 <path d="M1121 3924 c-44 -36 -81 -72 -81 -79 0 -34 -32 -21 -82 33 -51 55 -80 73 -141 87 -42 9 -57 -9 -57 -66 0 -37 4 -49 15 -49 10 0 15 11 15 35 0 32 2 34 23 25 12 -5 34 -11 49 -14 31 -7 88 -74 108 -126 19 -49 29 -60 57 -60 29 0 56 27 106 108 36 59 67 80 67 47 0 -8 7 -15 15 -15 13 0 15 12 13 67 -2 37 -8 68 -14 70 -6 2 -48 -26 -93 -63z"/>
 <path d="M1210 3821 c0 -26 38 -73 63 -78 31 -6 37 -36 12 -69 -19 -25 -19 -44 0 -44 9 0 15 9 15 24 0 14 11 38 25 54 39 47 34 60 -27 64 -49 3 -53 5 -56 31 -3 24 -32 41 -32 18z"/>
 <path d="M770 3785 c0 -8 7 -15 15 -15 8 0 15 7 15 15 0 8 -7 15 -15 15 -8 0 -15 -7 -15 -15z"/>
 <path d="M780 3613 c0 -54 13 -86 24 -58 3 9 6 37 6 61 0 32 -4 44 -15 44 -11 0 -15 -12 -15 -47z"/>
 <path d="M1291 3600 c-1 -8 -10 -26 -21 -40 -14 -17 -20 -41 -20 -76 0 -38 -4 -54 -16 -58 -31 -12 -84 29 -148 117 -40 55 -62 50 -144 -32 -38 -38 -83 -76 -100 -85 l-32 -17 -1 33 c-1 18 -1 39 0 46 1 6 -5 12 -14 12 -12 0 -14 -13 -11 -75 2 -42 6 -79 10 -82 16 -16 176 92 176 119 0 4 9 17 21 29 l21 21 63 -69 c40 -44 85 -81 120 -99 l56 -29 20 25 c18 22 19 35 14 112 -4 56 -2 95 5 109 6 11 9 28 7 37 -4 13 -5 13 -6 2z"/>
 <path d="M1021 2844 c-11 -14 -26 -52 -32 -85 -9 -48 -18 -63 -45 -84 -43 -33 -44 -66 -5 -110 l29 -33 -14 -69 c-23 -113 -23 -113 -102 -113 -40 0 -73 -5 -80 -12 -18 -18 -16 -78 3 -78 10 0 15 10 15 27 0 21 3 24 12 15 7 -7 39 -12 75 -12 55 0 66 3 98 31 19 17 35 37 35 45 0 8 2 14 4 14 2 0 11 3 19 6 10 3 22 -9 37 -41 28 -58 50 -73 123 -81 56 -7 57 -6 57 18 0 36 -23 52 -65 44 -69 -13 -73 -8 -74 111 l-1 106 35 33 c19 18 35 37 35 41 0 5 -13 22 -30 38 -30 28 -39 68 -20 80 23 14 7 64 -34 113 -26 29 -50 28 -75 -4z"/>
 <path d="M750 2190 c0 -11 7 -20 15 -20 8 0 15 9 15 20 0 11 -7 20 -15 20 -8 0 -15 -9 -15 -20z"/>
 <path d="M1230 2191 c0 -5 7 -28 15 -51 8 -23 12 -53 9 -66 -10 -41 20 -28 33 13 10 33 9 40 -8 56 -10 10 -19 27 -19 37 0 11 -7 20 -15 20 -8 0 -15 -4 -15 -9z"/>
 <path d="M740 2065 c0 -16 6 -25 15 -25 9 0 15 9 15 25 0 16 -6 25 -15 25 -9 0 -15 -9 -15 -25z"/>
 <path d="M1243 1978 c1 -29 -2 -63 -6 -75 -6 -17 -5 -23 5 -23 21 0 39 60 29 95 -4 17 -6 36 -4 43 3 6 -2 12 -10 12 -11 0 -14 -12 -14 -52z"/>
 <path d="M730 1965 c0 -8 7 -15 15 -15 8 0 15 7 15 15 0 8 -7 15 -15 15 -8 0 -15 -7 -15 -15z"/>
 <path d="M720 1860 c0 -5 7 -10 15 -10 8 0 15 5 15 10 0 6 -7 10 -15 10 -8 0 -15 -4 -15 -10z"/>
 <path d="M1220 1845 c0 -8 7 -15 15 -15 8 0 15 7 15 15 0 8 -7 15 -15 15 -8 0 -15 -7 -15 -15z"/>
 <path d="M1210 1790 c0 -11 7 -20 15 -20 8 0 15 9 15 20 0 11 -7 20 -15 20 -8 0 -15 -9 -15 -20z"/>
 <path d="M1207 1716 c-4 -10 -5 -21 -2 -24 9 -9 17 6 13 25 -3 17 -4 17 -11 -1z"/>
 </g>
<g id="layer4" fill="#f6f0d0" stroke="none">
 <path d="M325 6430 c-21 -23 -19 -33 28 -165 14 -38 42 -124 62 -190 48 -161 56 -168 151 -144 59 15 81 52 63 107 -16 48 -132 288 -158 326 -20 31 -95 86 -116 86 -7 0 -20 -9 -30 -20z"/>
 <path d="M774 3925 c-4 -9 -2 -87 5 -173 6 -87 11 -201 11 -254 0 -53 4 -100 10 -103 18 -11 74 27 143 96 74 74 107 86 128 48 18 -35 91 -109 122 -125 25 -14 31 -14 53 1 20 13 24 23 24 68 0 31 6 62 15 74 9 13 15 40 14 65 -1 24 4 57 11 75 11 26 11 34 1 47 -8 9 -22 16 -32 16 -25 0 -46 35 -54 93 -6 40 -10 47 -30 47 -24 0 -60 -39 -105 -115 -28 -47 -37 -55 -66 -55 -15 0 -24 10 -34 40 -19 56 -96 139 -140 150 -19 4 -43 11 -52 15 -12 5 -20 2 -24 -10z"/>
 <path d="M1058 2733 c-3 -4 -5 -30 -6 -56 -1 -35 3 -49 14 -54 27 -10 37 12 28 63 -8 43 -26 67 -36 47z"/>
 <path d="M1012 2394 c-12 -8 -22 -21 -22 -29 0 -31 -50 -55 -114 -55 -35 0 -67 5 -74 12 -21 21 -30 -4 -41 -112 -6 -58 -18 -172 -26 -253 -8 -81 -20 -168 -25 -193 -17 -76 -23 -75 259 -72 l246 3 7 35 c4 19 15 71 24 115 10 44 17 98 16 120 -1 22 3 61 8 87 7 35 6 57 -5 89 -8 23 -15 58 -15 79 0 46 -11 56 -73 65 -50 8 -82 31 -93 69 -7 22 -33 56 -43 56 -4 0 -17 -7 -29 -16z"/>
 </g>
<g id="layer5" fill="#070615" stroke="none">
 <path d="M292 6486 c-23 -11 -23 -14 -19 -101 5 -98 19 -174 41 -220 8 -16 20 -52 26 -80 6 -27 16 -59 21 -70 5 -11 16 -60 24 -108 7 -49 18 -94 23 -100 5 -7 17 -43 27 -82 10 -38 21 -74 25 -80 16 -23 33 -109 75 -370 13 -82 28 -170 34 -195 6 -25 18 -94 26 -155 9 -60 20 -122 25 -138 5 -15 16 -94 25 -175 9 -81 20 -165 26 -187 15 -64 39 -435 39 -623 0 -95 4 -181 10 -191 17 -32 28 -756 14 -946 -7 -93 -19 -271 -28 -395 -9 -124 -21 -256 -27 -295 -6 -38 -17 -113 -24 -165 -20 -153 -5 -140 -161 -140 -73 0 -145 -5 -161 -11 -15 -6 -61 -17 -102 -26 -94 -19 -195 -73 -216 -115 -22 -45 -21 -229 1 -263 29 -44 98 -67 184 -62 41 2 87 10 103 17 35 17 78 94 81 145 l2 40 119 3 c72 2 122 -1 129 -8 5 -5 42 -10 82 -10 87 0 82 15 72 -210 -4 -91 -7 -309 -6 -485 l1 -320 -49 -32 c-27 -18 -71 -39 -99 -49 -27 -9 -62 -28 -77 -42 -25 -23 -28 -33 -28 -92 0 -77 13 -102 72 -130 35 -17 62 -20 175 -20 73 0 141 4 151 8 85 41 138 80 165 120 36 52 44 128 62 607 8 226 20 460 26 522 13 131 2 123 164 123 187 0 346 21 495 66 164 49 180 67 180 198 0 76 -2 84 -30 118 -67 81 -200 113 -271 65 -42 -28 -59 -60 -59 -113 0 -63 -22 -77 -112 -71 -87 6 -196 22 -220 32 -21 8 -21 18 -5 105 12 63 13 65 54 80 74 27 143 114 143 181 0 53 -95 159 -143 159 -7 0 -21 6 -31 13 -18 13 -18 37 -7 548 6 294 14 576 18 627 l6 92 52 0 c43 0 59 5 90 30 53 42 68 75 69 146 0 51 -5 68 -30 105 -34 50 -75 67 -166 68 -39 1 -58 5 -59 14 -14 214 -49 480 -69 522 -5 11 -16 70 -25 130 -9 61 -20 119 -25 130 -5 11 -14 51 -20 89 -6 38 -20 94 -30 125 -10 31 -26 85 -36 121 -9 36 -20 70 -24 75 -4 6 -15 42 -25 80 -10 39 -21 75 -25 80 -4 6 -11 26 -15 45 -8 41 -70 231 -89 275 -8 17 -19 48 -26 70 -7 22 -16 45 -20 50 -5 6 -15 33 -23 60 -15 48 -41 111 -93 222 -13 28 -24 54 -24 58 0 7 -47 111 -90 196 -49 102 -130 227 -163 256 -87 74 -86 73 -135 72 -26 -1 -57 -7 -70 -13z m134 -59 c46 -31 55 -45 143 -222 71 -146 95 -204 101 -250 10 -72 60 -188 100 -230 36 -38 50 -74 50 -130 0 -31 10 -63 34 -107 37 -67 111 -281 170 -491 56 -194 115 -494 160 -810 13 -92 29 -173 34 -180 5 -7 12 -54 14 -105 5 -120 10 -124 124 -128 50 -2 92 -9 98 -15 8 -9 7 -10 -6 -6 -31 11 -86 -13 -118 -51 -37 -45 -38 -71 -2 -104 44 -42 65 -43 106 -7 53 46 48 73 -8 48 -20 -9 -29 -9 -41 1 -25 21 -17 39 21 46 31 6 39 3 55 -17 14 -19 20 -22 30 -11 41 40 40 -35 -1 -82 -41 -46 -79 -54 -133 -27 -49 25 -63 17 -78 -45 -5 -21 -14 -285 -18 -586 -5 -301 -11 -551 -14 -555 -2 -4 -1 -48 3 -97 8 -103 20 -119 94 -130 24 -4 50 -14 56 -21 15 -17 -1 -20 -17 -4 -17 17 -81 2 -98 -24 -25 -38 -28 -98 -7 -132 18 -29 18 -30 0 -45 -12 -10 -23 -48 -36 -120 l-18 -105 -250 -2 c-139 -2 -255 1 -263 6 -13 8 -13 24 2 118 9 59 19 146 22 193 10 162 26 305 40 360 21 82 25 179 26 580 0 228 -4 378 -10 400 -6 19 -11 96 -11 170 0 74 -5 204 -12 287 -10 133 -9 155 4 170 13 16 13 34 2 148 -6 72 -17 193 -24 270 -6 77 -16 158 -21 180 -5 22 -18 114 -29 205 -50 425 -178 1072 -225 1134 -12 17 -28 49 -35 71 -6 22 -38 121 -71 221 -32 99 -59 191 -59 204 0 28 27 60 50 60 10 0 40 -15 66 -33z m948 -4399 c11 -18 -7 -48 -30 -48 -18 0 -28 38 -13 56 14 17 28 14 43 -8z m516 -283 c41 -21 60 -53 60 -103 0 -51 -26 -83 -95 -112 -114 -49 -610 -71 -1105 -49 -444 20 -537 19 -580 -7 -21 -12 -35 -28 -35 -40 0 -16 9 -20 65 -24 36 -3 70 -8 76 -12 16 -11 24 -60 13 -80 -29 -53 -173 -78 -217 -38 -53 50 -35 158 38 231 69 69 123 84 286 81 78 -2 190 4 275 14 158 18 321 14 509 -11 208 -29 384 -38 478 -26 97 12 195 53 200 84 4 21 -26 60 -42 54 -6 -2 -22 -8 -36 -12 -20 -6 -23 -5 -12 6 6 7 12 23 12 36 0 20 5 23 40 23 23 0 54 -7 70 -15z m-842 -1457 c7 -57 -16 -105 -69 -143 -74 -55 -140 -77 -234 -79 -90 -1 -137 14 -153 49 -17 38 9 60 161 134 147 72 172 79 247 71 40 -4 45 -8 48 -32z"/>
 </g>
<g id="layer6" fill="#291e50" stroke="none">
 <path d="M340 6466 c0 -7 12 -16 28 -18 15 -3 35 -9 45 -13 30 -13 19 13 -13 30 -36 19 -60 19 -60 1z"/>
 <path d="M290 6375 c0 -8 7 -15 15 -15 8 0 15 7 15 15 0 8 -7 15 -15 15 -8 0 -15 -7 -15 -15z"/>
 <path d="M334 6244 c3 -9 9 -27 12 -40 3 -13 13 -24 21 -24 10 0 13 6 9 16 -3 9 -9 27 -12 40 -3 13 -13 24 -21 24 -10 0 -13 -6 -9 -16z"/>
 <path d="M560 6225 c0 -13 72 -147 76 -142 6 5 -63 147 -71 147 -3 0 -5 -2 -5 -5z"/>
 <path d="M410 6000 c0 -5 7 -10 15 -10 8 0 15 5 15 10 0 6 -7 10 -15 10 -8 0 -15 -4 -15 -10z"/>
 <path d="M460 5902 c0 -4 4 -12 9 -17 32 -33 170 -762 211 -1115 11 -91 24 -185 29 -210 10 -45 20 -149 42 -415 6 -77 16 -148 21 -157 6 -12 21 -18 44 -18 50 0 92 -21 146 -74 26 -25 53 -46 60 -46 8 0 38 25 68 56 30 30 74 67 98 81 39 23 42 28 37 57 -3 17 -14 94 -25 171 -22 157 -56 350 -94 532 -50 245 -170 623 -240 760 -41 79 -43 81 -56 59 -8 -16 -10 -40 -5 -74 9 -64 -6 -94 -43 -90 -21 2 -33 15 -55 56 -18 33 -43 62 -67 77 -53 33 -64 57 -56 121 9 76 -24 177 -72 221 -36 33 -52 41 -52 25z"/>
 <path d="M670 5902 c0 -4 4 -12 8 -17 5 -6 14 -28 20 -51 7 -22 21 -49 33 -60 22 -19 22 -19 14 6 -4 14 -15 43 -26 66 -10 22 -19 46 -19 52 0 7 -7 12 -15 12 -8 0 -15 -4 -15 -8z"/>
 <path d="M740 3950 c0 -5 7 -10 15 -10 8 0 15 5 15 10 0 6 -7 10 -15 10 -8 0 -15 -4 -15 -10z"/>
 <path d="M740 3865 c0 -16 6 -25 15 -25 9 0 15 9 15 25 0 16 -6 25 -15 25 -9 0 -15 -9 -15 -25z"/>
 <path d="M1300 3785 c0 -10 10 -15 30 -15 20 0 30 5 30 15 0 10 -10 15 -30 15 -20 0 -30 -5 -30 -15z"/>
 <path d="M1435 3763 c9 -38 13 -40 33 -19 16 16 16 18 -2 32 -29 21 -39 17 -31 -13z"/>
 <path d="M750 3745 c0 -24 5 -35 15 -35 10 0 15 11 15 35 0 24 -5 35 -15 35 -10 0 -15 -11 -15 -35z"/>
 <path d="M1383 3753 c-22 -8 -14 -23 12 -23 16 0 25 6 25 15 0 15 -14 18 -37 8z"/>
 <path d="M1500 3675 c0 -16 27 -32 37 -21 7 7 -16 36 -28 36 -5 0 -9 -7 -9 -15z"/>
 <path d="M1457 3663 c-13 -12 -7 -33 8 -33 8 0 15 9 15 20 0 20 -11 26 -23 13z"/>
 <path d="M760 3500 c0 -112 3 -140 14 -140 22 0 25 57 17 263 -1 9 -8 17 -16 17 -13 0 -15 -22 -15 -140z"/>
 <path d="M1322 3599 c2 -7 10 -15 17 -17 8 -3 12 1 9 9 -2 7 -10 15 -17 17 -8 3 -12 -1 -9 -9z"/>
 <path d="M1418 3596 c-19 -14 -24 -36 -10 -36 10 0 42 33 42 43 0 11 -13 8 -32 -7z"/>
 <path d="M1330 3550 c0 -13 28 -25 38 -16 3 4 0 11 -8 16 -20 13 -30 12 -30 0z"/>
 <path d="M1263 3495 c-3 -9 -3 -18 0 -22 10 -10 37 6 37 22 0 20 -29 20 -37 0z"/>
 <path d="M960 3434 c-47 -48 -133 -104 -162 -104 -15 0 -16 -32 -16 -379 0 -349 -3 -439 -18 -558 l-5 -43 44 0 c108 0 127 15 148 117 l13 61 -33 37 c-39 45 -36 73 15 125 19 20 34 43 34 51 0 41 33 120 55 135 23 15 27 15 51 -1 33 -21 54 -72 54 -129 0 -28 8 -58 20 -78 27 -44 25 -59 -10 -103 -28 -35 -30 -43 -30 -124 0 -54 5 -92 12 -99 7 -7 36 -12 65 -12 44 0 54 4 64 22 9 16 13 154 17 479 l5 457 -82 42 c-59 31 -94 58 -128 96 -25 30 -51 54 -57 54 -7 0 -32 -21 -56 -46z"/>
 <path d="M740 2320 c0 -5 7 -10 15 -10 8 0 15 5 15 10 0 6 -7 10 -15 10 -8 0 -15 -4 -15 -10z"/>
 <path d="M730 2205 c0 -8 7 -15 15 -15 8 0 15 7 15 15 0 8 -7 15 -15 15 -8 0 -15 -7 -15 -15z"/>
 <path d="M1250 2190 c0 -5 7 -10 15 -10 8 0 15 5 15 10 0 6 -7 10 -15 10 -8 0 -15 -4 -15 -10z"/>
 <path d="M720 2115 c0 -24 5 -35 15 -35 10 0 15 11 15 35 0 24 -5 35 -15 35 -10 0 -15 -11 -15 -35z"/>
 <path d="M1370 2135 c0 -8 5 -15 10 -15 6 0 10 7 10 15 0 8 -4 15 -10 15 -5 0 -10 -7 -10 -15z"/>
 <path d="M1380 2100 c0 -5 11 -10 25 -10 14 0 25 5 25 10 0 6 -11 10 -25 10 -14 0 -25 -4 -25 -10z"/>
 <path d="M1430 1995 c0 -8 5 -15 10 -15 6 0 10 7 10 15 0 8 -4 15 -10 15 -5 0 -10 -7 -10 -15z"/>
 <path d="M710 1975 c0 -16 6 -25 15 -25 9 0 15 9 15 25 0 16 -6 25 -15 25 -9 0 -15 -9 -15 -25z"/>
 <path d="M1420 1955 c-7 -8 -23 -15 -36 -15 -13 0 -24 -4 -24 -10 0 -13 -27 -13 -32 1 -5 14 -38 0 -38 -17 0 -7 16 -16 36 -20 30 -5 43 -2 77 22 39 28 58 54 39 54 -5 0 -15 -7 -22 -15z"/>
 <path d="M700 1865 c0 -8 7 -15 15 -15 8 0 15 7 15 15 0 8 -7 15 -15 15 -8 0 -15 -7 -15 -15z"/>
 <path d="M1772 1768 c-7 -7 -12 -21 -12 -33 0 -12 -5 -26 -12 -33 -22 -22 5 -36 42 -23 37 12 50 8 50 -18 0 -27 -84 -60 -185 -73 -91 -11 -270 -1 -475 27 -188 25 -351 29 -509 11 -85 -10 -197 -16 -275 -14 -169 4 -217 -11 -297 -91 -88 -89 -103 -191 -37 -253 25 -24 39 -28 84 -28 94 0 181 62 168 119 -10 43 -50 73 -98 71 -22 -1 -47 -1 -53 -1 -24 2 -13 18 19 32 42 18 171 18 568 0 343 -15 729 -9 934 15 144 17 217 43 261 95 50 61 24 153 -56 194 -34 18 -100 20 -117 3z"/>
 <path d="M1230 1760 c0 -5 7 -10 15 -10 8 0 15 5 15 10 0 6 -7 10 -15 10 -8 0 -15 -4 -15 -10z"/>
 <path d="M680 1750 c0 -5 7 -10 15 -10 8 0 15 5 15 10 0 6 -7 10 -15 10 -8 0 -15 -4 -15 -10z"/>
 <path d="M720 1675 c0 -13 34 -15 250 -15 216 0 250 2 250 15 0 13 -34 15 -250 15 -216 0 -250 -2 -250 -15z"/>
 <path d="M735 261 c-121 -61 -152 -81 -159 -103 -13 -37 5 -73 46 -94 48 -26 185 -23 258 5 81 31 166 101 179 148 28 98 7 123 -100 122 -72 -1 -79 -3 -224 -78z"/>
 </g>

</svg>