<!DOCTYPE svg PUBLIC "-//W3C//DTD SVG 20010904//EN" "http://www.w3.org/TR/2001/REC-SVG-20010904/DTD/svg10.dtd">
<svg version="1.0" xmlns="http://www.w3.org/2000/svg" width="172px" height="690px" viewBox="0 0 1720 6900" preserveAspectRatio="xMidYMid meet">
<g id="layer1" fill="#c1e3ea" stroke="none">
 <path d="M703 1512 c-8 -20 2 -326 11 -340 11 -18 384 -6 404 12 18 17 21 308 3 330 -11 13 -43 15 -213 13 -152 -1 -202 -5 -205 -15z"/>
 <path d="M915 1035 c-5 -2 -22 -6 -37 -9 -21 -5 -34 -19 -53 -55 -33 -66 -40 -116 -25 -186 10 -46 21 -68 55 -104 36 -38 48 -45 80 -44 72 2 115 71 115 185 0 60 -5 84 -26 126 -34 69 -72 99 -109 87z"/>
 <path d="M618 882 c-37 -33 -68 -107 -68 -162 0 -19 9 -53 19 -75 21 -46 89 -111 102 -98 14 14 7 355 -8 360 -6 2 -26 -9 -45 -25z"/>
 <path d="M1308 803 c-43 -7 -52 -26 -24 -52 28 -27 90 -37 129 -22 24 9 26 14 17 31 -16 30 -74 50 -122 43z"/>
 </g>
<g id="layer2" fill="#09101d" stroke="none">
 <path d="M72 6494 c-15 -10 -22 -26 -22 -48 0 -38 27 -124 46 -146 7 -8 24 -40 38 -70 14 -30 44 -86 65 -125 22 -38 49 -90 61 -115 13 -25 42 -84 66 -131 49 -96 119 -272 129 -321 4 -18 13 -47 21 -64 7 -18 21 -60 29 -95 8 -35 22 -86 30 -114 36 -126 59 -326 59 -525 0 -224 -18 -384 -79 -715 -70 -378 -103 -711 -85 -864 8 -69 7 -88 -4 -100 -25 -28 -29 -70 -13 -129 15 -55 30 -217 42 -449 5 -90 3 -118 -9 -142 -20 -39 -20 -64 1 -104 9 -18 20 -59 23 -92 4 -33 14 -121 23 -195 9 -74 21 -196 27 -270 14 -162 22 -180 84 -180 l43 0 6 -158 c4 -86 7 -212 7 -280 0 -120 -1 -123 -24 -131 -32 -13 -81 -74 -95 -120 -17 -57 -13 -130 9 -179 10 -23 43 -65 71 -92 50 -48 53 -54 61 -117 6 -54 13 -73 37 -97 16 -17 52 -57 81 -88 29 -32 57 -58 62 -58 5 0 26 -13 46 -29 27 -21 71 -37 166 -61 126 -32 131 -32 230 -21 104 12 155 31 241 90 51 34 143 156 151 199 12 62 -1 180 -23 205 -10 12 -31 41 -46 64 -18 28 -44 51 -77 68 -28 14 -71 48 -97 75 -42 44 -52 50 -102 55 -31 4 -69 12 -84 18 -58 24 -77 129 -80 442 l-2 230 49 7 c27 4 54 12 60 18 16 16 20 355 6 528 -11 139 -10 146 11 197 22 53 22 54 3 97 -16 37 -19 77 -22 299 l-4 256 26 60 c24 57 24 63 11 91 -13 25 -16 123 -20 613 -4 530 -6 610 -30 859 -14 151 -32 309 -40 350 -8 41 -22 109 -30 150 -26 137 -43 198 -68 252 -13 29 -39 87 -56 128 -18 41 -41 91 -51 110 -10 19 -34 65 -53 102 -19 37 -43 80 -54 95 -20 32 -32 49 -71 111 -31 50 -133 183 -198 256 -24 28 -64 74 -88 103 -97 114 -321 281 -398 297 -16 3 -38 8 -51 11 -13 2 -33 -2 -45 -11z m99 -69 c86 -31 232 -139 346 -259 60 -63 127 -141 149 -173 23 -32 61 -88 87 -124 103 -146 207 -354 312 -620 55 -139 97 -328 121 -539 7 -69 18 -154 24 -190 15 -96 32 -922 25 -1168 l-7 -213 -62 8 c-110 14 -514 9 -588 -8 l-67 -15 -7 75 c-8 87 19 480 40 582 8 35 17 89 21 119 4 30 13 87 21 125 52 247 66 363 71 575 8 321 -12 494 -90 785 -61 225 -184 519 -280 673 -31 48 -162 308 -171 339 -6 20 -2 43 8 43 2 0 23 -7 47 -15z m894 -3354 c105 -6 100 -6 -105 -13 -118 -3 -235 -11 -260 -17 -181 -42 -254 -49 -210 -20 73 47 292 66 575 50z m115 -104 l35 -12 6 -110 c8 -141 11 -400 4 -407 -3 -3 -29 1 -58 9 -84 23 -436 12 -546 -17 -45 -12 -87 -18 -91 -13 -5 4 -14 107 -20 228 -6 121 -13 230 -16 241 -3 13 0 25 8 30 21 14 165 44 248 53 121 13 390 11 430 -2z m13 -612 c31 -10 57 -22 57 -27 0 -12 -10 -10 -75 13 -56 20 -73 21 -250 15 -188 -6 -210 -9 -405 -61 l-25 -7 22 20 c23 20 166 59 243 66 25 2 119 3 210 2 131 -2 177 -6 223 -21z m-53 -90 c29 -8 57 -18 62 -23 16 -16 26 -133 34 -394 l7 -256 -74 -6 c-82 -7 -333 -11 -475 -8 l-91 2 -13 128 c-6 70 -20 194 -31 276 -25 194 -25 222 2 236 33 18 160 49 245 59 97 12 263 5 334 -14z m-25 -787 c3 -18 5 -89 3 -158 l-3 -125 -60 -7 c-72 -8 -322 -14 -329 -7 -2 2 -8 77 -12 167 l-7 162 201 0 201 0 6 -32z m-5 -405 c1 -21 7 -78 14 -128 15 -101 40 -154 105 -222 45 -46 79 -59 182 -68 91 -9 126 -30 167 -101 31 -55 33 -64 29 -132 -2 -40 -9 -78 -16 -85 -6 -6 -11 -23 -11 -38 0 -54 -146 -133 -278 -149 -101 -13 -188 -1 -289 41 -69 29 -133 82 -133 111 0 6 -22 32 -48 57 -78 75 -86 108 -88 409 -3 294 2 323 57 333 19 4 96 7 172 8 l137 1 0 -37z m-445 -348 c0 -91 -3 -165 -7 -165 -13 0 -60 55 -74 87 -19 44 -18 113 3 165 17 42 48 77 68 78 6 0 10 -61 10 -165z m744 40 c19 -19 11 -26 -36 -31 -28 -4 -47 1 -73 17 l-35 23 25 7 c34 11 102 1 119 -16z"/>
 </g>
<g id="layer3" fill="#1a2b47" stroke="none">
 <path d="M105 6447 c-14 -11 -16 -21 -11 -43 9 -33 135 -286 173 -346 96 -154 219 -448 280 -673 78 -291 98 -464 90 -785 -5 -212 -19 -328 -71 -575 -8 -38 -17 -95 -21 -125 -4 -30 -13 -84 -21 -119 -23 -114 -48 -498 -38 -592 8 -76 11 -84 29 -82 11 2 61 9 110 18 106 18 406 20 520 4 55 -7 80 -7 90 1 21 17 28 382 16 880 -6 245 -16 474 -21 510 -6 36 -17 121 -24 190 -24 211 -66 400 -121 539 -105 266 -209 474 -312 620 -26 36 -65 93 -87 125 -23 33 -95 115 -160 183 -124 129 -266 236 -355 268 -52 18 -43 18 -66 2z"/>
 <path d="M690 3091 c-102 -11 -187 -37 -217 -67 -19 -19 -22 -28 -13 -38 9 -12 21 -12 73 1 153 37 292 52 483 52 105 1 166 -3 199 -14 27 -8 52 -12 57 -8 17 10 -33 51 -75 61 -56 14 -412 23 -507 13z"/>
 <path d="M755 2990 c-38 -4 -113 -16 -165 -28 -99 -22 -125 -40 -116 -77 3 -11 10 -119 16 -239 6 -121 16 -228 21 -238 12 -23 19 -23 115 3 107 29 459 39 544 15 85 -23 83 -28 76 268 -7 277 -7 277 -75 296 -39 11 -304 11 -416 0z"/>
 <path d="M760 2394 c-94 -8 -222 -46 -254 -75 -25 -22 -29 -30 -18 -40 9 -10 19 -10 45 -1 100 36 218 53 393 59 171 6 186 5 252 -17 81 -27 113 -23 90 12 -29 44 -107 61 -293 63 -93 1 -190 1 -215 -1z"/>
 <path d="M806 2299 c-104 -13 -225 -44 -256 -68 -34 -25 -35 -54 -11 -245 11 -89 25 -216 32 -284 7 -67 17 -126 24 -132 29 -24 621 -14 652 11 14 12 15 44 9 269 -9 296 -17 376 -44 402 -42 42 -249 66 -406 47z"/>
 <path d="M695 1518 c-9 -24 -1 -188 10 -191 14 -3 19 183 6 196 -7 7 -12 5 -16 -5z"/>
 <path d="M795 1520 c-3 -5 0 -13 8 -16 23 -9 112 0 110 11 -4 14 -110 19 -118 5z"/>
 <path d="M1115 1477 c-9 -22 -2 -62 10 -60 6 1 11 14 13 29 4 32 -14 56 -23 31z"/>
 <path d="M1116 1362 c-4 -7 -9 -157 -6 -187 0 -5 7 -1 15 9 10 14 15 45 15 97 0 70 -10 104 -24 81z"/>
 <path d="M705 1227 c-9 -22 -2 -62 10 -60 6 1 11 14 13 29 4 32 -14 56 -23 31z"/>
 <path d="M885 1180 c-3 -5 0 -13 8 -16 23 -8 127 0 130 11 3 14 -129 19 -138 5z"/>
 <path d="M765 1170 c-8 -12 20 -24 35 -15 6 3 8 11 5 16 -8 12 -32 12 -40 -1z"/>
 <path d="M795 1121 c-36 -5 -41 -10 -56 -51 -15 -38 -17 -83 -16 -295 2 -303 12 -349 89 -421 25 -24 50 -54 54 -66 18 -60 160 -137 288 -158 138 -22 298 20 403 106 32 26 43 43 43 63 0 15 5 32 11 38 6 6 14 43 17 81 4 64 2 74 -29 132 -45 84 -80 109 -171 122 -40 5 -88 12 -106 14 -43 7 -103 61 -140 127 -24 43 -31 73 -41 167 -7 63 -14 122 -15 130 -1 13 -25 15 -146 16 -80 1 -163 -1 -185 -5z m176 -122 c73 -73 81 -273 13 -330 -7 -6 -30 -11 -50 -12 -103 -3 -159 187 -91 308 16 28 31 42 52 46 49 11 54 10 76 -12z"/>
 <path d="M634 899 c-2 -4 0 -10 6 -14 5 -3 10 -3 11 2 1 4 4 -2 7 -15 9 -31 27 -28 27 5 0 20 -5 27 -23 28 -13 1 -25 -2 -28 -6z"/>
 <path d="M590 865 c-7 -8 -10 -15 -6 -15 4 0 -1 -11 -10 -25 -9 -14 -13 -25 -9 -25 4 0 2 -6 -4 -14 -8 -10 -9 -16 -1 -21 5 -3 11 -4 11 -1 1 3 2 9 3 14 1 4 7 17 14 30 7 12 10 22 6 22 -4 0 1 9 10 19 10 11 13 22 8 25 -5 3 -15 -1 -22 -9z"/>
 <path d="M1305 800 c-8 -12 6 -18 35 -15 14 1 30 -2 37 -7 7 -5 17 -7 23 -3 14 9 1 28 -15 21 -7 -2 -16 -2 -19 1 -10 10 -55 12 -61 3z"/>
 <path d="M1262 787 c-9 -11 -7 -18 11 -34 40 -37 66 -45 116 -38 59 9 63 12 50 36 -10 19 -12 19 -28 5 -30 -27 -126 -11 -126 21 0 19 -12 24 -23 10z"/>
 <path d="M557 683 c-4 -3 -2 -12 4 -20 6 -7 8 -13 5 -13 -4 0 -2 -9 4 -20 6 -11 15 -18 21 -15 5 4 4 15 -3 28 -7 12 -12 25 -13 29 0 11 -11 18 -18 11z"/>
 <path d="M667 614 c-4 -4 -7 -16 -7 -26 0 -20 -11 -23 -27 -7 -7 7 -13 7 -17 1 -8 -13 30 -41 52 -38 10 2 18 14 20 31 4 28 -9 51 -21 39z"/>
 </g>

</svg>