<!DOCTYPE svg PUBLIC "-//W3C//DTD SVG 20010904//EN" "http://www.w3.org/TR/2001/REC-SVG-20010904/DTD/svg10.dtd">
<svg version="1.0" xmlns="http://www.w3.org/2000/svg" width="190px" height="804px" viewBox="0 0 1900 8040" preserveAspectRatio="xMidYMid meet">
<g id="layer1" fill="#8699a2" stroke="none">
 <path d="M985 7307 c-38 -38 -55 -102 -55 -204 0 -55 6 -80 39 -152 21 -47 41 -94 45 -104 14 -42 41 -12 84 93 41 102 42 107 37 190 -8 114 -29 176 -65 195 -40 21 -48 19 -85 -18z"/>
 <path d="M990 2671 c-64 -34 -228 -66 -375 -73 l-50 -3 -3 -41 c-4 -61 10 -69 142 -71 115 -2 224 15 276 42 39 20 83 19 128 -4 89 -45 346 -65 387 -31 18 15 12 85 -9 107 -6 7 -60 17 -121 23 -123 12 -178 23 -247 51 -58 23 -83 23 -128 0z"/>
 <path d="M338 2501 l-33 -30 30 -31 c44 -47 173 -128 319 -201 85 -42 148 -81 184 -114 l55 -50 131 -6 c80 -4 139 -2 151 4 11 5 43 31 70 57 36 33 74 56 131 78 166 64 253 112 321 177 36 35 63 69 61 76 -2 7 -15 21 -29 31 -21 16 -30 17 -55 7 -156 -61 -400 -62 -568 -2 l-68 25 -52 -22 c-28 -11 -95 -28 -148 -36 -122 -18 -243 -6 -364 37 -45 16 -87 29 -93 29 -6 0 -25 -13 -43 -29z"/>
 <path d="M772 1801 c-15 -47 -15 -51 -2 -51 10 0 19 17 34 68 5 16 3 22 -7 22 -7 0 -19 -17 -25 -39z"/>
 <path d="M699 938 c-20 -37 -5 -228 26 -333 52 -175 116 -244 260 -278 80 -19 117 -16 186 19 66 33 104 75 143 157 45 94 60 184 53 315 -6 109 -16 135 -51 130 -20 -3 -21 -9 -21 -153 -1 -171 -13 -218 -81 -300 -54 -66 -102 -89 -179 -83 -111 9 -177 65 -226 191 -26 69 -31 97 -36 206 -4 98 -9 129 -21 139 -23 18 -40 15 -53 -10z"/>
 </g>
<g id="layer2" fill="#11194f" stroke="none">
 <path d="M950 7274 c0 -17 22 -14 28 4 2 7 -3 12 -12 12 -9 0 -16 -7 -16 -16z"/>
 <path d="M1120 7065 c0 -8 7 -15 15 -15 8 0 15 7 15 15 0 8 -7 15 -15 15 -8 0 -15 -7 -15 -15z"/>
 <path d="M1100 7000 c0 -5 7 -10 15 -10 8 0 15 5 15 10 0 6 -7 10 -15 10 -8 0 -15 -4 -15 -10z"/>
 <path d="M920 6940 c0 -5 5 -10 10 -10 6 0 10 5 10 10 0 6 -4 10 -10 10 -5 0 -10 -4 -10 -10z"/>
 <path d="M1041 4654 c0 -11 3 -14 6 -6 3 7 2 16 -1 19 -3 4 -6 -2 -5 -13z"/>
 <path d="M700 4590 c0 -5 7 -10 15 -10 8 0 15 5 15 10 0 6 -7 10 -15 10 -8 0 -15 -4 -15 -10z"/>
 <path d="M1030 4398 c0 -59 13 -92 24 -63 3 9 6 39 6 66 0 37 -4 49 -15 49 -11 0 -15 -12 -15 -52z"/>
 <path d="M1030 3970 c0 -5 7 -10 15 -10 8 0 15 5 15 10 0 6 -7 10 -15 10 -8 0 -15 -4 -15 -10z"/>
 <path d="M1030 3845 c0 -42 3 -55 15 -55 12 0 15 13 15 55 0 42 -3 55 -15 55 -12 0 -15 -13 -15 -55z"/>
 <path d="M620 3720 c0 -5 7 -10 15 -10 8 0 15 5 15 10 0 6 -7 10 -15 10 -8 0 -15 -4 -15 -10z"/>
 <path d="M1030 3030 c0 -47 3 -60 15 -60 12 0 15 13 15 60 0 47 -3 60 -15 60 -12 0 -15 -13 -15 -60z"/>
 <path d="M560 3000 c0 -5 7 -10 15 -10 8 0 15 5 15 10 0 6 -7 10 -15 10 -8 0 -15 -4 -15 -10z"/>
 <path d="M500 2990 c0 -5 7 -10 15 -10 8 0 15 5 15 10 0 6 -7 10 -15 10 -8 0 -15 -4 -15 -10z"/>
 <path d="M490 2845 c0 -8 7 -15 15 -15 8 0 15 7 15 15 0 8 -7 15 -15 15 -8 0 -15 -7 -15 -15z"/>
 <path d="M480 2710 c0 -38 4 -50 15 -50 11 0 15 12 15 50 0 38 -4 50 -15 50 -11 0 -15 -12 -15 -50z"/>
 <path d="M497 2568 c-7 -49 -3 -56 18 -38 19 16 20 54 1 69 -11 9 -14 3 -19 -31z"/>
 <path d="M325 2559 c-4 -6 -5 -12 -2 -15 7 -7 37 7 37 17 0 13 -27 11 -35 -2z"/>
 <path d="M1530 2560 c0 -5 7 -10 15 -10 8 0 15 5 15 10 0 6 -7 10 -15 10 -8 0 -15 -4 -15 -10z"/>
 <path d="M402 2518 c6 -18 28 -21 28 -4 0 9 -7 16 -16 16 -9 0 -14 -5 -12 -12z"/>
 <path d="M1550 2515 c0 -8 5 -15 10 -15 6 0 10 7 10 15 0 8 -4 15 -10 15 -5 0 -10 -7 -10 -15z"/>
 <path d="M1740 2520 c0 -5 7 -10 15 -10 8 0 15 5 15 10 0 6 -7 10 -15 10 -8 0 -15 -4 -15 -10z"/>
 <path d="M270 2510 c0 -5 5 -10 10 -10 6 0 10 5 10 10 0 6 -4 10 -10 10 -5 0 -10 -4 -10 -10z"/>
 <path d="M1710 2496 c0 -15 37 -32 48 -22 6 6 -27 35 -40 36 -5 0 -8 -6 -8 -14z"/>
 <path d="M307 2483 c-12 -11 -8 -23 8 -23 8 0 15 7 15 15 0 16 -12 20 -23 8z"/>
 <path d="M1140 2475 c0 -8 5 -15 10 -15 6 0 10 7 10 15 0 8 -4 15 -10 15 -5 0 -10 -7 -10 -15z"/>
 <path d="M1410 2445 c0 -8 5 -15 10 -15 6 0 10 7 10 15 0 8 -4 15 -10 15 -5 0 -10 -7 -10 -15z"/>
 <path d="M270 2440 c0 -5 5 -10 10 -10 6 0 10 5 10 10 0 6 -4 10 -10 10 -5 0 -10 -4 -10 -10z"/>
 <path d="M340 2432 c0 -14 39 -46 47 -39 3 4 -2 16 -12 27 -19 21 -35 26 -35 12z"/>
 <path d="M1705 2410 c-10 -11 -15 -23 -12 -27 8 -7 47 25 47 39 0 14 -16 9 -35 -12z"/>
 <path d="M1715 2360 c-10 -11 -15 -23 -12 -27 8 -7 47 25 47 39 0 14 -16 9 -35 -12z"/>
 <path d="M370 2351 c0 -13 50 -44 58 -36 4 4 -4 15 -17 26 -25 20 -41 24 -41 10z"/>
 <path d="M1640 2345 c0 -8 5 -15 10 -15 6 0 10 7 10 15 0 8 -4 15 -10 15 -5 0 -10 -7 -10 -15z"/>
 <path d="M500 2312 c0 -9 44 -32 60 -32 19 0 10 17 -15 28 -31 14 -45 15 -45 4z"/>
 <path d="M1560 2295 c0 -8 5 -15 10 -15 6 0 10 7 10 15 0 8 -4 15 -10 15 -5 0 -10 -7 -10 -15z"/>
 <path d="M460 2290 c0 -5 7 -10 15 -10 8 0 15 5 15 10 0 6 -7 10 -15 10 -8 0 -15 -4 -15 -10z"/>
 <path d="M1620 2290 c-8 -5 -12 -12 -8 -15 9 -9 48 4 48 16 0 12 -21 11 -40 -1z"/>
 <path d="M510 2261 c0 -12 39 -25 48 -16 7 7 -17 25 -35 25 -7 0 -13 -4 -13 -9z"/>
 <path d="M1480 2255 c0 -17 2 -18 24 -9 23 9 20 24 -4 24 -11 0 -20 -7 -20 -15z"/>
 <path d="M680 2226 c0 -9 7 -16 16 -16 17 0 14 22 -4 28 -7 2 -12 -3 -12 -12z"/>
 <path d="M1498 2228 c-30 -10 -38 -28 -13 -28 20 0 65 22 65 32 0 10 -17 9 -52 -4z"/>
 <path d="M1350 2205 c0 -8 5 -15 10 -15 6 0 10 7 10 15 0 8 -4 15 -10 15 -5 0 -10 -7 -10 -15z"/>
 <path d="M700 2170 c0 -5 5 -10 10 -10 6 0 10 5 10 10 0 6 -4 10 -10 10 -5 0 -10 -4 -10 -10z"/>
 <path d="M820 2045 c0 -16 6 -25 15 -25 9 0 15 9 15 25 0 16 -6 25 -15 25 -9 0 -15 -9 -15 -25z"/>
 <path d="M1220 2050 c0 -5 7 -10 15 -10 8 0 15 5 15 10 0 6 -7 10 -15 10 -8 0 -15 -4 -15 -10z"/>
 <path d="M930 2042 l-45 -7 -11 -65 c-6 -36 -15 -81 -21 -100 -64 -205 -67 -466 -9 -664 26 -88 37 -236 17 -236 -4 0 -20 -11 -35 -25 -24 -23 -26 -29 -26 -115 0 -120 23 -207 74 -284 56 -84 101 -108 184 -103 52 4 71 10 100 34 84 68 116 165 110 333 -3 93 -4 98 -35 134 -31 34 -33 42 -33 110 0 44 10 113 25 174 50 202 55 367 15 542 -10 47 -26 123 -35 170 -8 46 -19 88 -24 93 -11 11 -192 17 -251 9z"/>
 <path d="M810 1969 c0 -24 23 -21 28 4 2 10 -3 17 -12 17 -10 0 -16 -9 -16 -21z"/>
 <path d="M1250 1845 c0 -8 7 -15 15 -15 8 0 15 7 15 15 0 8 -7 15 -15 15 -8 0 -15 -7 -15 -15z"/>
 <path d="M1280 1715 c0 -8 7 -15 15 -15 8 0 15 7 15 15 0 8 -7 15 -15 15 -8 0 -15 -7 -15 -15z"/>
 <path d="M1290 1630 c0 -5 7 -10 15 -10 8 0 15 5 15 10 0 6 -7 10 -15 10 -8 0 -15 -4 -15 -10z"/>
 <path d="M740 1595 c0 -8 7 -15 15 -15 8 0 15 7 15 15 0 8 -7 15 -15 15 -8 0 -15 -7 -15 -15z"/>
 <path d="M740 1430 c0 -5 7 -10 15 -10 8 0 15 5 15 10 0 6 -7 10 -15 10 -8 0 -15 -4 -15 -10z"/>
 <path d="M1290 1405 c0 -8 7 -15 15 -15 8 0 15 7 15 15 0 8 -7 15 -15 15 -8 0 -15 -7 -15 -15z"/>
 <path d="M750 1360 c0 -11 7 -20 15 -20 8 0 15 9 15 20 0 11 -7 20 -15 20 -8 0 -15 -9 -15 -20z"/>
 <path d="M1277 1273 c-4 -3 -7 -11 -7 -17 0 -6 5 -5 12 2 6 6 9 14 7 17 -3 3 -9 2 -12 -2z"/>
 <path d="M810 1100 c0 -5 7 -10 15 -10 8 0 15 5 15 10 0 6 -7 10 -15 10 -8 0 -15 -4 -15 -10z"/>
 <path d="M820 1055 c0 -8 7 -15 15 -15 8 0 15 7 15 15 0 8 -7 15 -15 15 -8 0 -15 -7 -15 -15z"/>
 <path d="M1210 1043 c1 -19 27 -60 34 -52 2 2 1 19 -1 37 -5 33 -33 46 -33 15z"/>
 <path d="M684 992 c-15 -9 -37 -52 -31 -59 3 -2 10 5 17 16 12 24 40 28 40 6 0 -8 5 -15 10 -15 11 0 12 6 4 38 -6 22 -20 28 -40 14z"/>
 <path d="M1270 985 c0 -8 7 -15 15 -15 8 0 15 7 15 15 0 8 -7 15 -15 15 -8 0 -15 -7 -15 -15z"/>
 <path d="M1380 941 c0 -12 6 -21 15 -21 8 0 15 4 15 9 0 5 -7 14 -15 21 -13 10 -15 9 -15 -9z"/>
 <path d="M1280 930 c0 -5 7 -10 15 -10 8 0 15 5 15 10 0 6 -7 10 -15 10 -8 0 -15 -4 -15 -10z"/>
 <path d="M1280 880 c0 -5 7 -10 15 -10 8 0 15 5 15 10 0 6 -7 10 -15 10 -8 0 -15 -4 -15 -10z"/>
 <path d="M1390 850 c0 -11 7 -20 15 -20 8 0 15 9 15 20 0 11 -7 20 -15 20 -8 0 -15 -9 -15 -20z"/>
 <path d="M640 805 c0 -8 7 -15 15 -15 8 0 15 7 15 15 0 8 -7 15 -15 15 -8 0 -15 -7 -15 -15z"/>
 <path d="M1290 800 c0 -5 7 -10 15 -10 8 0 15 5 15 10 0 6 -7 10 -15 10 -8 0 -15 -4 -15 -10z"/>
 <path d="M750 790 c0 -5 7 -10 15 -10 8 0 15 5 15 10 0 6 -7 10 -15 10 -8 0 -15 -4 -15 -10z"/>
 <path d="M1390 730 c0 -29 4 -40 15 -40 11 0 15 11 15 40 0 29 -4 40 -15 40 -11 0 -15 -11 -15 -40z"/>
 <path d="M1380 630 c0 -11 7 -20 15 -20 8 0 15 9 15 20 0 11 -7 20 -15 20 -8 0 -15 -9 -15 -20z"/>
 <path d="M1255 569 c-9 -29 4 -38 21 -15 18 25 18 36 0 36 -8 0 -18 -9 -21 -21z"/>
 <path d="M1365 553 c-10 -53 -49 -127 -90 -167 -38 -39 -42 -46 -22 -46 17 0 104 111 122 154 23 57 28 96 12 96 -9 0 -17 -14 -22 -37z"/>
 <path d="M800 570 c0 -5 7 -10 15 -10 8 0 15 5 15 10 0 6 -7 10 -15 10 -8 0 -15 -4 -15 -10z"/>
 <path d="M690 550 c0 -5 7 -10 15 -10 8 0 15 5 15 10 0 6 -7 10 -15 10 -8 0 -15 -4 -15 -10z"/>
 <path d="M742 533 c2 -5 12 -25 21 -45 10 -21 22 -38 27 -38 15 0 12 26 -5 40 -8 7 -15 21 -15 31 0 11 -7 19 -16 19 -9 0 -14 -3 -12 -7z"/>
 <path d="M730 475 c0 -12 35 -75 42 -75 12 0 10 5 -13 44 -19 33 -29 43 -29 31z"/>
 <path d="M1180 460 c0 -5 5 -10 10 -10 6 0 10 5 10 10 0 6 -4 10 -10 10 -5 0 -10 -4 -10 -10z"/>
 <path d="M932 428 c6 -18 28 -21 28 -4 0 9 -7 16 -16 16 -9 0 -14 -5 -12 -12z"/>
 <path d="M1130 424 c0 -17 22 -14 28 4 2 7 -3 12 -12 12 -9 0 -16 -7 -16 -16z"/>
 <path d="M1030 405 c0 -8 7 -15 15 -15 8 0 15 7 15 15 0 8 -7 15 -15 15 -8 0 -15 -7 -15 -15z"/>
 <path d="M1123 343 c-20 -8 -15 -23 7 -23 11 0 20 7 20 15 0 15 -6 17 -27 8z"/>
 <path d="M840 332 c0 -12 49 -37 57 -29 8 8 -26 36 -44 37 -7 0 -13 -4 -13 -8z"/>
 <path d="M1196 325 c-11 -8 -34 -18 -53 -21 -30 -6 -49 -34 -22 -34 24 0 109 44 109 56 0 18 -10 17 -34 -1z"/>
 <path d="M920 295 c0 -8 5 -15 10 -15 6 0 10 7 10 15 0 8 -4 15 -10 15 -5 0 -10 -7 -10 -15z"/>
 <path d="M990 285 c0 -8 7 -15 15 -15 8 0 15 7 15 15 0 8 -7 15 -15 15 -8 0 -15 -7 -15 -15z"/>
 </g>
<g id="layer3" fill="#473957" stroke="none">
 <path d="M993 7326 c-33 -29 -26 -45 10 -21 16 10 34 14 51 9 34 -8 35 13 0 26 -33 13 -28 14 -61 -14z"/>
 <path d="M1094 7264 c3 -9 6 -20 6 -25 0 -5 7 -9 16 -9 11 0 14 5 10 16 -3 9 -6 20 -6 25 0 5 -7 9 -16 9 -11 0 -14 -5 -10 -16z"/>
 <path d="M940 7250 c0 -5 7 -10 15 -10 8 0 15 5 15 10 0 6 -7 10 -15 10 -8 0 -15 -4 -15 -10z"/>
 <path d="M930 7205 c0 -8 7 -15 15 -15 8 0 15 7 15 15 0 8 -7 15 -15 15 -8 0 -15 -7 -15 -15z"/>
 <path d="M1110 7155 c0 -8 7 -15 15 -15 8 0 15 7 15 15 0 8 -7 15 -15 15 -8 0 -15 -7 -15 -15z"/>
 <path d="M920 7100 c0 -38 4 -50 15 -50 11 0 15 12 15 50 0 38 -4 50 -15 50 -11 0 -15 -12 -15 -50z"/>
 <path d="M1110 7030 c0 -5 7 -10 15 -10 8 0 15 5 15 10 0 6 -7 10 -15 10 -8 0 -15 -4 -15 -10z"/>
 <path d="M930 7023 c0 -5 10 -19 21 -33 15 -18 19 -20 15 -7 -3 10 -6 25 -6 33 0 8 -7 14 -15 14 -8 0 -15 -3 -15 -7z"/>
 <path d="M1071 6920 c-13 -38 -27 -70 -31 -70 -4 0 -15 20 -24 45 -10 25 -24 45 -32 45 -18 0 -18 0 12 -65 15 -30 32 -55 38 -55 7 0 26 28 43 63 41 81 48 107 30 107 -8 0 -23 -28 -36 -70z"/>
 <path d="M917 6933 c-6 -9 -33 -281 -42 -413 -3 -47 -12 -159 -20 -250 -8 -91 -19 -221 -25 -290 -11 -130 -50 -569 -75 -865 -9 -93 -22 -233 -29 -310 -8 -77 -17 -178 -21 -225 -3 -47 -13 -137 -21 -200 -7 -63 -23 -236 -34 -385 -11 -148 -22 -276 -25 -285 -2 -8 -9 -91 -15 -185 -6 -93 -17 -228 -25 -300 -7 -71 -16 -175 -20 -230 -3 -55 -11 -153 -16 -218 -9 -91 -8 -121 1 -132 18 -22 174 -19 280 4 94 22 188 60 210 86 12 15 14 298 12 1994 l-3 1976 -52 118 c-46 105 -66 133 -80 110z"/>
 <path d="M982 2675 c-30 -14 -60 -25 -68 -25 -8 0 -14 -7 -14 -15 0 -21 17 -19 78 10 65 30 80 31 140 6 38 -16 135 -41 157 -41 3 0 5 7 5 16 0 9 -7 14 -17 13 -10 -1 -25 0 -33 3 -164 60 -186 63 -248 33z"/>
 <path d="M838 2633 c-10 -2 -18 -11 -18 -20 0 -11 6 -14 23 -9 12 3 25 6 30 6 4 0 7 7 7 15 0 15 -9 17 -42 8z"/>
 <path d="M1330 2615 c0 -9 9 -15 25 -15 16 0 25 6 25 15 0 9 -9 15 -25 15 -16 0 -25 -6 -25 -15z"/>
 <path d="M760 2605 c0 -8 7 -15 15 -15 8 0 15 7 15 15 0 8 -7 15 -15 15 -8 0 -15 -7 -15 -15z"/>
 <path d="M1440 2606 c0 -11 9 -16 26 -16 31 0 28 23 -4 28 -15 2 -22 -2 -22 -12z"/>
 <path d="M580 2595 c0 -8 -7 -15 -15 -15 -10 0 -15 -10 -15 -30 0 -20 5 -30 15 -30 10 0 15 10 15 30 0 23 4 30 20 30 11 0 20 7 20 15 0 8 -9 15 -20 15 -11 0 -20 -7 -20 -15z"/>
 <path d="M660 2595 c0 -9 9 -15 25 -15 16 0 25 6 25 15 0 9 -9 15 -25 15 -16 0 -25 -6 -25 -15z"/>
 <path d="M1480 2560 c0 -5 7 -10 15 -10 8 0 15 5 15 10 0 6 -7 10 -15 10 -8 0 -15 -4 -15 -10z"/>
 <path d="M983 2548 c-25 -12 -31 -28 -10 -28 29 0 57 13 57 26 0 16 -16 17 -47 2z"/>
 <path d="M1060 2547 c0 -7 15 -21 33 -30 19 -10 23 -15 10 -11 -16 4 -23 1 -23 -9 0 -8 10 -17 22 -20 26 -7 25 -8 33 23 5 22 1 28 -30 43 -43 20 -45 21 -45 4z"/>
 <path d="M350 2520 c-14 -10 -22 -21 -19 -24 9 -9 69 18 69 31 0 18 -21 16 -50 -7z"/>
 <path d="M958 2501 c-45 -15 -78 -32 -78 -40 0 -9 8 -11 28 -7 58 14 142 52 142 63 0 16 1 16 -92 -16z"/>
 <path d="M430 2508 c0 -9 27 -23 68 -36 79 -25 92 -27 92 -9 0 7 -29 20 -67 31 -38 10 -74 20 -80 23 -7 2 -13 -2 -13 -9z"/>
 <path d="M880 2505 c0 -8 7 -15 15 -15 8 0 15 7 15 15 0 8 -7 15 -15 15 -8 0 -15 -7 -15 -15z"/>
 <path d="M1160 2505 c0 -8 7 -15 15 -15 8 0 15 7 15 15 0 8 -7 15 -15 15 -8 0 -15 -7 -15 -15z"/>
 <path d="M600 2495 c0 -8 7 -15 15 -15 8 0 15 7 15 15 0 8 -7 15 -15 15 -8 0 -15 -7 -15 -15z"/>
 <path d="M830 2495 c0 -8 7 -15 15 -15 8 0 15 7 15 15 0 8 -7 15 -15 15 -8 0 -15 -7 -15 -15z"/>
 <path d="M1210 2495 c0 -8 7 -15 15 -15 8 0 15 7 15 15 0 8 -7 15 -15 15 -8 0 -15 -7 -15 -15z"/>
 <path d="M1643 2498 c-18 -6 -33 -17 -33 -24 0 -17 5 -17 47 -2 18 7 33 18 33 25 0 15 -3 15 -47 1z"/>
 <path d="M670 2485 c0 -10 10 -15 30 -15 20 0 30 5 30 15 0 10 -10 15 -30 15 -20 0 -30 -5 -30 -15z"/>
 <path d="M1270 2485 c0 -8 7 -15 15 -15 8 0 15 7 15 15 0 8 -7 15 -15 15 -8 0 -15 -7 -15 -15z"/>
 <path d="M1450 2485 c0 -8 7 -15 15 -15 8 0 15 7 15 15 0 8 -7 15 -15 15 -8 0 -15 -7 -15 -15z"/>
 <path d="M1330 2475 c0 -8 -7 -15 -15 -15 -8 0 -15 -7 -15 -15 0 -8 9 -15 20 -15 11 0 20 7 20 15 0 10 11 15 35 15 24 0 35 5 35 15 0 11 -11 15 -40 15 -29 0 -40 -4 -40 -15z"/>
 <path d="M1170 2465 c0 -8 7 -15 15 -15 8 0 15 7 15 15 0 8 -7 15 -15 15 -8 0 -15 -7 -15 -15z"/>
 <path d="M1570 2465 c0 -8 5 -15 10 -15 6 0 10 7 10 15 0 8 -4 15 -10 15 -5 0 -10 -7 -10 -15z"/>
 <path d="M1740 2460 c0 -13 5 -20 13 -17 6 2 12 10 12 17 0 7 -6 15 -12 18 -8 2 -13 -5 -13 -18z"/>
 <path d="M610 2455 c0 -9 9 -15 25 -15 16 0 25 6 25 15 0 9 -9 15 -25 15 -16 0 -25 -6 -25 -15z"/>
 <path d="M810 2455 c0 -8 9 -15 20 -15 11 0 20 7 20 15 0 8 -9 15 -20 15 -11 0 -20 -7 -20 -15z"/>
 <path d="M1230 2455 c0 -8 7 -15 15 -15 8 0 15 7 15 15 0 8 -7 15 -15 15 -8 0 -15 -7 -15 -15z"/>
 <path d="M1520 2455 c0 -8 7 -15 15 -15 8 0 15 7 15 15 0 8 -7 15 -15 15 -8 0 -15 -7 -15 -15z"/>
 <path d="M320 2450 c0 -5 5 -10 10 -10 6 0 10 5 10 10 0 6 -4 10 -10 10 -5 0 -10 -4 -10 -10z"/>
 <path d="M700 2445 c0 -10 11 -15 35 -15 24 0 35 5 35 15 0 10 -11 15 -35 15 -24 0 -35 -5 -35 -15z"/>
 <path d="M1430 2445 c0 -8 9 -15 20 -15 11 0 20 7 20 15 0 8 -9 15 -20 15 -11 0 -20 -7 -20 -15z"/>
 <path d="M390 2391 c0 -13 111 -83 206 -130 90 -45 94 -46 94 -28 0 6 -37 29 -83 51 -45 21 -108 56 -141 77 -59 39 -76 46 -76 30z"/>
 <path d="M1663 2375 c-15 -16 -17 -35 -5 -35 10 0 42 33 42 43 0 12 -25 7 -37 -8z"/>
 <path d="M1598 2326 c-17 -12 -25 -36 -13 -36 12 0 55 33 55 41 0 13 -22 10 -42 -5z"/>
 <path d="M1500 2280 c-19 -11 -56 -26 -82 -35 -29 -10 -48 -23 -48 -31 0 -19 18 -14 118 32 39 18 72 38 72 44 0 15 -21 12 -60 -10z"/>
 <path d="M710 2211 c0 -8 102 -71 115 -71 19 0 -2 25 -42 50 -47 30 -73 38 -73 21z"/>
 <path d="M1298 2194 c-27 -14 -38 -34 -20 -34 17 0 72 32 72 41 0 13 -21 10 -52 -7z"/>
 <path d="M860 2101 c0 -9 31 -31 44 -31 3 0 6 7 6 15 0 8 -4 15 -9 15 -5 0 -16 3 -25 6 -9 3 -16 1 -16 -5z"/>
 <path d="M1090 2075 c0 -8 7 -15 15 -15 8 0 15 7 15 15 0 8 -7 15 -15 15 -8 0 -15 -7 -15 -15z"/>
 <path d="M1160 2074 c0 -17 22 -14 28 4 2 7 -3 12 -12 12 -9 0 -16 -7 -16 -16z"/>
 <path d="M790 1840 c0 -5 7 -10 15 -10 8 0 15 5 15 10 0 6 -7 10 -15 10 -8 0 -15 -4 -15 -10z"/>
 <path d="M755 1749 c-4 -6 -4 -13 -1 -16 8 -8 36 5 36 17 0 13 -27 13 -35 -1z"/>
 <path d="M690 940 c0 -5 7 -10 15 -10 8 0 15 5 15 10 0 6 -7 10 -15 10 -8 0 -15 -4 -15 -10z"/>
 <path d="M750 910 c0 -5 7 -10 15 -10 8 0 15 5 15 10 0 6 -7 10 -15 10 -8 0 -15 -4 -15 -10z"/>
 <path d="M1280 900 c0 -5 7 -10 15 -10 8 0 15 5 15 10 0 6 -7 10 -15 10 -8 0 -15 -4 -15 -10z"/>
 <path d="M1340 895 c0 -8 7 -15 15 -15 8 0 15 7 15 15 0 8 -7 15 -15 15 -8 0 -15 -7 -15 -15z"/>
 <path d="M1290 825 c0 -8 7 -15 15 -15 8 0 15 7 15 15 0 8 -7 15 -15 15 -8 0 -15 -7 -15 -15z"/>
 <path d="M750 765 c0 -8 7 -15 15 -15 8 0 15 7 15 15 0 8 -7 15 -15 15 -8 0 -15 -7 -15 -15z"/>
 <path d="M690 735 c0 -8 7 -15 15 -15 8 0 15 7 15 15 0 8 -7 15 -15 15 -8 0 -15 -7 -15 -15z"/>
 <path d="M1290 700 c0 -5 7 -10 15 -10 8 0 15 5 15 10 0 6 -7 10 -15 10 -8 0 -15 -4 -15 -10z"/>
 <path d="M760 680 c0 -5 7 -10 15 -10 8 0 15 5 15 10 0 6 -7 10 -15 10 -8 0 -15 -4 -15 -10z"/>
 <path d="M700 670 c0 -5 7 -10 15 -10 8 0 15 5 15 10 0 6 -7 10 -15 10 -8 0 -15 -4 -15 -10z"/>
 <path d="M1340 655 c0 -8 7 -15 15 -15 8 0 15 7 15 15 0 8 -7 15 -15 15 -8 0 -15 -7 -15 -15z"/>
 <path d="M1280 640 c0 -5 7 -10 15 -10 8 0 15 5 15 10 0 6 -7 10 -15 10 -8 0 -15 -4 -15 -10z"/>
 <path d="M714 624 c3 -9 6 -20 6 -25 0 -5 7 -9 16 -9 11 0 14 5 10 16 -3 9 -6 20 -6 25 0 5 -7 9 -16 9 -11 0 -14 -5 -10 -16z"/>
 <path d="M1330 600 c0 -5 7 -10 15 -10 8 0 15 5 15 10 0 6 -7 10 -15 10 -8 0 -15 -4 -15 -10z"/>
 <path d="M730 560 c0 -5 7 -10 15 -10 8 0 15 5 15 10 0 6 -7 10 -15 10 -8 0 -15 -4 -15 -10z"/>
 <path d="M1323 559 c-7 -7 -13 -19 -13 -26 0 -7 -14 -35 -31 -63 -17 -28 -28 -54 -24 -58 9 -9 54 47 62 78 3 14 10 30 15 37 5 7 8 19 6 28 -2 13 -5 14 -15 4z"/>
 <path d="M820 541 c0 -5 5 -13 10 -16 6 -3 10 -2 10 4 0 5 -4 13 -10 16 -5 3 -10 2 -10 -4z"/>
 <path d="M1240 530 c0 -5 5 -10 10 -10 6 0 10 5 10 10 0 6 -4 10 -10 10 -5 0 -10 -4 -10 -10z"/>
 <path d="M1200 480 c0 -5 5 -10 10 -10 6 0 10 5 10 10 0 6 -4 10 -10 10 -5 0 -10 -4 -10 -10z"/>
 <path d="M890 456 c0 -14 29 -31 38 -21 6 6 -18 35 -29 35 -5 0 -9 -6 -9 -14z"/>
 <path d="M1160 440 c0 -5 5 -10 10 -10 6 0 10 5 10 10 0 6 -4 10 -10 10 -5 0 -10 -4 -10 -10z"/>
 <path d="M800 430 c0 -5 5 -10 10 -10 6 0 10 5 10 10 0 6 -4 10 -10 10 -5 0 -10 -4 -10 -10z"/>
 <path d="M960 415 c0 -8 5 -15 10 -15 6 0 10 7 10 15 0 8 -4 15 -10 15 -5 0 -10 -7 -10 -15z"/>
 <path d="M1106 421 c-3 -5 -15 -7 -26 -4 -14 4 -20 0 -20 -12 0 -13 6 -16 23 -11 12 3 28 6 35 6 6 0 12 7 12 15 0 16 -16 20 -24 6z"/>
 <path d="M1000 405 c0 -8 7 -15 15 -15 8 0 15 7 15 15 0 8 -7 15 -15 15 -8 0 -15 -7 -15 -15z"/>
 <path d="M842 388 c6 -18 105 -66 151 -74 29 -5 37 -3 37 9 0 11 -17 19 -56 27 -31 7 -71 21 -88 31 -36 22 -49 24 -44 7z"/>
 <path d="M1188 376 c-34 -19 -51 -46 -29 -46 14 0 74 44 79 58 5 16 -6 14 -50 -12z"/>
 <path d="M1080 325 c0 -8 7 -15 15 -15 8 0 15 7 15 15 0 8 -7 15 -15 15 -8 0 -15 -7 -15 -15z"/>
 </g>
<g id="layer4" fill="#1b0e28" stroke="none">
 <path d="M948 7353 c-54 -56 -60 -98 -103 -718 -33 -484 -228 -2618 -301 -3310 -57 -534 -63 -644 -39 -754 7 -32 6 -33 -16 -26 -13 4 -36 14 -51 21 -15 8 -38 14 -51 14 -31 0 -137 -78 -137 -101 0 -20 63 -85 139 -143 31 -23 127 -78 214 -121 87 -44 174 -94 194 -112 33 -31 35 -36 29 -76 -4 -23 -11 -75 -16 -116 -6 -41 -14 -79 -19 -85 -16 -20 -40 -140 -46 -238 -8 -121 7 -242 52 -408 18 -69 33 -135 33 -147 0 -24 -8 -28 -95 -37 -53 -6 -80 -28 -91 -73 -11 -42 14 -236 42 -334 41 -142 95 -224 186 -278 50 -30 191 -48 255 -32 90 22 184 105 236 206 26 53 48 186 49 300 2 163 -17 205 -94 205 -83 0 -97 20 -75 102 8 29 22 82 31 118 9 36 21 81 26 100 27 100 20 396 -12 479 -19 51 -49 236 -43 267 7 40 82 94 165 118 30 9 101 39 157 67 81 41 115 65 167 119 57 58 66 73 66 104 0 30 -6 40 -32 56 -51 31 -78 35 -143 18 -33 -9 -62 -14 -65 -12 -2 3 -3 33 -2 67 1 34 -79 1038 -178 2230 -212 2555 -206 2505 -297 2543 -54 23 -105 18 -135 -13z m127 -49 c27 -29 31 -45 44 -163 9 -78 7 -90 -16 -155 -34 -94 -63 -150 -72 -140 -4 5 -15 29 -25 54 -10 25 -28 63 -40 85 -17 33 -21 56 -20 130 2 111 16 168 51 194 34 27 49 26 78 -5z m-92 -494 l46 -105 3 -1855 c2 -1020 2 -1913 -2 -1985 l-5 -130 -68 -28 c-90 -37 -197 -57 -309 -57 l-91 0 6 68 c4 37 11 135 17 217 5 83 17 211 25 285 8 74 19 212 25 305 6 94 15 199 20 235 5 36 14 142 20 235 6 94 19 249 30 345 11 96 26 254 35 350 44 482 57 618 80 890 13 162 27 315 30 338 4 24 10 101 15 170 5 70 15 210 24 312 9 102 21 241 26 310 12 135 21 213 25 208 1 -2 23 -50 48 -108z m117 -4145 c46 -24 185 -53 287 -61 l93 -7 6 -32 c11 -61 5 -69 -62 -78 -75 -10 -273 22 -336 54 l-39 20 -82 -27 c-82 -27 -173 -38 -295 -35 -83 1 -104 13 -100 54 3 29 6 32 33 31 100 -4 299 35 385 75 54 25 72 26 110 6z m-610 -180 c159 -55 319 -57 469 -5 55 19 89 26 100 20 36 -19 121 -41 214 -55 113 -17 232 -8 339 25 76 24 111 25 128 5 10 -12 8 -21 -14 -49 -56 -74 -159 -136 -327 -199 -98 -37 -140 -61 -184 -106 l-39 -41 -146 6 c-142 6 -145 7 -171 34 -35 38 -92 73 -234 143 -129 64 -244 138 -285 182 l-25 27 29 25 c32 27 33 27 146 -12z m680 -475 c4 -7 13 -47 20 -89 6 -42 20 -112 31 -156 39 -167 34 -336 -16 -537 -15 -61 -25 -130 -25 -174 0 -68 2 -76 33 -110 l32 -37 0 -136 c0 -129 -1 -139 -28 -194 -38 -76 -80 -107 -155 -114 -78 -7 -128 18 -172 87 -47 73 -70 165 -70 277 l0 92 35 27 c34 26 35 28 35 99 0 49 -9 102 -26 161 -59 202 -55 450 11 674 8 25 16 66 20 92 6 45 7 47 43 51 71 9 224 0 232 -13z m-426 -1079 c11 -12 15 -27 11 -44 -4 -14 -2 -74 4 -133 10 -97 16 -118 54 -193 43 -86 56 -98 142 -141 53 -26 134 -26 184 -1 120 62 195 238 171 407 -13 100 -13 104 9 104 28 0 31 -18 28 -180 -3 -131 -6 -152 -31 -217 -52 -135 -140 -203 -263 -203 -71 0 -158 28 -203 67 -41 34 -78 99 -107 191 -20 62 -26 105 -30 220 -6 145 -2 160 31 123z"/>
 </g>

</svg>