<!DOCTYPE svg PUBLIC "-//W3C//DTD SVG 20010904//EN" "http://www.w3.org/TR/2001/REC-SVG-20010904/DTD/svg10.dtd">
<svg version="1.0" xmlns="http://www.w3.org/2000/svg" width="235px" height="882px" viewBox="0 0 2350 8820" preserveAspectRatio="xMidYMid meet">
<g id="layer1" fill="#050a12" stroke="none">
 <path d="M1072 8484 c-24 -26 -60 -80 -80 -122 l-35 -75 -8 -201 c-4 -110 -7 -945 -7 -1853 1 -909 -1 -1655 -4 -1659 -4 -3 -15 -1 -25 5 -26 13 -97 -29 -118 -69 -44 -85 22 -210 111 -210 l34 0 0 -397 c1 -219 3 -457 6 -530 l6 -132 -26 -6 c-14 -3 -38 -8 -53 -11 -14 -3 -41 -20 -60 -39 -31 -31 -33 -37 -33 -103 0 -55 4 -75 21 -96 29 -37 76 -59 110 -52 l29 6 0 -232 0 -231 -308 7 c-316 6 -354 3 -394 -32 -21 -18 -24 -104 -5 -140 l12 -24 336 0 c185 0 342 -3 347 -7 7 -4 12 -207 14 -621 3 -608 3 -615 24 -650 38 -61 54 -140 54 -259 0 -74 -5 -123 -14 -146 -8 -19 -18 -56 -22 -82 -3 -26 -24 -99 -45 -162 l-39 -114 19 -41 c27 -60 49 -75 142 -93 94 -17 250 -13 275 8 8 7 27 32 41 57 26 44 26 45 10 91 -10 25 -17 56 -17 69 0 13 -7 37 -16 53 -16 33 -56 200 -48 208 2 2 -3 12 -12 22 -11 12 -17 46 -21 111 -6 102 7 193 34 242 17 28 18 84 23 661 l5 630 40 7 c22 4 185 7 362 7 l322 1 19 25 c25 32 37 97 23 123 -19 36 -65 42 -295 42 -122 0 -272 3 -334 7 l-112 6 0 218 c1 120 5 221 9 223 4 3 6 54 4 113 -2 59 -5 137 -6 173 -2 36 -7 72 -12 80 -18 27 -11 4089 7 4698 3 89 1 165 -3 168 -5 3 -9 19 -9 37 0 53 -41 170 -75 212 -61 76 -115 125 -137 125 -12 0 -40 -19 -66 -46z m111 -70 c20 -27 50 -74 65 -104 l27 -55 -4 -1070 c-3 -906 -5 -1903 -4 -2720 0 -104 1 -365 1 -580 0 -214 1 -616 3 -892 1 -277 -1 -506 -5 -510 -8 -9 -223 -6 -237 3 -5 3 -9 74 -9 157 0 167 -14 327 -31 358 -8 17 -16 19 -42 13 -36 -9 -76 -9 -84 0 -3 3 -8 27 -10 53 -8 92 42 130 99 76 l29 -28 19 25 c25 33 27 82 18 560 -9 457 -19 632 -38 655 -9 11 -22 14 -40 10 -65 -14 -112 44 -89 112 6 18 16 34 22 34 29 3 53 -4 77 -23 l25 -20 23 27 23 28 -7 1636 c-4 900 -8 1742 -8 1871 -1 234 -1 235 26 292 36 77 87 150 101 145 7 -2 29 -26 50 -53z m142 -6010 c671 -6 716 -9 699 -36 -6 -10 -1188 -11 -1508 -1 -200 5 -226 8 -224 22 4 21 89 30 233 25 61 -2 421 -7 800 -10z"/>
 <path d="M867 4473 c-11 -11 -8 -48 5 -61 17 -17 35 -15 59 9 20 20 20 22 3 40 -17 19 -54 26 -67 12z"/>
 <path d="M868 3095 c-10 -22 -9 -29 10 -48 l22 -21 27 27 c22 22 26 31 17 45 -6 9 -23 18 -37 20 -21 3 -30 -3 -39 -23z"/>
 </g>
<g id="layer2" fill="#2a3352" stroke="none">
 <path d="M1090 8453 c-35 -42 -102 -175 -99 -195 1 -7 -1 -21 -5 -30 -10 -22 0 -51 15 -43 5 4 9 17 8 28 -2 25 2 36 42 125 34 75 66 122 82 122 18 0 132 -178 129 -199 -2 -11 2 -22 8 -26 13 -8 24 20 14 37 -5 7 -9 19 -10 26 -3 18 -79 134 -109 166 -13 14 -28 26 -34 26 -5 0 -24 -17 -41 -37z"/>
 <path d="M1276 8163 c-3 -3 -6 -105 -6 -225 0 -190 -2 -218 -15 -218 -24 0 -63 47 -96 117 -25 53 -33 62 -45 52 -8 -6 -14 -18 -14 -26 0 -22 -51 -113 -64 -115 -6 0 -18 -1 -26 -2 -13 -1 -15 -178 -12 -1546 l4 -1545 121 -3 c67 -2 128 -5 135 -7 7 -3 14 -3 17 -2 2 1 7 529 10 1172 3 644 8 1434 10 1757 3 323 1 589 -4 592 -4 3 -11 3 -15 -1z"/>
 <path d="M985 8148 c-9 -23 -2 -83 10 -83 14 0 19 75 6 88 -7 7 -12 5 -16 -5z"/>
 <path d="M985 7938 c-9 -24 -1 -143 10 -143 13 0 19 135 6 148 -7 7 -12 5 -16 -5z"/>
 <path d="M994 4616 c-8 -21 3 -49 16 -41 5 3 10 15 10 25 0 25 -18 36 -26 16z"/>
 <path d="M1275 4548 c-10 -25 -1 -173 10 -171 13 4 19 163 6 176 -7 7 -12 5 -16 -5z"/>
 <path d="M862 4525 c-33 -24 -46 -76 -29 -118 13 -30 30 -49 47 -53 3 0 13 -4 22 -8 22 -10 52 0 43 15 -4 5 -17 9 -30 7 -22 -3 -55 17 -55 34 0 5 9 4 21 -3 17 -9 25 -7 43 10 13 12 23 28 23 37 0 22 -42 47 -67 39 -27 -8 -26 9 2 27 12 8 17 17 11 21 -5 3 -19 0 -31 -8z m63 -85 c2 -10 -6 -17 -21 -18 -18 -1 -24 3 -24 19 0 15 5 20 22 17 11 -2 22 -10 23 -18z"/>
 <path d="M916 4522 c-7 -12 26 -42 52 -47 24 -4 57 28 47 46 -6 8 -13 5 -24 -10 l-17 -22 -26 21 c-15 11 -29 16 -32 12z"/>
 <path d="M968 4364 c-9 -8 7 -59 18 -59 15 0 16 41 1 53 -8 7 -16 9 -19 6z"/>
 <path d="M1264 4306 c-8 -21 3 -49 16 -41 5 3 10 15 10 25 0 25 -18 36 -26 16z"/>
 <path d="M988 4244 c-4 -8 2 -326 15 -832 4 -156 9 -194 23 -158 5 14 24 16 125 16 l119 0 0 -205 0 -205 -124 0 c-79 0 -127 4 -132 11 -3 6 -9 7 -13 2 -11 -13 3 -391 14 -402 6 -6 63 -12 127 -13 95 -2 120 0 133 12 13 14 15 71 17 410 3 386 -10 1303 -17 1328 -3 9 -38 12 -131 12 -106 0 -129 3 -139 17 -7 9 -14 12 -17 7z"/>
 <path d="M859 3164 c-12 -13 -19 -24 -14 -24 5 0 4 -5 -3 -12 -15 -15 -16 -84 -2 -93 6 -4 8 -10 5 -15 -3 -4 2 -13 10 -20 8 -7 15 -9 15 -5 0 4 7 2 15 -5 8 -6 19 -9 25 -5 14 9 1 28 -15 21 -7 -2 -20 3 -29 13 -17 18 -11 35 8 24 23 -15 48 -9 67 15 17 22 18 28 6 46 -17 24 -52 32 -72 16 -7 -6 -16 -7 -19 -2 -5 9 14 31 42 46 8 5 27 -5 49 -24 l36 -32 20 21 c15 15 18 24 11 31 -8 8 -15 6 -24 -5 -12 -14 -15 -13 -36 6 -33 31 -67 32 -95 3z m71 -78 c0 -23 -28 -40 -43 -27 -8 6 -17 8 -20 4 -4 -3 -7 1 -7 11 0 9 4 15 9 11 5 -3 12 -1 16 5 9 15 45 12 45 -4z"/>
 <path d="M947 3019 c-9 -6 -15 -15 -12 -20 4 -5 11 -7 16 -3 15 9 37 -15 32 -35 -3 -10 0 -22 6 -26 16 -9 26 22 12 39 -6 7 -8 16 -4 19 6 7 -15 37 -26 37 -3 0 -14 -5 -24 -11z"/>
 <path d="M352 2433 c-55 -3 -64 -7 -74 -29 -9 -20 -8 -28 5 -41 15 -16 91 -17 881 -21 860 -4 864 -4 875 16 8 16 7 24 -7 40 -17 20 -31 21 -707 26 -379 3 -739 7 -800 10 -60 2 -138 2 -173 -1z"/>
 </g>
<g id="layer3" fill="#efcd6e" stroke="none">
 <path d="M1095 8448 c-38 -45 -93 -162 -104 -223 -5 -27 -7 -147 -5 -265 3 -170 7 -217 18 -229 23 -22 59 7 93 76 l28 58 24 -48 c32 -67 84 -119 113 -115 l23 3 3 240 c4 326 4 326 -72 438 -35 51 -70 93 -78 95 -9 2 -28 -12 -43 -30z"/>
 <path d="M1001 4667 c-5 -5 -7 -44 -4 -88 5 -68 4 -79 -11 -85 -11 -4 -29 2 -46 15 -16 11 -38 21 -48 21 -56 0 -78 -106 -33 -154 20 -21 34 -26 73 -26 l48 0 0 -49 c0 -27 4 -61 10 -75 l10 -26 134 0 c90 0 137 4 142 11 4 7 9 104 11 218 4 163 2 209 -9 223 -11 13 -36 17 -141 20 -70 2 -132 -1 -136 -5z m-87 -203 c20 -8 20 -28 0 -44 -12 -11 -18 -10 -31 3 -9 8 -13 23 -10 31 7 17 16 19 41 10z"/>
 <path d="M1010 3264 c-6 -14 -10 -47 -10 -74 0 -27 -4 -51 -9 -55 -6 -3 -26 8 -45 25 -34 30 -36 31 -64 16 -36 -19 -42 -33 -42 -100 0 -65 22 -91 72 -84 18 3 40 8 49 12 18 8 29 -27 29 -93 0 -69 8 -72 160 -69 l135 3 3 209 c2 145 -1 213 -9 222 -9 11 -42 14 -135 14 -124 0 -125 0 -134 -26z m-77 -166 c7 -21 -12 -48 -33 -48 -16 0 -20 7 -20 30 0 25 4 30 24 30 13 0 26 -6 29 -12z"/>
 </g>

</svg>