<!DOCTYPE svg PUBLIC "-//W3C//DTD SVG 20010904//EN" "http://www.w3.org/TR/2001/REC-SVG-20010904/DTD/svg10.dtd">
<svg version="1.0" xmlns="http://www.w3.org/2000/svg" width="831px" height="855px" viewBox="0 0 8310 8550" preserveAspectRatio="xMidYMid meet">
<g id="layer1" fill="#c1d4ed" stroke="none">
 <path d="M0 6263 l0 -2288 48 -19 c71 -30 144 -108 167 -181 18 -55 20 -90 20 -415 1 -401 -3 -374 89 -610 64 -163 71 -190 96 -400 28 -226 48 -275 109 -255 28 9 35 38 33 139 -4 234 40 321 215 427 114 69 159 124 209 255 24 65 26 77 21 189 -4 90 -15 156 -41 265 -20 80 -38 155 -41 168 -5 22 -5 22 111 22 l117 0 -6 53 c-4 28 -9 158 -13 287 l-6 235 61 60 c78 76 100 121 108 224 l6 81 -77 0 -76 0 0 88 c0 99 20 191 53 239 12 18 59 61 105 95 46 35 92 77 102 94 40 64 55 305 70 1094 10 594 22 747 86 1130 19 118 37 216 39 218 8 9 87 14 118 8 41 -8 83 -46 90 -82 2 -13 0 -66 -5 -117 -15 -153 19 -449 65 -559 20 -49 53 -53 153 -22 133 43 221 28 277 -48 55 -74 69 -325 41 -764 -21 -339 -23 -736 -5 -879 18 -139 51 -263 101 -375 23 -52 43 -104 45 -115 1 -11 10 -45 19 -75 46 -162 66 -394 54 -622 -4 -73 -9 -142 -12 -153 -4 -17 1 -24 31 -34 20 -7 59 -36 88 -65 56 -54 79 -108 105 -251 13 -73 29 -364 30 -535 0 -214 25 -369 77 -477 21 -45 29 -53 52 -53 32 0 72 33 96 79 26 52 44 155 50 301 3 74 8 146 11 159 5 24 6 23 28 -10 35 -52 96 -90 297 -188 200 -97 251 -133 291 -207 68 -128 118 -466 118 -804 0 -255 -14 -442 -80 -1065 -11 -104 -23 -261 -27 -347 l-6 -158 145 0 145 0 7 51 c11 79 53 202 85 246 69 95 143 95 425 -2 284 -98 364 -98 414 2 49 96 52 195 16 470 -42 314 -33 483 29 541 13 12 46 26 78 32 68 12 93 39 110 117 16 73 16 292 0 398 -7 44 -31 181 -53 305 -59 331 -64 592 -12 691 24 48 80 80 220 130 75 26 153 59 173 72 79 52 100 163 76 403 -9 94 -12 179 -7 208 l7 49 63 17 c42 12 75 28 97 50 l32 31 81 -11 c154 -23 190 12 251 236 15 57 51 89 129 115 83 27 95 37 121 102 48 120 63 205 68 395 l6 183 27 14 c55 28 119 130 155 245 27 86 30 350 10 770 -18 369 -15 605 6 671 19 59 40 69 140 69 141 0 134 -21 149 430 14 415 33 518 108 592 78 77 180 74 273 -10 54 -49 87 -104 116 -197 23 -77 23 -324 0 -600 -34 -404 -31 -599 13 -782 26 -112 40 -137 119 -213 81 -78 98 -116 147 -335 51 -232 74 -284 148 -334 72 -50 142 -64 280 -58 67 3 140 11 164 18 l42 11 0 1161 0 1160 -62 -6 c-35 -3 -91 -18 -125 -32 -170 -69 -214 -11 -392 520 -118 353 -186 510 -257 594 l-26 31 -954 0 c-826 0 -954 -2 -954 -14 0 -8 9 -61 19 -118 28 -152 30 -169 19 -220 -16 -78 -77 -136 -216 -205 -74 -37 -132 -74 -162 -103 -75 -73 -223 -308 -335 -532 -64 -127 -106 -201 -109 -190 -2 9 -7 35 -11 57 -15 88 -53 126 -154 154 -40 11 -84 27 -97 35 -35 23 -70 168 -94 391 -20 186 -52 249 -113 226 -58 -22 -73 -72 -92 -303 -20 -253 -45 -346 -111 -411 -35 -36 -59 -41 -128 -28 -79 14 -110 5 -169 -49 -50 -46 -98 -118 -200 -295 -96 -167 -153 -210 -282 -210 -121 0 -171 22 -223 99 -81 119 -136 254 -166 403 -9 43 -34 230 -56 416 -48 403 -72 565 -111 751 -16 77 -29 141 -29 143 0 1 -223 3 -496 3 l-495 0 19 -27 c31 -45 42 -91 42 -173 0 -120 -36 -200 -90 -200 -54 0 -90 80 -90 200 0 82 11 128 42 173 l19 27 -835 0 -836 0 0 -2287z m1161 1686 c78 -78 149 -374 179 -744 13 -167 13 -633 0 -800 -25 -303 -74 -547 -136 -673 -61 -125 -114 -125 -177 -2 -95 189 -147 571 -147 1075 0 485 50 871 139 1061 35 74 62 104 96 104 14 0 34 -9 46 -21z m4860 -1718 c61 -65 92 -200 77 -343 -14 -142 -77 -248 -148 -248 -44 0 -102 60 -125 129 -35 106 -35 267 1 373 22 68 80 128 124 128 26 0 42 -9 71 -39z m-1543 -655 c45 -49 89 -130 137 -251 l31 -80 82 -3 82 -3 1 -107 c1 -143 9 -196 32 -200 22 -5 58 74 95 210 30 109 42 119 85 68 31 -36 36 -70 46 -318 6 -150 11 -196 23 -210 56 -63 89 -198 89 -367 0 -325 -127 -506 -224 -320 l-16 30 -1 -57 c0 -80 -26 -270 -49 -359 -23 -88 -91 -229 -137 -281 -70 -79 -86 -136 -134 -473 -43 -305 -58 -365 -87 -365 -33 0 -56 88 -112 435 -36 221 -68 361 -88 380 -18 19 -50 19 -83 0 -40 -23 -68 -18 -83 13 -15 29 -56 186 -63 241 -2 19 -11 62 -20 95 -21 80 -19 284 3 380 28 128 79 206 133 206 26 0 27 2 39 83 27 192 33 368 27 732 l-7 370 30 61 c29 63 91 134 115 134 7 0 32 -20 54 -44z"/>
 <path d="M3263 8518 c-14 -27 -18 -57 -18 -153 0 -105 3 -125 22 -162 28 -51 57 -73 98 -73 41 0 70 22 98 73 19 37 22 57 22 162 0 96 -4 126 -18 153 l-18 32 -84 0 -84 0 -18 -32z"/>
 <path d="M3710 8528 c1 -46 30 -160 50 -197 28 -49 67 -71 123 -71 43 0 46 2 60 39 15 37 47 196 47 234 0 15 -13 17 -140 17 -139 0 -140 0 -140 -22z"/>
 <path d="M6924 2912 c-18 -11 -50 -82 -65 -142 -19 -75 -19 -422 0 -506 34 -156 111 -202 159 -97 41 93 47 130 47 343 0 215 -8 276 -48 355 -22 45 -33 55 -62 55 -11 0 -25 -4 -31 -8z"/>
 <path d="M1280 1403 c-73 -28 -189 -210 -275 -429 l-27 -71 -59 -6 c-301 -32 -716 -191 -885 -339 l-34 -30 0 -264 0 -264 1360 0 c1083 0 1358 3 1355 12 -2 7 -20 65 -40 128 -49 154 -158 373 -241 483 -111 147 -249 244 -404 283 -54 14 -91 15 -225 9 -88 -4 -184 -8 -212 -9 -77 -1 -90 16 -109 140 -40 274 -109 393 -204 357z"/>
 <path d="M5842 765 c-65 -29 -106 -172 -119 -424 l-8 -145 -29 -7 c-16 -5 -42 -21 -59 -36 -38 -36 -87 -112 -87 -135 0 -17 41 -18 952 -18 l951 0 -23 25 c-37 39 -121 74 -207 86 -96 14 -211 7 -448 -28 -375 -54 -497 -31 -590 110 -44 68 -69 146 -95 297 -30 181 -47 236 -82 265 -34 29 -102 33 -156 10z"/>
 <path d="M3300 25 l-23 -25 88 0 88 0 -23 25 c-18 19 -34 25 -65 25 -31 0 -47 -6 -65 -25z"/>
 </g>

</svg>